<svg xmlns="http://www.w3.org/2000/svg" xmlns:xlink="http://www.w3.org/1999/xlink" contentStyleType="text/css" data-diagram-type="DESCRIPTION" height="1321px" preserveAspectRatio="none" style="width:1077px;height:1321px;background:#FFFFFF;" version="1.1" viewBox="0 0 1077 1321" width="1077px" zoomAndPan="magnify"><?plantuml 1.2026.4beta2?><defs/><g><!--cluster Client--><g class="cluster" data-qualified-name="Client" data-source-line="12" id="ent0003"><polygon fill="#FFFFFF" points="16,155.09,26,145.09,244,145.09,244,246.69,234,256.69,16,256.69,16,155.09" style="stroke:#000000;stroke-width:1;"/><line style="stroke:#000000;stroke-width:1;" x1="234" x2="244" y1="155.09" y2="145.09"/><line style="stroke:#000000;stroke-width:1;" x1="16" x2="234" y1="155.09" y2="155.09"/><line style="stroke:#000000;stroke-width:1;" x1="234" x2="234" y1="155.09" y2="256.69"/><text fill="#000000" font-family="sans-serif" font-size="14" font-weight="700" lengthAdjust="spacing" textLength="93.8096" x="79.0952" y="171.0851">User Device</text></g><!--cluster Frontend--><g class="cluster" data-qualified-name="Frontend" data-source-line="16" id="ent0005"><polygon fill="#FFFFFF" points="30,323.69,40,313.69,250,313.69,250,447.28,240,457.28,30,457.28,30,323.69" style="stroke:#000000;stroke-width:1;"/><line style="stroke:#000000;stroke-width:1;" x1="240" x2="250" y1="323.69" y2="313.69"/><line style="stroke:#000000;stroke-width:1;" x1="30" x2="240" y1="323.69" y2="323.69"/><line style="stroke:#000000;stroke-width:1;" x1="240" x2="240" y1="323.69" y2="457.28"/><text fill="#000000" font-family="sans-serif" font-size="14" font-weight="700" lengthAdjust="spacing" textLength="129.1104" x="71.4448" y="339.6851">Frontend Server</text><text fill="#000000" font-family="sans-serif" font-size="14" font-weight="700" lengthAdjust="spacing" textLength="62.624" x="104.688" y="355.982">(Vercel)</text></g><!--cluster Backend--><g class="cluster" data-qualified-name="Backend" data-source-line="20" id="ent0007"><polygon fill="#FFFFFF" points="290,331.83,300,321.83,766,321.83,766,1286.21,756,1296.21,290,1296.21,290,331.83" style="stroke:#000000;stroke-width:1;"/><line style="stroke:#000000;stroke-width:1;" x1="756" x2="766" y1="331.83" y2="321.83"/><line style="stroke:#000000;stroke-width:1;" x1="290" x2="756" y1="331.83" y2="331.83"/><line style="stroke:#000000;stroke-width:1;" x1="756" x2="756" y1="331.83" y2="1296.21"/><text fill="#000000" font-family="sans-serif" font-size="14" font-weight="700" lengthAdjust="spacing" textLength="124.0928" x="461.9536" y="347.8251">Backend Server</text><text fill="#000000" font-family="sans-serif" font-size="14" font-weight="700" lengthAdjust="spacing" textLength="137.2451" x="455.3774" y="364.122">(Spring Boot API)</text></g><!--cluster controller--><g class="cluster" data-qualified-name="Backend.controller" data-source-line="25" id="ent0010"><path d="M462.5,643.73 L540.5957,643.73 A3.75,3.75 0 0 1 543.0957,646.23 L550.0957,666.0269 L595.5,666.0269 A2.5,2.5 0 0 1 598,668.5269 L598,731.52 A2.5,2.5 0 0 1 595.5,734.02 L462.5,734.02 A2.5,2.5 0 0 1 460,731.52 L460,646.23 A2.5,2.5 0 0 1 462.5,643.73" fill="none" style="stroke:#000000;stroke-width:1.5;"/><line style="stroke:#000000;stroke-width:1.5;" x1="460" x2="550.0957" y1="666.0269" y2="666.0269"/><text fill="#000000" font-family="sans-serif" font-size="14" font-weight="700" lengthAdjust="spacing" textLength="77.0957" x="464" y="658.7251">controller</text></g><!--cluster dto--><g class="cluster" data-qualified-name="Backend.dto" data-source-line="29" id="ent0012"><path d="M342.5,767.02 L369.832,767.02 A3.75,3.75 0 0 1 372.332,769.52 L379.332,789.3169 L487.5,789.3169 A2.5,2.5 0 0 1 490,791.8169 L490,854.82 A2.5,2.5 0 0 1 487.5,857.32 L342.5,857.32 A2.5,2.5 0 0 1 340,854.82 L340,769.52 A2.5,2.5 0 0 1 342.5,767.02" fill="none" style="stroke:#000000;stroke-width:1.5;"/><line style="stroke:#000000;stroke-width:1.5;" x1="340" x2="379.332" y1="789.3169" y2="789.3169"/><text fill="#000000" font-family="sans-serif" font-size="14" font-weight="700" lengthAdjust="spacing" textLength="26.332" x="344" y="782.0151">dto</text></g><!--cluster exception--><g class="cluster" data-qualified-name="Backend.exception" data-source-line="33" id="ent0014"><path d="M324.5,514.28 L402.917,514.28 A3.75,3.75 0 0 1 405.417,516.78 L412.417,536.5769 L549.5,536.5769 A2.5,2.5 0 0 1 552,539.0769 L552,602.08 A2.5,2.5 0 0 1 549.5,604.58 L324.5,604.58 A2.5,2.5 0 0 1 322,602.08 L322,516.78 A2.5,2.5 0 0 1 324.5,514.28" fill="none" style="stroke:#000000;stroke-width:1.5;"/><line style="stroke:#000000;stroke-width:1.5;" x1="322" x2="412.417" y1="536.5769" y2="536.5769"/><text fill="#000000" font-family="sans-serif" font-size="14" font-weight="700" lengthAdjust="spacing" textLength="77.417" x="326" y="529.2751">exception</text></g><!--cluster model--><g class="cluster" data-qualified-name="Backend.model" data-source-line="37" id="ent0016"><path d="M549.5,1173.91 L599.0215,1173.91 A3.75,3.75 0 0 1 601.5215,1176.41 L608.5215,1196.2069 L684.5,1196.2069 A2.5,2.5 0 0 1 687,1198.7069 L687,1261.71 A2.5,2.5 0 0 1 684.5,1264.21 L549.5,1264.21 A2.5,2.5 0 0 1 547,1261.71 L547,1176.41 A2.5,2.5 0 0 1 549.5,1173.91" fill="none" style="stroke:#000000;stroke-width:1.5;"/><line style="stroke:#000000;stroke-width:1.5;" x1="547" x2="608.5215" y1="1196.2069" y2="1196.2069"/><text fill="#000000" font-family="sans-serif" font-size="14" font-weight="700" lengthAdjust="spacing" textLength="48.5215" x="551" y="1188.9051">model</text></g><!--cluster repository--><g class="cluster" data-qualified-name="Backend.repository" data-source-line="41" id="ent0018"><path d="M513.5,1034.62 L596.0117,1034.62 A3.75,3.75 0 0 1 598.5117,1037.12 L605.5117,1056.9169 L720.5,1056.9169 A2.5,2.5 0 0 1 723,1059.4169 L723,1122.41 A2.5,2.5 0 0 1 720.5,1124.91 L513.5,1124.91 A2.5,2.5 0 0 1 511,1122.41 L511,1037.12 A2.5,2.5 0 0 1 513.5,1034.62" fill="none" style="stroke:#000000;stroke-width:1.5;"/><line style="stroke:#000000;stroke-width:1.5;" x1="511" x2="605.5117" y1="1056.9169" y2="1056.9169"/><text fill="#000000" font-family="sans-serif" font-size="14" font-weight="700" lengthAdjust="spacing" textLength="81.5117" x="515" y="1049.6151">repository</text></g><!--cluster service--><g class="cluster" data-qualified-name="Backend.service" data-source-line="45" id="ent0020"><path d="M516.5,767.02 L573.9512,767.02 A3.75,3.75 0 0 1 576.4512,769.52 L583.4512,789.3169 L699.5,789.3169 A2.5,2.5 0 0 1 702,791.8169 L702,854.82 A2.5,2.5 0 0 1 699.5,857.32 L516.5,857.32 A2.5,2.5 0 0 1 514,854.82 L514,769.52 A2.5,2.5 0 0 1 516.5,767.02" fill="none" style="stroke:#000000;stroke-width:1.5;"/><line style="stroke:#000000;stroke-width:1.5;" x1="514" x2="583.4512" y1="789.3169" y2="789.3169"/><text fill="#000000" font-family="sans-serif" font-size="14" font-weight="700" lengthAdjust="spacing" textLength="56.4512" x="518" y="782.0151">service</text></g><!--cluster service/impl--><g class="cluster" data-qualified-name="Backend.service.impl" data-source-line="49" id="ent0022"><path d="M492.5,890.32 L589.2715,890.32 A3.75,3.75 0 0 1 591.7715,892.82 L598.7715,912.6169 L723.5,912.6169 A2.5,2.5 0 0 1 726,915.1169 L726,978.12 A2.5,2.5 0 0 1 723.5,980.62 L492.5,980.62 A2.5,2.5 0 0 1 490,978.12 L490,892.82 A2.5,2.5 0 0 1 492.5,890.32" fill="none" style="stroke:#000000;stroke-width:1.5;"/><line style="stroke:#000000;stroke-width:1.5;" x1="490" x2="598.7715" y1="912.6169" y2="912.6169"/><text fill="#000000" font-family="sans-serif" font-size="14" font-weight="700" lengthAdjust="spacing" textLength="95.7715" x="494" y="905.3151">service/impl</text></g><!--cluster Gemini--><g class="cluster" data-qualified-name="Gemini" data-source-line="56" id="ent0025"><polygon fill="#FFFFFF" points="798,1039.62,808,1029.62,1052,1029.62,1052,1114.91,1042,1124.91,798,1124.91,798,1039.62" style="stroke:#000000;stroke-width:1;"/><line style="stroke:#000000;stroke-width:1;" x1="1042" x2="1052" y1="1039.62" y2="1029.62"/><line style="stroke:#000000;stroke-width:1;" x1="798" x2="1042" y1="1039.62" y2="1039.62"/><line style="stroke:#000000;stroke-width:1;" x1="1042" x2="1042" y1="1039.62" y2="1124.91"/><text fill="#000000" font-family="sans-serif" font-size="14" font-weight="700" lengthAdjust="spacing" textLength="178.1309" x="831.9346" y="1055.6151">Google Gemini Service</text></g><!--cluster GitHub--><g class="cluster" data-qualified-name="GitHub" data-source-line="60" id="ent0027"><polygon fill="#FFFFFF" points="292,163.24,302,153.24,512,153.24,512,238.54,502,248.54,292,248.54,292,163.24" style="stroke:#000000;stroke-width:1;"/><line style="stroke:#000000;stroke-width:1;" x1="502" x2="512" y1="163.24" y2="153.24"/><line style="stroke:#000000;stroke-width:1;" x1="292" x2="502" y1="163.24" y2="163.24"/><line style="stroke:#000000;stroke-width:1;" x1="502" x2="502" y1="163.24" y2="248.54"/><text fill="#000000" font-family="sans-serif" font-size="14" font-weight="700" lengthAdjust="spacing" textLength="144.9492" x="325.5254" y="179.2351">GitHub Repository</text></g><!--entity Browser--><g class="entity" data-qualified-name="Client.Browser" data-source-line="13" id="ent0004"><rect fill="#FFFFFF" height="55.5938" rx="2.5" ry="2.5" style="stroke:#000000;stroke-width:0.5;" width="195.7783" x="32.11" y="185.09"/><polygon fill="#FFFFFF" points="210.8883,190.09,210.8883,204.09,222.8883,204.09,222.8883,196.09,216.8883,190.09,210.8883,190.09" style="stroke:#000000;stroke-width:0.5;"/><line style="stroke:#000000;stroke-width:0.5;" x1="216.8883" x2="216.8883" y1="190.09" y2="196.09"/><line style="stroke:#000000;stroke-width:0.5;" x1="222.8883" x2="216.8883" y1="196.09" y2="196.09"/><text fill="#000000" font-family="sans-serif" font-size="14" lengthAdjust="spacing" textLength="92.832" x="42.11" y="211.0851">Web Browser</text><text fill="#000000" font-family="sans-serif" font-size="14" lengthAdjust="spacing" textLength="165.7783" x="42.11" y="227.382">Chrome / Firefox / Edge</text></g><!--entity ReactApp--><g class="entity" data-qualified-name="Frontend.ReactApp" data-source-line="17" id="ent0006"><rect fill="#FFFFFF" height="55.5938" rx="2.5" ry="2.5" style="stroke:#000000;stroke-width:0.5;" width="152.7803" x="53.61" y="377.69"/><polygon fill="#FFFFFF" points="189.3903,382.69,189.3903,396.69,201.3903,396.69,201.3903,388.69,195.3903,382.69,189.3903,382.69" style="stroke:#000000;stroke-width:0.5;"/><line style="stroke:#000000;stroke-width:0.5;" x1="195.3903" x2="195.3903" y1="382.69" y2="388.69"/><line style="stroke:#000000;stroke-width:0.5;" x1="201.3903" x2="195.3903" y1="388.69" y2="388.69"/><text fill="#000000" font-family="sans-serif" font-size="14" lengthAdjust="spacing" textLength="122.7803" x="63.61" y="403.6851">React Application</text><text fill="#000000" font-family="sans-serif" font-size="14" lengthAdjust="spacing" textLength="87.0557" x="63.61" y="419.982">Bootstrap UI</text></g><!--entity MainApp--><g class="entity" data-qualified-name="Backend.MainApp" data-source-line="22" id="ent0008"><rect fill="#FFFFFF" height="39.2969" rx="2.5" ry="2.5" style="stroke:#000000;stroke-width:0.5;" width="208.9375" x="513.53" y="385.83"/><polygon fill="#FFFFFF" points="705.4675,390.83,705.4675,404.83,717.4675,404.83,717.4675,396.83,711.4675,390.83,705.4675,390.83" style="stroke:#000000;stroke-width:0.5;"/><line style="stroke:#000000;stroke-width:0.5;" x1="711.4675" x2="711.4675" y1="390.83" y2="396.83"/><line style="stroke:#000000;stroke-width:0.5;" x1="717.4675" x2="711.4675" y1="396.83" y2="396.83"/><text fill="#000000" font-family="sans-serif" font-size="14" lengthAdjust="spacing" textLength="178.9375" x="523.53" y="411.8251">KidyraApiApplication.java</text></g><!--entity Tomcat--><g class="entity" data-qualified-name="Backend.Tomcat" data-source-line="23" id="ent0009"><rect fill="#FFFFFF" height="55.5938" rx="2.5" ry="2.5" style="stroke:#000000;stroke-width:0.5;" width="162.2275" x="571.89" y="541.13"/><polygon fill="#FFFFFF" points="717.1175,546.13,717.1175,560.13,729.1175,560.13,729.1175,552.13,723.1175,546.13,717.1175,546.13" style="stroke:#000000;stroke-width:0.5;"/><line style="stroke:#000000;stroke-width:0.5;" x1="723.1175" x2="723.1175" y1="546.13" y2="552.13"/><line style="stroke:#000000;stroke-width:0.5;" x1="729.1175" x2="723.1175" y1="552.13" y2="552.13"/><text fill="#000000" font-family="sans-serif" font-size="14" lengthAdjust="spacing" textLength="132.2275" x="581.89" y="567.1251">Embedded Tomcat</text><text fill="#000000" font-family="sans-serif" font-size="14" lengthAdjust="spacing" textLength="68.332" x="581.89" y="583.422">Port 8080</text></g><!--entity Controllers--><g class="entity" data-qualified-name="Backend.controller.Controllers" data-source-line="26" id="ent0011"><rect fill="#FFFFFF" height="39.2969" rx="2.5" ry="2.5" style="stroke:#000000;stroke-width:0.5;" width="106.4668" x="475.77" y="678.73"/><polygon fill="#FFFFFF" points="565.2368,683.73,565.2368,697.73,577.2368,697.73,577.2368,689.73,571.2368,683.73,565.2368,683.73" style="stroke:#000000;stroke-width:0.5;"/><line style="stroke:#000000;stroke-width:0.5;" x1="571.2368" x2="571.2368" y1="683.73" y2="689.73"/><line style="stroke:#000000;stroke-width:0.5;" x1="577.2368" x2="571.2368" y1="689.73" y2="689.73"/><text fill="#000000" font-family="sans-serif" font-size="14" lengthAdjust="spacing" textLength="76.4668" x="485.77" y="704.7251">Controllers</text></g><!--entity DTOs--><g class="entity" data-qualified-name="Backend.dto.DTOs" data-source-line="30" id="ent0013"><rect fill="#FFFFFF" height="39.2969" rx="2.5" ry="2.5" style="stroke:#000000;stroke-width:0.5;" width="117.541" x="356.23" y="802.02"/><polygon fill="#FFFFFF" points="456.771,807.02,456.771,821.02,468.771,821.02,468.771,813.02,462.771,807.02,456.771,807.02" style="stroke:#000000;stroke-width:0.5;"/><line style="stroke:#000000;stroke-width:0.5;" x1="462.771" x2="462.771" y1="807.02" y2="813.02"/><line style="stroke:#000000;stroke-width:0.5;" x1="468.771" x2="462.771" y1="813.02" y2="813.02"/><text fill="#000000" font-family="sans-serif" font-size="14" lengthAdjust="spacing" textLength="87.541" x="366.23" y="828.0151">DTO Classes</text></g><!--entity ExceptionHandler--><g class="entity" data-qualified-name="Backend.exception.ExceptionHandler" data-source-line="34" id="ent0015"><rect fill="#FFFFFF" height="39.2969" rx="2.5" ry="2.5" style="stroke:#000000;stroke-width:0.5;" width="198.9297" x="337.54" y="549.28"/><polygon fill="#FFFFFF" points="519.4697,554.28,519.4697,568.28,531.4697,568.28,531.4697,560.28,525.4697,554.28,519.4697,554.28" style="stroke:#000000;stroke-width:0.5;"/><line style="stroke:#000000;stroke-width:0.5;" x1="525.4697" x2="525.4697" y1="554.28" y2="560.28"/><line style="stroke:#000000;stroke-width:0.5;" x1="531.4697" x2="525.4697" y1="560.28" y2="560.28"/><text fill="#000000" font-family="sans-serif" font-size="14" lengthAdjust="spacing" textLength="168.9297" x="347.54" y="575.2751">GlobalExceptionHandler</text></g><!--entity Entities--><g class="entity" data-qualified-name="Backend.model.Entities" data-source-line="38" id="ent0017"><rect fill="#FFFFFF" height="39.2969" rx="2.5" ry="2.5" style="stroke:#000000;stroke-width:0.5;" width="108.9824" x="562.51" y="1208.91"/><polygon fill="#FFFFFF" points="654.4924,1213.91,654.4924,1227.91,666.4924,1227.91,666.4924,1219.91,660.4924,1213.91,654.4924,1213.91" style="stroke:#000000;stroke-width:0.5;"/><line style="stroke:#000000;stroke-width:0.5;" x1="660.4924" x2="660.4924" y1="1213.91" y2="1219.91"/><line style="stroke:#000000;stroke-width:0.5;" x1="666.4924" x2="660.4924" y1="1219.91" y2="1219.91"/><text fill="#000000" font-family="sans-serif" font-size="14" lengthAdjust="spacing" textLength="78.9824" x="572.51" y="1234.9051">JPA Entities</text></g><!--entity Repositories--><g class="entity" data-qualified-name="Backend.repository.Repositories" data-source-line="42" id="ent0019"><rect fill="#FFFFFF" height="39.2969" rx="2.5" ry="2.5" style="stroke:#000000;stroke-width:0.5;" width="179.4951" x="527.25" y="1069.62"/><polygon fill="#FFFFFF" points="689.7451,1074.62,689.7451,1088.62,701.7451,1088.62,701.7451,1080.62,695.7451,1074.62,689.7451,1074.62" style="stroke:#000000;stroke-width:0.5;"/><line style="stroke:#000000;stroke-width:0.5;" x1="695.7451" x2="695.7451" y1="1074.62" y2="1080.62"/><line style="stroke:#000000;stroke-width:0.5;" x1="701.7451" x2="695.7451" y1="1080.62" y2="1080.62"/><text fill="#000000" font-family="sans-serif" font-size="14" lengthAdjust="spacing" textLength="149.4951" x="537.25" y="1095.6151">Repository Interfaces</text></g><!--entity Services--><g class="entity" data-qualified-name="Backend.service.Services" data-source-line="46" id="ent0021"><rect fill="#FFFFFF" height="39.2969" rx="2.5" ry="2.5" style="stroke:#000000;stroke-width:0.5;" width="156.1641" x="529.92" y="802.02"/><polygon fill="#FFFFFF" points="669.0841,807.02,669.0841,821.02,681.0841,821.02,681.0841,813.02,675.0841,807.02,669.0841,807.02" style="stroke:#000000;stroke-width:0.5;"/><line style="stroke:#000000;stroke-width:0.5;" x1="675.0841" x2="675.0841" y1="807.02" y2="813.02"/><line style="stroke:#000000;stroke-width:0.5;" x1="681.0841" x2="675.0841" y1="813.02" y2="813.02"/><text fill="#000000" font-family="sans-serif" font-size="14" lengthAdjust="spacing" textLength="126.1641" x="539.92" y="828.0151">Service Interfaces</text></g><!--entity ServiceImpl--><g class="entity" data-qualified-name="Backend.service.impl.ServiceImpl" data-source-line="50" id="ent0023"><rect fill="#FFFFFF" height="39.2969" rx="2.5" ry="2.5" style="stroke:#000000;stroke-width:0.5;" width="204.6514" x="505.67" y="925.32"/><polygon fill="#FFFFFF" points="693.3214,930.32,693.3214,944.32,705.3214,944.32,705.3214,936.32,699.3214,930.32,693.3214,930.32" style="stroke:#000000;stroke-width:0.5;"/><line style="stroke:#000000;stroke-width:0.5;" x1="699.3214" x2="699.3214" y1="930.32" y2="936.32"/><line style="stroke:#000000;stroke-width:0.5;" x1="705.3214" x2="699.3214" y1="936.32" y2="936.32"/><text fill="#000000" font-family="sans-serif" font-size="14" lengthAdjust="spacing" textLength="174.6514" x="515.67" y="951.3151">Service Implementations</text></g><!--entity GeminiAPI--><g class="entity" data-qualified-name="Gemini.GeminiAPI" data-source-line="57" id="ent0026"><rect fill="#FFFFFF" height="39.2969" rx="2.5" ry="2.5" style="stroke:#000000;stroke-width:0.5;" width="106.3506" x="813.82" y="1069.62"/><polygon fill="#FFFFFF" points="903.1706,1074.62,903.1706,1088.62,915.1706,1088.62,915.1706,1080.62,909.1706,1074.62,903.1706,1074.62" style="stroke:#000000;stroke-width:0.5;"/><line style="stroke:#000000;stroke-width:0.5;" x1="909.1706" x2="909.1706" y1="1074.62" y2="1080.62"/><line style="stroke:#000000;stroke-width:0.5;" x1="915.1706" x2="909.1706" y1="1080.62" y2="1080.62"/><text fill="#000000" font-family="sans-serif" font-size="14" lengthAdjust="spacing" textLength="76.3506" x="823.82" y="1095.6151">Gemini API</text></g><!--entity Repo--><g class="entity" data-qualified-name="GitHub.Repo" data-source-line="61" id="ent0028"><rect fill="#FFFFFF" height="39.2969" rx="2.5" ry="2.5" style="stroke:#000000;stroke-width:0.5;" width="118.6826" x="319.66" y="193.24"/><polygon fill="#FFFFFF" points="421.3426,198.24,421.3426,212.24,433.3426,212.24,433.3426,204.24,427.3426,198.24,421.3426,198.24" style="stroke:#000000;stroke-width:0.5;"/><line style="stroke:#000000;stroke-width:0.5;" x1="427.3426" x2="427.3426" y1="198.24" y2="204.24"/><line style="stroke:#000000;stroke-width:0.5;" x1="433.3426" x2="427.3426" y1="204.24" y2="204.24"/><text fill="#000000" font-family="sans-serif" font-size="14" lengthAdjust="spacing" textLength="88.6826" x="329.66" y="219.2351">Source Code</text></g><!--entity User--><g class="entity" data-qualified-name="User" data-source-line="10" id="ent0002"><ellipse cx="129.9983" cy="14" fill="#F1F1F1" rx="8" ry="8" style="stroke:#181818;stroke-width:0.5;"/><path d="M129.9983,22 L129.9983,49 M116.9983,30 L142.9983,30 M129.9983,49 L116.9983,64 M129.9983,49 L142.9983,64" fill="none" style="stroke:#181818;stroke-width:0.5;"/><text fill="#000000" font-family="sans-serif" font-size="14" lengthAdjust="spacing" textLength="31.9102" x="48.76" y="78.4951">User</text><text fill="#000000" font-family="sans-serif" font-size="14" lengthAdjust="spacing" textLength="162.4766" x="48.76" y="94.792">Tutor / Educator / Child</text></g><!--entity DB--><g class="entity" data-qualified-name="DB" data-source-line="54" id="ent0024"><path d="M790.1,1215.91 C790.1,1205.91 877.0009,1205.91 877.0009,1205.91 C877.0009,1205.91 963.9018,1205.91 963.9018,1215.91 L963.9018,1241.2069 C963.9018,1251.2069 877.0009,1251.2069 877.0009,1251.2069 C877.0009,1251.2069 790.1,1251.2069 790.1,1241.2069 L790.1,1215.91" fill="#FFFFFF" style="stroke:#000000;stroke-width:0.5;"/><path d="M790.1,1215.91 C790.1,1225.91 877.0009,1225.91 877.0009,1225.91 C877.0009,1225.91 963.9018,1225.91 963.9018,1215.91" fill="none" style="stroke:#000000;stroke-width:0.5;"/><text fill="#000000" font-family="sans-serif" font-size="14" lengthAdjust="spacing" textLength="153.8018" x="800.1" y="1242.9051">Supabase PostgreSQL</text></g><!--link User to Browser--><g class="link" data-entity-1="ent0002" data-entity-2="ent0004" data-link-type="dependency" data-source-line="64" id="lnk29"><path d="M130,98.39 C130,126.3 130,155.08 130,178.73" fill="none" id="User-to-Browser" style="stroke:#181818;stroke-width:1;"/><polygon fill="#181818" points="130,184.73,134,175.73,130,179.73,126,175.73,130,184.73" style="stroke:#181818;stroke-width:1;"/></g><!--link Browser to ReactApp--><g class="link" data-entity-1="ent0004" data-entity-2="ent0006" data-link-type="dependency" data-source-line="65" id="lnk30"><path d="M130,240.79 C130,277.01 130,335.1 130,371.41" fill="none" id="Browser-to-ReactApp" style="stroke:#181818;stroke-width:1;"/><polygon fill="#181818" points="130,377.41,134,368.41,130,372.41,126,368.41,130,377.41" style="stroke:#181818;stroke-width:1;"/><text fill="#000000" font-family="sans-serif" font-size="13" lengthAdjust="spacing" textLength="41.7485" x="131" y="285.7569">HTTPS</text></g><!--link ReactApp to Tomcat--><g class="link" data-entity-1="ent0006" data-entity-2="ent0009" data-link-type="dependency" data-source-line="66" id="lnk31"><path d="M154.32,433.52 C168.94,447.91 188.8,464.42 210,473.28 C280.45,502.73 479.57,482.11 552,506.28 C575.38,514.08 594.0921,524.7262 612.6221,537.4362" fill="none" id="ReactApp-to-Tomcat" style="stroke:#181818;stroke-width:1;"/><polygon fill="#181818" points="617.57,540.83,612.4107,532.4406,613.4467,538.0018,607.8856,539.0378,617.57,540.83" style="stroke:#181818;stroke-width:1;"/><text fill="#000000" font-family="sans-serif" font-size="13" lengthAdjust="spacing" textLength="102.8257" x="509" y="494.3469">REST API / JSON</text></g><!--link MainApp to Tomcat--><g class="link" data-entity-1="ent0008" data-entity-2="ent0009" data-link-type="dependency" data-source-line="68" id="lnk32"><path d="M622.08,425.32 C628.27,453.85 638.7684,502.2963 645.8684,535.0363" fill="none" id="MainApp-to-Tomcat" style="stroke:#181818;stroke-width:1;"/><polygon fill="#181818" points="647.14,540.9,649.1417,531.2567,646.0803,536.0136,641.3235,532.9522,647.14,540.9" style="stroke:#181818;stroke-width:1;"/></g><!--link Tomcat to Controllers--><g class="link" data-entity-1="ent0009" data-entity-2="ent0011" data-link-type="dependency" data-source-line="70" id="lnk33"><path d="M626.7,596.96 C602.96,621.36 572.8045,652.36 551.7945,673.95" fill="none" id="Tomcat-to-Controllers" style="stroke:#181818;stroke-width:1;"/><polygon fill="#181818" points="547.61,678.25,556.7534,674.5897,551.0971,674.6667,551.0201,669.0103,547.61,678.25" style="stroke:#181818;stroke-width:1;"/></g><!--link Controllers to DTOs--><g class="link" data-entity-1="ent0011" data-entity-2="ent0013" data-link-type="dependency" data-source-line="71" id="lnk34"><path d="M511.19,718.33 C489.77,741.11 458.1588,774.7476 436.7988,797.4776" fill="none" id="Controllers-to-DTOs" style="stroke:#181818;stroke-width:1;"/><polygon fill="#181818" points="432.69,801.85,441.7681,798.0307,436.114,798.2064,435.9383,792.5522,432.69,801.85" style="stroke:#181818;stroke-width:1;"/></g><!--link Controllers to Services--><g class="link" data-entity-1="ent0011" data-entity-2="ent0021" data-link-type="dependency" data-source-line="72" id="lnk35"><path d="M541.34,718.33 C556.19,741.11 577.6661,774.0919 592.4661,796.8219" fill="none" id="Controllers-to-Services" style="stroke:#181818;stroke-width:1;"/><polygon fill="#181818" points="595.74,801.85,594.1812,792.1253,593.0118,797.6599,587.4771,796.4905,595.74,801.85" style="stroke:#181818;stroke-width:1;"/></g><!--link Services to ServiceImpl--><g class="link" data-entity-1="ent0021" data-entity-2="ent0023" data-link-type="dependency" data-source-line="73" id="lnk36"><path d="M608,841.62 C608,864.41 608,896.42 608,919.15" fill="none" id="Services-to-ServiceImpl" style="stroke:#181818;stroke-width:1;"/><polygon fill="#181818" points="608,925.15,612,916.15,608,920.15,604,916.15,608,925.15" style="stroke:#181818;stroke-width:1;"/></g><!--link ServiceImpl to Repositories--><g class="link" data-entity-1="ent0023" data-entity-2="ent0019" data-link-type="dependency" data-source-line="74" id="lnk37"><path d="M609.2,964.86 C610.92,992.08 613.7022,1036.0419 615.4222,1063.3019" fill="none" id="ServiceImpl-to-Repositories" style="stroke:#181818;stroke-width:1;"/><polygon fill="#181818" points="615.8,1069.29,619.2253,1060.056,615.4851,1064.2999,611.2412,1060.5597,615.8,1069.29" style="stroke:#181818;stroke-width:1;"/></g><!--link Repositories to Entities--><g class="link" data-entity-1="ent0019" data-entity-2="ent0017" data-link-type="dependency" data-source-line="75" id="lnk38"><path d="M617,1109.36 C617,1135.59 617,1176.49 617,1202.63" fill="none" id="Repositories-to-Entities" style="stroke:#181818;stroke-width:1;"/><polygon fill="#181818" points="617,1208.63,621,1199.63,617,1203.63,613,1199.63,617,1208.63" style="stroke:#181818;stroke-width:1;"/></g><!--link Repositories to DB--><g class="link" data-entity-1="ent0019" data-entity-2="ent0024" data-link-type="dependency" data-source-line="77" id="lnk39"><path d="M653.15,1109.36 C700.87,1134.55 779.4141,1176.0287 829.8341,1202.6487" fill="none" id="Repositories-to-DB" style="stroke:#181818;stroke-width:1;"/><polygon fill="#181818" points="835.14,1205.45,829.0487,1197.7107,830.7184,1203.1156,825.3136,1204.7853,835.14,1205.45" style="stroke:#181818;stroke-width:1;"/><text fill="#000000" font-family="sans-serif" font-size="13" lengthAdjust="spacing" textLength="110.957" x="740" y="1153.9769">JDBC PostgreSQL</text></g><!--link ServiceImpl to GeminiAPI--><g class="link" data-entity-1="ent0023" data-entity-2="ent0026" data-link-type="dependency" data-source-line="79" id="lnk40"><path d="M642.66,965.01 C692.28,992.27 777.7713,1039.241 827.2813,1066.441" fill="none" id="ServiceImpl-to-GeminiAPI" style="stroke:#181818;stroke-width:1;"/><polygon fill="#181818" points="832.54,1069.33,826.578,1061.4907,828.1578,1066.9225,822.726,1068.5022,832.54,1069.33" style="stroke:#181818;stroke-width:1;"/><text fill="#000000" font-family="sans-serif" font-size="13" lengthAdjust="spacing" textLength="80.1455" x="730" y="1009.6869">HTTPS POST</text></g><!--link ExceptionHandler to Controllers--><g class="link" data-entity-1="ent0015" data-entity-2="ent0011" data-link-type="dependency" data-source-line="81" id="lnk41"><path d="M450.77,589.01 C468.22,613.17 494.5791,649.6845 511.9191,673.7145" fill="none" id="ExceptionHandler-to-Controllers" style="stroke:#181818;stroke-width:1;stroke-dasharray:7,7;"/><polygon fill="#181818" points="515.43,678.58,513.4073,668.9411,512.5042,674.5254,506.9199,673.6224,515.43,678.58" style="stroke:#181818;stroke-width:1;"/></g><!--link Repo to Frontend--><g class="link" data-entity-1="ent0028" data-entity-2="ent0005" data-link-type="dependency" data-source-line="83" id="lnk42"><path d="M357.63,232.76 C340.2,248.87 315.66,273.25 298,297.69 C282.55,319.07 268.7425,345.275 258.7038,366.3763 C256.1941,371.6516 253.9199,376.6079 251.9146,381.0901 C251.4132,382.2106 250.9287,383.3016 250.4614,384.3604 C250.3446,384.6251 252.6443,379.3955 252.5296,379.6562" fill="none" id="Repo-to-Frontend" style="stroke:#181818;stroke-width:1;"/><polygon fill="#181818" points="250.1143,385.1485,257.3989,378.5202,252.1271,380.5716,250.0757,375.2997,250.1143,385.1485" style="stroke:#181818;stroke-width:1;"/><text fill="#000000" font-family="sans-serif" font-size="13" lengthAdjust="spacing" textLength="108.2529" x="319" y="285.7569">Frontend Deploy</text></g><!--link Repo to Backend--><g class="link" data-entity-1="ent0028" data-entity-2="ent0007" data-link-type="dependency" data-source-line="84" id="lnk43"><path d="M438.81,218.9 C533.17,228.14 710,251.31 750,297.69 C753.825,302.125 756.8298,307.0855 759.1585,312.3749 C760.3228,315.0197 761.318,317.7467 762.1622,320.5313 C762.2677,320.8794 760.7091,315.4631 760.8099,315.813" fill="none" id="Repo-to-Backend" style="stroke:#181818;stroke-width:1;"/><polygon fill="#181818" points="762.4717,321.5783,763.8226,311.8225,761.0869,316.7739,756.1355,314.0382,762.4717,321.5783" style="stroke:#181818;stroke-width:1;"/><text fill="#000000" font-family="sans-serif" font-size="13" lengthAdjust="spacing" textLength="105.7012" x="738" y="285.7569">Backend Deploy</text></g><?plantuml-src ZPHBKzim4CVl-XIQzD8UW1mP3ft9Ym1za6BJNhWerYQeo997Se0CmtTdzR3Y69VK5qkx__sjvTsLVH2gOeQLTCcAXxNH6yKdMcf3FvtxXzYaiFUCwoUXrdJ5f8MMHsaEuuFnNgKD1nCLG_-q59pLRCdiVx2IyaCUCxLOiQ8-p4lA7Xv1Esu7jnRCdSetRdD2PtnJiB2St0l91vHPwYI4k8C6EPt2eoZ0-oPIWAhf2w7uDFdeu0yiwTZe9m-Vt1jT0YBFXO6LVlPvrY4-YiXha-3SQ5M3uZG3y-YYF_y6Ku3yukN9sqru0-urgYefy012gpirrhgsjM4LlRtqmLw3abqozmltScMLSQtWGkbeSHcIDgeNqadwJV2jOQDAjF8U_sMFp8VzO4AvRFinit89d0EdkIunuaujjAdfwV1qw8E2DIHQQObbeuC2psoqb606yTpxo4dosr2JtTwhN_TnlDRzd6b-ZVLaraBWuBuN0Cy5LEwi_PYvr4icPuteWYdkFns9NMCVlSJAo7xorM94PweMjOXVs6pwE0OgRGNsyhOVTfFyz19xog0rKfFd7sJirz3_VTWiEBlCQFw8ToBAIXw0eW9A73ZVQdjavufmn3St2OPkgh1QQ5kl3MI_leVYZfiXc6kzba3dK0eb6fpNH5Dtrg8PvwEbmjrkhkQYljWiTpzo6uJ1siLbUeC3ZbtB8Vr-X_9NpT7HrtH7nBUtDRDCp-X5dYyoaWpE6wO8VJUpB7SVYbVELNRzav0ub2qL8L7jJEtHQQszpuz3rvZgsYpQLb-JrZf-UQkxsXllJHtztZKTuu6kfkD9gvJa7JvLe_apT76TvOHqHuyU7-yVroVqY7J9dksMKwYatkuqpPrubbP1yGO0?></g></svg>