<svg xmlns="http://www.w3.org/2000/svg" xmlns:xlink="http://www.w3.org/1999/xlink" version="1.1" data-diagram-type="DESCRIPTION" style="width:1298px;height:966px;background:#FFFFFF;" width="1298px" height="966px" viewBox="0 0 1298 966" zoomAndPan="magnify" preserveAspectRatio="none" contentStyleType="text/css"><?plantuml 1.2026.7beta3?><defs/><g><!--cluster Cliente (Navegador)--><g class="cluster" data-qualified-name="Cliente .Navegador." id="ent0002" data-source-line="7"><path d="M817.5,144.8 L977.4902,144.8 A3.75,3.75 0 0 1 979.9902,147.3 L986.9902,167.0969 L986.5,167.0969 A2.5,2.5 0 0 1 989,169.5969 L989,264.89 A2.5,2.5 0 0 1 986.5,267.39 L817.5,267.39 A2.5,2.5 0 0 1 815,264.89 L815,147.3 A2.5,2.5 0 0 1 817.5,144.8" style="stroke:#000000;stroke-width:1.5;" fill="none"/><line x1="815" y1="167.0969" x2="986.9902" y2="167.0969" style="stroke:#000000;stroke-width:1.5;"/><text x="819" y="159.7951" fill="#000000" font-size="14" lengthAdjust="spacing" textLength="158.9902" font-weight="700" font-family="sans-serif">Cliente (Navegador)</text></g><!--cluster Backend Spring Boot--><g class="cluster" data-qualified-name="Backend Spring Boot" id="ent0004" data-source-line="11"><path d="M8.5,331.39 L174.8545,331.39 A3.75,3.75 0 0 1 177.3545,333.89 L184.3545,353.6869 L843.5,353.6869 A2.5,2.5 0 0 1 846,356.1869 L846,944.77 A2.5,2.5 0 0 1 843.5,947.27 L8.5,947.27 A2.5,2.5 0 0 1 6,944.77 L6,333.89 A2.5,2.5 0 0 1 8.5,331.39" style="stroke:#000000;stroke-width:1.5;" fill="none"/><line x1="6" y1="353.6869" x2="184.3545" y2="353.6869" style="stroke:#000000;stroke-width:1.5;"/><text x="10" y="346.3851" fill="#000000" font-size="14" lengthAdjust="spacing" textLength="165.3545" font-weight="700" font-family="sans-serif">Backend Spring Boot</text></g><!--cluster Spring Security--><g class="cluster" data-qualified-name="Backend Spring Boot.Spring Security" id="ent0005" data-source-line="13"><path d="M32.5,374.39 L155.5352,374.39 A3.75,3.75 0 0 1 158.0352,376.89 L165.0352,396.6869 L400.5,396.6869 A2.5,2.5 0 0 1 403,399.1869 L403,753.68 A2.5,2.5 0 0 1 400.5,756.18 L32.5,756.18 A2.5,2.5 0 0 1 30,753.68 L30,376.89 A2.5,2.5 0 0 1 32.5,374.39" style="stroke:#000000;stroke-width:1.5;" fill="none"/><line x1="30" y1="396.6869" x2="165.0352" y2="396.6869" style="stroke:#000000;stroke-width:1.5;"/><text x="34" y="389.3851" fill="#000000" font-size="14" lengthAdjust="spacing" textLength="122.0352" font-weight="700" font-family="sans-serif">Spring Security</text></g><!--cluster Servicios Externos--><g class="cluster" data-qualified-name="Servicios Externos" id="ent0014" data-source-line="26"><path d="M872.5,820.18 L1019.4336,820.18 A3.75,3.75 0 0 1 1021.9336,822.68 L1028.9336,842.4769 L1280.5,842.4769 A2.5,2.5 0 0 1 1283,844.9769 L1283,949.27 A2.5,2.5 0 0 1 1280.5,951.77 L872.5,951.77 A2.5,2.5 0 0 1 870,949.27 L870,822.68 A2.5,2.5 0 0 1 872.5,820.18" style="stroke:#000000;stroke-width:1.5;" fill="none"/><line x1="870" y1="842.4769" x2="1028.9336" y2="842.4769" style="stroke:#000000;stroke-width:1.5;"/><text x="874" y="835.1751" fill="#000000" font-size="14" lengthAdjust="spacing" textLength="145.9336" font-weight="700" font-family="sans-serif">Servicios Externos</text></g><!--entity Frontend--><g class="entity" data-qualified-name="Cliente .Navegador..Frontend" id="ent0003" data-source-line="8"><rect x="854.98" y="198.8" width="94.0332" height="52.5938" fill="#F1F1F1" style="stroke:#181818;stroke-width:0.5;" rx="2.5" ry="2.5"/><text x="864.98" y="221.7951" fill="#000000" font-size="14" lengthAdjust="spacing" textLength="71.9072" font-family="sans-serif">React App</text><text x="864.98" y="238.092" fill="#000000" font-size="14" lengthAdjust="spacing" textLength="74.0332" font-family="sans-serif">(Frontend)</text></g><!--entity Controller--><g class="entity" data-qualified-name="Backend Spring Boot.Controller" id="ent0010" data-source-line="20"><rect x="429.46" y="566.14" width="121.083" height="36.2969" fill="#F1F1F1" style="stroke:#181818;stroke-width:0.5;" rx="2.5" ry="2.5"/><text x="439.46" y="589.1351" fill="#000000" font-size="14" lengthAdjust="spacing" textLength="101.083" font-family="sans-serif">UserController</text></g><!--entity Service--><g class="entity" data-qualified-name="Backend Spring Boot.Service" id="ent0011" data-source-line="21"><rect x="450.9" y="695.73" width="134.1943" height="36.2969" fill="#F1F1F1" style="stroke:#181818;stroke-width:0.5;" rx="2.5" ry="2.5"/><text x="460.9" y="718.7251" fill="#000000" font-size="14" lengthAdjust="spacing" textLength="114.1943" font-family="sans-serif">UserServiceImpl</text></g><!--entity DocService--><g class="entity" data-qualified-name="Backend Spring Boot.DocService" id="ent0012" data-source-line="22"><rect x="619.99" y="687.58" width="210.0254" height="52.5938" fill="#F1F1F1" style="stroke:#181818;stroke-width:0.5;" rx="2.5" ry="2.5"/><text x="629.99" y="710.5751" fill="#000000" font-size="14" lengthAdjust="spacing" textLength="154.8135" font-family="sans-serif">DocumentServiceImpl</text><text x="629.99" y="726.872" fill="#000000" font-size="14" lengthAdjust="spacing" textLength="190.0254" font-family="sans-serif">(Validador MIME y tamaño)</text></g><!--entity EnvVars--><g class="entity" data-qualified-name="Backend Spring Boot.EnvVars" id="ent0013" data-source-line="23"><rect x="518.89" y="878.68" width="170.2129" height="52.5938" fill="#F1F1F1" style="stroke:#181818;stroke-width:0.5;" rx="2.5" ry="2.5"/><text x="528.89" y="901.6751" fill="#000000" font-size="14" lengthAdjust="spacing" textLength="146.4326" font-family="sans-serif">Variables de Entorno</text><text x="528.89" y="917.972" fill="#000000" font-size="14" lengthAdjust="spacing" textLength="150.2129" font-family="sans-serif">(.gitignore protegido)</text></g><!--entity FilterChain--><g class="entity" data-qualified-name="Backend Spring Boot.Spring Security.FilterChain" id="ent0006" data-source-line="14"><rect x="258.72" y="428.39" width="128.5547" height="52.5938" fill="#F1F1F1" style="stroke:#181818;stroke-width:0.5;" rx="2.5" ry="2.5"/><text x="268.72" y="451.3851" fill="#000000" font-size="14" lengthAdjust="spacing" textLength="80.1309" font-family="sans-serif">Filter Chain</text><text x="268.72" y="467.682" fill="#000000" font-size="14" lengthAdjust="spacing" textLength="108.5547" font-family="sans-serif">(Security Filter)</text></g><!--entity AuthManager--><g class="entity" data-qualified-name="Backend Spring Boot.Spring Security.AuthManager" id="ent0007" data-source-line="15"><rect x="153.61" y="557.99" width="122.7715" height="52.5938" fill="#F1F1F1" style="stroke:#181818;stroke-width:0.5;" rx="2.5" ry="2.5"/><text x="163.61" y="580.9851" fill="#000000" font-size="14" lengthAdjust="spacing" textLength="102.7715" font-family="sans-serif">Authentication</text><text x="163.61" y="597.282" fill="#000000" font-size="14" lengthAdjust="spacing" textLength="61.3662" font-family="sans-serif">Manager</text></g><!--entity BCrypt--><g class="entity" data-qualified-name="Backend Spring Boot.Spring Security.BCrypt" id="ent0008" data-source-line="16"><rect x="46.35" y="695.73" width="191.3018" height="36.2969" fill="#F1F1F1" style="stroke:#181818;stroke-width:0.5;" rx="2.5" ry="2.5"/><text x="56.35" y="718.7251" fill="#000000" font-size="14" lengthAdjust="spacing" textLength="171.3018" font-family="sans-serif">BCryptPasswordEncoder</text></g><!--entity Session--><g class="entity" data-qualified-name="Backend Spring Boot.Spring Security.Session" id="ent0009" data-source-line="17"><rect x="272.63" y="687.58" width="114.7324" height="52.5938" fill="#F1F1F1" style="stroke:#181818;stroke-width:0.5;" rx="2.5" ry="2.5"/><text x="282.63" y="710.5751" fill="#000000" font-size="14" lengthAdjust="spacing" textLength="86.6455" font-family="sans-serif">Sesión HTTP</text><text x="282.63" y="726.872" fill="#000000" font-size="14" lengthAdjust="spacing" textLength="94.7324" font-family="sans-serif">(HttpSession)</text></g><!--entity DB--><g class="entity" data-qualified-name="Servicios Externos.DB" id="ent0015" data-source-line="27"><path d="M886.37,884.18 C886.37,874.18 978.996,874.18 978.996,874.18 C978.996,874.18 1071.622,874.18 1071.622,884.18 L1071.622,925.7738 C1071.622,935.7738 978.996,935.7738 978.996,935.7738 C978.996,935.7738 886.37,935.7738 886.37,925.7738 L886.37,884.18" style="stroke:#181818;stroke-width:0.5;" fill="#F1F1F1"/><path d="M886.37,884.18 C886.37,894.18 978.996,894.18 978.996,894.18 C978.996,894.18 1071.622,894.18 1071.622,884.18" style="stroke:#181818;stroke-width:0.5;" fill="none"/><text x="896.37" y="911.1751" fill="#000000" font-size="14" lengthAdjust="spacing" textLength="153.8018" font-family="sans-serif">Supabase PostgreSQL</text><text x="896.37" y="927.472" fill="#000000" font-size="14" lengthAdjust="spacing" textLength="165.252" font-family="sans-serif">(users: password_hash)</text></g><!--entity Gemini--><g class="entity" data-qualified-name="Servicios Externos.Gemini" id="ent0016" data-source-line="28"><path d="M1116.4433,891.8592 C1119.8063,885.9281 1124.2228,884.5041 1128.7219,890.7099 C1130.8693,885.5777 1135.6768,884.4324 1139.2468,889.1972 C1143.4194,882.2438 1147.4813,882.8667 1152.3817,888.4337 C1157.0561,882.8831 1161.5196,884.2002 1165.0261,889.7626 C1167.8004,883.6262 1171.4847,883.021 1176.5191,887.2589 C1179.3173,881.8179 1184.7929,881.8663 1187.5662,887.2843 C1191.252,881.6822 1197.059,881.0548 1200.2017,887.8385 C1204.8595,882.6641 1208.372,883.6833 1211.3449,889.5405 C1214.714,883.2067 1220.6474,883.1983 1223.8857,889.6686 C1226.7383,884.0847 1231.8687,883.4064 1235.6028,888.7209 C1240.0425,882.9124 1246.3233,884.6214 1248.9516,890.7471 C1251.4425,885.3602 1256.7254,885.864 1259.8271,890.0535 C1266.8612,893.6712 1267.776,900.8213 1261.6367,905.9396 C1267.5602,910.7086 1266.5728,917.985 1259.3634,920.7364 C1256.9563,928.0285 1252.4089,928.5615 1247.0891,923.671 C1243.6851,928.5682 1239.7244,928.67 1235.9659,924.087 C1232.4724,930.2118 1228.2072,931.6005 1223.5106,925.2922 C1221.1891,932.1438 1215.8852,931.3467 1211.8252,927.1272 C1208.5029,933.2258 1203.5162,933.112 1199.1698,928.3169 C1196.8333,934.6994 1192.4631,934.6924 1188.0236,930.5424 C1183.2277,936.8192 1178.559,935.485 1175.6079,928.7783 C1171.4128,933.5046 1165.7047,933.8423 1163.3719,926.836 C1158.4258,931.5257 1154.6184,931.7789 1151.8055,924.7335 C1148.4247,930.3548 1143.2707,929.5445 1140.545,924.0688 C1136.9336,929.1472 1131.3314,928.3916 1128.5926,923.0663 C1124.252,928.1211 1119.3069,928.0627 1116.0517,921.8574 C1107.9025,919.116 1105.5907,913.9274 1111.809,907.0651 C1105.5631,900.3091 1107.051,893.8491 1116.4433,891.8592" style="stroke:#181818;stroke-width:0.5;" fill="#F1F1F1"/><text x="1121.92" y="909.8151" fill="#000000" font-size="14" lengthAdjust="spacing" textLength="130.1699" font-family="sans-serif">Google Gemini API</text></g><!--entity User--><g class="entity" data-qualified-name="User" id="ent0001" data-source-line="5"><ellipse cx="902.0012" cy="14" rx="8" ry="8" fill="#F1F1F1" style="stroke:#181818;stroke-width:0.5;"/><path d="M902.0012,22 L902.0012,49 M889.0012,30 L915.0012,30 M902.0012,49 L889.0012,64 M902.0012,49 L915.0012,64" style="stroke:#181818;stroke-width:0.5;" fill="none"/><text x="843.53" y="78.4951" fill="#000000" font-size="14" lengthAdjust="spacing" textLength="116.9424" font-family="sans-serif">Tutor / Educador</text></g><g class="entity" data-qualified-name="GMN31" id="ent0032" data-source-line="49"><path d="M862.22,434.56 L862.22,450.69 L387.65,454.69 L862.22,458.69 L862.22,474.8256 A0,0 0 0 0 862.22,474.8256 L1081.7874,474.8256 A0,0 0 0 0 1081.7874,474.8256 L1081.7874,444.56 L1071.7874,434.56 L862.22,434.56 A0,0 0 0 0 862.22,434.56" style="stroke:#181818;stroke-width:0.5;" fill="#FEFFDD"/><path d="M1071.7874,434.56 L1071.7874,444.56 L1081.7874,444.56 L1071.7874,434.56" style="stroke:#181818;stroke-width:0.5;" fill="#FEFFDD"/><text x="868.22" y="451.6269" fill="#000000" font-size="13" lengthAdjust="spacing" textLength="198.5674" font-family="sans-serif">Endpoints protegidos retornan</text><text x="868.22" y="466.7597" fill="#000000" font-size="13" lengthAdjust="spacing" textLength="178.4263" font-family="sans-serif">HTTP 401 sin sesión activa.</text></g><g class="entity" data-qualified-name="GMN34" id="ent0035" data-source-line="54"><path d="M865.29,693.75 L865.29,734.0156 L1060.7172,734.0156 L1060.7172,703.75 L1050.7172,693.75 L865.29,693.75" style="stroke:#181818;stroke-width:0.5;" fill="#FEFFDD"/><path d="M1050.7172,693.75 L1050.7172,703.75 L1060.7172,703.75 L1050.7172,693.75" style="stroke:#181818;stroke-width:1;" fill="#FEFFDD"/><text x="871.29" y="710.8169" fill="#000000" font-size="13" lengthAdjust="spacing" textLength="168.4795" font-family="sans-serif">Las contraseñas nunca se</text><text x="871.29" y="725.9497" fill="#000000" font-size="13" lengthAdjust="spacing" textLength="174.4272" font-family="sans-serif">almacenan en texto plano.</text></g><!--link User to Frontend--><g class="link" data-entity-1="ent0001" data-entity-2="ent0003" id="lnk17" data-source-line="31" data-link-type="dependency"><path d="M902,82.27 C902,117.11 902,162.99 902,193.4" style="stroke:#181818;stroke-width:1;" fill="none" id="User-to-Frontend"/><polygon points="902,198.4,906,189.4,902,193.4,898,189.4,902,198.4" fill="#181818" style="stroke:#181818;stroke-width:1;stroke-linejoin:miter;stroke-miterlimit:10;"/><text x="903" y="124.8669" fill="#000000" font-size="13" lengthAdjust="spacing" textLength="41.7485" font-family="sans-serif">HTTPS</text></g><!--link Frontend to FilterChain--><g class="link" data-entity-1="ent0003" data-entity-2="ent0006" id="lnk18" data-source-line="32" data-link-type="dependency"><path d="M854.62,244.72 C751.18,285.38 509.6635,380.321 392.1935,426.491" style="stroke:#181818;stroke-width:1;" fill="none" id="Frontend-to-FilterChain"/><polygon points="387.54,428.32,397.3794,428.7506,392.1935,426.491,394.4531,421.305,387.54,428.32" fill="#181818" style="stroke:#181818;stroke-width:1;stroke-linejoin:miter;stroke-miterlimit:10;"/><text x="756.3755" y="296.4569" fill="#000000" font-size="13" lengthAdjust="spacing" textLength="74.4453" font-family="sans-serif">POST /login</text><text x="747" y="311.5897" fill="#000000" font-size="13" lengthAdjust="spacing" textLength="93.1963" font-family="sans-serif">POST /register</text></g><!--link FilterChain to AuthManager--><g class="link" data-entity-1="ent0006" data-entity-2="ent0007" id="lnk19" data-source-line="33" data-link-type="dependency"><path d="M258.32,464.69 C205.48,473.52 136.88,488.89 120,510.99 C104.33,531.49 121.8549,547.002 148.6349,559.742" style="stroke:#181818;stroke-width:1;" fill="none" id="FilterChain-to-AuthManager"/><polygon points="153.15,561.89,146.7412,554.4116,148.6349,559.742,143.3044,561.6358,153.15,561.89" fill="#181818" style="stroke:#181818;stroke-width:1;stroke-linejoin:miter;stroke-miterlimit:10;"/><text x="121" y="524.0569" fill="#000000" font-size="13" lengthAdjust="spacing" textLength="125.3218" font-family="sans-serif">valida credenciales</text></g><!--link AuthManager to BCrypt--><g class="link" data-entity-1="ent0007" data-entity-2="ent0008" id="lnk20" data-source-line="34" data-link-type="dependency"><path d="M153.25,594.3 C125.36,601.79 94.93,615.49 78,640.58 C64.4,660.73 82.5256,678.5595 104.4556,692.5595" style="stroke:#181818;stroke-width:1;" fill="none" id="AuthManager-to-BCrypt"/><polygon points="108.67,695.25,103.2364,687.0356,104.4556,692.5595,98.9317,693.7787,108.67,695.25" fill="#181818" style="stroke:#181818;stroke-width:1;stroke-linejoin:miter;stroke-miterlimit:10;"/><text x="79" y="653.6469" fill="#000000" font-size="13" lengthAdjust="spacing" textLength="92.644" font-family="sans-serif">compara hash</text></g><!--link AuthManager to Session--><g class="link" data-entity-1="ent0007" data-entity-2="ent0009" id="lnk21" data-source-line="35" data-link-type="dependency"><path d="M208.64,610.89 C206.45,625.62 206.38,643.88 215,657.58 C221.99,668.69 242.5339,679.4486 267.5439,689.8586" style="stroke:#181818;stroke-width:1;" fill="none" id="AuthManager-to-Session"/><polygon points="272.16,691.78,265.3881,684.6287,267.5439,689.8586,262.3139,692.0144,272.16,691.78" fill="#181818" style="stroke:#181818;stroke-width:1;stroke-linejoin:miter;stroke-miterlimit:10;"/><text x="216" y="653.6469" fill="#000000" font-size="13" lengthAdjust="spacing" textLength="73.9375" font-family="sans-serif">crea sesión</text></g><!--link FilterChain to Controller--><g class="link" data-entity-1="ent0006" data-entity-2="ent0010" id="lnk22" data-source-line="36" data-link-type="dependency"><path d="M356.39,481.21 C389.33,506.37 434.7868,541.1046 463.3868,562.9546" style="stroke:#181818;stroke-width:1;" fill="none" id="FilterChain-to-Controller"/><polygon points="467.36,565.99,462.6367,557.3477,463.3868,562.9546,457.7799,563.7047,467.36,565.99" fill="#181818" style="stroke:#181818;stroke-width:1;stroke-linejoin:miter;stroke-miterlimit:10;"/><text x="417" y="524.0569" fill="#000000" font-size="13" lengthAdjust="spacing" textLength="136.0112" font-family="sans-serif">solicitud autenticada</text></g><!--link Controller to Service--><g class="link" data-entity-1="ent0010" data-entity-2="ent0011" id="lnk23" data-source-line="37" data-link-type="dependency"><path d="M493.83,602.76 C499.2,627.19 507.7977,666.4163 513.1377,690.7363" style="stroke:#181818;stroke-width:1;" fill="none" id="Controller-to-Service"/><polygon points="514.21,695.62,516.1868,685.9716,513.1377,690.7363,508.3729,687.6873,514.21,695.62" fill="#181818" style="stroke:#181818;stroke-width:1;stroke-linejoin:miter;stroke-miterlimit:10;"/></g><!--link Service to BCrypt--><g class="link" data-entity-1="ent0011" data-entity-2="ent0008" id="lnk24" data-source-line="38" data-link-type="dependency"><path d="M497.68,695.35 C478.4,679.13 447.79,656.72 416.5,647.38 C390.73,639.69 321.83,641.92 295.5,647.38 C251.42,656.52 208.851,676.5969 178.641,692.8869" style="stroke:#181818;stroke-width:1;" fill="none" id="Service-to-BCrypt"/><polygon points="174.24,695.26,184.0602,694.5092,178.641,692.8869,180.2632,687.4677,174.24,695.26" fill="#181818" style="stroke:#181818;stroke-width:1;stroke-linejoin:miter;stroke-miterlimit:10;"/><text x="296.5" y="653.6469" fill="#000000" font-size="13" lengthAdjust="spacing" textLength="119.7358" font-family="sans-serif">encripta password</text></g><!--link Service to DB--><g class="link" data-entity-1="ent0011" data-entity-2="ent0015" id="lnk25" data-source-line="39" data-link-type="dependency"><path d="M540.83,732.4 C556.97,743.71 579.64,757.51 602,764.18 C637.18,774.66 732.44,759.79 767,772.18 C789.43,780.21 788.34,794.26 810,804.18 C824.9,811 830.98,805.62 846,812.18 C881.74,827.77 913.961,850.3849 939.531,870.6449" style="stroke:#181818;stroke-width:1;" fill="none" id="Service-to-DB"/><polygon points="943.45,873.75,938.88,865.0256,939.531,870.6449,933.9118,871.2959,943.45,873.75" fill="#181818" style="stroke:#181818;stroke-width:1;stroke-linejoin:miter;stroke-miterlimit:10;"/><text x="811" y="785.2469" fill="#000000" font-size="13" lengthAdjust="spacing" textLength="119.52" font-family="sans-serif">persiste / consulta</text><text x="815.856" y="800.3797" fill="#000000" font-size="13" lengthAdjust="spacing" textLength="109.8081" font-family="sans-serif">(password_hash)</text></g><!--link Frontend to DocService--><g class="link" data-entity-1="ent0003" data-entity-2="ent0012" id="lnk26" data-source-line="41" data-link-type="dependency"><path d="M949.42,234.69 C996.59,246.04 1066.48,271.07 1099,323.39 C1135.97,382.89 1133.06,419.79 1099,480.99 C1037.97,590.63 906.0105,653.3634 815.8805,685.4434" style="stroke:#181818;stroke-width:1;" fill="none" id="Frontend-to-DocService"/><polygon points="811.17,687.12,820.9902,687.8705,815.8805,685.4434,818.3076,680.3337,811.17,687.12" fill="#181818" style="stroke:#181818;stroke-width:1;stroke-linejoin:miter;stroke-miterlimit:10;"/><text x="1080" y="524.0569" fill="#000000" font-size="13" lengthAdjust="spacing" textLength="134.7354" font-family="sans-serif">carga de documento</text></g><!--link DocService to DB--><g class="link" data-entity-1="ent0012" data-entity-2="ent0015" id="lnk27" data-source-line="42" data-link-type="dependency"><path d="M779.29,740.63 C800.3,749.53 824.84,758.65 848,764.18 C867.74,768.89 923.24,759.38 939,772.18 C969.17,796.67 976.8557,838.1787 978.6657,868.8787" style="stroke:#181818;stroke-width:1;" fill="none" id="DocService-to-DB"/><polygon points="978.96,873.87,982.4234,864.6502,978.6657,868.8787,974.4372,865.121,978.96,873.87" fill="#181818" style="stroke:#181818;stroke-width:1;stroke-linejoin:miter;stroke-miterlimit:10;"/><text x="964" y="792.7469" fill="#000000" font-size="13" lengthAdjust="spacing" textLength="113.1597" font-family="sans-serif">guarda metadata</text></g><!--link Service to EnvVars--><g class="link" data-entity-1="ent0011" data-entity-2="ent0013" id="lnk28" data-source-line="44" data-link-type="dependency"><path d="M516.16,732.33 C514.89,750.83 514.81,780.58 524,804.18 C535.2,832.94 554.3114,856.3278 572.6514,874.9478" style="stroke:#181818;stroke-width:1;stroke-dasharray:7,7;" fill="none" id="Service-to-EnvVars"/><polygon points="576.16,878.51,572.6942,869.2911,572.6514,874.9478,566.9947,874.9049,576.16,878.51" fill="#181818" style="stroke:#181818;stroke-width:1;stroke-linejoin:miter;stroke-miterlimit:10;"/><text x="525" y="792.7469" fill="#000000" font-size="13" lengthAdjust="spacing" textLength="128.8892" font-family="sans-serif">lee credenciales BD</text></g><!--link DocService to EnvVars--><g class="link" data-entity-1="ent0012" data-entity-2="ent0013" id="lnk29" data-source-line="45" data-link-type="dependency"><path d="M708.68,740.38 C685.59,776.47 646.3046,837.8582 623.1446,874.0582" style="stroke:#181818;stroke-width:1;stroke-dasharray:7,7;" fill="none" id="DocService-to-EnvVars"/><polygon points="620.45,878.27,628.6697,872.8445,623.1446,874.0582,621.9309,868.5331,620.45,878.27" fill="#181818" style="stroke:#181818;stroke-width:1;stroke-linejoin:miter;stroke-miterlimit:10;"/><text x="686" y="792.7469" fill="#000000" font-size="13" lengthAdjust="spacing" textLength="72.6553" font-family="sans-serif">lee API Key</text></g><!--link DocService to Gemini--><g class="link" data-entity-1="ent0012" data-entity-2="ent0016" id="lnk30" data-source-line="46" data-link-type="dependency"><path d="M777.62,740.65 C798.95,749.84 824.14,759.15 848,764.18 C873.89,769.62 1062.47,760.07 1086,772.18 C1131.75,795.72 1160.6802,845.9863 1175.2802,876.9963" style="stroke:#181818;stroke-width:1;" fill="none" id="DocService-to-Gemini"/><polygon points="1177.41,881.52,1177.1953,871.6735,1175.2802,876.9963,1169.9574,875.0812,1177.41,881.52" fill="#181818" style="stroke:#181818;stroke-width:1;stroke-linejoin:miter;stroke-miterlimit:10;"/><text x="1162.248" y="785.2469" fill="#000000" font-size="13" lengthAdjust="spacing" textLength="80.1455" font-family="sans-serif">HTTPS POST</text><text x="1125" y="800.3797" fill="#000000" font-size="13" lengthAdjust="spacing" textLength="154.6416" font-family="sans-serif">(Authorization: API Key)</text></g><!--link BCrypt to GMN34--><g class="link" data-entity-1="ent0008" data-entity-2="ent0035" id="lnk36" data-source-line="54" data-link-type="association"><path d="M169.58,695.45 C195.05,679.62 234.57,657.98 272.5,649.08 C392.79,620.86 708.04,621.58 828.5,649.08 C865.65,657.56 904.48,677.67 930.82,693.25" style="stroke:#181818;stroke-width:1;stroke-dasharray:7,7;" fill="none" id="BCrypt-GMN34"/></g><?plantuml-src PLHDRzim3BtxLn3PfJqitO2TUYZGfEa7rcxPdFNI3GChguvGMJGaEMqsz4SL-mdzOoCjnt7QN6A9ZuyKtvF2lN4rUgpW5jLzwQbnnPGiUNXtslwoq2F24WjwCAw4ExH13oAAgfgSTZ6FQwl1QnNHbLPd6Qh8NAD58ty7C2iQnIH-11ZWHz0-osgkYwM6qTGQPj2mzmLNkXJK_WZ-PW0ttpNJm75T_tHxfvuOv8hzNqAnMMLF0w89V_0UvBMNPYT4KOYOgOTqeLohnfkuJdMuqgcnKNkOBj4uBhQ9GzhlQhRVBIGb7JTnoPqRXT4GfrsXuoA-1KkiMoVmPEhNTPnZ20_aYvbJL7JG54ceN0Vpyi_1-M8nvpxEOwnvAp1zwg5RCFX9pdKZevpoA3nPsz5jbnj0hltAA7rHrROZQTSIFY7LLABV5i9bhz6QGeI0gukh6QmXOeKlpvHwu9m1mpLwWxTM1oWqp1pBxOWfngM9fdJaDTIUeYvDqQNFt8fpmevoYSyGHnzvnev2KgR0YBSO1D7KwMjE8PPUvzykkKh3fmk7B6-QwkybXkL-wx6J2QShIqq1epCYzYISwSeu0yVpYnQHbjA6p0ZUlp_gNGM7hG1vrc-qqQt-39X_pHTmOAaKmwI5vrC6XcH3f6GEpC2PgtQweBmkj5C6UNRP424PoHCCbXl6LmtaP6zGdHi4vZL2IEPvKtxh24O6iZpfo7F19YRt5fWD88auwTlzxxR4JNjJH-p7lWCxcJ2aPbba57pp5RdGs8YirgvCsUvqjwwIuw0lKGnLTFwaR13lovGDUfvafIEAKxA-aV7uQECpXbcjTwODavCXtLimMmG-w_Nhcfs1EdEq3k1JYIZapP_s4JZSvFBn7DiUl2cN4UZkrUinSqLDniMmlHs1dq-vFIXngG2VFdo4m1fskW8_XcQ5uqn69kIlI_GFoINRMucYV65UdddX6gV47nn3Mw7IN8LrXAWV8q5jqT6MzZy0?></g></svg>