<svg xmlns="http://www.w3.org/2000/svg" xmlns:xlink="http://www.w3.org/1999/xlink" version="1.1" data-diagram-type="DESCRIPTION" style="width:1186px;height:994px;background:#FFFFFF;" width="1186px" height="994px" viewBox="0 0 1186 994" zoomAndPan="magnify" preserveAspectRatio="none" contentStyleType="text/css"><?plantuml 1.2026.7beta3?><defs/><g><!--cluster Plataforma Kidyra--><g class="cluster" data-qualified-name="Plataforma Kidyra" id="ent0004" data-source-line="10"><rect x="169.94" y="306.45" width="824.66" height="562" fill="none" style="stroke:#181818;stroke-width:1;" rx="2.5" ry="2.5"/><text x="510.6123" y="321.4451" fill="#000000" font-size="14" lengthAdjust="spacing" textLength="143.3154" font-weight="700" font-family="sans-serif">Plataforma Kidyra</text></g><!--entity CU01--><g class="entity" data-qualified-name="Plataforma Kidyra.CU01" id="ent0005" data-source-line="12"><ellipse cx="271.6474" cy="365.4489" rx="80.1774" ry="23.6789" fill="#F1F1F1" style="stroke:#181818;stroke-width:0.5;"/><text x="250.203" y="358.3812" fill="#000000" font-size="14" lengthAdjust="spacing" textLength="42.8887" font-family="sans-serif">CU-01</text><text x="210.8246" y="374.678" fill="#000000" font-size="14" lengthAdjust="spacing" textLength="121.6455" font-family="sans-serif">Registrar Usuario</text></g><!--entity CU02--><g class="entity" data-qualified-name="Plataforma Kidyra.CU02" id="ent0006" data-source-line="13"><ellipse cx="271.6458" cy="448.448" rx="62.8758" ry="23.898" fill="#F1F1F1" style="stroke:#181818;stroke-width:0.5;"/><text x="250.2015" y="441.7331" fill="#000000" font-size="14" lengthAdjust="spacing" textLength="42.8887" font-family="sans-serif">CU-02</text><text x="224.9529" y="458.03" fill="#000000" font-size="14" lengthAdjust="spacing" textLength="93.3857" font-family="sans-serif">Iniciar Sesión</text></g><!--entity CU03--><g class="entity" data-qualified-name="Plataforma Kidyra.CU03" id="ent0007" data-source-line="14"><ellipse cx="570.4678" cy="646.4547" rx="65.1678" ry="31.1747" fill="#F1F1F1" style="stroke:#181818;stroke-width:0.5;"/><text x="549.0235" y="632.8061" fill="#000000" font-size="14" lengthAdjust="spacing" textLength="42.8887" font-family="sans-serif">CU-03</text><text x="516.5289" y="649.103" fill="#000000" font-size="14" lengthAdjust="spacing" textLength="107.8779" font-family="sans-serif">Gestionar Perfil</text><text x="532.8907" y="665.3999" fill="#000000" font-size="14" lengthAdjust="spacing" textLength="75.1543" font-family="sans-serif">de Usuario</text></g><!--entity Sesion--><g class="entity" data-qualified-name="Plataforma Kidyra.Sesion" id="ent0008" data-source-line="15"><ellipse cx="882.0883" cy="714.4453" rx="72.6083" ry="23.7653" fill="#F1F1F1" style="stroke:#181818;stroke-width:0.5;"/><text x="827.4589" y="714.3732" fill="#000000" font-size="14" lengthAdjust="spacing" textLength="109.2588" font-family="sans-serif">Verificar Sesión</text><text x="860.3295" y="730.6701" fill="#000000" font-size="14" lengthAdjust="spacing" textLength="43.5176" font-family="sans-serif">Activa</text></g><!--entity Editar--><g class="entity" data-qualified-name="Plataforma Kidyra.Editar" id="ent0009" data-source-line="16"><ellipse cx="271.646" cy="744.4512" rx="62.456" ry="14.8912" fill="#F1F1F1" style="stroke:#181818;stroke-width:0.5;"/><text x="228.3437" y="749.0996" fill="#000000" font-size="14" lengthAdjust="spacing" textLength="86.6045" font-family="sans-serif">Editar Datos</text></g><!--entity Password--><g class="entity" data-qualified-name="Plataforma Kidyra.Password" id="ent0010" data-source-line="17"><ellipse cx="271.6468" cy="675.4514" rx="85.7068" ry="19.5414" fill="#F1F1F1" style="stroke:#181818;stroke-width:0.5;"/><text x="199.6712" y="680.0998" fill="#000000" font-size="14" lengthAdjust="spacing" textLength="143.9512" font-family="sans-serif">Cambiar Contraseña</text></g><!--entity Logout--><g class="entity" data-qualified-name="Plataforma Kidyra.Logout" id="ent0011" data-source-line="18"><ellipse cx="271.6464" cy="605.4513" rx="65.5064" ry="15.5013" fill="#F1F1F1" style="stroke:#181818;stroke-width:0.5;"/><text x="224.2426" y="610.0997" fill="#000000" font-size="14" lengthAdjust="spacing" textLength="94.8076" font-family="sans-serif">Cerrar Sesión</text></g><!--entity CU04--><g class="entity" data-qualified-name="Plataforma Kidyra.CU04" id="ent0012" data-source-line="20"><ellipse cx="570.4677" cy="451.4486" rx="87.0977" ry="23.6286" fill="#F1F1F1" style="stroke:#181818;stroke-width:0.5;"/><text x="549.0234" y="444.2988" fill="#000000" font-size="14" lengthAdjust="spacing" textLength="42.8887" font-family="sans-serif">CU-04</text><text x="504.0293" y="460.5957" fill="#000000" font-size="14" lengthAdjust="spacing" textLength="132.877" font-family="sans-serif">Cargar Documento</text></g><!--entity Validar--><g class="entity" data-qualified-name="Plataforma Kidyra.Validar" id="ent0013" data-source-line="21"><ellipse cx="882.0926" cy="630.4472" rx="96.5126" ry="25.6272" fill="#F1F1F1" style="stroke:#181818;stroke-width:0.5;"/><text x="814.7416" y="627.5469" fill="#000000" font-size="14" lengthAdjust="spacing" textLength="134.7021" font-family="sans-serif">Validar Documento</text><text x="819.8959" y="643.8438" fill="#000000" font-size="14" lengthAdjust="spacing" textLength="124.3936" font-family="sans-serif">(tipo y contenido)</text></g><!--entity Extraer--><g class="entity" data-qualified-name="Plataforma Kidyra.Extraer" id="ent0014" data-source-line="22"><ellipse cx="882.089" cy="544.4452" rx="89.769" ry="25.2152" fill="#F1F1F1" style="stroke:#181818;stroke-width:0.5;"/><text x="818.4361" y="542.1448" fill="#000000" font-size="14" lengthAdjust="spacing" textLength="127.3057" font-family="sans-serif">Extraer Contenido</text><text x="828.6217" y="558.4417" fill="#000000" font-size="14" lengthAdjust="spacing" textLength="106.9346" font-family="sans-serif">del Documento</text></g><!--entity GuardarDoc--><g class="entity" data-qualified-name="Plataforma Kidyra.GuardarDoc" id="ent0015" data-source-line="23"><ellipse cx="882.0902" cy="460.4459" rx="95.0902" ry="24.0159" fill="#F1F1F1" style="stroke:#181818;stroke-width:0.5;"/><text x="810.6786" y="459.9732" fill="#000000" font-size="14" lengthAdjust="spacing" textLength="142.8232" font-family="sans-serif">Guardar Documento</text><text x="845.8905" y="476.2701" fill="#000000" font-size="14" lengthAdjust="spacing" textLength="72.3994" font-family="sans-serif">Procesado</text></g><!--entity CU05--><g class="entity" data-qualified-name="Plataforma Kidyra.CU05" id="ent0016" data-source-line="25"><ellipse cx="882.0879" cy="371.4512" rx="80.5579" ry="29.5112" fill="#F1F1F1" style="stroke:#181818;stroke-width:0.5;"/><text x="860.6436" y="358.7704" fill="#000000" font-size="14" lengthAdjust="spacing" textLength="42.8887" font-family="sans-serif">CU-05</text><text x="810.5738" y="375.0673" fill="#000000" font-size="14" lengthAdjust="spacing" textLength="143.0283" font-family="sans-serif">Generar Resúmenes</text><text x="845.7037" y="391.3642" fill="#000000" font-size="14" lengthAdjust="spacing" textLength="72.7686" font-family="sans-serif">Didácticos</text></g><!--entity CU06--><g class="entity" data-qualified-name="Plataforma Kidyra.CU06" id="ent0017" data-source-line="26"><ellipse cx="570.4701" cy="541.4514" rx="66.4001" ry="31.7714" fill="#F1F1F1" style="stroke:#181818;stroke-width:0.5;"/><text x="549.0257" y="527.1726" fill="#000000" font-size="14" lengthAdjust="spacing" textLength="42.8887" font-family="sans-serif">CU-06</text><text x="516.6029" y="543.4695" fill="#000000" font-size="14" lengthAdjust="spacing" textLength="107.7344" font-family="sans-serif">Generar Trivias</text><text x="529.1332" y="559.7664" fill="#000000" font-size="14" lengthAdjust="spacing" textLength="82.6738" font-family="sans-serif">Interactivas</text></g><!--entity CU07--><g class="entity" data-qualified-name="Plataforma Kidyra.CU07" id="ent0018" data-source-line="28"><ellipse cx="570.4657" cy="823.4476" rx="82.3457" ry="28.7676" fill="#F1F1F1" style="stroke:#181818;stroke-width:0.5;"/><text x="549.0213" y="811.7992" fill="#000000" font-size="14" lengthAdjust="spacing" textLength="42.8887" font-family="sans-serif">CU-07</text><text x="495.1918" y="828.0961" fill="#000000" font-size="14" lengthAdjust="spacing" textLength="150.5479" font-family="sans-serif">Seleccionar Temática</text><text x="549.4144" y="844.3929" fill="#000000" font-size="14" lengthAdjust="spacing" textLength="42.1025" font-family="sans-serif">Visual</text></g><!--entity CU09--><g class="entity" data-qualified-name="Plataforma Kidyra.CU09" id="ent0019" data-source-line="30"><ellipse cx="570.4703" cy="736.4505" rx="90.1103" ry="23.6105" fill="#F1F1F1" style="stroke:#181818;stroke-width:0.5;"/><text x="549.026" y="729.2712" fill="#000000" font-size="14" lengthAdjust="spacing" textLength="42.8887" font-family="sans-serif">CU-09</text><text x="501.5914" y="745.568" fill="#000000" font-size="14" lengthAdjust="spacing" textLength="137.7578" font-family="sans-serif">Visualizar Resumen</text></g><!--entity CU08--><g class="entity" data-qualified-name="Plataforma Kidyra.CU08" id="ent0020" data-source-line="31"><ellipse cx="271.6509" cy="823.4472" rx="84.4109" ry="29.0772" fill="#F1F1F1" style="stroke:#181818;stroke-width:0.5;"/><text x="250.2066" y="811.0878" fill="#000000" font-size="14" lengthAdjust="spacing" textLength="42.8887" font-family="sans-serif">CU-08</text><text x="195.3345" y="827.3847" fill="#000000" font-size="14" lengthAdjust="spacing" textLength="152.6328" font-family="sans-serif">Reproducir Contenido</text><text x="237.9258" y="843.6816" fill="#000000" font-size="14" lengthAdjust="spacing" textLength="67.4502" font-family="sans-serif">por Audio</text></g><!--entity CU10--><g class="entity" data-qualified-name="Plataforma Kidyra.CU10" id="ent0021" data-source-line="32"><ellipse cx="271.6548" cy="531.4451" rx="78.3148" ry="23.6951" fill="#F1F1F1" style="stroke:#181818;stroke-width:0.5;"/><text x="250.2104" y="524.4035" fill="#000000" font-size="14" lengthAdjust="spacing" textLength="42.8887" font-family="sans-serif">CU-10</text><text x="212.3462" y="540.7004" fill="#000000" font-size="14" lengthAdjust="spacing" textLength="118.6172" font-family="sans-serif">Responder Trivia</text></g><!--entity Tutor--><g class="entity" data-qualified-name="Tutor" id="ent0001" data-source-line="6"><ellipse cx="64.4712" cy="195.3" rx="16" ry="16" fill="#F1F1F1" style="stroke:#181818;stroke-width:0.5;"/><path d="M64.4712,215.3 C68.4712,215.3 71.4712,215.3 75.4712,211.3 C83.4712,211.3 91.4712,219.3 91.4712,227.3 L91.4712,231.3 C91.4712,235.3 87.4712,239.3 83.4712,239.3 L45.4712,239.3 C41.4712,239.3 37.4712,235.3 37.4712,231.3 L37.4712,227.3 C37.4712,219.3 45.4712,211.3 53.4712,211.3 C57.4712,215.3 60.4712,215.3 64.4712,215.3" style="stroke:#181818;stroke-width:0.5;" fill="#F1F1F1"/><text x="6" y="252.7951" fill="#000000" font-size="14" lengthAdjust="spacing" textLength="116.9424" font-family="sans-serif">Tutor / Educador</text></g><!--entity Nino--><g class="entity" data-qualified-name="Nino" id="ent0002" data-source-line="7"><ellipse cx="64.4692" cy="854.15" rx="16" ry="16" fill="#F1F1F1" style="stroke:#181818;stroke-width:0.5;"/><path d="M64.4692,874.15 C68.4692,874.15 71.4692,874.15 75.4692,870.15 C83.4692,870.15 91.4692,878.15 91.4692,886.15 L91.4692,890.15 C91.4692,894.15 87.4692,898.15 83.4692,898.15 L45.4692,898.15 C41.4692,898.15 37.4692,894.15 37.4692,890.15 L37.4692,886.15 C37.4692,878.15 45.4692,870.15 53.4692,870.15 C57.4692,874.15 60.4692,874.15 64.4692,874.15" style="stroke:#181818;stroke-width:0.5;" fill="#F1F1F1"/><text x="19" y="911.6451" fill="#000000" font-size="14" lengthAdjust="spacing" textLength="31.8008" font-family="sans-serif">Niño</text><text x="19" y="927.942" fill="#000000" font-size="14" lengthAdjust="spacing" textLength="90.9385" font-family="sans-serif">Usuario Final</text></g><!--entity Gemini--><g class="entity" data-qualified-name="Gemini" id="ent0003" data-source-line="8"><ellipse cx="1106.685" cy="768.3" rx="16" ry="16" fill="#F1F1F1" style="stroke:#181818;stroke-width:0.5;"/><path d="M1106.685,788.3 C1110.685,788.3 1113.685,788.3 1117.685,784.3 C1125.685,784.3 1133.685,792.3 1133.685,800.3 L1133.685,804.3 C1133.685,808.3 1129.685,812.3 1125.685,812.3 L1087.685,812.3 C1083.685,812.3 1079.685,808.3 1079.685,804.3 L1079.685,800.3 C1079.685,792.3 1087.685,784.3 1095.685,784.3 C1099.685,788.3 1102.685,788.3 1106.685,788.3" style="stroke:#181818;stroke-width:0.5;" fill="#F1F1F1"/><text x="1041.6" y="825.7951" fill="#000000" font-size="14" lengthAdjust="spacing" textLength="130.1699" font-family="sans-serif">Google Gemini API</text></g><!--link Tutor to CU01--><g class="link" data-entity-1="ent0001" data-entity-2="ent0005" id="lnk22" data-source-line="36" data-link-type="association"><path d="M94.2,256.57 C109.9,275.9 130.66,298.44 152.94,314.45 C172.21,328.29 195.81,339.44 216.82,347.74" style="stroke:#181818;stroke-width:1;" fill="none" id="Tutor-CU01"/></g><!--link Tutor to CU02--><g class="link" data-entity-1="ent0001" data-entity-2="ent0006" id="lnk23" data-source-line="37" data-link-type="association"><path d="M76.14,256.3 C89.61,298.59 116.66,365.62 161.94,406.45 C177.34,420.34 197.84,429.84 216.88,436.24" style="stroke:#181818;stroke-width:1;" fill="none" id="Tutor-CU02"/></g><!--link Tutor to CU03--><g class="link" data-entity-1="ent0001" data-entity-2="ent0007" id="lnk24" data-source-line="38" data-link-type="association"><path d="M123.25,236.08 C203.07,262.19 339.31,308.29 357.36,324.45 C426.5,386.37 413.17,426.4 450.36,511.45 C465.4,545.86 456.56,561.4 480.36,590.45 C491.82,604.44 507.74,615.99 522.96,624.89" style="stroke:#181818;stroke-width:1;" fill="none" id="Tutor-CU03"/></g><!--link Tutor to CU04--><g class="link" data-entity-1="ent0001" data-entity-2="ent0012" id="lnk25" data-source-line="39" data-link-type="association"><path d="M88.61,178.79 C103.87,157.26 126.01,132.43 152.94,120.45 C273.72,66.73 342.22,44.44 450.36,120.45 C553.78,193.15 567.83,364.7 569.41,427.7" style="stroke:#181818;stroke-width:1;" fill="none" id="Tutor-CU04"/></g><!--link Tutor to CU05--><g class="link" data-entity-1="ent0001" data-entity-2="ent0016" id="lnk26" data-source-line="40" data-link-type="association"><path d="M78.18,178.64 C92.32,142.53 119,90.89 161.94,67.45 C274.52,6 330,33.11 450.36,77.45 C619.84,139.9 786.75,283.56 852.17,343.93" style="stroke:#181818;stroke-width:1;" fill="none" id="Tutor-CU05"/></g><!--link Tutor to CU06--><g class="link" data-entity-1="ent0001" data-entity-2="ent0017" id="lnk27" data-source-line="41" data-link-type="association"><path d="M123.12,190.69 C206.58,156.39 360.86,110.43 450.36,191.45 C500.19,236.56 443.31,436.36 480.36,492.45 C489.02,505.56 502.42,515.48 516.23,522.84" style="stroke:#181818;stroke-width:1;" fill="none" id="Tutor-CU06"/></g><!--link Tutor to CU07--><g class="link" data-entity-1="ent0001" data-entity-2="ent0018" id="lnk28" data-source-line="42" data-link-type="association"><path d="M123.21,224.97 C187.71,236.16 291.66,262.94 357.36,324.45 C425.11,387.89 424.09,422.42 450.36,511.45 C467.19,568.5 446.61,728.46 480.36,777.45 C487.86,788.35 498.77,796.83 510.39,803.37" style="stroke:#181818;stroke-width:1;" fill="none" id="Tutor-CU07"/></g><!--link Nino to CU07--><g class="link" data-entity-1="ent0002" data-entity-2="ent0018" id="lnk29" data-source-line="44" data-link-type="association"><path d="M110.03,913.82 C123.3,921.04 138.23,927.75 152.94,931.45 C281.13,963.71 327.03,979.03 450.36,931.45 C491.76,915.47 527.68,877.68 548.96,851.33" style="stroke:#181818;stroke-width:1;" fill="none" id="Nino-CU07"/></g><!--link Nino to CU09--><g class="link" data-entity-1="ent0002" data-entity-2="ent0019" id="lnk30" data-source-line="45" data-link-type="association"><path d="M110.39,888.13 C168.49,891.59 272.34,893.27 357.36,870.45 C402.28,858.39 415.68,853.46 450.36,822.45 C468.27,806.43 462.08,793.06 480.36,777.45 C490.71,768.6 503.3,761.28 515.71,755.39" style="stroke:#181818;stroke-width:1;" fill="none" id="Nino-CU09"/></g><!--link Nino to CU10--><g class="link" data-entity-1="ent0002" data-entity-2="ent0021" id="lnk31" data-source-line="46" data-link-type="association"><path d="M67.48,837.37 C72.83,770.14 92.2,646.57 161.94,572.45 C173.9,559.74 190.19,550.94 206.51,544.86" style="stroke:#181818;stroke-width:1;" fill="none" id="Nino-CU10"/></g><!--link Nino to CU08--><g class="link" data-entity-1="ent0002" data-entity-2="ent0020" id="lnk32" data-source-line="47" data-link-type="association"><path d="M110.24,871.14 C138.54,862.73 175.56,851.72 206.9,842.4" style="stroke:#181818;stroke-width:1;" fill="none" id="Nino-CU08"/></g><!--link CU03 to Sesion--><g class="link" data-entity-1="ent0007" data-entity-2="ent0008" id="lnk33" data-source-line="50" data-link-type="dependency"><path d="M614.93,669.53 C636.98,680.17 664.55,691.87 690.58,698.45 C729.03,708.17 768.1052,712.0828 804.1652,713.7228" style="stroke:#181818;stroke-width:1;stroke-dasharray:7,7;" fill="none" id="CU03-to-Sesion"/><polygon points="809.16,713.95,800.351,709.5452,804.1652,713.7228,799.9876,717.537,809.16,713.95" fill="#181818" style="stroke:#181818;stroke-width:1;stroke-linejoin:miter;stroke-miterlimit:10;"/><text x="691.58" y="694.5169" fill="#000000" font-size="13" lengthAdjust="spacing" textLength="63.0068" font-family="sans-serif">«include»</text></g><!--link CU04 to Sesion--><g class="link" data-entity-1="ent0012" data-entity-2="ent0008" id="lnk34" data-source-line="51" data-link-type="dependency"><path d="M630.23,468.93 C641.73,474.76 652.65,482.43 660.58,492.45 C702.48,545.43 646.97,589.86 690.58,641.45 C708.47,662.62 770.8771,683.8 820.4271,698.14" style="stroke:#181818;stroke-width:1;stroke-dasharray:7,7;" fill="none" id="CU04-to-Sesion"/><polygon points="825.23,699.53,817.6967,693.1857,820.4271,698.14,815.4728,700.8704,825.23,699.53" fill="#181818" style="stroke:#181818;stroke-width:1;stroke-linejoin:miter;stroke-miterlimit:10;"/><text x="691.58" y="637.5169" fill="#000000" font-size="13" lengthAdjust="spacing" textLength="63.0068" font-family="sans-serif">«include»</text></g><!--link CU07 to Sesion--><g class="link" data-entity-1="ent0018" data-entity-2="ent0008" id="lnk35" data-source-line="52" data-link-type="dependency"><path d="M629.34,803.08 C687.63,782.56 771.8737,752.9003 826.9537,733.5103" style="stroke:#181818;stroke-width:1;stroke-dasharray:7,7;" fill="none" id="CU07-to-Sesion"/><polygon points="831.67,731.85,821.8524,731.0655,826.9537,733.5103,824.5089,738.6116,831.67,731.85" fill="#181818" style="stroke:#181818;stroke-width:1;stroke-linejoin:miter;stroke-miterlimit:10;"/><text x="691.58" y="755.5169" fill="#000000" font-size="13" lengthAdjust="spacing" textLength="63.0068" font-family="sans-serif">«include»</text></g><!--link CU04 to Validar--><g class="link" data-entity-1="ent0012" data-entity-2="ent0013" id="lnk36" data-source-line="54" data-link-type="dependency"><path d="M623.87,470.46 C636.59,476.41 649.66,483.74 660.58,492.45 C677.67,506.08 673.66,517.59 690.58,531.45 C715.49,551.85 728.4,546.18 755.58,563.45 C769.99,572.61 771.01,578.54 785.58,587.45 C798.61,595.42 808.8126,600.7333 822.7726,607.0333" style="stroke:#181818;stroke-width:1;stroke-dasharray:7,7;" fill="none" id="CU04-to-Validar"/><polygon points="827.33,609.09,820.772,601.742,822.7726,607.0333,817.4813,609.0338,827.33,609.09" fill="#181818" style="stroke:#181818;stroke-width:1;stroke-linejoin:miter;stroke-miterlimit:10;"/><text x="691.58" y="527.5169" fill="#000000" font-size="13" lengthAdjust="spacing" textLength="63.0068" font-family="sans-serif">«include»</text></g><!--link CU04 to Extraer--><g class="link" data-entity-1="ent0012" data-entity-2="ent0014" id="lnk37" data-source-line="55" data-link-type="dependency"><path d="M630.35,468.98 C666.5,479.76 713.73,493.86 755.58,506.45 C776.51,512.74 794.6048,518.2102 815.0348,524.4002" style="stroke:#181818;stroke-width:1;stroke-dasharray:7,7;" fill="none" id="CU04-to-Extraer"/><polygon points="819.82,525.85,812.3665,519.4121,815.0348,524.4002,810.0468,527.0684,819.82,525.85" fill="#181818" style="stroke:#181818;stroke-width:1;stroke-linejoin:miter;stroke-miterlimit:10;"/><text x="691.58" y="484.5169" fill="#000000" font-size="13" lengthAdjust="spacing" textLength="63.0068" font-family="sans-serif">«include»</text></g><!--link CU04 to GuardarDoc--><g class="link" data-entity-1="ent0012" data-entity-2="ent0015" id="lnk38" data-source-line="56" data-link-type="dependency"><path d="M657.67,449.83 C668.74,449.67 679.93,449.54 690.58,449.45 C719.46,449.21 726.72,448.19 755.58,449.45 C767.71,449.98 775.4842,450.4232 788.0542,451.3732" style="stroke:#181818;stroke-width:1;stroke-dasharray:7,7;" fill="none" id="CU04-to-GuardarDoc"/><polygon points="793.04,451.75,784.367,447.0831,788.0542,451.3732,783.7641,455.0604,793.04,451.75" fill="#181818" style="stroke:#181818;stroke-width:1;stroke-linejoin:miter;stroke-miterlimit:10;"/><text x="691.58" y="445.5169" fill="#000000" font-size="13" lengthAdjust="spacing" textLength="63.0068" font-family="sans-serif">«include»</text></g><!--link Editar to CU03--><g class="link" data-entity-1="ent0009" data-entity-2="ent0007" id="lnk39" data-source-line="59" data-link-type="dependency"><path d="M321.66,735.28 C357.77,727.88 407.79,716.27 450.36,701.45 C475.85,692.58 498.7681,682.3261 520.8581,671.5261" style="stroke:#181818;stroke-width:1;stroke-dasharray:7,7;" fill="none" id="Editar-to-CU03"/><polygon points="525.35,669.33,515.5077,669.6895,520.8581,671.5261,519.0215,676.8765,525.35,669.33" fill="#181818" style="stroke:#181818;stroke-width:1;stroke-linejoin:miter;stroke-miterlimit:10;"/><text x="388.36" y="697.5169" fill="#000000" font-size="13" lengthAdjust="spacing" textLength="61.1851" font-family="sans-serif">«extend»</text></g><!--link Password to CU03--><g class="link" data-entity-1="ent0010" data-entity-2="ent0007" id="lnk40" data-source-line="60" data-link-type="dependency"><path d="M357.39,676.72 C386.89,676.32 420.16,674.93 450.36,671.45 C470.61,669.12 487.6348,666.0555 507.0748,661.8155" style="stroke:#181818;stroke-width:1;stroke-dasharray:7,7;" fill="none" id="Password-to-CU03"/><polygon points="511.96,660.75,502.3143,658.7598,507.0748,661.8155,504.0191,666.576,511.96,660.75" fill="#181818" style="stroke:#181818;stroke-width:1;stroke-linejoin:miter;stroke-miterlimit:10;"/><text x="388.36" y="667.5169" fill="#000000" font-size="13" lengthAdjust="spacing" textLength="61.1851" font-family="sans-serif">«extend»</text></g><!--link Logout to CU03--><g class="link" data-entity-1="ent0011" data-entity-2="ent0007" id="lnk41" data-source-line="61" data-link-type="dependency"><path d="M329.18,613.26 C380.14,620.3 449.987,629.946 502.557,637.206" style="stroke:#181818;stroke-width:1;stroke-dasharray:7,7;" fill="none" id="Logout-to-CU03"/><polygon points="507.51,637.89,499.1418,632.6964,502.557,637.206,498.0474,640.6212,507.51,637.89" fill="#181818" style="stroke:#181818;stroke-width:1;stroke-linejoin:miter;stroke-miterlimit:10;"/><text x="388.36" y="618.5169" fill="#000000" font-size="13" lengthAdjust="spacing" textLength="61.1851" font-family="sans-serif">«extend»</text></g><!--link CU09 to CU05--><g class="link" data-entity-1="ent0019" data-entity-2="ent0016" id="lnk42" data-source-line="63" data-link-type="dependency"><path d="M628.45,718.06 C640.18,712.26 651.66,704.83 660.58,695.45 C685.31,669.43 666.19,646.79 690.58,620.45 C712.45,596.82 736.24,614.2 755.58,588.45 C801.64,527.09 739.51,479.8 785.58,418.45 C794.45,406.63 802.6672,399.8937 815.8772,393.0737" style="stroke:#181818;stroke-width:1;stroke-dasharray:7,7;" fill="none" id="CU09-to-CU05"/><polygon points="820.32,390.78,810.4879,391.3544,815.8772,393.0737,814.1579,398.463,820.32,390.78" fill="#181818" style="stroke:#181818;stroke-width:1;stroke-linejoin:miter;stroke-miterlimit:10;"/><text x="692.58" y="584.5169" fill="#000000" font-size="13" lengthAdjust="spacing" textLength="61.1851" font-family="sans-serif">«extend»</text></g><!--link CU10 to CU06--><g class="link" data-entity-1="ent0021" data-entity-2="ent0017" id="lnk43" data-source-line="64" data-link-type="dependency"><path d="M349.86,534.05 C397.78,535.67 453.6928,537.552 499.2028,539.082" style="stroke:#181818;stroke-width:1;stroke-dasharray:7,7;" fill="none" id="CU10-to-CU06"/><polygon points="504.2,539.25,495.3395,534.9499,499.2028,539.082,495.0707,542.9453,504.2,539.25" fill="#181818" style="stroke:#181818;stroke-width:1;stroke-linejoin:miter;stroke-miterlimit:10;"/><text x="388.36" y="532.5169" fill="#000000" font-size="13" lengthAdjust="spacing" textLength="61.1851" font-family="sans-serif">«extend»</text></g><!--link CU08 to CU09--><g class="link" data-entity-1="ent0020" data-entity-2="ent0019" id="lnk44" data-source-line="65" data-link-type="dependency"><path d="M355.52,818.97 C386.09,815.36 420.52,808.91 450.36,797.45 C465.32,791.71 466.37,785.27 480.36,777.45 C493.59,770.06 503.8434,764.9305 517.5234,758.6705" style="stroke:#181818;stroke-width:1;stroke-dasharray:7,7;" fill="none" id="CU08-to-CU09"/><polygon points="522.07,756.59,512.2217,756.6977,517.5234,758.6705,515.5506,763.9722,522.07,756.59" fill="#181818" style="stroke:#181818;stroke-width:1;stroke-linejoin:miter;stroke-miterlimit:10;"/><text x="388.36" y="793.5169" fill="#000000" font-size="13" lengthAdjust="spacing" textLength="61.1851" font-family="sans-serif">«extend»</text></g><!--link CU05 to Gemini--><g class="link" data-entity-1="ent0016" data-entity-2="ent0003" id="lnk45" data-source-line="68" data-link-type="association"><path d="M952.05,386.42 C970.62,393.42 989.25,403.62 1002.6,418.45 C1089.17,514.55 1103.8,677.19 1105.76,751.41" style="stroke:#181818;stroke-width:1;" fill="none" id="CU05-Gemini"/></g><!--link CU06 to Gemini--><g class="link" data-entity-1="ent0017" data-entity-2="ent0003" id="lnk46" data-source-line="69" data-link-type="association"><path d="M620.6,562.3 C635.66,571.03 650.82,582.66 660.58,597.45 C707.65,668.81 625.78,731.68 690.58,787.45 C788.08,871.37 951.43,839.72 1041.4,812.87" style="stroke:#181818;stroke-width:1;" fill="none" id="CU06-Gemini"/></g><?plantuml-src VLNDJjj04BxxAKRqK908JI09IOGYHG4Yr0f5_9ryMUo96M7lHhisb5Pz61wW1zHRhtcnpgxjn7QK-cBDpZS_t-pCR8oB5585cgAd54BI6AIaf6UUIIw55WayYk0vqYgJuLJ5IiEdI_TL4EP9XEgLP0GB4HkiQ4IGAdsRliK8uXMDIj3pt1ditMNszmKkmYnWSxq7me0xB17NjFfGlhmtcT2au9AaY1tgcgGgGJEb8lO-muGamMH-vH2vw7cMZP0Mi3UFHIeMIYS2lbBufiKU_FGyWCnW80m3flUjTiUNDnYHIRNGK0Hs3gVtxKuJVEpBAqa1CVGM3Qt-o19wt8IU-7A6nXQMmNFK2ufz6M8pn4dLxW4rBIZOUFVbXE_cHJYqFUDhgk0lGaePV2vIPHmaFwYb8f97c-vKIMPeSFMHEviBOrwL3cjOrBh1x9kAL9Pk5QthowdGaOsjWYn1cQu9TMk4H4nX5UNB_PIM2juWu8HGKgWEd6M1hB7xpXbZdhf3slh5ZOW5g6etum8tWiwr2j1mp-MjaWDOlqMiPszDeYt33PhLNxP7uyjp2bVlV1D1KMVcsMkQzZUcTvfUI1ZRB2aVk2jS6_QtWfxwyXPZ38AyMUumMRrpBE7B1-9kYKlBqotBOGcX7td6bd097pRH0zlgIwru_AXMrYMFrIGBDrqvQ9XssjRKB1NVG4clm7RQtY_F-mojLWicHl5i1BPxyZt0myu-573VPqQD85xzbYZ0KBACyP3_4XPC_4bOSo_V3-p7ZLvLEgv99pMfMvDwDQbVaxX-Te-ifOemh0ZCgA8PbEIkP11d8OwuSnCkM2eIiiq5wZ6cY2UGX_gGDoTNhDKQ0raq5zSHipd3qT6u664OmTaPvUx6Owlj_bTxkbkxCIv7ROVlSfXsg3SZqGoGasTpbE48NdXt2UuRK4lNhV4Xe5MvZU685nLeUSLoijuTV-lNOKDsMwwV7UfyxUnGsgo7fQvNrzdRArNzfgezA5N3XiVjzkNrLBGmZm4_XEuzsZVyJY0_9zPIItLGtcxFDaln0hd8Q_4V?></g></svg>