<svg xmlns="http://www.w3.org/2000/svg" xmlns:xlink="http://www.w3.org/1999/xlink" version="1.1" data-diagram-type="CLASS" style="width:3269px;height:1621px;background:#FFFFFF;" width="3269px" height="1621px" viewBox="0 0 3269 1621" zoomAndPan="magnify" preserveAspectRatio="none" contentStyleType="text/css"><?plantuml 1.2026.7beta3?><defs/><g><g class="title" data-source-line="11"><text x="1501.2676" y="22.9951" fill="#000000" font-size="14" lengthAdjust="spacing" textLength="259.4648" font-weight="700" font-family="sans-serif">Diagrama de Clases - Kidyra (v2)</text></g><!--cluster exception--><g class="cluster" data-qualified-name="exception" id="ent0002" data-source-line="15"><rect x="2633" y="44.2969" width="232" height="83" fill="none" style="stroke:#000000;stroke-width:1.5;" rx="2.5" ry="2.5"/><text x="2710.2915" y="59.292" fill="#000000" font-size="14" lengthAdjust="spacing" textLength="77.417" font-weight="700" font-family="sans-serif">exception</text></g><!--cluster controller--><g class="cluster" data-qualified-name="controller" id="ent0004" data-source-line="19"><rect x="597" y="169.9969" width="1586" height="99" fill="none" style="stroke:#000000;stroke-width:1.5;" rx="2.5" ry="2.5"/><text x="1351.4521" y="184.992" fill="#000000" font-size="14" lengthAdjust="spacing" textLength="77.0957" font-weight="700" font-family="sans-serif">controller</text></g><!--cluster dto--><g class="cluster" data-qualified-name="dto" id="ent0012" data-source-line="31"><rect x="7" y="572.6969" width="1316" height="99" fill="none" style="stroke:#000000;stroke-width:1.5;" rx="2.5" ry="2.5"/><text x="651.834" y="587.692" fill="#000000" font-size="14" lengthAdjust="spacing" textLength="26.332" font-weight="700" font-family="sans-serif">dto</text></g><!--cluster service--><g class="cluster" data-qualified-name="service" id="ent0020" data-source-line="43"><rect x="1275" y="303.6969" width="1728" height="245" fill="none" style="stroke:#000000;stroke-width:1.5;" rx="2.5" ry="2.5"/><text x="2110.7744" y="318.692" fill="#000000" font-size="14" lengthAdjust="spacing" textLength="56.4512" font-weight="700" font-family="sans-serif">service</text></g><!--cluster impl--><g class="cluster" data-qualified-name="service.impl" id="ent0028" data-source-line="55"><rect x="1299" y="425.6969" width="1680" height="99" fill="none" style="stroke:#000000;stroke-width:1.5;" rx="2.5" ry="2.5"/><text x="2121.8965" y="440.692" fill="#000000" font-size="14" lengthAdjust="spacing" textLength="34.207" font-weight="700" font-family="sans-serif">impl</text></g><!--cluster repository--><g class="cluster" data-qualified-name="repository" id="ent0036" data-source-line="67"><rect x="1629" y="572.6969" width="1626" height="99" fill="none" style="stroke:#000000;stroke-width:1.5;" rx="2.5" ry="2.5"/><text x="2401.2441" y="587.692" fill="#000000" font-size="14" lengthAdjust="spacing" textLength="81.5117" font-weight="700" font-family="sans-serif">repository</text></g><!--cluster model--><g class="cluster" data-qualified-name="model" id="ent0044" data-source-line="79"><rect x="2775" y="702.6969" width="450" height="904.34" fill="none" style="stroke:#000000;stroke-width:1.5;" rx="2.5" ry="2.5"/><text x="2975.7393" y="717.692" fill="#000000" font-size="14" lengthAdjust="spacing" textLength="48.5215" font-weight="700" font-family="sans-serif">model</text></g><!--class GlobalExceptionHandler--><g class="entity" data-qualified-name="exception.GlobalExceptionHandler" id="ent0003" data-source-line="16"><rect x="2648.54" y="79.2969" width="200.9297" height="32" fill="#F1F1F1" style="stroke:#181818;stroke-width:0.5;" rx="2.5" ry="2.5"/><ellipse cx="2663.54" cy="95.2969" rx="11" ry="11" fill="#ADD1B2" style="stroke:#181818;stroke-width:1;"/><path d="M2666.5088,100.9375 Q2665.9306,101.2344 2665.29,101.375 Q2664.6494,101.5313 2663.9463,101.5313 Q2661.4463,101.5313 2660.1181,99.8906 Q2658.8056,98.2344 2658.8056,95.1094 Q2658.8056,91.9844 2660.1181,90.3281 Q2661.4463,88.6719 2663.9463,88.6719 Q2664.6494,88.6719 2665.29,88.8281 Q2665.9463,88.9844 2666.5088,89.2813 L2666.5088,92 Q2665.8838,91.4219 2665.29,91.1563 Q2664.6963,90.875 2664.0713,90.875 Q2662.7275,90.875 2662.04,91.9531 Q2661.3525,93.0156 2661.3525,95.1094 Q2661.3525,97.2031 2662.04,98.2813 Q2662.7275,99.3438 2664.0713,99.3438 Q2664.6963,99.3438 2665.29,99.0781 Q2665.8838,98.7969 2666.5088,98.2188 L2666.5088,100.9375 Z " fill="#000000"/><text x="2677.54" y="100.1436" fill="#000000" font-size="14" lengthAdjust="spacing" textLength="168.9297" font-family="sans-serif">GlobalExceptionHandler</text></g><!--class UserController--><g class="entity" data-qualified-name="controller.UserController" id="ent0005" data-source-line="21"><rect x="1795.46" y="212.9969" width="133.083" height="32" fill="#F1F1F1" style="stroke:#181818;stroke-width:0.5;" rx="2.5" ry="2.5"/><ellipse cx="1810.46" cy="228.9969" rx="11" ry="11" fill="#ADD1B2" style="stroke:#181818;stroke-width:1;"/><path d="M1813.4288,234.6375 Q1812.8506,234.9344 1812.21,235.075 Q1811.5694,235.2313 1810.8663,235.2313 Q1808.3663,235.2313 1807.0381,233.5906 Q1805.7256,231.9344 1805.7256,228.8094 Q1805.7256,225.6844 1807.0381,224.0281 Q1808.3663,222.3719 1810.8663,222.3719 Q1811.5694,222.3719 1812.21,222.5281 Q1812.8663,222.6844 1813.4288,222.9813 L1813.4288,225.7 Q1812.8038,225.1219 1812.21,224.8563 Q1811.6163,224.575 1810.9913,224.575 Q1809.6475,224.575 1808.96,225.6531 Q1808.2725,226.7156 1808.2725,228.8094 Q1808.2725,230.9031 1808.96,231.9813 Q1809.6475,233.0438 1810.9913,233.0438 Q1811.6163,233.0438 1812.21,232.7781 Q1812.8038,232.4969 1813.4288,231.9188 L1813.4288,234.6375 Z " fill="#000000"/><text x="1824.46" y="233.8436" fill="#000000" font-size="14" lengthAdjust="spacing" textLength="101.083" font-family="sans-serif">UserController</text></g><!--class FileTypeController--><g class="entity" data-qualified-name="controller.FileTypeController" id="ent0006" data-source-line="22"><rect x="1999.02" y="212.9969" width="159.9551" height="32" fill="#F1F1F1" style="stroke:#181818;stroke-width:0.5;" rx="2.5" ry="2.5"/><ellipse cx="2014.02" cy="228.9969" rx="11" ry="11" fill="#ADD1B2" style="stroke:#181818;stroke-width:1;"/><path d="M2016.9888,234.6375 Q2016.4106,234.9344 2015.77,235.075 Q2015.1294,235.2313 2014.4263,235.2313 Q2011.9263,235.2313 2010.5981,233.5906 Q2009.2856,231.9344 2009.2856,228.8094 Q2009.2856,225.6844 2010.5981,224.0281 Q2011.9263,222.3719 2014.4263,222.3719 Q2015.1294,222.3719 2015.77,222.5281 Q2016.4263,222.6844 2016.9888,222.9813 L2016.9888,225.7 Q2016.3638,225.1219 2015.77,224.8563 Q2015.1763,224.575 2014.5513,224.575 Q2013.2075,224.575 2012.52,225.6531 Q2011.8325,226.7156 2011.8325,228.8094 Q2011.8325,230.9031 2012.52,231.9813 Q2013.2075,233.0438 2014.5513,233.0438 Q2015.1763,233.0438 2015.77,232.7781 Q2016.3638,232.4969 2016.9888,231.9188 L2016.9888,234.6375 Z " fill="#000000"/><text x="2028.02" y="233.8436" fill="#000000" font-size="14" lengthAdjust="spacing" textLength="127.9551" font-family="sans-serif">FileTypeController</text></g><!--class DocumentController--><g class="entity" data-qualified-name="controller.DocumentController" id="ent0007" data-source-line="23"><rect x="1552.15" y="212.9969" width="173.7021" height="32" fill="#F1F1F1" style="stroke:#181818;stroke-width:0.5;" rx="2.5" ry="2.5"/><ellipse cx="1567.15" cy="228.9969" rx="11" ry="11" fill="#ADD1B2" style="stroke:#181818;stroke-width:1;"/><path d="M1570.1188,234.6375 Q1569.5406,234.9344 1568.9,235.075 Q1568.2594,235.2313 1567.5563,235.2313 Q1565.0563,235.2313 1563.7281,233.5906 Q1562.4156,231.9344 1562.4156,228.8094 Q1562.4156,225.6844 1563.7281,224.0281 Q1565.0563,222.3719 1567.5563,222.3719 Q1568.2594,222.3719 1568.9,222.5281 Q1569.5563,222.6844 1570.1188,222.9813 L1570.1188,225.7 Q1569.4938,225.1219 1568.9,224.8563 Q1568.3063,224.575 1567.6813,224.575 Q1566.3375,224.575 1565.65,225.6531 Q1564.9625,226.7156 1564.9625,228.8094 Q1564.9625,230.9031 1565.65,231.9813 Q1566.3375,233.0438 1567.6813,233.0438 Q1568.3063,233.0438 1568.9,232.7781 Q1569.4938,232.4969 1570.1188,231.9188 L1570.1188,234.6375 Z " fill="#000000"/><text x="1581.15" y="233.8436" fill="#000000" font-size="14" lengthAdjust="spacing" textLength="141.7021" font-family="sans-serif">DocumentController</text></g><!--class SummaryController--><g class="entity" data-qualified-name="controller.SummaryController" id="ent0008" data-source-line="24"><rect x="830.59" y="212.9969" width="168.8281" height="32" fill="#F1F1F1" style="stroke:#181818;stroke-width:0.5;" rx="2.5" ry="2.5"/><ellipse cx="845.59" cy="228.9969" rx="11" ry="11" fill="#ADD1B2" style="stroke:#181818;stroke-width:1;"/><path d="M848.5588,234.6375 Q847.9806,234.9344 847.34,235.075 Q846.6994,235.2313 845.9963,235.2313 Q843.4963,235.2313 842.1681,233.5906 Q840.8556,231.9344 840.8556,228.8094 Q840.8556,225.6844 842.1681,224.0281 Q843.4963,222.3719 845.9963,222.3719 Q846.6994,222.3719 847.34,222.5281 Q847.9963,222.6844 848.5588,222.9813 L848.5588,225.7 Q847.9338,225.1219 847.34,224.8563 Q846.7463,224.575 846.1213,224.575 Q844.7775,224.575 844.09,225.6531 Q843.4025,226.7156 843.4025,228.8094 Q843.4025,230.9031 844.09,231.9813 Q844.7775,233.0438 846.1213,233.0438 Q846.7463,233.0438 847.34,232.7781 Q847.9338,232.4969 848.5588,231.9188 L848.5588,234.6375 Z " fill="#000000"/><text x="859.59" y="233.8436" fill="#000000" font-size="14" lengthAdjust="spacing" textLength="136.8281" font-family="sans-serif">SummaryController</text></g><!--class TriviaController--><g class="entity" data-qualified-name="controller.TriviaController" id="ent0009" data-source-line="25"><rect x="620.94" y="212.9969" width="140.124" height="32" fill="#F1F1F1" style="stroke:#181818;stroke-width:0.5;" rx="2.5" ry="2.5"/><ellipse cx="635.94" cy="228.9969" rx="11" ry="11" fill="#ADD1B2" style="stroke:#181818;stroke-width:1;"/><path d="M638.9088,234.6375 Q638.3306,234.9344 637.69,235.075 Q637.0494,235.2313 636.3463,235.2313 Q633.8463,235.2313 632.5181,233.5906 Q631.2056,231.9344 631.2056,228.8094 Q631.2056,225.6844 632.5181,224.0281 Q633.8463,222.3719 636.3463,222.3719 Q637.0494,222.3719 637.69,222.5281 Q638.3463,222.6844 638.9088,222.9813 L638.9088,225.7 Q638.2838,225.1219 637.69,224.8563 Q637.0963,224.575 636.4713,224.575 Q635.1275,224.575 634.44,225.6531 Q633.7525,226.7156 633.7525,228.8094 Q633.7525,230.9031 634.44,231.9813 Q635.1275,233.0438 636.4713,233.0438 Q637.0963,233.0438 637.69,232.7781 Q638.2838,232.4969 638.9088,231.9188 L638.9088,234.6375 Z " fill="#000000"/><text x="649.94" y="233.8436" fill="#000000" font-size="14" lengthAdjust="spacing" textLength="108.124" font-family="sans-serif">TriviaController</text></g><!--class QuestionController--><g class="entity" data-qualified-name="controller.QuestionController" id="ent0010" data-source-line="26"><rect x="1318.1" y="212.9969" width="163.79" height="32" fill="#F1F1F1" style="stroke:#181818;stroke-width:0.5;" rx="2.5" ry="2.5"/><ellipse cx="1333.1" cy="228.9969" rx="11" ry="11" fill="#ADD1B2" style="stroke:#181818;stroke-width:1;"/><path d="M1336.0688,234.6375 Q1335.4906,234.9344 1334.85,235.075 Q1334.2094,235.2313 1333.5063,235.2313 Q1331.0063,235.2313 1329.6781,233.5906 Q1328.3656,231.9344 1328.3656,228.8094 Q1328.3656,225.6844 1329.6781,224.0281 Q1331.0063,222.3719 1333.5063,222.3719 Q1334.2094,222.3719 1334.85,222.5281 Q1335.5063,222.6844 1336.0688,222.9813 L1336.0688,225.7 Q1335.4438,225.1219 1334.85,224.8563 Q1334.2563,224.575 1333.6313,224.575 Q1332.2875,224.575 1331.6,225.6531 Q1330.9125,226.7156 1330.9125,228.8094 Q1330.9125,230.9031 1331.6,231.9813 Q1332.2875,233.0438 1333.6313,233.0438 Q1334.2563,233.0438 1334.85,232.7781 Q1335.4438,232.4969 1336.0688,231.9188 L1336.0688,234.6375 Z " fill="#000000"/><text x="1347.1" y="233.8436" fill="#000000" font-size="14" lengthAdjust="spacing" textLength="131.79" font-family="sans-serif">QuestionController</text></g><!--class AlternativeController--><g class="entity" data-qualified-name="controller.AlternativeController" id="ent0011" data-source-line="27"><rect x="1069.89" y="212.9969" width="178.2275" height="32" fill="#F1F1F1" style="stroke:#181818;stroke-width:0.5;" rx="2.5" ry="2.5"/><ellipse cx="1084.89" cy="228.9969" rx="11" ry="11" fill="#ADD1B2" style="stroke:#181818;stroke-width:1;"/><path d="M1087.8588,234.6375 Q1087.2806,234.9344 1086.64,235.075 Q1085.9994,235.2313 1085.2963,235.2313 Q1082.7963,235.2313 1081.4681,233.5906 Q1080.1556,231.9344 1080.1556,228.8094 Q1080.1556,225.6844 1081.4681,224.0281 Q1082.7963,222.3719 1085.2963,222.3719 Q1085.9994,222.3719 1086.64,222.5281 Q1087.2963,222.6844 1087.8588,222.9813 L1087.8588,225.7 Q1087.2338,225.1219 1086.64,224.8563 Q1086.0463,224.575 1085.4213,224.575 Q1084.0775,224.575 1083.39,225.6531 Q1082.7025,226.7156 1082.7025,228.8094 Q1082.7025,230.9031 1083.39,231.9813 Q1084.0775,233.0438 1085.4213,233.0438 Q1086.0463,233.0438 1086.64,232.7781 Q1087.2338,232.4969 1087.8588,231.9188 L1087.8588,234.6375 Z " fill="#000000"/><text x="1098.89" y="233.8436" fill="#000000" font-size="14" lengthAdjust="spacing" textLength="146.2275" font-family="sans-serif">AlternativeController</text></g><!--class UserDTO--><g class="entity" data-qualified-name="dto.UserDTO" id="ent0013" data-source-line="33"><rect x="1012.87" y="615.6969" width="94.2617" height="32" fill="#F1F1F1" style="stroke:#181818;stroke-width:0.5;" rx="2.5" ry="2.5"/><ellipse cx="1027.87" cy="631.6969" rx="11" ry="11" fill="#ADD1B2" style="stroke:#181818;stroke-width:1;"/><path d="M1030.8388,637.3375 Q1030.2606,637.6344 1029.62,637.775 Q1028.9794,637.9313 1028.2763,637.9313 Q1025.7763,637.9313 1024.4481,636.2906 Q1023.1356,634.6344 1023.1356,631.5094 Q1023.1356,628.3844 1024.4481,626.7281 Q1025.7763,625.0719 1028.2763,625.0719 Q1028.9794,625.0719 1029.62,625.2281 Q1030.2763,625.3844 1030.8388,625.6813 L1030.8388,628.4 Q1030.2138,627.8219 1029.62,627.5563 Q1029.0263,627.275 1028.4013,627.275 Q1027.0575,627.275 1026.37,628.3531 Q1025.6825,629.4156 1025.6825,631.5094 Q1025.6825,633.6031 1026.37,634.6813 Q1027.0575,635.7438 1028.4013,635.7438 Q1029.0263,635.7438 1029.62,635.4781 Q1030.2138,635.1969 1030.8388,634.6188 L1030.8388,637.3375 Z " fill="#000000"/><text x="1041.87" y="636.5436" fill="#000000" font-size="14" lengthAdjust="spacing" textLength="62.2617" font-family="sans-serif">UserDTO</text></g><!--class FileTypeDTO--><g class="entity" data-qualified-name="dto.FileTypeDTO" id="ent0014" data-source-line="34"><rect x="1177.43" y="615.6969" width="121.1338" height="32" fill="#F1F1F1" style="stroke:#181818;stroke-width:0.5;" rx="2.5" ry="2.5"/><ellipse cx="1192.43" cy="631.6969" rx="11" ry="11" fill="#ADD1B2" style="stroke:#181818;stroke-width:1;"/><path d="M1195.3988,637.3375 Q1194.8206,637.6344 1194.18,637.775 Q1193.5394,637.9313 1192.8363,637.9313 Q1190.3363,637.9313 1189.0081,636.2906 Q1187.6956,634.6344 1187.6956,631.5094 Q1187.6956,628.3844 1189.0081,626.7281 Q1190.3363,625.0719 1192.8363,625.0719 Q1193.5394,625.0719 1194.18,625.2281 Q1194.8363,625.3844 1195.3988,625.6813 L1195.3988,628.4 Q1194.7738,627.8219 1194.18,627.5563 Q1193.5863,627.275 1192.9613,627.275 Q1191.6175,627.275 1190.93,628.3531 Q1190.2425,629.4156 1190.2425,631.5094 Q1190.2425,633.6031 1190.93,634.6813 Q1191.6175,635.7438 1192.9613,635.7438 Q1193.5863,635.7438 1194.18,635.4781 Q1194.7738,635.1969 1195.3988,634.6188 L1195.3988,637.3375 Z " fill="#000000"/><text x="1206.43" y="636.5436" fill="#000000" font-size="14" lengthAdjust="spacing" textLength="89.1338" font-family="sans-serif">FileTypeDTO</text></g><!--class DocumentDTO--><g class="entity" data-qualified-name="dto.DocumentDTO" id="ent0015" data-source-line="35"><rect x="807.56" y="615.6969" width="134.8809" height="32" fill="#F1F1F1" style="stroke:#181818;stroke-width:0.5;" rx="2.5" ry="2.5"/><ellipse cx="822.56" cy="631.6969" rx="11" ry="11" fill="#ADD1B2" style="stroke:#181818;stroke-width:1;"/><path d="M825.5288,637.3375 Q824.9506,637.6344 824.31,637.775 Q823.6694,637.9313 822.9663,637.9313 Q820.4663,637.9313 819.1381,636.2906 Q817.8256,634.6344 817.8256,631.5094 Q817.8256,628.3844 819.1381,626.7281 Q820.4663,625.0719 822.9663,625.0719 Q823.6694,625.0719 824.31,625.2281 Q824.9663,625.3844 825.5288,625.6813 L825.5288,628.4 Q824.9038,627.8219 824.31,627.5563 Q823.7163,627.275 823.0913,627.275 Q821.7475,627.275 821.06,628.3531 Q820.3725,629.4156 820.3725,631.5094 Q820.3725,633.6031 821.06,634.6813 Q821.7475,635.7438 823.0913,635.7438 Q823.7163,635.7438 824.31,635.4781 Q824.9038,635.1969 825.5288,634.6188 L825.5288,637.3375 Z " fill="#000000"/><text x="836.56" y="636.5436" fill="#000000" font-size="14" lengthAdjust="spacing" textLength="102.8809" font-family="sans-serif">DocumentDTO</text></g><!--class SummaryDTO--><g class="entity" data-qualified-name="dto.SummaryDTO" id="ent0016" data-source-line="36"><rect x="203" y="615.6969" width="130.0068" height="32" fill="#F1F1F1" style="stroke:#181818;stroke-width:0.5;" rx="2.5" ry="2.5"/><ellipse cx="218" cy="631.6969" rx="11" ry="11" fill="#ADD1B2" style="stroke:#181818;stroke-width:1;"/><path d="M220.9688,637.3375 Q220.3906,637.6344 219.75,637.775 Q219.1094,637.9313 218.4063,637.9313 Q215.9063,637.9313 214.5781,636.2906 Q213.2656,634.6344 213.2656,631.5094 Q213.2656,628.3844 214.5781,626.7281 Q215.9063,625.0719 218.4063,625.0719 Q219.1094,625.0719 219.75,625.2281 Q220.4063,625.3844 220.9688,625.6813 L220.9688,628.4 Q220.3438,627.8219 219.75,627.5563 Q219.1563,627.275 218.5313,627.275 Q217.1875,627.275 216.5,628.3531 Q215.8125,629.4156 215.8125,631.5094 Q215.8125,633.6031 216.5,634.6813 Q217.1875,635.7438 218.5313,635.7438 Q219.1563,635.7438 219.75,635.4781 Q220.3438,635.1969 220.9688,634.6188 L220.9688,637.3375 Z " fill="#000000"/><text x="232" y="636.5436" fill="#000000" font-size="14" lengthAdjust="spacing" textLength="98.0068" font-family="sans-serif">SummaryDTO</text></g><!--class TriviaDTO--><g class="entity" data-qualified-name="dto.TriviaDTO" id="ent0017" data-source-line="37"><rect x="31.35" y="615.6969" width="101.3027" height="32" fill="#F1F1F1" style="stroke:#181818;stroke-width:0.5;" rx="2.5" ry="2.5"/><ellipse cx="46.35" cy="631.6969" rx="11" ry="11" fill="#ADD1B2" style="stroke:#181818;stroke-width:1;"/><path d="M49.3188,637.3375 Q48.7406,637.6344 48.1,637.775 Q47.4594,637.9313 46.7563,637.9313 Q44.2563,637.9313 42.9281,636.2906 Q41.6156,634.6344 41.6156,631.5094 Q41.6156,628.3844 42.9281,626.7281 Q44.2563,625.0719 46.7563,625.0719 Q47.4594,625.0719 48.1,625.2281 Q48.7563,625.3844 49.3188,625.6813 L49.3188,628.4 Q48.6938,627.8219 48.1,627.5563 Q47.5063,627.275 46.8813,627.275 Q45.5375,627.275 44.85,628.3531 Q44.1625,629.4156 44.1625,631.5094 Q44.1625,633.6031 44.85,634.6813 Q45.5375,635.7438 46.8813,635.7438 Q47.5063,635.7438 48.1,635.4781 Q48.6938,635.1969 49.3188,634.6188 L49.3188,637.3375 Z " fill="#000000"/><text x="60.35" y="636.5436" fill="#000000" font-size="14" lengthAdjust="spacing" textLength="69.3027" font-family="sans-serif">TriviaDTO</text></g><!--class QuestionDTO--><g class="entity" data-qualified-name="dto.QuestionDTO" id="ent0018" data-source-line="38"><rect x="612.52" y="615.6969" width="124.9688" height="32" fill="#F1F1F1" style="stroke:#181818;stroke-width:0.5;" rx="2.5" ry="2.5"/><ellipse cx="627.52" cy="631.6969" rx="11" ry="11" fill="#ADD1B2" style="stroke:#181818;stroke-width:1;"/><path d="M630.4888,637.3375 Q629.9106,637.6344 629.27,637.775 Q628.6294,637.9313 627.9263,637.9313 Q625.4263,637.9313 624.0981,636.2906 Q622.7856,634.6344 622.7856,631.5094 Q622.7856,628.3844 624.0981,626.7281 Q625.4263,625.0719 627.9263,625.0719 Q628.6294,625.0719 629.27,625.2281 Q629.9263,625.3844 630.4888,625.6813 L630.4888,628.4 Q629.8638,627.8219 629.27,627.5563 Q628.6763,627.275 628.0513,627.275 Q626.7075,627.275 626.02,628.3531 Q625.3325,629.4156 625.3325,631.5094 Q625.3325,633.6031 626.02,634.6813 Q626.7075,635.7438 628.0513,635.7438 Q628.6763,635.7438 629.27,635.4781 Q629.8638,635.1969 630.4888,634.6188 L630.4888,637.3375 Z " fill="#000000"/><text x="641.52" y="636.5436" fill="#000000" font-size="14" lengthAdjust="spacing" textLength="92.9688" font-family="sans-serif">QuestionDTO</text></g><!--class AlternativeDTO--><g class="entity" data-qualified-name="dto.AlternativeDTO" id="ent0019" data-source-line="39"><rect x="403.3" y="615.6969" width="139.4063" height="32" fill="#F1F1F1" style="stroke:#181818;stroke-width:0.5;" rx="2.5" ry="2.5"/><ellipse cx="418.3" cy="631.6969" rx="11" ry="11" fill="#ADD1B2" style="stroke:#181818;stroke-width:1;"/><path d="M421.2688,637.3375 Q420.6906,637.6344 420.05,637.775 Q419.4094,637.9313 418.7063,637.9313 Q416.2063,637.9313 414.8781,636.2906 Q413.5656,634.6344 413.5656,631.5094 Q413.5656,628.3844 414.8781,626.7281 Q416.2063,625.0719 418.7063,625.0719 Q419.4094,625.0719 420.05,625.2281 Q420.7063,625.3844 421.2688,625.6813 L421.2688,628.4 Q420.6438,627.8219 420.05,627.5563 Q419.4563,627.275 418.8313,627.275 Q417.4875,627.275 416.8,628.3531 Q416.1125,629.4156 416.1125,631.5094 Q416.1125,633.6031 416.8,634.6813 Q417.4875,635.7438 418.8313,635.7438 Q419.4563,635.7438 420.05,635.4781 Q420.6438,635.1969 421.2688,634.6188 L421.2688,637.3375 Z " fill="#000000"/><text x="432.3" y="636.5436" fill="#000000" font-size="14" lengthAdjust="spacing" textLength="107.4063" font-family="sans-serif">AlternativeDTO</text></g><!--class IUserService--><g class="entity" data-qualified-name="service.IUserService" id="ent0021" data-source-line="45"><rect x="2437.11" y="346.6969" width="119.7803" height="32" fill="#F1F1F1" style="stroke:#181818;stroke-width:0.5;" rx="2.5" ry="2.5"/><ellipse cx="2452.11" cy="362.6969" rx="11" ry="11" fill="#B4A7E5" style="stroke:#181818;stroke-width:1;"/><path d="M2448.0319,358.4625 L2448.0319,356.3063 L2455.4225,356.3063 L2455.4225,358.4625 L2452.9538,358.4625 L2452.9538,366.5406 L2455.4225,366.5406 L2455.4225,368.6969 L2448.0319,368.6969 L2448.0319,366.5406 L2450.5006,366.5406 L2450.5006,358.4625 L2448.0319,358.4625 Z " fill="#000000"/><text x="2466.11" y="367.5436" fill="#000000" font-size="14" lengthAdjust="spacing" textLength="87.7803" font-style="italic" font-family="sans-serif">IUserService</text></g><!--class IFileTypeService--><g class="entity" data-qualified-name="service.IFileTypeService" id="ent0022" data-source-line="46"><rect x="2626.67" y="346.6969" width="146.6523" height="32" fill="#F1F1F1" style="stroke:#181818;stroke-width:0.5;" rx="2.5" ry="2.5"/><ellipse cx="2641.67" cy="362.6969" rx="11" ry="11" fill="#B4A7E5" style="stroke:#181818;stroke-width:1;"/><path d="M2637.5919,358.4625 L2637.5919,356.3063 L2644.9825,356.3063 L2644.9825,358.4625 L2642.5138,358.4625 L2642.5138,366.5406 L2644.9825,366.5406 L2644.9825,368.6969 L2637.5919,368.6969 L2637.5919,366.5406 L2640.0606,366.5406 L2640.0606,358.4625 L2637.5919,358.4625 Z " fill="#000000"/><text x="2655.67" y="367.5436" fill="#000000" font-size="14" lengthAdjust="spacing" textLength="114.6523" font-style="italic" font-family="sans-serif">IFileTypeService</text></g><!--class IDocumentService--><g class="entity" data-qualified-name="service.IDocumentService" id="ent0023" data-source-line="47"><rect x="2206.8" y="346.6969" width="160.3994" height="32" fill="#F1F1F1" style="stroke:#181818;stroke-width:0.5;" rx="2.5" ry="2.5"/><ellipse cx="2221.8" cy="362.6969" rx="11" ry="11" fill="#B4A7E5" style="stroke:#181818;stroke-width:1;"/><path d="M2217.7219,358.4625 L2217.7219,356.3063 L2225.1125,356.3063 L2225.1125,358.4625 L2222.6438,358.4625 L2222.6438,366.5406 L2225.1125,366.5406 L2225.1125,368.6969 L2217.7219,368.6969 L2217.7219,366.5406 L2220.1906,366.5406 L2220.1906,358.4625 L2217.7219,358.4625 Z " fill="#000000"/><text x="2235.8" y="367.5436" fill="#000000" font-size="14" lengthAdjust="spacing" textLength="128.3994" font-style="italic" font-family="sans-serif">IDocumentService</text></g><!--class ISummaryService--><g class="entity" data-qualified-name="service.ISummaryService" id="ent0024" data-source-line="48"><rect x="1526.24" y="346.6969" width="155.5254" height="32" fill="#F1F1F1" style="stroke:#181818;stroke-width:0.5;" rx="2.5" ry="2.5"/><ellipse cx="1541.24" cy="362.6969" rx="11" ry="11" fill="#B4A7E5" style="stroke:#181818;stroke-width:1;"/><path d="M1537.1619,358.4625 L1537.1619,356.3063 L1544.5525,356.3063 L1544.5525,358.4625 L1542.0838,358.4625 L1542.0838,366.5406 L1544.5525,366.5406 L1544.5525,368.6969 L1537.1619,368.6969 L1537.1619,366.5406 L1539.6306,366.5406 L1539.6306,358.4625 L1537.1619,358.4625 Z " fill="#000000"/><text x="1555.24" y="367.5436" fill="#000000" font-size="14" lengthAdjust="spacing" textLength="123.5254" font-style="italic" font-family="sans-serif">ISummaryService</text></g><!--class ITriviaService--><g class="entity" data-qualified-name="service.ITriviaService" id="ent0025" data-source-line="49"><rect x="1329.59" y="346.6969" width="126.8213" height="32" fill="#F1F1F1" style="stroke:#181818;stroke-width:0.5;" rx="2.5" ry="2.5"/><ellipse cx="1344.59" cy="362.6969" rx="11" ry="11" fill="#B4A7E5" style="stroke:#181818;stroke-width:1;"/><path d="M1340.5119,358.4625 L1340.5119,356.3063 L1347.9025,356.3063 L1347.9025,358.4625 L1345.4338,358.4625 L1345.4338,366.5406 L1347.9025,366.5406 L1347.9025,368.6969 L1340.5119,368.6969 L1340.5119,366.5406 L1342.9806,366.5406 L1342.9806,358.4625 L1340.5119,358.4625 Z " fill="#000000"/><text x="1358.59" y="367.5436" fill="#000000" font-size="14" lengthAdjust="spacing" textLength="94.8213" font-style="italic" font-family="sans-serif">ITriviaService</text></g><!--class IQuestionService--><g class="entity" data-qualified-name="service.IQuestionService" id="ent0026" data-source-line="50"><rect x="1986.76" y="346.6969" width="150.4873" height="32" fill="#F1F1F1" style="stroke:#181818;stroke-width:0.5;" rx="2.5" ry="2.5"/><ellipse cx="2001.76" cy="362.6969" rx="11" ry="11" fill="#B4A7E5" style="stroke:#181818;stroke-width:1;"/><path d="M1997.6819,358.4625 L1997.6819,356.3063 L2005.0725,356.3063 L2005.0725,358.4625 L2002.6038,358.4625 L2002.6038,366.5406 L2005.0725,366.5406 L2005.0725,368.6969 L1997.6819,368.6969 L1997.6819,366.5406 L2000.1506,366.5406 L2000.1506,358.4625 L1997.6819,358.4625 Z " fill="#000000"/><text x="2015.76" y="367.5436" fill="#000000" font-size="14" lengthAdjust="spacing" textLength="118.4873" font-style="italic" font-family="sans-serif">IQuestionService</text></g><!--class IAlternativeService--><g class="entity" data-qualified-name="service.IAlternativeService" id="ent0027" data-source-line="51"><rect x="1751.54" y="346.6969" width="164.9248" height="32" fill="#F1F1F1" style="stroke:#181818;stroke-width:0.5;" rx="2.5" ry="2.5"/><ellipse cx="1766.54" cy="362.6969" rx="11" ry="11" fill="#B4A7E5" style="stroke:#181818;stroke-width:1;"/><path d="M1762.4619,358.4625 L1762.4619,356.3063 L1769.8525,356.3063 L1769.8525,358.4625 L1767.3838,358.4625 L1767.3838,366.5406 L1769.8525,366.5406 L1769.8525,368.6969 L1762.4619,368.6969 L1762.4619,366.5406 L1764.9306,366.5406 L1764.9306,358.4625 L1762.4619,358.4625 Z " fill="#000000"/><text x="1780.54" y="367.5436" fill="#000000" font-size="14" lengthAdjust="spacing" textLength="132.9248" font-style="italic" font-family="sans-serif">IAlternativeService</text></g><!--class UserServiceImpl--><g class="entity" data-qualified-name="service.impl.UserServiceImpl" id="ent0029" data-source-line="57"><rect x="2564.9" y="468.6969" width="146.1943" height="32" fill="#F1F1F1" style="stroke:#181818;stroke-width:0.5;" rx="2.5" ry="2.5"/><ellipse cx="2579.9" cy="484.6969" rx="11" ry="11" fill="#ADD1B2" style="stroke:#181818;stroke-width:1;"/><path d="M2582.8688,490.3375 Q2582.2906,490.6344 2581.65,490.775 Q2581.0094,490.9313 2580.3063,490.9313 Q2577.8063,490.9313 2576.4781,489.2906 Q2575.1656,487.6344 2575.1656,484.5094 Q2575.1656,481.3844 2576.4781,479.7281 Q2577.8063,478.0719 2580.3063,478.0719 Q2581.0094,478.0719 2581.65,478.2281 Q2582.3063,478.3844 2582.8688,478.6813 L2582.8688,481.4 Q2582.2438,480.8219 2581.65,480.5563 Q2581.0563,480.275 2580.4313,480.275 Q2579.0875,480.275 2578.4,481.3531 Q2577.7125,482.4156 2577.7125,484.5094 Q2577.7125,486.6031 2578.4,487.6813 Q2579.0875,488.7438 2580.4313,488.7438 Q2581.0563,488.7438 2581.65,488.4781 Q2582.2438,488.1969 2582.8688,487.6188 L2582.8688,490.3375 Z " fill="#000000"/><text x="2593.9" y="489.5436" fill="#000000" font-size="14" lengthAdjust="spacing" textLength="114.1943" font-family="sans-serif">UserServiceImpl</text></g><!--class FileTypeServiceImpl--><g class="entity" data-qualified-name="service.impl.FileTypeServiceImpl" id="ent0030" data-source-line="58"><rect x="2781.47" y="468.6969" width="173.0664" height="32" fill="#F1F1F1" style="stroke:#181818;stroke-width:0.5;" rx="2.5" ry="2.5"/><ellipse cx="2796.47" cy="484.6969" rx="11" ry="11" fill="#ADD1B2" style="stroke:#181818;stroke-width:1;"/><path d="M2799.4388,490.3375 Q2798.8606,490.6344 2798.22,490.775 Q2797.5794,490.9313 2796.8763,490.9313 Q2794.3763,490.9313 2793.0481,489.2906 Q2791.7356,487.6344 2791.7356,484.5094 Q2791.7356,481.3844 2793.0481,479.7281 Q2794.3763,478.0719 2796.8763,478.0719 Q2797.5794,478.0719 2798.22,478.2281 Q2798.8763,478.3844 2799.4388,478.6813 L2799.4388,481.4 Q2798.8138,480.8219 2798.22,480.5563 Q2797.6263,480.275 2797.0013,480.275 Q2795.6575,480.275 2794.97,481.3531 Q2794.2825,482.4156 2794.2825,484.5094 Q2794.2825,486.6031 2794.97,487.6813 Q2795.6575,488.7438 2797.0013,488.7438 Q2797.6263,488.7438 2798.22,488.4781 Q2798.8138,488.1969 2799.4388,487.6188 L2799.4388,490.3375 Z " fill="#000000"/><text x="2810.47" y="489.5436" fill="#000000" font-size="14" lengthAdjust="spacing" textLength="141.0664" font-family="sans-serif">FileTypeServiceImpl</text></g><!--class DocumentServiceImpl--><g class="entity" data-qualified-name="service.impl.DocumentServiceImpl" id="ent0031" data-source-line="59"><rect x="2307.59" y="468.6969" width="186.8135" height="32" fill="#F1F1F1" style="stroke:#181818;stroke-width:0.5;" rx="2.5" ry="2.5"/><ellipse cx="2322.59" cy="484.6969" rx="11" ry="11" fill="#ADD1B2" style="stroke:#181818;stroke-width:1;"/><path d="M2325.5588,490.3375 Q2324.9806,490.6344 2324.34,490.775 Q2323.6994,490.9313 2322.9963,490.9313 Q2320.4963,490.9313 2319.1681,489.2906 Q2317.8556,487.6344 2317.8556,484.5094 Q2317.8556,481.3844 2319.1681,479.7281 Q2320.4963,478.0719 2322.9963,478.0719 Q2323.6994,478.0719 2324.34,478.2281 Q2324.9963,478.3844 2325.5588,478.6813 L2325.5588,481.4 Q2324.9338,480.8219 2324.34,480.5563 Q2323.7463,480.275 2323.1213,480.275 Q2321.7775,480.275 2321.09,481.3531 Q2320.4025,482.4156 2320.4025,484.5094 Q2320.4025,486.6031 2321.09,487.6813 Q2321.7775,488.7438 2323.1213,488.7438 Q2323.7463,488.7438 2324.34,488.4781 Q2324.9338,488.1969 2325.5588,487.6188 L2325.5588,490.3375 Z " fill="#000000"/><text x="2336.59" y="489.5436" fill="#000000" font-size="14" lengthAdjust="spacing" textLength="154.8135" font-family="sans-serif">DocumentServiceImpl</text></g><!--class SummaryServiceImpl--><g class="entity" data-qualified-name="service.impl.SummaryServiceImpl" id="ent0032" data-source-line="60"><rect x="1547.03" y="468.6969" width="181.9395" height="32" fill="#F1F1F1" style="stroke:#181818;stroke-width:0.5;" rx="2.5" ry="2.5"/><ellipse cx="1562.03" cy="484.6969" rx="11" ry="11" fill="#ADD1B2" style="stroke:#181818;stroke-width:1;"/><path d="M1564.9988,490.3375 Q1564.4206,490.6344 1563.78,490.775 Q1563.1394,490.9313 1562.4363,490.9313 Q1559.9363,490.9313 1558.6081,489.2906 Q1557.2956,487.6344 1557.2956,484.5094 Q1557.2956,481.3844 1558.6081,479.7281 Q1559.9363,478.0719 1562.4363,478.0719 Q1563.1394,478.0719 1563.78,478.2281 Q1564.4363,478.3844 1564.9988,478.6813 L1564.9988,481.4 Q1564.3738,480.8219 1563.78,480.5563 Q1563.1863,480.275 1562.5613,480.275 Q1561.2175,480.275 1560.53,481.3531 Q1559.8425,482.4156 1559.8425,484.5094 Q1559.8425,486.6031 1560.53,487.6813 Q1561.2175,488.7438 1562.5613,488.7438 Q1563.1863,488.7438 1563.78,488.4781 Q1564.3738,488.1969 1564.9988,487.6188 L1564.9988,490.3375 Z " fill="#000000"/><text x="1576.03" y="489.5436" fill="#000000" font-size="14" lengthAdjust="spacing" textLength="149.9395" font-family="sans-serif">SummaryServiceImpl</text></g><!--class TriviaServiceImpl--><g class="entity" data-qualified-name="service.impl.TriviaServiceImpl" id="ent0033" data-source-line="61"><rect x="1323.38" y="468.6969" width="153.2354" height="32" fill="#F1F1F1" style="stroke:#181818;stroke-width:0.5;" rx="2.5" ry="2.5"/><ellipse cx="1338.38" cy="484.6969" rx="11" ry="11" fill="#ADD1B2" style="stroke:#181818;stroke-width:1;"/><path d="M1341.3488,490.3375 Q1340.7706,490.6344 1340.13,490.775 Q1339.4894,490.9313 1338.7863,490.9313 Q1336.2863,490.9313 1334.9581,489.2906 Q1333.6456,487.6344 1333.6456,484.5094 Q1333.6456,481.3844 1334.9581,479.7281 Q1336.2863,478.0719 1338.7863,478.0719 Q1339.4894,478.0719 1340.13,478.2281 Q1340.7863,478.3844 1341.3488,478.6813 L1341.3488,481.4 Q1340.7238,480.8219 1340.13,480.5563 Q1339.5363,480.275 1338.9113,480.275 Q1337.5675,480.275 1336.88,481.3531 Q1336.1925,482.4156 1336.1925,484.5094 Q1336.1925,486.6031 1336.88,487.6813 Q1337.5675,488.7438 1338.9113,488.7438 Q1339.5363,488.7438 1340.13,488.4781 Q1340.7238,488.1969 1341.3488,487.6188 L1341.3488,490.3375 Z " fill="#000000"/><text x="1352.38" y="489.5436" fill="#000000" font-size="14" lengthAdjust="spacing" textLength="121.2354" font-family="sans-serif">TriviaServiceImpl</text></g><!--class QuestionServiceImpl--><g class="entity" data-qualified-name="service.impl.QuestionServiceImpl" id="ent0034" data-source-line="62"><rect x="2060.55" y="468.6969" width="176.9014" height="32" fill="#F1F1F1" style="stroke:#181818;stroke-width:0.5;" rx="2.5" ry="2.5"/><ellipse cx="2075.55" cy="484.6969" rx="11" ry="11" fill="#ADD1B2" style="stroke:#181818;stroke-width:1;"/><path d="M2078.5188,490.3375 Q2077.9406,490.6344 2077.3,490.775 Q2076.6594,490.9313 2075.9563,490.9313 Q2073.4563,490.9313 2072.1281,489.2906 Q2070.8156,487.6344 2070.8156,484.5094 Q2070.8156,481.3844 2072.1281,479.7281 Q2073.4563,478.0719 2075.9563,478.0719 Q2076.6594,478.0719 2077.3,478.2281 Q2077.9563,478.3844 2078.5188,478.6813 L2078.5188,481.4 Q2077.8938,480.8219 2077.3,480.5563 Q2076.7063,480.275 2076.0813,480.275 Q2074.7375,480.275 2074.05,481.3531 Q2073.3625,482.4156 2073.3625,484.5094 Q2073.3625,486.6031 2074.05,487.6813 Q2074.7375,488.7438 2076.0813,488.7438 Q2076.7063,488.7438 2077.3,488.4781 Q2077.8938,488.1969 2078.5188,487.6188 L2078.5188,490.3375 Z " fill="#000000"/><text x="2089.55" y="489.5436" fill="#000000" font-size="14" lengthAdjust="spacing" textLength="144.9014" font-family="sans-serif">QuestionServiceImpl</text></g><!--class AlternativeServiceImpl--><g class="entity" data-qualified-name="service.impl.AlternativeServiceImpl" id="ent0035" data-source-line="63"><rect x="1799.33" y="468.6969" width="191.3389" height="32" fill="#F1F1F1" style="stroke:#181818;stroke-width:0.5;" rx="2.5" ry="2.5"/><ellipse cx="1814.33" cy="484.6969" rx="11" ry="11" fill="#ADD1B2" style="stroke:#181818;stroke-width:1;"/><path d="M1817.2988,490.3375 Q1816.7206,490.6344 1816.08,490.775 Q1815.4394,490.9313 1814.7363,490.9313 Q1812.2363,490.9313 1810.9081,489.2906 Q1809.5956,487.6344 1809.5956,484.5094 Q1809.5956,481.3844 1810.9081,479.7281 Q1812.2363,478.0719 1814.7363,478.0719 Q1815.4394,478.0719 1816.08,478.2281 Q1816.7363,478.3844 1817.2988,478.6813 L1817.2988,481.4 Q1816.6738,480.8219 1816.08,480.5563 Q1815.4863,480.275 1814.8613,480.275 Q1813.5175,480.275 1812.83,481.3531 Q1812.1425,482.4156 1812.1425,484.5094 Q1812.1425,486.6031 1812.83,487.6813 Q1813.5175,488.7438 1814.8613,488.7438 Q1815.4863,488.7438 1816.08,488.4781 Q1816.6738,488.1969 1817.2988,487.6188 L1817.2988,490.3375 Z " fill="#000000"/><text x="1828.33" y="489.5436" fill="#000000" font-size="14" lengthAdjust="spacing" textLength="159.3389" font-family="sans-serif">AlternativeServiceImpl</text></g><!--class UserRepository--><g class="entity" data-qualified-name="repository.UserRepository" id="ent0037" data-source-line="69"><rect x="2856.51" y="615.6969" width="138.9824" height="32" fill="#F1F1F1" style="stroke:#181818;stroke-width:0.5;" rx="2.5" ry="2.5"/><ellipse cx="2871.51" cy="631.6969" rx="11" ry="11" fill="#B4A7E5" style="stroke:#181818;stroke-width:1;"/><path d="M2867.4319,627.4625 L2867.4319,625.3063 L2874.8225,625.3063 L2874.8225,627.4625 L2872.3538,627.4625 L2872.3538,635.5406 L2874.8225,635.5406 L2874.8225,637.6969 L2867.4319,637.6969 L2867.4319,635.5406 L2869.9006,635.5406 L2869.9006,627.4625 L2867.4319,627.4625 Z " fill="#000000"/><text x="2885.51" y="636.5436" fill="#000000" font-size="14" lengthAdjust="spacing" textLength="106.9824" font-style="italic" font-family="sans-serif">UserRepository</text></g><!--class FileTypeRepository--><g class="entity" data-qualified-name="repository.FileTypeRepository" id="ent0038" data-source-line="70"><rect x="3065.07" y="615.6969" width="165.8545" height="32" fill="#F1F1F1" style="stroke:#181818;stroke-width:0.5;" rx="2.5" ry="2.5"/><ellipse cx="3080.07" cy="631.6969" rx="11" ry="11" fill="#B4A7E5" style="stroke:#181818;stroke-width:1;"/><path d="M3075.9919,627.4625 L3075.9919,625.3063 L3083.3825,625.3063 L3083.3825,627.4625 L3080.9138,627.4625 L3080.9138,635.5406 L3083.3825,635.5406 L3083.3825,637.6969 L3075.9919,637.6969 L3075.9919,635.5406 L3078.4606,635.5406 L3078.4606,627.4625 L3075.9919,627.4625 Z " fill="#000000"/><text x="3094.07" y="636.5436" fill="#000000" font-size="14" lengthAdjust="spacing" textLength="133.8545" font-style="italic" font-family="sans-serif">FileTypeRepository</text></g><!--class DocumentRepository--><g class="entity" data-qualified-name="repository.DocumentRepository" id="ent0039" data-source-line="71"><rect x="2607.2" y="615.6969" width="179.6016" height="32" fill="#F1F1F1" style="stroke:#181818;stroke-width:0.5;" rx="2.5" ry="2.5"/><ellipse cx="2622.2" cy="631.6969" rx="11" ry="11" fill="#B4A7E5" style="stroke:#181818;stroke-width:1;"/><path d="M2618.1219,627.4625 L2618.1219,625.3063 L2625.5125,625.3063 L2625.5125,627.4625 L2623.0438,627.4625 L2623.0438,635.5406 L2625.5125,635.5406 L2625.5125,637.6969 L2618.1219,637.6969 L2618.1219,635.5406 L2620.5906,635.5406 L2620.5906,627.4625 L2618.1219,627.4625 Z " fill="#000000"/><text x="2636.2" y="636.5436" fill="#000000" font-size="14" lengthAdjust="spacing" textLength="147.6016" font-style="italic" font-family="sans-serif">DocumentRepository</text></g><!--class SummaryRepository--><g class="entity" data-qualified-name="repository.SummaryRepository" id="ent0040" data-source-line="72"><rect x="1868.64" y="615.6969" width="174.7275" height="32" fill="#F1F1F1" style="stroke:#181818;stroke-width:0.5;" rx="2.5" ry="2.5"/><ellipse cx="1883.64" cy="631.6969" rx="11" ry="11" fill="#B4A7E5" style="stroke:#181818;stroke-width:1;"/><path d="M1879.5619,627.4625 L1879.5619,625.3063 L1886.9525,625.3063 L1886.9525,627.4625 L1884.4838,627.4625 L1884.4838,635.5406 L1886.9525,635.5406 L1886.9525,637.6969 L1879.5619,637.6969 L1879.5619,635.5406 L1882.0306,635.5406 L1882.0306,627.4625 L1879.5619,627.4625 Z " fill="#000000"/><text x="1897.64" y="636.5436" fill="#000000" font-size="14" lengthAdjust="spacing" textLength="142.7275" font-style="italic" font-family="sans-serif">SummaryRepository</text></g><!--class TriviaRepository--><g class="entity" data-qualified-name="repository.TriviaRepository" id="ent0041" data-source-line="73"><rect x="1652.99" y="615.6969" width="146.0234" height="32" fill="#F1F1F1" style="stroke:#181818;stroke-width:0.5;" rx="2.5" ry="2.5"/><ellipse cx="1667.99" cy="631.6969" rx="11" ry="11" fill="#B4A7E5" style="stroke:#181818;stroke-width:1;"/><path d="M1663.9119,627.4625 L1663.9119,625.3063 L1671.3025,625.3063 L1671.3025,627.4625 L1668.8338,627.4625 L1668.8338,635.5406 L1671.3025,635.5406 L1671.3025,637.6969 L1663.9119,637.6969 L1663.9119,635.5406 L1666.3806,635.5406 L1666.3806,627.4625 L1663.9119,627.4625 Z " fill="#000000"/><text x="1681.99" y="636.5436" fill="#000000" font-size="14" lengthAdjust="spacing" textLength="114.0234" font-style="italic" font-family="sans-serif">TriviaRepository</text></g><!--class QuestionRepository--><g class="entity" data-qualified-name="repository.QuestionRepository" id="ent0042" data-source-line="74"><rect x="2367.16" y="615.6969" width="169.6895" height="32" fill="#F1F1F1" style="stroke:#181818;stroke-width:0.5;" rx="2.5" ry="2.5"/><ellipse cx="2382.16" cy="631.6969" rx="11" ry="11" fill="#B4A7E5" style="stroke:#181818;stroke-width:1;"/><path d="M2378.0819,627.4625 L2378.0819,625.3063 L2385.4725,625.3063 L2385.4725,627.4625 L2383.0038,627.4625 L2383.0038,635.5406 L2385.4725,635.5406 L2385.4725,637.6969 L2378.0819,637.6969 L2378.0819,635.5406 L2380.5506,635.5406 L2380.5506,627.4625 L2378.0819,627.4625 Z " fill="#000000"/><text x="2396.16" y="636.5436" fill="#000000" font-size="14" lengthAdjust="spacing" textLength="137.6895" font-style="italic" font-family="sans-serif">QuestionRepository</text></g><!--class AlternativeRepository--><g class="entity" data-qualified-name="repository.AlternativeRepository" id="ent0043" data-source-line="75"><rect x="2112.94" y="615.6969" width="184.127" height="32" fill="#F1F1F1" style="stroke:#181818;stroke-width:0.5;" rx="2.5" ry="2.5"/><ellipse cx="2127.94" cy="631.6969" rx="11" ry="11" fill="#B4A7E5" style="stroke:#181818;stroke-width:1;"/><path d="M2123.8619,627.4625 L2123.8619,625.3063 L2131.2525,625.3063 L2131.2525,627.4625 L2128.7838,627.4625 L2128.7838,635.5406 L2131.2525,635.5406 L2131.2525,637.6969 L2123.8619,637.6969 L2123.8619,635.5406 L2126.3306,635.5406 L2126.3306,627.4625 L2123.8619,627.4625 Z " fill="#000000"/><text x="2141.94" y="636.5436" fill="#000000" font-size="14" lengthAdjust="spacing" textLength="152.127" font-style="italic" font-family="sans-serif">AlternativeRepository</text></g><!--class User--><g class="entity" data-qualified-name="model.User" id="ent0045" data-source-line="80"><rect x="2814.66" y="737.6969" width="178.6738" height="137.7813" fill="#F1F1F1" style="stroke:#181818;stroke-width:0.5;" rx="2.5" ry="2.5"/><ellipse cx="2883.7918" cy="753.6969" rx="11" ry="11" fill="#ADD1B2" style="stroke:#181818;stroke-width:1;"/><path d="M2886.7606,759.3375 Q2886.1825,759.6344 2885.5418,759.775 Q2884.9012,759.9313 2884.1981,759.9313 Q2881.6981,759.9313 2880.37,758.2906 Q2879.0575,756.6344 2879.0575,753.5094 Q2879.0575,750.3844 2880.37,748.7281 Q2881.6981,747.0719 2884.1981,747.0719 Q2884.9012,747.0719 2885.5418,747.2281 Q2886.1981,747.3844 2886.7606,747.6813 L2886.7606,750.4 Q2886.1356,749.8219 2885.5418,749.5563 Q2884.9481,749.275 2884.3231,749.275 Q2882.9793,749.275 2882.2918,750.3531 Q2881.6043,751.4156 2881.6043,753.5094 Q2881.6043,755.6031 2882.2918,756.6813 Q2882.9793,757.7438 2884.3231,757.7438 Q2884.9481,757.7438 2885.5418,757.4781 Q2886.1356,757.1969 2886.7606,756.6188 L2886.7606,759.3375 Z " fill="#000000"/><text x="2904.2918" y="758.5436" fill="#000000" font-size="14" lengthAdjust="spacing" textLength="31.9102" font-family="sans-serif">User</text><line x1="2815.66" y1="769.6969" x2="2992.3338" y2="769.6969" style="stroke:#181818;stroke-width:0.5;"/><text x="2820.66" y="786.692" fill="#000000" font-size="14" lengthAdjust="spacing" textLength="96.3457" font-family="sans-serif">-userId : Long</text><text x="2820.66" y="802.9889" fill="#000000" font-size="14" lengthAdjust="spacing" textLength="129.1104" font-family="sans-serif">-firstName : String</text><text x="2820.66" y="819.2857" fill="#000000" font-size="14" lengthAdjust="spacing" textLength="127.0049" font-family="sans-serif">-lastName : String</text><text x="2820.66" y="835.5826" fill="#000000" font-size="14" lengthAdjust="spacing" textLength="99.0596" font-family="sans-serif">-email : String</text><text x="2820.66" y="851.8795" fill="#000000" font-size="14" lengthAdjust="spacing" textLength="127.1621" font-family="sans-serif">-password : String</text><text x="2820.66" y="868.1764" fill="#000000" font-size="14" lengthAdjust="spacing" textLength="166.6738" font-family="sans-serif">-registrationDate : Date</text></g><!--class FileType--><g class="entity" data-qualified-name="model.FileType" id="ent0046" data-source-line="88"><rect x="3063.49" y="770.2869" width="145.0273" height="72.5938" fill="#F1F1F1" style="stroke:#181818;stroke-width:0.5;" rx="2.5" ry="2.5"/><ellipse cx="3102.9003" cy="786.2869" rx="11" ry="11" fill="#ADD1B2" style="stroke:#181818;stroke-width:1;"/><path d="M3105.8691,791.9275 Q3105.2909,792.2244 3104.6503,792.365 Q3104.0097,792.5213 3103.3066,792.5213 Q3100.8066,792.5213 3099.4784,790.8806 Q3098.1659,789.2244 3098.1659,786.0994 Q3098.1659,782.9744 3099.4784,781.3181 Q3100.8066,779.6619 3103.3066,779.6619 Q3104.0097,779.6619 3104.6503,779.8181 Q3105.3066,779.9744 3105.8691,780.2713 L3105.8691,782.99 Q3105.2441,782.4119 3104.6503,782.1463 Q3104.0566,781.865 3103.4316,781.865 Q3102.0878,781.865 3101.4003,782.9431 Q3100.7128,784.0056 3100.7128,786.0994 Q3100.7128,788.1931 3101.4003,789.2713 Q3102.0878,790.3338 3103.4316,790.3338 Q3104.0566,790.3338 3104.6503,790.0681 Q3105.2441,789.7869 3105.8691,789.2088 L3105.8691,791.9275 Z " fill="#000000"/><text x="3122.3248" y="791.1336" fill="#000000" font-size="14" lengthAdjust="spacing" textLength="58.7822" font-family="sans-serif">FileType</text><line x1="3064.49" y1="802.2869" x2="3207.5173" y2="802.2869" style="stroke:#181818;stroke-width:0.5;"/><text x="3069.49" y="819.282" fill="#000000" font-size="14" lengthAdjust="spacing" textLength="121.4678" font-family="sans-serif">-fileTypeId : Long</text><text x="3069.49" y="835.5789" fill="#000000" font-size="14" lengthAdjust="spacing" textLength="133.0273" font-family="sans-serif">-typeName : String</text></g><!--class Document--><g class="entity" data-qualified-name="model.Document" id="ent0047" data-source-line="92"><rect x="2926.33" y="965.4769" width="173.3486" height="105.1875" fill="#F1F1F1" style="stroke:#181818;stroke-width:0.5;" rx="2.5" ry="2.5"/><ellipse cx="2972.4897" cy="981.4769" rx="11" ry="11" fill="#ADD1B2" style="stroke:#181818;stroke-width:1;"/><path d="M2975.4584,987.1175 Q2974.8803,987.4144 2974.2397,987.555 Q2973.599,987.7113 2972.8959,987.7113 Q2970.3959,987.7113 2969.0678,986.0706 Q2967.7553,984.4144 2967.7553,981.2894 Q2967.7553,978.1644 2969.0678,976.5081 Q2970.3959,974.8519 2972.8959,974.8519 Q2973.599,974.8519 2974.2397,975.0081 Q2974.8959,975.1644 2975.4584,975.4613 L2975.4584,978.18 Q2974.8334,977.6019 2974.2397,977.3363 Q2973.6459,977.055 2973.0209,977.055 Q2971.6772,977.055 2970.9897,978.1331 Q2970.3022,979.1956 2970.3022,981.2894 Q2970.3022,983.3831 2970.9897,984.4613 Q2971.6772,985.5238 2973.0209,985.5238 Q2973.6459,985.5238 2974.2397,985.2581 Q2974.8334,984.9769 2975.4584,984.3988 L2975.4584,987.1175 Z " fill="#000000"/><text x="2992.9897" y="986.3236" fill="#000000" font-size="14" lengthAdjust="spacing" textLength="72.5293" font-family="sans-serif">Document</text><line x1="2927.33" y1="997.4769" x2="3098.6786" y2="997.4769" style="stroke:#181818;stroke-width:0.5;"/><text x="2932.33" y="1014.472" fill="#000000" font-size="14" lengthAdjust="spacing" textLength="136.4453" font-family="sans-serif">-documentId : Long</text><text x="2932.33" y="1030.7689" fill="#000000" font-size="14" lengthAdjust="spacing" textLength="123.0742" font-family="sans-serif">-fileName : String</text><text x="2932.33" y="1047.0657" fill="#000000" font-size="14" lengthAdjust="spacing" textLength="148.1348" font-family="sans-serif">-extractedText : Clob</text><text x="2932.33" y="1063.3626" fill="#000000" font-size="14" lengthAdjust="spacing" textLength="161.3486" font-family="sans-serif">-processingDate : Date</text></g><!--class Summary--><g class="entity" data-qualified-name="model.Summary" id="ent0048" data-source-line="98"><rect x="3035.13" y="1160.6569" width="173.7314" height="88.8906" fill="#F1F1F1" style="stroke:#181818;stroke-width:0.5;" rx="2.5" ry="2.5"/><ellipse cx="3083.9181" cy="1176.6569" rx="11" ry="11" fill="#ADD1B2" style="stroke:#181818;stroke-width:1;"/><path d="M3086.8868,1182.2975 Q3086.3087,1182.5944 3085.6681,1182.735 Q3085.0275,1182.8913 3084.3243,1182.8913 Q3081.8243,1182.8913 3080.4962,1181.2506 Q3079.1837,1179.5944 3079.1837,1176.4694 Q3079.1837,1173.3444 3080.4962,1171.6881 Q3081.8243,1170.0319 3084.3243,1170.0319 Q3085.0275,1170.0319 3085.6681,1170.1881 Q3086.3243,1170.3444 3086.8868,1170.6413 L3086.8868,1173.36 Q3086.2618,1172.7819 3085.6681,1172.5163 Q3085.0743,1172.235 3084.4493,1172.235 Q3083.1056,1172.235 3082.4181,1173.3131 Q3081.7306,1174.3756 3081.7306,1176.4694 Q3081.7306,1178.5631 3082.4181,1179.6413 Q3083.1056,1180.7038 3084.4493,1180.7038 Q3085.0743,1180.7038 3085.6681,1180.4381 Q3086.2618,1180.1569 3086.8868,1179.5788 L3086.8868,1182.2975 Z " fill="#000000"/><text x="3104.4181" y="1181.5036" fill="#000000" font-size="14" lengthAdjust="spacing" textLength="67.6553" font-family="sans-serif">Summary</text><line x1="3036.13" y1="1192.6569" x2="3207.8614" y2="1192.6569" style="stroke:#181818;stroke-width:0.5;"/><text x="3041.13" y="1209.652" fill="#000000" font-size="14" lengthAdjust="spacing" textLength="131.8721" font-family="sans-serif">-summaryId : Long</text><text x="3041.13" y="1225.9489" fill="#000000" font-size="14" lengthAdjust="spacing" textLength="103.3867" font-family="sans-serif">-content : Clob</text><text x="3041.13" y="1242.2457" fill="#000000" font-size="14" lengthAdjust="spacing" textLength="161.7314" font-family="sans-serif">-generationDate : Date</text></g><!--class Trivia--><g class="entity" data-qualified-name="model.Trivia" id="ent0049" data-source-line="103"><rect x="2791.13" y="1160.6569" width="173.7314" height="88.8906" fill="#F1F1F1" style="stroke:#181818;stroke-width:0.5;" rx="2.5" ry="2.5"/><ellipse cx="2854.2701" cy="1176.6569" rx="11" ry="11" fill="#ADD1B2" style="stroke:#181818;stroke-width:1;"/><path d="M2857.2389,1182.2975 Q2856.6608,1182.5944 2856.0201,1182.735 Q2855.3795,1182.8913 2854.6764,1182.8913 Q2852.1764,1182.8913 2850.8483,1181.2506 Q2849.5358,1179.5944 2849.5358,1176.4694 Q2849.5358,1173.3444 2850.8483,1171.6881 Q2852.1764,1170.0319 2854.6764,1170.0319 Q2855.3795,1170.0319 2856.0201,1170.1881 Q2856.6764,1170.3444 2857.2389,1170.6413 L2857.2389,1173.36 Q2856.6139,1172.7819 2856.0201,1172.5163 Q2855.4264,1172.235 2854.8014,1172.235 Q2853.4576,1172.235 2852.7701,1173.3131 Q2852.0826,1174.3756 2852.0826,1176.4694 Q2852.0826,1178.5631 2852.7701,1179.6413 Q2853.4576,1180.7038 2854.8014,1180.7038 Q2855.4264,1180.7038 2856.0201,1180.4381 Q2856.6139,1180.1569 2857.2389,1179.5788 L2857.2389,1182.2975 Z " fill="#000000"/><text x="2874.7701" y="1181.5036" fill="#000000" font-size="14" lengthAdjust="spacing" textLength="38.9512" font-family="sans-serif">Trivia</text><line x1="2792.13" y1="1192.6569" x2="2963.8614" y2="1192.6569" style="stroke:#181818;stroke-width:0.5;"/><text x="2797.13" y="1209.652" fill="#000000" font-size="14" lengthAdjust="spacing" textLength="101.6982" font-family="sans-serif">-triviaId : Long</text><text x="2797.13" y="1225.9489" fill="#000000" font-size="14" lengthAdjust="spacing" textLength="87.8213" font-family="sans-serif">-title : String</text><text x="2797.13" y="1242.2457" fill="#000000" font-size="14" lengthAdjust="spacing" textLength="161.7314" font-family="sans-serif">-generationDate : Date</text></g><!--class Question--><g class="entity" data-qualified-name="model.Question" id="ent0050" data-source-line="108"><rect x="2808.85" y="1339.5569" width="138.2939" height="72.5938" fill="#F1F1F1" style="stroke:#181818;stroke-width:0.5;" rx="2.5" ry="2.5"/><ellipse cx="2843.5045" cy="1355.5569" rx="11" ry="11" fill="#ADD1B2" style="stroke:#181818;stroke-width:1;"/><path d="M2846.4733,1361.1975 Q2845.8952,1361.4944 2845.2545,1361.635 Q2844.6139,1361.7913 2843.9108,1361.7913 Q2841.4108,1361.7913 2840.0827,1360.1506 Q2838.7702,1358.4944 2838.7702,1355.3694 Q2838.7702,1352.2444 2840.0827,1350.5881 Q2841.4108,1348.9319 2843.9108,1348.9319 Q2844.6139,1348.9319 2845.2545,1349.0881 Q2845.9108,1349.2444 2846.4733,1349.5413 L2846.4733,1352.26 Q2845.8483,1351.6819 2845.2545,1351.4163 Q2844.6608,1351.135 2844.0358,1351.135 Q2842.692,1351.135 2842.0045,1352.2131 Q2841.317,1353.2756 2841.317,1355.3694 Q2841.317,1357.4631 2842.0045,1358.5413 Q2842.692,1359.6038 2844.0358,1359.6038 Q2844.6608,1359.6038 2845.2545,1359.3381 Q2845.8483,1359.0569 2846.4733,1358.4788 L2846.4733,1361.1975 Z " fill="#000000"/><text x="2861.8722" y="1360.4036" fill="#000000" font-size="14" lengthAdjust="spacing" textLength="62.6172" font-family="sans-serif">Question</text><line x1="2809.85" y1="1371.5569" x2="2946.1439" y2="1371.5569" style="stroke:#181818;stroke-width:0.5;"/><text x="2814.85" y="1388.552" fill="#000000" font-size="14" lengthAdjust="spacing" textLength="126.2939" font-family="sans-serif">-questionId : Long</text><text x="2814.85" y="1404.8489" fill="#000000" font-size="14" lengthAdjust="spacing" textLength="121.8643" font-family="sans-serif">-statement : Clob</text></g><!--class Alternative--><g class="entity" data-qualified-name="model.Alternative" id="ent0051" data-source-line="112"><rect x="2796.69" y="1502.1469" width="162.623" height="88.8906" fill="#F1F1F1" style="stroke:#181818;stroke-width:0.5;" rx="2.5" ry="2.5"/><ellipse cx="2835.7958" cy="1518.1469" rx="11" ry="11" fill="#ADD1B2" style="stroke:#181818;stroke-width:1;"/><path d="M2838.7645,1523.7875 Q2838.1864,1524.0844 2837.5458,1524.225 Q2836.9051,1524.3813 2836.202,1524.3813 Q2833.702,1524.3813 2832.3739,1522.7406 Q2831.0614,1521.0844 2831.0614,1517.9594 Q2831.0614,1514.8344 2832.3739,1513.1781 Q2833.702,1511.5219 2836.202,1511.5219 Q2836.9051,1511.5219 2837.5458,1511.6781 Q2838.202,1511.8344 2838.7645,1512.1313 L2838.7645,1514.85 Q2838.1395,1514.2719 2837.5458,1514.0063 Q2836.952,1513.725 2836.327,1513.725 Q2834.9833,1513.725 2834.2958,1514.8031 Q2833.6083,1515.8656 2833.6083,1517.9594 Q2833.6083,1520.0531 2834.2958,1521.1313 Q2834.9833,1522.1938 2836.327,1522.1938 Q2836.952,1522.1938 2837.5458,1521.9281 Q2838.1395,1521.6469 2838.7645,1521.0688 L2838.7645,1523.7875 Z " fill="#000000"/><text x="2855.1526" y="1522.9936" fill="#000000" font-size="14" lengthAdjust="spacing" textLength="77.0547" font-family="sans-serif">Alternative</text><line x1="2797.69" y1="1534.1469" x2="2958.313" y2="1534.1469" style="stroke:#181818;stroke-width:0.5;"/><text x="2802.69" y="1551.142" fill="#000000" font-size="14" lengthAdjust="spacing" textLength="141.8662" font-family="sans-serif">-alternativeId : Long</text><text x="2802.69" y="1567.4389" fill="#000000" font-size="14" lengthAdjust="spacing" textLength="103.3867" font-family="sans-serif">-content : Clob</text><text x="2802.69" y="1583.7357" fill="#000000" font-size="14" lengthAdjust="spacing" textLength="150.623" font-family="sans-serif">-isCorrect : Character</text></g><!--class KidyraApiApplication--><g class="entity" data-qualified-name="KidyraApiApplication" id="ent0001" data-source-line="13"><rect x="1311.42" y="79.2969" width="177.1543" height="32" fill="#F1F1F1" style="stroke:#181818;stroke-width:0.5;" rx="2.5" ry="2.5"/><ellipse cx="1326.42" cy="95.2969" rx="11" ry="11" fill="#ADD1B2" style="stroke:#181818;stroke-width:1;"/><path d="M1329.3888,100.9375 Q1328.8106,101.2344 1328.17,101.375 Q1327.5294,101.5313 1326.8263,101.5313 Q1324.3263,101.5313 1322.9981,99.8906 Q1321.6856,98.2344 1321.6856,95.1094 Q1321.6856,91.9844 1322.9981,90.3281 Q1324.3263,88.6719 1326.8263,88.6719 Q1327.5294,88.6719 1328.17,88.8281 Q1328.8263,88.9844 1329.3888,89.2813 L1329.3888,92 Q1328.7638,91.4219 1328.17,91.1563 Q1327.5763,90.875 1326.9513,90.875 Q1325.6075,90.875 1324.92,91.9531 Q1324.2325,93.0156 1324.2325,95.1094 Q1324.2325,97.2031 1324.92,98.2813 Q1325.6075,99.3438 1326.9513,99.3438 Q1327.5763,99.3438 1328.17,99.0781 Q1328.7638,98.7969 1329.3888,98.2188 L1329.3888,100.9375 Z " fill="#000000"/><text x="1340.42" y="100.1436" fill="#000000" font-size="14" lengthAdjust="spacing" textLength="145.1543" font-family="sans-serif">KidyraApiApplication</text></g><g class="entity" data-qualified-name="GMN114" id="ent0115" data-source-line="198"><path d="M2619.39,201.2969 L2619.39,256.6953 A0,0 0 0 0 2619.39,256.6953 L2878.6112,256.6953 A0,0 0 0 0 2878.6112,256.6953 L2878.6112,211.2969 L2868.6112,201.2969 L2753,201.2969 L2749,111.6869 L2745,201.2969 L2619.39,201.2969 A0,0 0 0 0 2619.39,201.2969" style="stroke:#181818;stroke-width:0.5;" fill="#FEFFDD"/><path d="M2868.6112,201.2969 L2868.6112,211.2969 L2878.6112,211.2969 L2868.6112,201.2969" style="stroke:#181818;stroke-width:0.5;" fill="#FEFFDD"/><text x="2625.39" y="218.3638" fill="#000000" font-size="13" lengthAdjust="spacing" textLength="234.9331" font-family="sans-serif">Intercepta excepciones de todos los</text><text x="2625.39" y="233.4966" fill="#000000" font-size="13" lengthAdjust="spacing" textLength="219.3687" font-family="sans-serif">Controllers vía @ControllerAdvice</text><text x="2625.39" y="248.6294" fill="#000000" font-size="13" lengthAdjust="spacing" textLength="238.2212" font-family="sans-serif">(sin dependencia directa de código).</text></g><!--link KidyraApiApplication to UserController--><g class="link" data-entity-1="ent0001" data-entity-2="ent0005" id="lnk52" data-source-line="120" data-link-type="dependency"><path d="M1488.8,96.0369 C1623.01,96.0369 1862,96.0369 1862,96.0369 C1862,96.0369 1862,172.1869 1862,207.6869" style="stroke:#181818;stroke-width:1;stroke-dasharray:7,7;" fill="none" id="KidyraApiApplication-to-UserController" codeLine="120"/><polygon points="1862,212.6869,1866,203.6869,1862,207.6869,1858,203.6869,1862,212.6869" fill="#181818" style="stroke:#181818;stroke-width:1;stroke-linejoin:miter;stroke-miterlimit:10;"/></g><!--link KidyraApiApplication to FileTypeController--><g class="link" data-entity-1="ent0001" data-entity-2="ent0006" id="lnk53" data-source-line="121" data-link-type="dependency"><path d="M1488.77,88.0369 C1672.82,88.0369 2079,88.0369 2079,88.0369 C2079,88.0369 2079,170.3669 2079,207.5469" style="stroke:#181818;stroke-width:1;stroke-dasharray:7,7;" fill="none" id="KidyraApiApplication-to-FileTypeController" codeLine="121"/><polygon points="2079,212.5469,2083,203.5469,2079,207.5469,2075,203.5469,2079,212.5469" fill="#181818" style="stroke:#181818;stroke-width:1;stroke-linejoin:miter;stroke-miterlimit:10;"/></g><!--link KidyraApiApplication to DocumentController--><g class="link" data-entity-1="ent0001" data-entity-2="ent0007" id="lnk54" data-source-line="122" data-link-type="dependency"><path d="M1488.99,104.0369 C1556.95,104.0369 1639,104.0369 1639,104.0369 C1639,104.0369 1639,173.7869 1639,207.6569" style="stroke:#181818;stroke-width:1;stroke-dasharray:7,7;" fill="none" id="KidyraApiApplication-to-DocumentController" codeLine="122"/><polygon points="1639,212.6569,1643,203.6569,1639,207.6569,1635,203.6569,1639,212.6569" fill="#181818" style="stroke:#181818;stroke-width:1;stroke-linejoin:miter;stroke-miterlimit:10;"/></g><!--link KidyraApiApplication to SummaryController--><g class="link" data-entity-1="ent0001" data-entity-2="ent0008" id="lnk55" data-source-line="123" data-link-type="dependency"><path d="M1311.04,96.0369 C1171.03,96.0369 915,96.0369 915,96.0369 C915,96.0369 915,172.1869 915,207.6869" style="stroke:#181818;stroke-width:1;stroke-dasharray:7,7;" fill="none" id="KidyraApiApplication-to-SummaryController" codeLine="123"/><polygon points="915,212.6869,919,203.6869,915,207.6869,911,203.6869,915,212.6869" fill="#181818" style="stroke:#181818;stroke-width:1;stroke-linejoin:miter;stroke-miterlimit:10;"/></g><!--link KidyraApiApplication to TriviaController--><g class="link" data-entity-1="ent0001" data-entity-2="ent0009" id="lnk56" data-source-line="124" data-link-type="dependency"><path d="M1311.28,88.0369 C1121.04,88.0369 691,88.0369 691,88.0369 C691,88.0369 691,170.3669 691,207.5469" style="stroke:#181818;stroke-width:1;stroke-dasharray:7,7;" fill="none" id="KidyraApiApplication-to-TriviaController" codeLine="124"/><polygon points="691,212.5469,695,203.5469,691,207.5469,687,203.5469,691,212.5469" fill="#181818" style="stroke:#181818;stroke-width:1;stroke-linejoin:miter;stroke-miterlimit:10;"/></g><!--link KidyraApiApplication to QuestionController--><g class="link" data-entity-1="ent0001" data-entity-2="ent0010" id="lnk57" data-source-line="125" data-link-type="dependency"><path d="M1400,111.6869 C1400,137.4869 1400,182.2569 1400,207.8869" style="stroke:#181818;stroke-width:1;stroke-dasharray:7,7;" fill="none" id="KidyraApiApplication-to-QuestionController" codeLine="125"/><polygon points="1400,212.8869,1404,203.8869,1400,207.8869,1396,203.8869,1400,212.8869" fill="#181818" style="stroke:#181818;stroke-width:1;stroke-linejoin:miter;stroke-miterlimit:10;"/></g><!--link KidyraApiApplication to AlternativeController--><g class="link" data-entity-1="ent0001" data-entity-2="ent0011" id="lnk58" data-source-line="126" data-link-type="dependency"><path d="M1310.95,104.0369 C1242.29,104.0369 1159,104.0369 1159,104.0369 C1159,104.0369 1159,173.7869 1159,207.6569" style="stroke:#181818;stroke-width:1;stroke-dasharray:7,7;" fill="none" id="KidyraApiApplication-to-AlternativeController" codeLine="126"/><polygon points="1159,212.6569,1163,203.6569,1159,207.6569,1155,203.6569,1159,212.6569" fill="#181818" style="stroke:#181818;stroke-width:1;stroke-linejoin:miter;stroke-miterlimit:10;"/></g><!--link UserController to UserDTO--><g class="link" data-entity-1="ent0005" data-entity-2="ent0013" id="lnk59" data-source-line="129" data-link-type="dependency"><path d="M1855.96,245.1869 C1855.96,268.5769 1855.96,309.0369 1855.96,309.0369 C1855.96,309.0369 1088.51,309.0369 1088.51,309.0369 C1088.51,309.0369 1088.51,544.4969 1088.51,610.2469" style="stroke:#181818;stroke-width:1;stroke-dasharray:7,7;" fill="none" id="UserController-to-UserDTO" codeLine="129"/><polygon points="1088.51,615.2469,1092.51,606.2469,1088.51,610.2469,1084.51,606.2469,1088.51,615.2469" fill="#181818" style="stroke:#181818;stroke-width:1;stroke-linejoin:miter;stroke-miterlimit:10;"/></g><!--link FileTypeController to FileTypeDTO--><g class="link" data-entity-1="ent0006" data-entity-2="ent0014" id="lnk60" data-source-line="130" data-link-type="dependency"><path d="M2068.13,245.3669 C2068.13,246.4069 2068.13,247.0369 2068.13,247.0369 C2068.13,247.0369 1264.93,247.0369 1264.93,247.0369 C1264.93,247.0369 1264.93,537.8569 1264.93,610.6569" style="stroke:#181818;stroke-width:1;stroke-dasharray:7,7;" fill="none" id="FileTypeController-to-FileTypeDTO" codeLine="130"/><polygon points="1264.93,615.6569,1268.93,606.6569,1264.93,610.6569,1260.93,606.6569,1264.93,615.6569" fill="#181818" style="stroke:#181818;stroke-width:1;stroke-linejoin:miter;stroke-miterlimit:10;"/></g><!--link DocumentController to DocumentDTO--><g class="link" data-entity-1="ent0007" data-entity-2="ent0015" id="lnk61" data-source-line="131" data-link-type="dependency"><path d="M1616.96,245.2269 C1616.96,265.0669 1616.96,296.0369 1616.96,296.0369 C1616.96,296.0369 858.55,296.0369 858.55,296.0369 C858.55,296.0369 858.55,543.4569 858.55,610.5069" style="stroke:#181818;stroke-width:1;stroke-dasharray:7,7;" fill="none" id="DocumentController-to-DocumentDTO" codeLine="131"/><polygon points="858.55,615.5069,862.55,606.5069,858.55,610.5069,854.55,606.5069,858.55,615.5069" fill="#181818" style="stroke:#181818;stroke-width:1;stroke-linejoin:miter;stroke-miterlimit:10;"/></g><!--link SummaryController to SummaryDTO--><g class="link" data-entity-1="ent0008" data-entity-2="ent0016" id="lnk62" data-source-line="132" data-link-type="dependency"><path d="M914.48,245.1769 C914.48,247.4469 914.48,249.0369 914.48,249.0369 C914.48,249.0369 246.33,249.0369 246.33,249.0369 C246.33,249.0369 246.33,537.0069 246.33,610.2469" style="stroke:#181818;stroke-width:1;stroke-dasharray:7,7;" fill="none" id="SummaryController-to-SummaryDTO" codeLine="132"/><polygon points="246.33,615.2469,250.33,606.2469,246.33,610.2469,242.33,606.2469,246.33,615.2469" fill="#181818" style="stroke:#181818;stroke-width:1;stroke-linejoin:miter;stroke-miterlimit:10;"/></g><!--link TriviaController to TriviaDTO--><g class="link" data-entity-1="ent0009" data-entity-2="ent0017" id="lnk63" data-source-line="133" data-link-type="dependency"><path d="M620.72,229.0369 C457.22,229.0369 65.12,229.0369 65.12,229.0369 C65.12,229.0369 65.12,535.0769 65.12,610.4069" style="stroke:#181818;stroke-width:1;stroke-dasharray:7,7;" fill="none" id="TriviaController-to-TriviaDTO" codeLine="133"/><polygon points="65.12,615.4069,69.12,606.4069,65.12,610.4069,61.12,606.4069,65.12,615.4069" fill="#181818" style="stroke:#181818;stroke-width:1;stroke-linejoin:miter;stroke-miterlimit:10;"/></g><!--link QuestionController to QuestionDTO--><g class="link" data-entity-1="ent0010" data-entity-2="ent0018" id="lnk64" data-source-line="134" data-link-type="dependency"><path d="M1393,245.2069 C1393,261.1269 1393,283.0369 1393,283.0369 C1393,283.0369 659.79,283.0369 659.79,283.0369 C659.79,283.0369 659.79,541.4169 659.79,610.3469" style="stroke:#181818;stroke-width:1;stroke-dasharray:7,7;" fill="none" id="QuestionController-to-QuestionDTO" codeLine="134"/><polygon points="659.79,615.3469,663.79,606.3469,659.79,610.3469,655.79,606.3469,659.79,615.3469" fill="#181818" style="stroke:#181818;stroke-width:1;stroke-linejoin:miter;stroke-miterlimit:10;"/></g><!--link AlternativeController to AlternativeDTO--><g class="link" data-entity-1="ent0011" data-entity-2="ent0019" id="lnk65" data-source-line="135" data-link-type="dependency"><path d="M1079.2,245.2169 C1079.2,256.6869 1079.2,270.0369 1079.2,270.0369 C1079.2,270.0369 449.77,270.0369 449.77,270.0369 C449.77,270.0369 449.77,539.4669 449.77,610.2169" style="stroke:#181818;stroke-width:1;stroke-dasharray:7,7;" fill="none" id="AlternativeController-to-AlternativeDTO" codeLine="135"/><polygon points="449.77,615.2169,453.77,606.2169,449.77,610.2169,445.77,606.2169,449.77,615.2169" fill="#181818" style="stroke:#181818;stroke-width:1;stroke-linejoin:miter;stroke-miterlimit:10;"/></g><!--link UserController to IUserService--><g class="link" data-entity-1="ent0005" data-entity-2="ent0021" id="lnk66" data-source-line="138" data-link-type="dependency"><path d="M1922.5,245.4769 C1922.5,248.6669 1922.5,251.0369 1922.5,251.0369 C1922.5,251.0369 2497,251.0369 2497,251.0369 C2497,251.0369 2497,310.1569 2497,341.2169" style="stroke:#181818;stroke-width:1;" fill="none" id="UserController-to-IUserService" codeLine="138"/><polygon points="2497,346.2169,2501,337.2169,2497,341.2169,2493,337.2169,2497,346.2169" fill="#181818" style="stroke:#181818;stroke-width:1;stroke-linejoin:miter;stroke-miterlimit:10;"/></g><!--link FileTypeController to IFileTypeService--><g class="link" data-entity-1="ent0006" data-entity-2="ent0022" id="lnk67" data-source-line="139" data-link-type="dependency"><path d="M2159.39,229.0369 C2296.49,229.0369 2560.9,229.0369 2560.9,229.0369 C2560.9,229.0369 2560.9,363.0369 2560.9,363.0369 C2560.9,363.0369 2588.01,363.0369 2621.38,363.0369" style="stroke:#181818;stroke-width:1;" fill="none" id="FileTypeController-to-IFileTypeService" codeLine="139"/><polygon points="2626.38,363.0369,2617.38,359.0369,2621.38,363.0369,2617.38,367.0369,2626.38,363.0369" fill="#181818" style="stroke:#181818;stroke-width:1;stroke-linejoin:miter;stroke-miterlimit:10;"/></g><!--link DocumentController to IDocumentService--><g class="link" data-entity-1="ent0007" data-entity-2="ent0023" id="lnk68" data-source-line="140" data-link-type="dependency"><path d="M1703.81,245.4269 C1703.81,249.6569 1703.81,253.0369 1703.81,253.0369 C1703.81,253.0369 2287,253.0369 2287,253.0369 C2287,253.0369 2287,311.0069 2287,341.5169" style="stroke:#181818;stroke-width:1;" fill="none" id="DocumentController-to-IDocumentService" codeLine="140"/><polygon points="2287,346.5169,2291,337.5169,2287,341.5169,2283,337.5169,2287,346.5169" fill="#181818" style="stroke:#181818;stroke-width:1;stroke-linejoin:miter;stroke-miterlimit:10;"/></g><!--link SummaryController to ISummaryService--><g class="link" data-entity-1="ent0008" data-entity-2="ent0024" id="lnk69" data-source-line="141" data-link-type="dependency"><path d="M970.93,245.4069 C970.93,274.9469 970.93,334.0369 970.93,334.0369 C970.93,334.0369 1539.19,334.0369 1539.19,334.0369 C1539.19,334.0369 1539.19,334.9169 1539.19,341.3569" style="stroke:#181818;stroke-width:1;" fill="none" id="SummaryController-to-ISummaryService" codeLine="141"/><polygon points="1539.19,346.3569,1543.19,337.3569,1539.19,341.3569,1535.19,337.3569,1539.19,346.3569" fill="#181818" style="stroke:#181818;stroke-width:1;stroke-linejoin:miter;stroke-miterlimit:10;"/></g><!--link TriviaController to ITriviaService--><g class="link" data-entity-1="ent0009" data-entity-2="ent0025" id="lnk70" data-source-line="142" data-link-type="dependency"><path d="M749.27,245.4269 C749.27,281.2269 749.27,363.0369 749.27,363.0369 C749.27,363.0369 1161.61,363.0369 1324.22,363.0369" style="stroke:#181818;stroke-width:1;" fill="none" id="TriviaController-to-ITriviaService" codeLine="142"/><polygon points="1329.22,363.0369,1320.22,359.0369,1324.22,363.0369,1320.22,367.0369,1329.22,363.0369" fill="#181818" style="stroke:#181818;stroke-width:1;stroke-linejoin:miter;stroke-miterlimit:10;"/></g><!--link QuestionController to IQuestionService--><g class="link" data-entity-1="ent0010" data-entity-2="ent0026" id="lnk71" data-source-line="143" data-link-type="dependency"><path d="M1466.51,245.3369 C1466.51,250.5769 1466.51,255.0369 1466.51,255.0369 C1466.51,255.0369 1992.89,255.0369 1992.89,255.0369 C1992.89,255.0369 1992.89,311.2269 1992.89,341.3469" style="stroke:#181818;stroke-width:1;" fill="none" id="QuestionController-to-IQuestionService" codeLine="143"/><polygon points="1992.89,346.3469,1996.89,337.3469,1992.89,341.3469,1988.89,337.3469,1992.89,346.3469" fill="#181818" style="stroke:#181818;stroke-width:1;stroke-linejoin:miter;stroke-miterlimit:10;"/></g><!--link AlternativeController to IAlternativeService--><g class="link" data-entity-1="ent0011" data-entity-2="ent0027" id="lnk72" data-source-line="144" data-link-type="dependency"><path d="M1212.77,245.4469 C1212.77,271.9269 1212.77,321.0369 1212.77,321.0369 C1212.77,321.0369 1773.5,321.0369 1773.5,321.0369 C1773.5,321.0369 1773.5,329.5869 1773.5,341.2269" style="stroke:#181818;stroke-width:1;" fill="none" id="AlternativeController-to-IAlternativeService" codeLine="144"/><polygon points="1773.5,346.2269,1777.5,337.2269,1773.5,341.2269,1769.5,337.2269,1773.5,346.2269" fill="#181818" style="stroke:#181818;stroke-width:1;stroke-linejoin:miter;stroke-miterlimit:10;"/></g><!--reverse link IUserService to UserServiceImpl--><g class="link" data-entity-1="ent0021" data-entity-2="ent0029" id="lnk73" data-source-line="147" data-link-type="extension"><path d="M2550.21,397.0069 C2550.21,429.2569 2550.21,480.0369 2550.21,480.0369 C2550.21,480.0369 2556.04,480.0369 2564.71,480.0369" style="stroke:#181818;stroke-width:1;stroke-dasharray:7,7;" fill="none" id="IUserService-backto-UserServiceImpl" codeLine="147"/><polygon points="2550.21,379.0069,2544.21,397.0069,2556.21,397.0069,2550.21,379.0069" fill="none" style="stroke:#181818;stroke-width:1;stroke-linejoin:miter;stroke-miterlimit:10;"/></g><!--reverse link IFileTypeService to FileTypeServiceImpl--><g class="link" data-entity-1="ent0022" data-entity-2="ent0030" id="lnk74" data-source-line="148" data-link-type="extension"><path d="M2742.21,397.1969 C2742.21,430.5869 2742.21,485.0369 2742.21,485.0369 C2742.21,485.0369 2759.35,485.0369 2780.98,485.0369" style="stroke:#181818;stroke-width:1;stroke-dasharray:7,7;" fill="none" id="IFileTypeService-backto-FileTypeServiceImpl" codeLine="148"/><polygon points="2742.21,379.1969,2736.21,397.1969,2748.21,397.1969,2742.21,379.1969" fill="none" style="stroke:#181818;stroke-width:1;stroke-linejoin:miter;stroke-miterlimit:10;"/></g><!--reverse link IDocumentService to DocumentServiceImpl--><g class="link" data-entity-1="ent0023" data-entity-2="ent0031" id="lnk75" data-source-line="149" data-link-type="extension"><path d="M2337.4,397.1469 C2337.4,420.5569 2337.4,445.2269 2337.4,468.4969" style="stroke:#181818;stroke-width:1;stroke-dasharray:7,7;" fill="none" id="IDocumentService-backto-DocumentServiceImpl" codeLine="149"/><polygon points="2337.4,379.1469,2331.4,397.1469,2343.4,397.1469,2337.4,379.1469" fill="none" style="stroke:#181818;stroke-width:1;stroke-linejoin:miter;stroke-miterlimit:10;"/></g><!--reverse link ISummaryService to SummaryServiceImpl--><g class="link" data-entity-1="ent0024" data-entity-2="ent0032" id="lnk76" data-source-line="150" data-link-type="extension"><path d="M1614.4,397.1469 C1614.4,420.5569 1614.4,445.2269 1614.4,468.4969" style="stroke:#181818;stroke-width:1;stroke-dasharray:7,7;" fill="none" id="ISummaryService-backto-SummaryServiceImpl" codeLine="150"/><polygon points="1614.4,379.1469,1608.4,397.1469,1620.4,397.1469,1614.4,379.1469" fill="none" style="stroke:#181818;stroke-width:1;stroke-linejoin:miter;stroke-miterlimit:10;"/></g><!--reverse link ITriviaService to TriviaServiceImpl--><g class="link" data-entity-1="ent0025" data-entity-2="ent0033" id="lnk77" data-source-line="151" data-link-type="extension"><path d="M1393,397.1469 C1393,420.5569 1393,445.2269 1393,468.4969" style="stroke:#181818;stroke-width:1;stroke-dasharray:7,7;" fill="none" id="ITriviaService-backto-TriviaServiceImpl" codeLine="151"/><polygon points="1393,379.1469,1387,397.1469,1399,397.1469,1393,379.1469" fill="none" style="stroke:#181818;stroke-width:1;stroke-linejoin:miter;stroke-miterlimit:10;"/></g><!--reverse link IQuestionService to QuestionServiceImpl--><g class="link" data-entity-1="ent0026" data-entity-2="ent0034" id="lnk78" data-source-line="152" data-link-type="extension"><path d="M2098.9,397.1469 C2098.9,420.5569 2098.9,445.2269 2098.9,468.4969" style="stroke:#181818;stroke-width:1;stroke-dasharray:7,7;" fill="none" id="IQuestionService-backto-QuestionServiceImpl" codeLine="152"/><polygon points="2098.9,379.1469,2092.9,397.1469,2104.9,397.1469,2098.9,379.1469" fill="none" style="stroke:#181818;stroke-width:1;stroke-linejoin:miter;stroke-miterlimit:10;"/></g><!--reverse link IAlternativeService to AlternativeServiceImpl--><g class="link" data-entity-1="ent0027" data-entity-2="ent0035" id="lnk79" data-source-line="153" data-link-type="extension"><path d="M1857.9,397.1469 C1857.9,420.5569 1857.9,445.2269 1857.9,468.4969" style="stroke:#181818;stroke-width:1;stroke-dasharray:7,7;" fill="none" id="IAlternativeService-backto-AlternativeServiceImpl" codeLine="153"/><polygon points="1857.9,379.1469,1851.9,397.1469,1863.9,397.1469,1857.9,379.1469" fill="none" style="stroke:#181818;stroke-width:1;stroke-linejoin:miter;stroke-miterlimit:10;"/></g><!--link UserServiceImpl to UserDTO--><g class="link" data-entity-1="ent0029" data-entity-2="ent0013" id="lnk80" data-source-line="156" data-link-type="dependency"><path d="M2579,500.9569 C2579,524.4269 2579,565.0369 2579,565.0369 C2579,565.0369 1097.82,565.0369 1097.82,565.0369 C1097.82,565.0369 1097.82,590.4769 1097.82,610.2169" style="stroke:#181818;stroke-width:1;stroke-dasharray:7,7;" fill="none" id="UserServiceImpl-to-UserDTO" codeLine="156"/><polygon points="1097.82,615.2169,1101.82,606.2169,1097.82,610.2169,1093.82,606.2169,1097.82,615.2169" fill="#181818" style="stroke:#181818;stroke-width:1;stroke-linejoin:miter;stroke-miterlimit:10;"/></g><!--link UserServiceImpl to User--><g class="link" data-entity-1="ent0029" data-entity-2="ent0045" id="lnk81" data-source-line="157" data-link-type="dependency"><path d="M2593.1,501.1169 C2593.1,566.8069 2593.1,807.0369 2593.1,807.0369 C2593.1,807.0369 2717.65,807.0369 2809.49,807.0369" style="stroke:#181818;stroke-width:1;stroke-dasharray:7,7;" fill="none" id="UserServiceImpl-to-User" codeLine="157"/><polygon points="2814.49,807.0369,2805.49,803.0369,2809.49,807.0369,2805.49,811.0369,2814.49,807.0369" fill="#181818" style="stroke:#181818;stroke-width:1;stroke-linejoin:miter;stroke-miterlimit:10;"/></g><!--link FileTypeServiceImpl to FileTypeDTO--><g class="link" data-entity-1="ent0030" data-entity-2="ent0014" id="lnk82" data-source-line="158" data-link-type="dependency"><path d="M2802.9,500.9569 C2802.9,527.6969 2802.9,578.0369 2802.9,578.0369 C2802.9,578.0369 1281.75,578.0369 1281.75,578.0369 C1281.75,578.0369 1281.75,594.5269 1281.75,610.3069" style="stroke:#181818;stroke-width:1;stroke-dasharray:7,7;" fill="none" id="FileTypeServiceImpl-to-FileTypeDTO" codeLine="158"/><polygon points="1281.75,615.3069,1285.75,606.3069,1281.75,610.3069,1277.75,606.3069,1281.75,615.3069" fill="#181818" style="stroke:#181818;stroke-width:1;stroke-linejoin:miter;stroke-miterlimit:10;"/></g><!--link FileTypeServiceImpl to FileType--><g class="link" data-entity-1="ent0030" data-entity-2="ent0046" id="lnk83" data-source-line="159" data-link-type="dependency"><path d="M2954.89,490.0369 C2993.11,490.0369 3029.49,490.0369 3029.49,490.0369 C3029.49,490.0369 3029.49,807.0369 3029.49,807.0369 C3029.49,807.0369 3039.47,807.0369 3058.19,807.0369" style="stroke:#181818;stroke-width:1;stroke-dasharray:7,7;" fill="none" id="FileTypeServiceImpl-to-FileType" codeLine="159"/><polygon points="3063.19,807.0369,3054.19,803.0369,3058.19,807.0369,3054.19,811.0369,3063.19,807.0369" fill="#181818" style="stroke:#181818;stroke-width:1;stroke-linejoin:miter;stroke-miterlimit:10;"/></g><!--link DocumentServiceImpl to DocumentDTO--><g class="link" data-entity-1="ent0031" data-entity-2="ent0015" id="lnk84" data-source-line="160" data-link-type="dependency"><path d="M2327.45,500.9969 C2327.45,520.9269 2327.45,552.0369 2327.45,552.0369 C2327.45,552.0369 886.51,552.0369 886.51,552.0369 C886.51,552.0369 886.51,587.2969 886.51,610.5769" style="stroke:#181818;stroke-width:1;stroke-dasharray:7,7;" fill="none" id="DocumentServiceImpl-to-DocumentDTO" codeLine="160"/><polygon points="886.51,615.5769,890.51,606.5769,886.51,610.5769,882.51,606.5769,886.51,615.5769" fill="#181818" style="stroke:#181818;stroke-width:1;stroke-linejoin:miter;stroke-miterlimit:10;"/></g><!--link DocumentServiceImpl to Document--><g class="link" data-entity-1="ent0031" data-entity-2="ent0047" id="lnk85" data-source-line="161" data-link-type="dependency"><path d="M2347.3,500.8969 C2347.3,591.9669 2347.3,1036.0369 2347.3,1036.0369 C2347.3,1036.0369 2740.53,1036.0369 2920.97,1036.0369" style="stroke:#181818;stroke-width:1;stroke-dasharray:7,7;" fill="none" id="DocumentServiceImpl-to-Document" codeLine="161"/><polygon points="2925.97,1036.0369,2916.97,1032.0369,2920.97,1036.0369,2916.97,1040.0369,2925.97,1036.0369" fill="#181818" style="stroke:#181818;stroke-width:1;stroke-linejoin:miter;stroke-miterlimit:10;"/></g><!--link SummaryServiceImpl to SummaryDTO--><g class="link" data-entity-1="ent0032" data-entity-2="ent0016" id="lnk86" data-source-line="162" data-link-type="dependency"><path d="M1582.35,501.0769 C1582.35,507.8069 1582.35,514.0369 1582.35,514.0369 C1582.35,514.0369 289.67,514.0369 289.67,514.0369 C289.67,514.0369 289.67,578.0069 289.67,610.3369" style="stroke:#181818;stroke-width:1;stroke-dasharray:7,7;" fill="none" id="SummaryServiceImpl-to-SummaryDTO" codeLine="162"/><polygon points="289.67,615.3369,293.67,606.3369,289.67,610.3369,285.67,606.3369,289.67,615.3369" fill="#181818" style="stroke:#181818;stroke-width:1;stroke-linejoin:miter;stroke-miterlimit:10;"/></g><!--link SummaryServiceImpl to Summary--><g class="link" data-entity-1="ent0032" data-entity-2="ent0048" id="lnk87" data-source-line="163" data-link-type="dependency"><path d="M1617.67,500.9969 C1617.67,601.3469 1617.67,1131.0369 1617.67,1131.0369 C1617.67,1131.0369 3051.27,1131.0369 3051.27,1131.0369 C3051.27,1131.0369 3051.27,1139.7169 3051.27,1155.3069" style="stroke:#181818;stroke-width:1;stroke-dasharray:7,7;" fill="none" id="SummaryServiceImpl-to-Summary" codeLine="163"/><polygon points="3051.27,1160.3069,3055.27,1151.3069,3051.27,1155.3069,3047.27,1151.3069,3051.27,1160.3069" fill="#181818" style="stroke:#181818;stroke-width:1;stroke-linejoin:miter;stroke-miterlimit:10;"/></g><!--link TriviaServiceImpl to TriviaDTO--><g class="link" data-entity-1="ent0033" data-entity-2="ent0017" id="lnk88" data-source-line="164" data-link-type="dependency"><path d="M1322.99,485.0369 C1043.48,485.0369 98.88,485.0369 98.88,485.0369 C98.88,485.0369 98.88,572.2569 98.88,610.4369" style="stroke:#181818;stroke-width:1;stroke-dasharray:7,7;" fill="none" id="TriviaServiceImpl-to-TriviaDTO" codeLine="164"/><polygon points="98.88,615.4369,102.88,606.4369,98.88,610.4369,94.88,606.4369,98.88,615.4369" fill="#181818" style="stroke:#181818;stroke-width:1;stroke-linejoin:miter;stroke-miterlimit:10;"/></g><!--link TriviaServiceImpl to Trivia--><g class="link" data-entity-1="ent0033" data-entity-2="ent0049" id="lnk89" data-source-line="165" data-link-type="dependency"><path d="M1374.46,501.0869 C1374.46,609.5769 1374.46,1220.0369 1374.46,1220.0369 C1374.46,1220.0369 2464.77,1220.0369 2785.66,1220.0369" style="stroke:#181818;stroke-width:1;stroke-dasharray:7,7;" fill="none" id="TriviaServiceImpl-to-Trivia" codeLine="165"/><polygon points="2790.66,1220.0369,2781.66,1216.0369,2785.66,1220.0369,2781.66,1224.0369,2790.66,1220.0369" fill="#181818" style="stroke:#181818;stroke-width:1;stroke-linejoin:miter;stroke-miterlimit:10;"/></g><!--link QuestionServiceImpl to QuestionDTO--><g class="link" data-entity-1="ent0034" data-entity-2="ent0018" id="lnk90" data-source-line="166" data-link-type="dependency"><path d="M2078.01,500.9969 C2078.01,517.0069 2078.01,539.0369 2078.01,539.0369 C2078.01,539.0369 698.64,539.0369 698.64,539.0369 C698.64,539.0369 698.64,584.0069 698.64,610.5569" style="stroke:#181818;stroke-width:1;stroke-dasharray:7,7;" fill="none" id="QuestionServiceImpl-to-QuestionDTO" codeLine="166"/><polygon points="698.64,615.5569,702.64,606.5569,698.64,610.5569,694.64,606.5569,698.64,615.5569" fill="#181818" style="stroke:#181818;stroke-width:1;stroke-linejoin:miter;stroke-miterlimit:10;"/></g><!--link QuestionServiceImpl to Question--><g class="link" data-entity-1="ent0034" data-entity-2="ent0050" id="lnk91" data-source-line="167" data-link-type="dependency"><path d="M2095.47,501.1469 C2095.47,623.5769 2095.47,1388.0369 2095.47,1388.0369 C2095.47,1388.0369 2612.04,1388.0369 2803.56,1388.0369" style="stroke:#181818;stroke-width:1;stroke-dasharray:7,7;" fill="none" id="QuestionServiceImpl-to-Question" codeLine="167"/><polygon points="2808.56,1388.0369,2799.56,1384.0369,2803.56,1388.0369,2799.56,1392.0369,2808.56,1388.0369" fill="#181818" style="stroke:#181818;stroke-width:1;stroke-linejoin:miter;stroke-miterlimit:10;"/></g><!--link AlternativeServiceImpl to AlternativeDTO--><g class="link" data-entity-1="ent0035" data-entity-2="ent0019" id="lnk92" data-source-line="168" data-link-type="dependency"><path d="M1822.43,500.9469 C1822.43,512.8869 1822.43,527.0369 1822.43,527.0369 C1822.43,527.0369 496.23,527.0369 496.23,527.0369 C496.23,527.0369 496.23,580.9069 496.23,610.3369" style="stroke:#181818;stroke-width:1;stroke-dasharray:7,7;" fill="none" id="AlternativeServiceImpl-to-AlternativeDTO" codeLine="168"/><polygon points="496.23,615.3369,500.23,606.3369,496.23,610.3369,492.23,606.3369,496.23,615.3369" fill="#181818" style="stroke:#181818;stroke-width:1;stroke-linejoin:miter;stroke-miterlimit:10;"/></g><!--link AlternativeServiceImpl to Alternative--><g class="link" data-entity-1="ent0035" data-entity-2="ent0051" id="lnk93" data-source-line="169" data-link-type="dependency"><path d="M1845.53,501.1869 C1845.53,636.7269 1845.53,1562.0369 1845.53,1562.0369 C1845.53,1562.0369 2547.76,1562.0369 2791.55,1562.0369" style="stroke:#181818;stroke-width:1;stroke-dasharray:7,7;" fill="none" id="AlternativeServiceImpl-to-Alternative" codeLine="169"/><polygon points="2796.55,1562.0369,2787.55,1558.0369,2791.55,1562.0369,2787.55,1566.0369,2796.55,1562.0369" fill="#181818" style="stroke:#181818;stroke-width:1;stroke-linejoin:miter;stroke-miterlimit:10;"/></g><!--link UserServiceImpl to UserRepository--><g class="link" data-entity-1="ent0029" data-entity-2="ent0037" id="lnk94" data-source-line="172" data-link-type="dependency"><path d="M2659.15,501.1469 C2659.15,533.6669 2659.15,603.0369 2659.15,603.0369 C2659.15,603.0369 2905.52,603.0369 2905.52,603.0369 C2905.52,603.0369 2905.52,603.9169 2905.52,610.3569" style="stroke:#181818;stroke-width:1;" fill="none" id="UserServiceImpl-to-UserRepository" codeLine="172"/><polygon points="2905.52,615.3569,2909.52,606.3569,2905.52,610.3569,2901.52,606.3569,2905.52,615.3569" fill="#181818" style="stroke:#181818;stroke-width:1;stroke-linejoin:miter;stroke-miterlimit:10;"/></g><!--link FileTypeServiceImpl to FileTypeRepository--><g class="link" data-entity-1="ent0030" data-entity-2="ent0038" id="lnk95" data-source-line="173" data-link-type="dependency"><path d="M2954.68,480.0369 C3036.91,480.0369 3148,480.0369 3148,480.0369 C3148,480.0369 3148,571.3369 3148,610.4669" style="stroke:#181818;stroke-width:1;" fill="none" id="FileTypeServiceImpl-to-FileTypeRepository" codeLine="173"/><polygon points="3148,615.4669,3152,606.4669,3148,610.4669,3144,606.4669,3148,615.4669" fill="#181818" style="stroke:#181818;stroke-width:1;stroke-linejoin:miter;stroke-miterlimit:10;"/></g><!--link DocumentServiceImpl to DocumentRepository--><g class="link" data-entity-1="ent0031" data-entity-2="ent0039" id="lnk96" data-source-line="174" data-link-type="dependency"><path d="M2494.88,490.0369 C2521.56,490.0369 2543.53,490.0369 2543.53,490.0369 C2543.53,490.0369 2543.53,632.0369 2543.53,632.0369 C2543.53,632.0369 2568.43,632.0369 2601.84,632.0369" style="stroke:#181818;stroke-width:1;" fill="none" id="DocumentServiceImpl-to-DocumentRepository" codeLine="174"/><polygon points="2606.84,632.0369,2597.84,628.0369,2601.84,632.0369,2597.84,636.0369,2606.84,632.0369" fill="#181818" style="stroke:#181818;stroke-width:1;stroke-linejoin:miter;stroke-miterlimit:10;"/></g><!--link SummaryServiceImpl to SummaryRepository--><g class="link" data-entity-1="ent0032" data-entity-2="ent0040" id="lnk97" data-source-line="175" data-link-type="dependency"><path d="M1690.98,500.8469 C1690.98,530.5969 1690.98,591.0369 1690.98,591.0369 C1690.98,591.0369 1929.65,591.0369 1929.65,591.0369 C1929.65,591.0369 1929.65,599.2569 1929.65,610.6269" style="stroke:#181818;stroke-width:1;" fill="none" id="SummaryServiceImpl-to-SummaryRepository" codeLine="175"/><polygon points="1929.65,615.6269,1933.65,606.6269,1929.65,610.6269,1925.65,606.6269,1929.65,615.6269" fill="#181818" style="stroke:#181818;stroke-width:1;stroke-linejoin:miter;stroke-miterlimit:10;"/></g><!--link TriviaServiceImpl to TriviaRepository--><g class="link" data-entity-1="ent0033" data-entity-2="ent0041" id="lnk98" data-source-line="176" data-link-type="dependency"><path d="M1425.54,501.0269 C1425.54,539.3869 1425.54,632.0369 1425.54,632.0369 C1425.54,632.0369 1558.55,632.0369 1647.5,632.0369" style="stroke:#181818;stroke-width:1;" fill="none" id="TriviaServiceImpl-to-TriviaRepository" codeLine="176"/><polygon points="1652.5,632.0369,1643.5,628.0369,1647.5,632.0369,1643.5,636.0369,1652.5,632.0369" fill="#181818" style="stroke:#181818;stroke-width:1;stroke-linejoin:miter;stroke-miterlimit:10;"/></g><!--link QuestionServiceImpl to QuestionRepository--><g class="link" data-entity-1="ent0034" data-entity-2="ent0042" id="lnk99" data-source-line="177" data-link-type="dependency"><path d="M2237.75,485.0369 C2271.66,485.0369 2302.33,485.0369 2302.33,485.0369 C2302.33,485.0369 2302.33,632.0369 2302.33,632.0369 C2302.33,632.0369 2328.06,632.0369 2361.67,632.0369" style="stroke:#181818;stroke-width:1;" fill="none" id="QuestionServiceImpl-to-QuestionRepository" codeLine="177"/><polygon points="2366.67,632.0369,2357.67,628.0369,2361.67,632.0369,2357.67,636.0369,2366.67,632.0369" fill="#181818" style="stroke:#181818;stroke-width:1;stroke-linejoin:miter;stroke-miterlimit:10;"/></g><!--link AlternativeServiceImpl to AlternativeRepository--><g class="link" data-entity-1="ent0035" data-entity-2="ent0043" id="lnk100" data-source-line="178" data-link-type="dependency"><path d="M1990.82,485.0369 C2023.5,485.0369 2051.96,485.0369 2051.96,485.0369 C2051.96,485.0369 2051.96,632.0369 2051.96,632.0369 C2051.96,632.0369 2075.21,632.0369 2107.44,632.0369" style="stroke:#181818;stroke-width:1;" fill="none" id="AlternativeServiceImpl-to-AlternativeRepository" codeLine="178"/><polygon points="2112.44,632.0369,2103.44,628.0369,2107.44,632.0369,2103.44,636.0369,2112.44,632.0369" fill="#181818" style="stroke:#181818;stroke-width:1;stroke-linejoin:miter;stroke-miterlimit:10;"/></g><!--link UserRepository to User--><g class="link" data-entity-1="ent0037" data-entity-2="ent0045" id="lnk101" data-source-line="181" data-link-type="dependency"><path d="M2924.92,648.1469 C2924.92,668.5569 2924.92,699.6469 2924.92,732.2269" style="stroke:#181818;stroke-width:1;stroke-dasharray:7,7;" fill="none" id="UserRepository-to-User" codeLine="181"/><polygon points="2924.92,737.2269,2928.92,728.2269,2924.92,732.2269,2920.92,728.2269,2924.92,737.2269" fill="#181818" style="stroke:#181818;stroke-width:1;stroke-linejoin:miter;stroke-miterlimit:10;"/></g><!--link FileTypeRepository to FileType--><g class="link" data-entity-1="ent0038" data-entity-2="ent0046" id="lnk102" data-source-line="182" data-link-type="dependency"><path d="M3136.79,648.1469 C3136.79,675.8669 3136.79,727.5169 3136.79,765.0269" style="stroke:#181818;stroke-width:1;stroke-dasharray:7,7;" fill="none" id="FileTypeRepository-to-FileType" codeLine="182"/><polygon points="3136.79,770.0269,3140.79,761.0269,3136.79,765.0269,3132.79,761.0269,3136.79,770.0269" fill="#181818" style="stroke:#181818;stroke-width:1;stroke-linejoin:miter;stroke-miterlimit:10;"/></g><!--link DocumentRepository to Document--><g class="link" data-entity-1="ent0039" data-entity-2="ent0047" id="lnk103" data-source-line="183" data-link-type="dependency"><path d="M2697,648.0369 C2697,719.5169 2697,1001.0369 2697,1001.0369 C2697,1001.0369 2827.69,1001.0369 2921.23,1001.0369" style="stroke:#181818;stroke-width:1;stroke-dasharray:7,7;" fill="none" id="DocumentRepository-to-Document" codeLine="183"/><polygon points="2926.23,1001.0369,2917.23,997.0369,2921.23,1001.0369,2917.23,1005.0369,2926.23,1001.0369" fill="#181818" style="stroke:#181818;stroke-width:1;stroke-linejoin:miter;stroke-miterlimit:10;"/></g><!--link SummaryRepository to Summary--><g class="link" data-entity-1="ent0040" data-entity-2="ent0048" id="lnk104" data-source-line="184" data-link-type="dependency"><path d="M1956,648.1269 C1956,731.1969 1956,1101.0369 1956,1101.0369 C1956,1101.0369 3067.4,1101.0369 3067.4,1101.0369 C3067.4,1101.0369 3067.4,1127.1569 3067.4,1155.3669" style="stroke:#181818;stroke-width:1;stroke-dasharray:7,7;" fill="none" id="SummaryRepository-to-Summary" codeLine="184"/><polygon points="3067.4,1160.3669,3071.4,1151.3669,3067.4,1155.3669,3063.4,1151.3669,3067.4,1160.3669" fill="#181818" style="stroke:#181818;stroke-width:1;stroke-linejoin:miter;stroke-miterlimit:10;"/></g><!--link TriviaRepository to Trivia--><g class="link" data-entity-1="ent0041" data-entity-2="ent0049" id="lnk105" data-source-line="185" data-link-type="dependency"><path d="M1726,648.1269 C1726,740.5169 1726,1191.0369 1726,1191.0369 C1726,1191.0369 2517.57,1191.0369 2785.94,1191.0369" style="stroke:#181818;stroke-width:1;stroke-dasharray:7,7;" fill="none" id="TriviaRepository-to-Trivia" codeLine="185"/><polygon points="2790.94,1191.0369,2781.94,1187.0369,2785.94,1191.0369,2781.94,1195.0369,2790.94,1191.0369" fill="#181818" style="stroke:#181818;stroke-width:1;stroke-linejoin:miter;stroke-miterlimit:10;"/></g><!--link QuestionRepository to Question--><g class="link" data-entity-1="ent0042" data-entity-2="ent0050" id="lnk106" data-source-line="186" data-link-type="dependency"><path d="M2452,648.0169 C2452,756.0769 2452,1364.0369 2452,1364.0369 C2452,1364.0369 2682.9,1364.0369 2803.61,1364.0369" style="stroke:#181818;stroke-width:1;stroke-dasharray:7,7;" fill="none" id="QuestionRepository-to-Question" codeLine="186"/><polygon points="2808.61,1364.0369,2799.61,1360.0369,2803.61,1364.0369,2799.61,1368.0369,2808.61,1364.0369" fill="#181818" style="stroke:#181818;stroke-width:1;stroke-linejoin:miter;stroke-miterlimit:10;"/></g><!--link AlternativeRepository to Alternative--><g class="link" data-entity-1="ent0043" data-entity-2="ent0051" id="lnk107" data-source-line="187" data-link-type="dependency"><path d="M2205,648.0869 C2205,770.1169 2205,1532.0369 2205,1532.0369 C2205,1532.0369 2612.31,1532.0369 2791.49,1532.0369" style="stroke:#181818;stroke-width:1;stroke-dasharray:7,7;" fill="none" id="AlternativeRepository-to-Alternative" codeLine="187"/><polygon points="2796.49,1532.0369,2787.49,1528.0369,2791.49,1532.0369,2787.49,1536.0369,2796.49,1532.0369" fill="#181818" style="stroke:#181818;stroke-width:1;stroke-linejoin:miter;stroke-miterlimit:10;"/></g><!--link User to Document--><g class="link" data-entity-1="ent0045" data-entity-2="ent0047" id="lnk108" data-source-line="190" data-link-type="association"><path d="M2959.83,875.8269 C2959.83,904.8669 2959.83,938.0769 2959.83,965.1069" style="stroke:#181818;stroke-width:1;" fill="none" id="User-Document" codeLine="190"/><text x="2915.83" y="916.5338" fill="#000000" font-size="13" lengthAdjust="spacing" textLength="43.3481" font-family="sans-serif">sube »</text><text x="2956.9457" y="895.4543" fill="#000000" font-size="13" lengthAdjust="spacing" textLength="8.271" font-family="sans-serif">1</text><text x="2928.5459" y="954.4354" fill="#000000" font-size="13" lengthAdjust="spacing" textLength="23.0356" font-family="sans-serif">0..*</text></g><!--link FileType to Document--><g class="link" data-entity-1="ent0046" data-entity-2="ent0047" id="lnk109" data-source-line="191" data-link-type="association"><path d="M3081.58,842.9369 C3081.58,876.5969 3081.58,927.0469 3081.58,965.1669" style="stroke:#181818;stroke-width:1;" fill="none" id="FileType-Document" codeLine="191"/><text x="3016.58" y="900.1238" fill="#000000" font-size="13" lengthAdjust="spacing" textLength="64.4985" font-family="sans-serif">clasifica »</text><text x="3063.1974" y="862.8269" fill="#000000" font-size="13" lengthAdjust="spacing" textLength="8.271" font-family="sans-serif">1</text><text x="3065.8951" y="954.503" fill="#000000" font-size="13" lengthAdjust="spacing" textLength="23.0356" font-family="sans-serif">0..*</text></g><!--reverse link Document to Summary--><g class="link" data-entity-1="ent0047" data-entity-2="ent0048" id="lnk110" data-source-line="192" data-link-type="composition"><path d="M3083.54,1082.6669 C3083.54,1110.8669 3083.54,1133.2569 3083.54,1160.1869" style="stroke:#181818;stroke-width:1;" fill="none" id="Document-backto-Summary" codeLine="192"/><polygon points="3083.54,1070.6669,3079.54,1076.6669,3083.54,1082.6669,3087.54,1076.6669,3083.54,1070.6669" fill="#181818" style="stroke:#181818;stroke-width:1;stroke-linejoin:miter;stroke-miterlimit:10;"/><text x="3025.54" y="1111.4938" fill="#000000" font-size="13" lengthAdjust="spacing" textLength="57.8843" font-family="sans-serif">genera »</text><text x="3084.4989" y="1090.8181" fill="#000000" font-size="13" lengthAdjust="spacing" textLength="8.271" font-family="sans-serif">1</text><text x="3053.2054" y="1149.565" fill="#000000" font-size="13" lengthAdjust="spacing" textLength="23.0356" font-family="sans-serif">0..*</text></g><!--reverse link Document to Trivia--><g class="link" data-entity-1="ent0047" data-entity-2="ent0049" id="lnk111" data-source-line="193" data-link-type="composition"><path d="M2945.6,1082.6669 C2945.6,1110.8669 2945.6,1133.2569 2945.6,1160.1869" style="stroke:#181818;stroke-width:1;" fill="none" id="Document-backto-Trivia" codeLine="193"/><polygon points="2945.6,1070.6669,2941.6,1076.6669,2945.6,1082.6669,2949.6,1076.6669,2945.6,1070.6669" fill="#181818" style="stroke:#181818;stroke-width:1;stroke-linejoin:miter;stroke-miterlimit:10;"/><text x="2887.6" y="1111.4938" fill="#000000" font-size="13" lengthAdjust="spacing" textLength="57.8843" font-family="sans-serif">genera »</text><text x="2928.0233" y="1090.8181" fill="#000000" font-size="13" lengthAdjust="spacing" textLength="8.271" font-family="sans-serif">1</text><text x="2930.8429" y="1149.565" fill="#000000" font-size="13" lengthAdjust="spacing" textLength="23.0356" font-family="sans-serif">0..*</text></g><!--reverse link Trivia to Question--><g class="link" data-entity-1="ent0049" data-entity-2="ent0050" id="lnk112" data-source-line="194" data-link-type="composition"><path d="M2878,1261.9669 C2878,1289.7269 2878,1312.9369 2878,1339.0569" style="stroke:#181818;stroke-width:1;" fill="none" id="Trivia-backto-Question" codeLine="194"/><polygon points="2878,1249.9669,2874,1255.9669,2878,1261.9669,2882,1255.9669,2878,1249.9669" fill="#181818" style="stroke:#181818;stroke-width:1;stroke-linejoin:miter;stroke-miterlimit:10;"/><text x="2809" y="1290.5738" fill="#000000" font-size="13" lengthAdjust="spacing" textLength="68.3706" font-family="sans-serif">contiene »</text><text x="2869.433" y="1269.7346" fill="#000000" font-size="13" lengthAdjust="spacing" textLength="8.271" font-family="sans-serif">1</text><text x="2853.027" y="1328.5217" fill="#000000" font-size="13" lengthAdjust="spacing" textLength="23.0356" font-family="sans-serif">1..*</text></g><!--reverse link Question to Alternative--><g class="link" data-entity-1="ent0050" data-entity-2="ent0051" id="lnk113" data-source-line="195" data-link-type="composition"><path d="M2878,1424.4769 C2878,1450.6369 2878,1473.9869 2878,1501.8269" style="stroke:#181818;stroke-width:1;" fill="none" id="Question-backto-Alternative" codeLine="195"/><polygon points="2878,1412.4769,2874,1418.4769,2878,1424.4769,2882,1418.4769,2878,1412.4769" fill="#181818" style="stroke:#181818;stroke-width:1;stroke-linejoin:miter;stroke-miterlimit:10;"/><text x="2832" y="1453.2238" fill="#000000" font-size="13" lengthAdjust="spacing" textLength="45.0303" font-family="sans-serif">tiene »</text><text x="2869.3363" y="1432.1388" fill="#000000" font-size="13" lengthAdjust="spacing" textLength="8.271" font-family="sans-serif">1</text><text x="2853.3133" y="1491.2271" fill="#000000" font-size="13" lengthAdjust="spacing" textLength="23.0356" font-family="sans-serif">2..*</text></g><?plantuml-src fLZBSjis5DtpA-wuYzePMtMowLIJUggHbPQDOhcIsfbs1v6GZ359i03aH6cpxGUqNz1b5brbsLtr9_sIul8bl6XbfjhOlESGn3qNm3ta7KifqBnKEyXflg92HlAU5IKH98Sa8rAEb19ijLKqJdYnO6yfN4QAbw0uhBXIF8UK2PeenWlZrXL9xZU2Rujqp3Cku9CNrSzWo3kIyjUisC2QP98QICOAgdOb1IxK7JU0WgTKqX8-lpI2WXJt6Fp239RwyMH35sgNKS3PaMAJqIXIJEd0DICRpIAWSn_h7Ac42tZ9qfqWSFhmx2oAgioRqAXaexBCM4Ag7ADcR3YXRn9QOkm4VecWLWk-plYAP9CM-eOKQKP5zCwuJ-ke1CzqkBvHyGrLTrHK5-qutqignXtH05wmZ2wrEa7mcYVRd1Og22wsUKx4BeWj1NjW90XzjwKIKmc2eqnHKMXb7km9lRCoJXK_akhrSXR8qOwsoTdH9YixMATZnzeyxAYHG0tOCzTJUs093SwU5VhMDKaen9Z2egQwK9jB3zmcrGCtsVMWTPezO9jl3smaVc04an-mlCoErAyP8jRCG1t3g9EwWzgPEw2Lk8CvUJkedtP3i5CNjEIIAIvsHqgFoSyxiWEs-VSIMWbw2OqAlNWjH2_SQj5BCEImEBOQkJvuC_EKmwmRAIvWgo_Y58OmvSMcYQsPaEg6v5I75xg1T82-FHYdEM6P6oprirvpaRfnGJTCAb4ToDT4uM3ufvgtk_QwQQwRW3jLR3NkZ0x3j1NgXacRW9znHeE9lT4JJHHDb_e_3OvrWsZJ4poXKcfkNn9D-Rk7o_hQVJPs59oZDVg65lHnYUh5qmskgajFdgfbEaaT7xjTUTteFpS1TtofzAsvDVl3ACRox0OYXzX7wS3ac0lq01Y-8rKnkXRrANo9FnZTtaxZyMWPpsxWtzz-X_7iPZcVJQUJEPocjAH5Iek4aQ7sF5pXqYlFjHtH2t5DHOM0v58_cwNah1uo2ha760oktDRUomjq-bvkeF7tSdqVq4lrR44lC-0IUhbXqz3Lmj0UIw7RibE3hTJM4MY1fqnE9DguVFzUyPJBLdnRuqvsRF6-h9RQIF7Lj4H6YYUYAIqINEaCFH7szR9aH4fG9bT09FOfjvZCVuZ74pWbaclX4hR_K0pDDSkA7NhZbC3ENx-EX1SNLxRF2UXOSLp34n2puhdEnrUqeZaEo9Er8jb6AA1jnN8TKLZWYXfmHvtAyybe6lyq6iVxFsvmxJNTz6sZcoaIFFzrCF0CaYjHpGgP9LUacXaoJevEDJ7WeMofQfhlfbofQbx8MGMKgiazHgjJiLcSW_ZLxRJRvv_1gzdrP1hQxnBmrGvoKb8Ypa5tJKX8NdBieYNZvgerdcVj_3ui2aZldGd7E56WAjwfSOmJ-HLppvN76P5NI-VSUGoF0WNsJgLZd2XS-D2vzN7CHvRCV78xMyJBsVp7_t76cO_6lUyu-b3TaHRmzg7g8ZNWyWDLHAPlz_rw8S-p_Q6g837m0j2ZEhB3RmF6mTV9ZUg7jghUe_i_SwhFKlI8-_U29Ho-BOsfFb-UnzTNPW4EcByZ7SpRR0xkxYC7jZU90pfxm453ozkX1DViV3BLdM9sCra0gbLfflsCOlfMxLS5lieulWLEdfxeSi39vM3mvEJm1ZBKzdz5uP-_EtNwcMYVsLgRBgHtSQG_EV3RjujXu-SVupRl2YQr2NN4fnMnC_x3oeupJKTo5-xepogwwV27qD6ZWkltYkO38r_tVLO3YB7vOfH0zJqkqIYjB67b1o7ZKhCExLt2m_ul0byT8gEq-VXnYZt5MCtDXytgCs6o_v2o3JyRH1e5dDn_?></g></svg>