<svg xmlns="http://www.w3.org/2000/svg" xmlns:xlink="http://www.w3.org/1999/xlink" contentStyleType="text/css" data-diagram-type="DESCRIPTION" height="1015px" preserveAspectRatio="none" style="width:1003px;height:1015px;background:#FFFFFF;" version="1.1" viewBox="0 0 1003 1015" width="1003px" zoomAndPan="magnify"><?plantuml 1.2026.4beta2?><defs/><g><!--cluster Plataforma Kidyra--><g class="cluster" data-qualified-name="Plataforma Kidyra" data-source-line="10" id="ent0005"><rect fill="none" height="844" rx="2.5" ry="2.5" style="stroke:#181818;stroke-width:1;" width="819.23" x="169.94" y="99.15"/><text fill="#000000" font-family="sans-serif" font-size="14" font-weight="700" lengthAdjust="spacing" textLength="143.3154" x="507.8973" y="114.1451">Plataforma Kidyra</text></g><!--entity CU01--><g class="entity" data-qualified-name="Plataforma Kidyra.CU01" data-source-line="12" id="ent0006"><ellipse cx="276.0474" cy="632.1489" fill="#F1F1F1" rx="80.1774" ry="23.6789" style="stroke:#181818;stroke-width:0.5;"/><text fill="#000000" font-family="sans-serif" font-size="14" lengthAdjust="spacing" textLength="42.8887" x="254.603" y="625.0812">CU-01</text><text fill="#000000" font-family="sans-serif" font-size="14" lengthAdjust="spacing" textLength="121.6455" x="215.2246" y="641.378">Registrar Usuario</text></g><!--entity CU02--><g class="entity" data-qualified-name="Plataforma Kidyra.CU02" data-source-line="13" id="ent0007"><ellipse cx="276.0458" cy="204.148" fill="#F1F1F1" rx="62.8758" ry="23.898" style="stroke:#181818;stroke-width:0.5;"/><text fill="#000000" font-family="sans-serif" font-size="14" lengthAdjust="spacing" textLength="42.8887" x="254.6015" y="197.4331">CU-02</text><text fill="#000000" font-family="sans-serif" font-size="14" lengthAdjust="spacing" textLength="93.3857" x="229.3529" y="213.73">Iniciar Sesi&#243;n</text></g><!--entity CU03--><g class="entity" data-qualified-name="Plataforma Kidyra.CU03" data-source-line="14" id="ent0008"><ellipse cx="276.0478" cy="294.1547" fill="#F1F1F1" rx="65.1678" ry="31.1747" style="stroke:#181818;stroke-width:0.5;"/><text fill="#000000" font-family="sans-serif" font-size="14" lengthAdjust="spacing" textLength="42.8887" x="254.6035" y="280.5061">CU-03</text><text fill="#000000" font-family="sans-serif" font-size="14" lengthAdjust="spacing" textLength="107.8779" x="222.1089" y="296.803">Gestionar Perfil</text><text fill="#000000" font-family="sans-serif" font-size="14" lengthAdjust="spacing" textLength="75.1543" x="238.4707" y="313.0999">de Usuario</text></g><!--entity Sesion--><g class="entity" data-qualified-name="Plataforma Kidyra.Sesion" data-source-line="16" id="ent0009"><ellipse cx="586.2483" cy="362.1453" fill="#F1F1F1" rx="72.6083" ry="23.7653" style="stroke:#181818;stroke-width:0.5;"/><text fill="#000000" font-family="sans-serif" font-size="14" lengthAdjust="spacing" textLength="109.2588" x="531.6189" y="362.0732">Verificar Sesi&#243;n</text><text fill="#000000" font-family="sans-serif" font-size="14" lengthAdjust="spacing" textLength="43.5176" x="564.4895" y="378.3701">Activa</text></g><!--entity Editar--><g class="entity" data-qualified-name="Plataforma Kidyra.Editar" data-source-line="18" id="ent0010"><ellipse cx="586.246" cy="149.1512" fill="#F1F1F1" rx="62.456" ry="14.8912" style="stroke:#181818;stroke-width:0.5;"/><text fill="#000000" font-family="sans-serif" font-size="14" lengthAdjust="spacing" textLength="86.6045" x="542.9437" y="153.7996">Editar Datos</text></g><!--entity Password--><g class="entity" data-qualified-name="Plataforma Kidyra.Password" data-source-line="19" id="ent0011"><ellipse cx="586.2468" cy="284.1514" fill="#F1F1F1" rx="85.7068" ry="19.5414" style="stroke:#181818;stroke-width:0.5;"/><text fill="#000000" font-family="sans-serif" font-size="14" lengthAdjust="spacing" textLength="143.9512" x="514.2712" y="288.7998">Cambiar Contrase&#241;a</text></g><!--entity Logout--><g class="entity" data-qualified-name="Plataforma Kidyra.Logout" data-source-line="20" id="ent0012"><ellipse cx="586.2464" cy="214.1513" fill="#F1F1F1" rx="65.5064" ry="15.5013" style="stroke:#181818;stroke-width:0.5;"/><text fill="#000000" font-family="sans-serif" font-size="14" lengthAdjust="spacing" textLength="94.8076" x="538.8426" y="218.7997">Cerrar Sesi&#243;n</text></g><!--entity CU04--><g class="entity" data-qualified-name="Plataforma Kidyra.CU04" data-source-line="22" id="ent0013"><ellipse cx="276.0477" cy="550.1486" fill="#F1F1F1" rx="87.0977" ry="23.6286" style="stroke:#181818;stroke-width:0.5;"/><text fill="#000000" font-family="sans-serif" font-size="14" lengthAdjust="spacing" textLength="42.8887" x="254.6034" y="542.9988">CU-04</text><text fill="#000000" font-family="sans-serif" font-size="14" lengthAdjust="spacing" textLength="132.877" x="209.6093" y="559.2957">Cargar Documento</text></g><!--entity Validar--><g class="entity" data-qualified-name="Plataforma Kidyra.Validar" data-source-line="23" id="ent0014"><ellipse cx="586.2528" cy="446.153" fill="#F1F1F1" rx="60.5728" ry="25.473" style="stroke:#181818;stroke-width:0.5;"/><text fill="#000000" font-family="sans-serif" font-size="14" lengthAdjust="spacing" textLength="83.501" x="544.5023" y="443.4758">Validar Tipo</text><text fill="#000000" font-family="sans-serif" font-size="14" lengthAdjust="spacing" textLength="74.5938" x="548.9559" y="459.7727">de Archivo</text></g><!--entity ValidarContenido--><g class="entity" data-qualified-name="Plataforma Kidyra.ValidarContenido" data-source-line="24" id="ent0015"><ellipse cx="586.2545" cy="699.1536" fill="#F1F1F1" rx="88.5545" ry="25.2836" style="stroke:#181818;stroke-width:0.5;"/><text fill="#000000" font-family="sans-serif" font-size="14" lengthAdjust="spacing" textLength="125.1387" x="523.6851" y="696.7528">Validar Contenido</text><text fill="#000000" font-family="sans-serif" font-size="14" lengthAdjust="spacing" textLength="106.9346" x="532.7872" y="713.0496">del Documento</text></g><!--entity Extraer--><g class="entity" data-qualified-name="Plataforma Kidyra.Extraer" data-source-line="25" id="ent0016"><ellipse cx="586.249" cy="614.1452" fill="#F1F1F1" rx="89.769" ry="25.2152" style="stroke:#181818;stroke-width:0.5;"/><text fill="#000000" font-family="sans-serif" font-size="14" lengthAdjust="spacing" textLength="127.3057" x="522.5961" y="611.8448">Extraer Contenido</text><text fill="#000000" font-family="sans-serif" font-size="14" lengthAdjust="spacing" textLength="106.9346" x="532.7817" y="628.1417">del Documento</text></g><!--entity GuardarDoc--><g class="entity" data-qualified-name="Plataforma Kidyra.GuardarDoc" data-source-line="26" id="ent0017"><ellipse cx="586.2502" cy="530.1459" fill="#F1F1F1" rx="95.0902" ry="24.0159" style="stroke:#181818;stroke-width:0.5;"/><text fill="#000000" font-family="sans-serif" font-size="14" lengthAdjust="spacing" textLength="142.8232" x="514.8386" y="529.6732">Guardar Documento</text><text fill="#000000" font-family="sans-serif" font-size="14" lengthAdjust="spacing" textLength="72.3994" x="550.0505" y="545.9701">Procesado</text></g><!--entity CU05--><g class="entity" data-qualified-name="Plataforma Kidyra.CU05" data-source-line="28" id="ent0018"><ellipse cx="586.2479" cy="887.1512" fill="#F1F1F1" rx="80.5579" ry="29.5112" style="stroke:#181818;stroke-width:0.5;"/><text fill="#000000" font-family="sans-serif" font-size="14" lengthAdjust="spacing" textLength="42.8887" x="564.8036" y="874.4704">CU-05</text><text fill="#000000" font-family="sans-serif" font-size="14" lengthAdjust="spacing" textLength="143.0283" x="514.7338" y="890.7673">Generar Res&#250;menes</text><text fill="#000000" font-family="sans-serif" font-size="14" lengthAdjust="spacing" textLength="72.7686" x="549.8637" y="907.0642">Did&#225;cticos</text></g><!--entity CU06--><g class="entity" data-qualified-name="Plataforma Kidyra.CU06" data-source-line="29" id="ent0019"><ellipse cx="586.2501" cy="791.1514" fill="#F1F1F1" rx="66.4001" ry="31.7714" style="stroke:#181818;stroke-width:0.5;"/><text fill="#000000" font-family="sans-serif" font-size="14" lengthAdjust="spacing" textLength="42.8887" x="564.8057" y="776.8726">CU-06</text><text fill="#000000" font-family="sans-serif" font-size="14" lengthAdjust="spacing" textLength="107.7344" x="532.3829" y="793.1695">Generar Trivias</text><text fill="#000000" font-family="sans-serif" font-size="14" lengthAdjust="spacing" textLength="82.6738" x="544.9132" y="809.4664">Interactivas</text></g><!--entity CU07--><g class="entity" data-qualified-name="Plataforma Kidyra.CU07" data-source-line="31" id="ent0020"><ellipse cx="276.0457" cy="440.1476" fill="#F1F1F1" rx="82.3457" ry="28.7676" style="stroke:#181818;stroke-width:0.5;"/><text fill="#000000" font-family="sans-serif" font-size="14" lengthAdjust="spacing" textLength="42.8887" x="254.6013" y="428.4992">CU-07</text><text fill="#000000" font-family="sans-serif" font-size="14" lengthAdjust="spacing" textLength="150.5479" x="200.7718" y="444.7961">Seleccionar Tem&#225;tica</text><text fill="#000000" font-family="sans-serif" font-size="14" lengthAdjust="spacing" textLength="42.1025" x="254.9944" y="461.0929">Visual</text></g><!--entity CU08--><g class="entity" data-qualified-name="Plataforma Kidyra.CU08" data-source-line="32" id="ent0021"><ellipse cx="888.7509" cy="894.1472" fill="#F1F1F1" rx="84.4109" ry="29.0772" style="stroke:#181818;stroke-width:0.5;"/><text fill="#000000" font-family="sans-serif" font-size="14" lengthAdjust="spacing" textLength="42.8887" x="867.3066" y="881.7878">CU-08</text><text fill="#000000" font-family="sans-serif" font-size="14" lengthAdjust="spacing" textLength="152.6328" x="812.4345" y="898.0847">Reproducir Contenido</text><text fill="#000000" font-family="sans-serif" font-size="14" lengthAdjust="spacing" textLength="67.4502" x="855.0258" y="914.3816">por Audio</text></g><!--entity ViewSummary--><g class="entity" data-qualified-name="Plataforma Kidyra.ViewSummary" data-source-line="34" id="ent0022"><ellipse cx="276.0503" cy="884.1505" fill="#F1F1F1" rx="90.1103" ry="23.6105" style="stroke:#181818;stroke-width:0.5;"/><text fill="#000000" font-family="sans-serif" font-size="14" lengthAdjust="spacing" textLength="42.8887" x="254.606" y="876.9712">CU-09</text><text fill="#000000" font-family="sans-serif" font-size="14" lengthAdjust="spacing" textLength="137.7578" x="207.1714" y="893.268">Visualizar Resumen</text></g><!--entity AnswerQuiz--><g class="entity" data-qualified-name="Plataforma Kidyra.AnswerQuiz" data-source-line="35" id="ent0023"><ellipse cx="276.0548" cy="794.1451" fill="#F1F1F1" rx="78.3148" ry="23.6951" style="stroke:#181818;stroke-width:0.5;"/><text fill="#000000" font-family="sans-serif" font-size="14" lengthAdjust="spacing" textLength="42.8887" x="254.6104" y="787.1035">CU-10</text><text fill="#000000" font-family="sans-serif" font-size="14" lengthAdjust="spacing" textLength="118.6172" x="216.7462" y="803.4004">Responder Trivia</text></g><!--entity Tutor--><g class="entity" data-qualified-name="Tutor" data-source-line="6" id="ent0002"><ellipse cx="64.4712" cy="418" fill="#F1F1F1" rx="16" ry="16" style="stroke:#181818;stroke-width:0.5;"/><path d="M64.4712,438 C68.4712,438 71.4712,438 75.4712,434 C83.4712,434 91.4712,442 91.4712,450 L91.4712,454 C91.4712,458 87.4712,462 83.4712,462 L45.4712,462 C41.4712,462 37.4712,458 37.4712,454 L37.4712,450 C37.4712,442 45.4712,434 53.4712,434 C57.4712,438 60.4712,438 64.4712,438" fill="#F1F1F1" style="stroke:#181818;stroke-width:0.5;"/><text fill="#000000" font-family="sans-serif" font-size="14" lengthAdjust="spacing" textLength="116.9424" x="6" y="475.4951">Tutor / Educador</text></g><!--entity Nino--><g class="entity" data-qualified-name="Nino" data-source-line="7" id="ent0003"><ellipse cx="64.4692" cy="822.85" fill="#F1F1F1" rx="16" ry="16" style="stroke:#181818;stroke-width:0.5;"/><path d="M64.4692,842.85 C68.4692,842.85 71.4692,842.85 75.4692,838.85 C83.4692,838.85 91.4692,846.85 91.4692,854.85 L91.4692,858.85 C91.4692,862.85 87.4692,866.85 83.4692,866.85 L45.4692,866.85 C41.4692,866.85 37.4692,862.85 37.4692,858.85 L37.4692,854.85 C37.4692,846.85 45.4692,838.85 53.4692,838.85 C57.4692,842.85 60.4692,842.85 64.4692,842.85" fill="#F1F1F1" style="stroke:#181818;stroke-width:0.5;"/><text fill="#000000" font-family="sans-serif" font-size="14" lengthAdjust="spacing" textLength="31.8008" x="19" y="880.3451">Ni&#241;o</text><text fill="#000000" font-family="sans-serif" font-size="14" lengthAdjust="spacing" textLength="90.9385" x="19" y="896.642">Usuario Final</text></g><!--entity Gemini--><g class="entity" data-qualified-name="Gemini" data-source-line="8" id="ent0004"><ellipse cx="888.755" cy="22" fill="#F1F1F1" rx="16" ry="16" style="stroke:#181818;stroke-width:0.5;"/><path d="M888.755,42 C892.755,42 895.755,42 899.755,38 C907.755,38 915.755,46 915.755,54 L915.755,58 C915.755,62 911.755,66 907.755,66 L869.755,66 C865.755,66 861.755,62 861.755,58 L861.755,54 C861.755,46 869.755,38 877.755,38 C881.755,42 884.755,42 888.755,42" fill="#F1F1F1" style="stroke:#181818;stroke-width:0.5;"/><text fill="#000000" font-family="sans-serif" font-size="14" lengthAdjust="spacing" textLength="130.1699" x="823.67" y="79.4951">Google Gemini API</text></g><!--link Tutor to CU01--><g class="link" data-entity-1="ent0002" data-entity-2="ent0006" data-link-type="dependency" data-source-line="38" id="lnk24"><path d="M81.55,479.03 C97.4,512.96 124.66,561.31 161.94,591.15 C176.54,602.83 189.0877,609.3756 206.6077,615.5156" fill="none" id="Tutor-to-CU01" style="stroke:#181818;stroke-width:1;"/><polygon fill="#181818" points="212.27,617.5,205.0994,610.7485,207.5514,615.8463,202.4535,618.2983,212.27,617.5" style="stroke:#181818;stroke-width:1;"/></g><!--link Tutor to CU02--><g class="link" data-entity-1="ent0002" data-entity-2="ent0007" data-link-type="dependency" data-source-line="39" id="lnk25"><path d="M75.29,401.07 C88.19,357.36 114.92,287.19 161.94,245.15 C178.06,230.74 193.8961,223.0469 213.8861,216.8869" fill="none" id="Tutor-to-CU02" style="stroke:#181818;stroke-width:1;"/><polygon fill="#181818" points="219.62,215.12,209.8412,213.9478,214.8417,216.5924,212.1971,221.593,219.62,215.12" style="stroke:#181818;stroke-width:1;"/></g><!--link Tutor to CU03--><g class="link" data-entity-1="ent0002" data-entity-2="ent0008" data-link-type="dependency" data-source-line="40" id="lnk26"><path d="M121.64,401.02 C158.62,375.26 201.0571,345.7 233.3071,323.23" fill="none" id="Tutor-to-CU03" style="stroke:#181818;stroke-width:1;"/><polygon fill="#181818" points="238.23,319.8,228.559,321.6631,234.1276,322.6583,233.1323,328.227,238.23,319.8" style="stroke:#181818;stroke-width:1;"/></g><!--link Tutor to CU04--><g class="link" data-entity-1="ent0002" data-entity-2="ent0013" data-link-type="dependency" data-source-line="41" id="lnk27"><path d="M123.3,470.5 C158.67,489.07 197.7472,509.5717 229.3572,526.1617" fill="none" id="Tutor-to-CU04" style="stroke:#181818;stroke-width:1;"/><polygon fill="#181818" points="234.67,528.95,228.5597,521.2257,230.2427,526.6264,224.842,528.3094,234.67,528.95" style="stroke:#181818;stroke-width:1;"/></g><!--link Tutor to CU07--><g class="link" data-entity-1="ent0002" data-entity-2="ent0020" data-link-type="dependency" data-source-line="42" id="lnk28"><path d="M123.3,440.15 C144.98,440.15 164.06,440.15 187.49,440.15" fill="none" id="Tutor-to-CU07" style="stroke:#181818;stroke-width:1;"/><polygon fill="#181818" points="193.49,440.15,184.49,436.15,188.49,440.15,184.49,444.15,193.49,440.15" style="stroke:#181818;stroke-width:1;"/></g><!--link Nino to ViewSummary--><g class="link" data-entity-1="ent0003" data-entity-2="ent0022" data-link-type="dependency" data-source-line="44" id="lnk29"><path d="M110.43,859.8 C135.57,863.52 161.6844,867.3835 190.8044,871.6835" fill="none" id="Nino-to-ViewSummary" style="stroke:#181818;stroke-width:1;"/><polygon fill="#181818" points="196.74,872.56,188.4209,867.2882,191.7936,871.8296,187.2522,875.2024,196.74,872.56" style="stroke:#181818;stroke-width:1;"/></g><!--link Nino to AnswerQuiz--><g class="link" data-entity-1="ent0003" data-entity-2="ent0023" data-link-type="dependency" data-source-line="45" id="lnk30"><path d="M110.43,840.49 C141.82,831.65 178.2143,821.4051 212.0143,811.8951" fill="none" id="Nino-to-AnswerQuiz" style="stroke:#181818;stroke-width:1;"/><polygon fill="#181818" points="217.79,810.27,208.043,808.8571,212.9769,811.6242,210.2098,816.5581,217.79,810.27" style="stroke:#181818;stroke-width:1;"/></g><!--link Nino to CU07--><g class="link" data-entity-1="ent0003" data-entity-2="ent0020" data-link-type="dependency" data-source-line="46" id="lnk31"><path d="M67.91,806.09 C73.78,735.04 93.78,599.14 161.94,509.15 C177.29,488.89 195.1472,476.0481 216.5272,464.8281" fill="none" id="Nino-to-CU07" style="stroke:#181818;stroke-width:1;"/><polygon fill="#181818" points="221.84,462.04,212.012,462.6803,217.4126,464.3634,215.7295,469.7641,221.84,462.04" style="stroke:#181818;stroke-width:1;"/></g><!--link Nino to CU08--><g class="link" data-entity-1="ent0003" data-entity-2="ent0021" data-link-type="dependency" data-source-line="47" id="lnk32"><path d="M110.18,895.41 C125.45,907.28 143.38,918.7 161.94,925.15 C380.04,1000.89 451.52,956.21 681.34,934.15 C727.67,929.7 773.1926,921.0603 813.1026,912.2003" fill="none" id="Nino-to-CU08" style="stroke:#181818;stroke-width:1;"/><polygon fill="#181818" points="818.96,910.9,809.307,908.9456,814.0788,911.9836,811.0408,916.7554,818.96,910.9" style="stroke:#181818;stroke-width:1;"/></g><!--link CU03 to Sesion--><g class="link" data-entity-1="ent0008" data-entity-2="ent0009" data-link-type="dependency" data-source-line="49" id="lnk33"><path d="M335.75,307.1 C390.06,319.08 464.5909,335.5273 519.3409,347.6073" fill="none" id="CU03-to-Sesion" style="stroke:#181818;stroke-width:1;stroke-dasharray:7,7;"/><polygon fill="#181818" points="525.2,348.9,517.2732,343.0548,520.3174,347.8227,515.5496,350.8669,525.2,348.9" style="stroke:#181818;stroke-width:1;"/><text fill="#000000" font-family="sans-serif" font-size="13" lengthAdjust="spacing" textLength="63.0068" x="397.16" y="318.2169">&#171;include&#187;</text></g><!--link CU04 to Sesion--><g class="link" data-entity-1="ent0013" data-entity-2="ent0009" data-link-type="dependency" data-source-line="50" id="lnk34"><path d="M311.78,528.35 C363.23,496.03 454.4,438.57 461.16,433.15 C475.88,421.35 475.58,413.77 491.16,403.15 C504.86,393.82 515.493,388.1851 530.523,381.8351" fill="none" id="CU04-to-Sesion" style="stroke:#181818;stroke-width:1;stroke-dasharray:7,7;"/><polygon fill="#181818" points="536.05,379.5,526.2028,379.318,531.4442,381.4459,529.3163,386.6873,536.05,379.5" style="stroke:#181818;stroke-width:1;"/><text fill="#000000" font-family="sans-serif" font-size="13" lengthAdjust="spacing" textLength="63.0068" x="397.16" y="429.2169">&#171;include&#187;</text></g><!--link CU07 to Sesion--><g class="link" data-entity-1="ent0020" data-entity-2="ent0009" data-link-type="dependency" data-source-line="51" id="lnk35"><path d="M343.55,423.32 C398.49,409.41 469.8736,391.3528 522.1236,378.1228" fill="none" id="CU07-to-Sesion" style="stroke:#181818;stroke-width:1;stroke-dasharray:7,7;"/><polygon fill="#181818" points="527.94,376.65,518.2335,374.9815,523.093,377.8773,520.1972,382.7368,527.94,376.65" style="stroke:#181818;stroke-width:1;"/><text fill="#000000" font-family="sans-serif" font-size="13" lengthAdjust="spacing" textLength="63.0068" x="397.16" y="391.2169">&#171;include&#187;</text></g><!--reverse link CU03 to Editar--><g class="link" data-entity-1="ent0008" data-entity-2="ent0010" data-link-type="dependency" data-source-line="53" id="lnk36"><path d="M326.6144,268.6498 C341.1644,260.7598 351.97,254.41 366.16,245.15 C380.23,235.96 381.67,230.65 396.16,222.15 C435.82,198.87 448.25,197.68 491.16,181.15 C509.52,174.08 530.18,166.96 547.46,161.24" fill="none" id="CU03-backto-Editar" style="stroke:#181818;stroke-width:1;stroke-dasharray:7,7;"/><polygon fill="#181818" points="321.34,271.51,331.1584,270.7361,325.7354,269.1265,327.3449,263.7035,321.34,271.51" style="stroke:#181818;stroke-width:1;"/><text fill="#000000" font-family="sans-serif" font-size="13" lengthAdjust="spacing" textLength="61.1851" x="398.16" y="189.2169">&#171;extend&#187;</text></g><!--reverse link CU03 to Password--><g class="link" data-entity-1="ent0008" data-entity-2="ent0011" data-link-type="dependency" data-source-line="54" id="lnk37"><path d="M347.2869,291.8658 C393.5969,290.3658 450.55,288.52 500.91,286.88" fill="none" id="CU03-backto-Password" style="stroke:#181818;stroke-width:1;stroke-dasharray:7,7;"/><polygon fill="#181818" points="341.29,292.06,350.4148,295.7665,346.2874,291.8981,350.1558,287.7707,341.29,292.06" style="stroke:#181818;stroke-width:1;"/><text fill="#000000" font-family="sans-serif" font-size="13" lengthAdjust="spacing" textLength="61.1851" x="398.16" y="285.2169">&#171;extend&#187;</text></g><!--reverse link CU03 to Logout--><g class="link" data-entity-1="ent0008" data-entity-2="ent0012" data-link-type="dependency" data-source-line="55" id="lnk38"><path d="M339.7477,277.8731 C399.4077,262.3931 486.11,239.88 540.69,225.72" fill="none" id="CU03-backto-Logout" style="stroke:#181818;stroke-width:1;stroke-dasharray:7,7;"/><polygon fill="#181818" points="333.94,279.38,343.6561,280.9914,338.7797,278.1242,341.6469,273.2478,333.94,279.38" style="stroke:#181818;stroke-width:1;"/><text fill="#000000" font-family="sans-serif" font-size="13" lengthAdjust="spacing" textLength="61.1851" x="398.16" y="243.2169">&#171;extend&#187;</text></g><!--link CU04 to Validar--><g class="link" data-entity-1="ent0013" data-entity-2="ent0014" data-link-type="dependency" data-source-line="57" id="lnk39"><path d="M339.32,533.52 C375.22,523.53 421.04,510.08 461.16,496.15 C488.81,486.55 513.7654,476.6069 537.6054,466.6269" fill="none" id="CU04-to-Validar" style="stroke:#181818;stroke-width:1;stroke-dasharray:7,7;"/><polygon fill="#181818" points="543.14,464.31,533.2935,464.0956,538.5278,466.2408,536.3827,471.4751,543.14,464.31" style="stroke:#181818;stroke-width:1;"/><text fill="#000000" font-family="sans-serif" font-size="13" lengthAdjust="spacing" textLength="63.0068" x="397.16" y="492.2169">&#171;include&#187;</text></g><!--link CU04 to ValidarContenido--><g class="link" data-entity-1="ent0013" data-entity-2="ent0015" data-link-type="dependency" data-source-line="58" id="lnk40"><path d="M326.66,569.58 C339.96,575.68 354,582.99 366.16,591.15 C381.31,601.31 380.86,609.22 396.16,619.15 C436.83,645.54 481.9996,664.4418 520.7196,678.2718" fill="none" id="CU04-to-ValidarContenido" style="stroke:#181818;stroke-width:1;stroke-dasharray:7,7;"/><polygon fill="#181818" points="526.37,680.29,519.2399,673.4958,521.6613,678.6082,516.549,681.0296,526.37,680.29" style="stroke:#181818;stroke-width:1;"/><text fill="#000000" font-family="sans-serif" font-size="13" lengthAdjust="spacing" textLength="63.0068" x="397.16" y="615.2169">&#171;include&#187;</text></g><!--link CU04 to Extraer--><g class="link" data-entity-1="ent0013" data-entity-2="ent0016" data-link-type="dependency" data-source-line="59" id="lnk41"><path d="M338.03,567.04 C356.62,571.91 377.16,577.02 396.16,581.15 C432.47,589.03 467.1119,595.3122 501.3219,601.0222" fill="none" id="CU04-to-Extraer" style="stroke:#181818;stroke-width:1;stroke-dasharray:7,7;"/><polygon fill="#181818" points="507.24,602.01,499.0213,596.5829,502.3082,601.1868,497.7043,604.4737,507.24,602.01" style="stroke:#181818;stroke-width:1;"/><text fill="#000000" font-family="sans-serif" font-size="13" lengthAdjust="spacing" textLength="63.0068" x="397.16" y="577.2169">&#171;include&#187;</text></g><!--link CU04 to GuardarDoc--><g class="link" data-entity-1="ent0013" data-entity-2="ent0017" data-link-type="dependency" data-source-line="60" id="lnk42"><path d="M361.52,555.34 C392.87,556.26 428.69,556.13 461.16,553.15 C478.07,551.59 490.2143,549.9298 507.1543,546.8898" fill="none" id="CU04-to-GuardarDoc" style="stroke:#181818;stroke-width:1;stroke-dasharray:7,7;"/><polygon fill="#181818" points="513.06,545.83,503.495,543.4826,508.1386,546.7132,504.9081,551.3568,513.06,545.83" style="stroke:#181818;stroke-width:1;"/><text fill="#000000" font-family="sans-serif" font-size="13" lengthAdjust="spacing" textLength="63.0068" x="397.16" y="549.2169">&#171;include&#187;</text></g><!--reverse link CU04 to CU05--><g class="link" data-entity-1="ent0013" data-entity-2="ent0018" data-link-type="dependency" data-source-line="62" id="lnk43"><path d="M342.1212,570.2229 C353.4112,576.0529 358.68,581.01 366.16,591.15 C426.57,673.05 332.48,738.77 396.16,818.15 C423.61,852.36 469.59,869.61 509.33,878.3" fill="none" id="CU04-backto-CU05" style="stroke:#181818;stroke-width:1;stroke-dasharray:7,7;"/><polygon fill="#181818" points="336.79,567.47,342.9515,575.1535,341.2326,569.7641,346.622,568.0453,336.79,567.47" style="stroke:#181818;stroke-width:1;"/><text fill="#000000" font-family="sans-serif" font-size="13" lengthAdjust="spacing" textLength="61.1851" x="398.16" y="814.2169">&#171;extend&#187;</text></g><!--reverse link CU04 to CU06--><g class="link" data-entity-1="ent0013" data-entity-2="ent0019" data-link-type="dependency" data-source-line="63" id="lnk44"><path d="M339.3228,570.6206 C351.2028,576.4706 357.38,581.41 366.16,591.15 C393.84,621.83 370.93,646.43 396.16,679.15 C430.88,724.17 489.24,754.72 531.96,772.4" fill="none" id="CU04-backto-CU06" style="stroke:#181818;stroke-width:1;stroke-dasharray:7,7;"/><polygon fill="#181818" points="333.94,567.97,340.2471,575.5344,338.4256,570.1788,343.7812,568.3574,333.94,567.97" style="stroke:#181818;stroke-width:1;"/><text fill="#000000" font-family="sans-serif" font-size="13" lengthAdjust="spacing" textLength="61.1851" x="398.16" y="675.2169">&#171;extend&#187;</text></g><!--reverse link CU05 to CU08--><g class="link" data-entity-1="ent0018" data-entity-2="ent0021" data-link-type="dependency" data-source-line="65" id="lnk45"><path d="M672.9884,889.1488 C715.3284,890.1288 761.33,891.2 804.23,892.2" fill="none" id="CU05-backto-CU08" style="stroke:#181818;stroke-width:1;stroke-dasharray:7,7;"/><polygon fill="#181818" points="666.99,889.01,675.895,893.2172,671.9887,889.1257,676.0801,885.2193,666.99,889.01" style="stroke:#181818;stroke-width:1;"/><text fill="#000000" font-family="sans-serif" font-size="13" lengthAdjust="spacing" textLength="61.1851" x="712.34" y="887.2169">&#171;extend&#187;</text></g><!--link ViewSummary to CU05--><g class="link" data-entity-1="ent0022" data-entity-2="ent0018" data-link-type="dependency" data-source-line="67" id="lnk46"><path d="M360.29,892.82 C372.31,893.79 384.55,894.61 396.16,895.15 C432.76,896.83 467.3603,895.8807 501.5203,893.8807" fill="none" id="ViewSummary-to-CU05" style="stroke:#181818;stroke-width:1;stroke-dasharray:7,7;"/><polygon fill="#181818" points="507.51,893.53,498.2916,890.0629,502.5185,893.8222,498.7592,898.0492,507.51,893.53" style="stroke:#181818;stroke-width:1;"/><text fill="#000000" font-family="sans-serif" font-size="13" lengthAdjust="spacing" textLength="63.0068" x="397.16" y="891.2169">&#171;include&#187;</text></g><!--link AnswerQuiz to CU06--><g class="link" data-entity-1="ent0023" data-entity-2="ent0019" data-link-type="dependency" data-source-line="68" id="lnk47"><path d="M354.82,793.39 C405.65,792.9 465.2903,792.3185 513.5003,791.8485" fill="none" id="AnswerQuiz-to-CU06" style="stroke:#181818;stroke-width:1;stroke-dasharray:7,7;"/><polygon fill="#181818" points="519.5,791.79,510.4614,787.8779,514.5002,791.8387,510.5394,795.8775,519.5,791.79" style="stroke:#181818;stroke-width:1;"/><text fill="#000000" font-family="sans-serif" font-size="13" lengthAdjust="spacing" textLength="63.0068" x="397.16" y="789.2169">&#171;include&#187;</text></g><!--link CU05 to Gemini--><g class="link" data-entity-1="ent0018" data-entity-2="ent0004" data-link-type="dependency" data-source-line="70" id="lnk48"><path d="M646.67,867.29 C659.69,860.49 672.28,851.6 681.34,840.15 C793.25,698.71 745.37,623.16 774.34,445.15 C786.07,373.12 771.41,183.26 804.34,118.15 C810.98,105.02 816.6544,97.2654 827.5044,87.0854" fill="none" id="CU05-to-Gemini" style="stroke:#181818;stroke-width:1;"/><polygon fill="#181818" points="831.88,82.98,822.5797,86.221,828.2337,86.4012,828.0535,92.0551,831.88,82.98" style="stroke:#181818;stroke-width:1;"/></g><!--link CU06 to Gemini--><g class="link" data-entity-1="ent0019" data-entity-2="ent0004" data-link-type="dependency" data-source-line="71" id="lnk49"><path d="M642.42,773.62 C657.34,766.23 671.95,756.03 681.34,742.15 C719.02,686.48 698.66,507.16 711.34,441.15 C739.53,294.44 724.65,244.5 804.34,118.15 C812.4,105.38 818.8685,97.5759 830.1185,87.2559" fill="none" id="CU06-to-Gemini" style="stroke:#181818;stroke-width:1;"/><polygon fill="#181818" points="834.54,83.2,825.2038,86.3363,830.8555,86.58,830.6118,92.2316,834.54,83.2" style="stroke:#181818;stroke-width:1;"/></g><?plantuml-src XLN9RXf14BtFLxJ8sSGBYnCX98HjP2MoYC4-pQNTNOnBdkb6tJF6TfIFyITOkUNAZwMNsO642wf-xzLU4CCg9Qaa2gF7b71Km5AK8j1FADPKqOGyKFOKAPa9FfMnLEJJbVlK6FgHShb14P4LZJNK4CfIgHRfQmo4Ra3B18B0lP7EChDVdyabpvYHgmwXchZ7Wd63smyPYZkTKOMINA6WiMFTe905QIPbPBpF8461P3A_TWnl1e6jXWfBwCnZcjALL0abtv2_AjeXFuE0a4m3ezeGfdT7noUXk8K8TQge8dbWvt1wTtpI9f-6ubeWGqDTWCRjRr5GJzlKir3CGDl66l8Sr0hZK71eXpXh97GF2bV8AlUXc9ZXF5D7jszcJdN19SVKi2zeAhNZ-8T6CZHvi0bFfJ0rQjX-U6zpglL6AjxWWbAjshxBI6RfJjjwePXI5TdOacK9YBGigTUeYCR83Mk9Q-dgdoZsYC-Ud8Fx-3PR4CYTA6u5oKabfz6H5rCb_CT1JghhPcOil5vEAEPACj1cK_s2UOB1TvhHjxCMO5jt2thxn-X1X-82-VRTZ8_bip6zwRUbWqgwLFYCLDiLIys3ctif7Em47OPY0J4mvbTi2SdstSIYeRX7isDneHosXUTsuzTAcYl4Hf_Mvhec6Q-Mytmdw9V2ExxvOcsl_4mGDeiiIQXwRObEZcr0lPPc44MLJZ8HUWFgHuPlmQyWyByEHqTZVtaDyxHfdZNDNjCS1e7zkN1cFQloiHQtV7EwkcLgjv58jplE3uzy9QCH2XPd7CPZY_R-YGuFezxrgDlDxzN1y686mRtMWyM97e3zQJR1AgtYaWvatRwXGxpYdWx0rLNiAR7dqhHhlrD12Grsy-yNs7aBgqtJ1IyzLs6hsHQCmPx4-cxA-L-6urJsNm00?></g></svg>