<svg xmlns="http://www.w3.org/2000/svg" xmlns:xlink="http://www.w3.org/1999/xlink" contentStyleType="text/css" data-diagram-type="CLASS" height="1599px" preserveAspectRatio="none" style="width:3087px;height:1599px;background:#FFFFFF;" version="1.1" viewBox="0 0 3087 1599" width="3087px" zoomAndPan="magnify"><?plantuml 1.2026.4beta2?><defs/><g><g class="title" data-source-line="18"><text fill="#000000" font-family="sans-serif" font-size="14" font-weight="700" lengthAdjust="spacing" textLength="222.9268" x="1428.5366" y="22.9951">Diagrama de Clases - Kidyra</text></g><!--cluster exception--><g class="cluster" data-qualified-name="exception" data-source-line="22" id="ent0003"><rect fill="none" height="83" rx="2.5" ry="2.5" style="stroke:#000000;stroke-width:1.5;" width="232" x="1412" y="44.2969"/><text fill="#000000" font-family="sans-serif" font-size="14" font-weight="700" lengthAdjust="spacing" textLength="77.417" x="1489.2915" y="59.292">exception</text></g><!--cluster controller--><g class="cluster" data-qualified-name="controller" data-source-line="26" id="ent0005"><rect fill="none" height="99" rx="2.5" ry="2.5" style="stroke:#000000;stroke-width:1.5;" width="1585" x="629" y="158.2969"/><text fill="#000000" font-family="sans-serif" font-size="14" font-weight="700" lengthAdjust="spacing" textLength="77.0957" x="1382.9521" y="173.292">controller</text></g><!--cluster dto--><g class="cluster" data-qualified-name="dto" data-source-line="39" id="ent0013"><rect fill="none" height="99" rx="2.5" ry="2.5" style="stroke:#000000;stroke-width:1.5;" width="1315" x="7" y="281.2969"/><text fill="#000000" font-family="sans-serif" font-size="14" font-weight="700" lengthAdjust="spacing" textLength="26.332" x="651.334" y="296.292">dto</text></g><!--cluster service--><g class="cluster" data-qualified-name="service" data-source-line="52" id="ent0021"><rect fill="none" height="246" rx="2.5" ry="2.5" style="stroke:#000000;stroke-width:1.5;" width="1727" x="1346" y="281.2969"/><text fill="#000000" font-family="sans-serif" font-size="14" font-weight="700" lengthAdjust="spacing" textLength="56.4512" x="2181.2744" y="296.292">service</text></g><!--cluster impl--><g class="cluster" data-qualified-name="service.impl" data-source-line="65" id="ent0029"><rect fill="none" height="99" rx="2.5" ry="2.5" style="stroke:#000000;stroke-width:1.5;" width="1679" x="1370" y="404.2969"/><text fill="#000000" font-family="sans-serif" font-size="14" font-weight="700" lengthAdjust="spacing" textLength="34.207" x="2192.3965" y="419.292">impl</text></g><!--cluster repository--><g class="cluster" data-qualified-name="repository" data-source-line="78" id="ent0037"><rect fill="none" height="99" rx="2.5" ry="2.5" style="stroke:#000000;stroke-width:1.5;" width="1626" x="1397" y="551.2969"/><text fill="#000000" font-family="sans-serif" font-size="14" font-weight="700" lengthAdjust="spacing" textLength="81.5117" x="2169.2441" y="566.292">repository</text></g><!--cluster model--><g class="cluster" data-qualified-name="model" data-source-line="91" id="ent0045"><rect fill="none" height="904.34" rx="2.5" ry="2.5" style="stroke:#000000;stroke-width:1.5;" width="450" x="1530" y="681.2969"/><text fill="#000000" font-family="sans-serif" font-size="14" font-weight="700" lengthAdjust="spacing" textLength="48.5215" x="1730.7393" y="696.292">model</text></g><!--class GlobalExceptionHandler--><g class="entity" data-qualified-name="exception.GlobalExceptionHandler" data-source-line="23" id="ent0004"><rect fill="#F1F1F1" height="32" rx="2.5" ry="2.5" style="stroke:#181818;stroke-width:0.5;" width="200.9297" x="1427.54" y="79.2969"/><ellipse cx="1442.54" cy="95.2969" fill="#ADD1B2" rx="11" ry="11" style="stroke:#181818;stroke-width:1;"/><path d="M1445.5088,100.9375 Q1444.9306,101.2344 1444.29,101.375 Q1443.6494,101.5313 1442.9463,101.5313 Q1440.4463,101.5313 1439.1181,99.8906 Q1437.8056,98.2344 1437.8056,95.1094 Q1437.8056,91.9844 1439.1181,90.3281 Q1440.4463,88.6719 1442.9463,88.6719 Q1443.6494,88.6719 1444.29,88.8281 Q1444.9463,88.9844 1445.5088,89.2813 L1445.5088,92 Q1444.8838,91.4219 1444.29,91.1563 Q1443.6963,90.875 1443.0713,90.875 Q1441.7275,90.875 1441.04,91.9531 Q1440.3525,93.0156 1440.3525,95.1094 Q1440.3525,97.2031 1441.04,98.2813 Q1441.7275,99.3438 1443.0713,99.3438 Q1443.6963,99.3438 1444.29,99.0781 Q1444.8838,98.7969 1445.5088,98.2188 L1445.5088,100.9375 Z " fill="#000000"/><text fill="#000000" font-family="sans-serif" font-size="14" lengthAdjust="spacing" textLength="168.9297" x="1456.54" y="100.1436">GlobalExceptionHandler</text></g><!--class UserController--><g class="entity" data-qualified-name="controller.UserController" data-source-line="29" id="ent0006"><rect fill="#F1F1F1" height="32" rx="2.5" ry="2.5" style="stroke:#181818;stroke-width:0.5;" width="133.083" x="883.46" y="201.2969"/><ellipse cx="898.46" cy="217.2969" fill="#ADD1B2" rx="11" ry="11" style="stroke:#181818;stroke-width:1;"/><path d="M901.4288,222.9375 Q900.8506,223.2344 900.21,223.375 Q899.5694,223.5313 898.8663,223.5313 Q896.3663,223.5313 895.0381,221.8906 Q893.7256,220.2344 893.7256,217.1094 Q893.7256,213.9844 895.0381,212.3281 Q896.3663,210.6719 898.8663,210.6719 Q899.5694,210.6719 900.21,210.8281 Q900.8663,210.9844 901.4288,211.2813 L901.4288,214 Q900.8038,213.4219 900.21,213.1563 Q899.6163,212.875 898.9913,212.875 Q897.6475,212.875 896.96,213.9531 Q896.2725,215.0156 896.2725,217.1094 Q896.2725,219.2031 896.96,220.2813 Q897.6475,221.3438 898.9913,221.3438 Q899.6163,221.3438 900.21,221.0781 Q900.8038,220.7969 901.4288,220.2188 L901.4288,222.9375 Z " fill="#000000"/><text fill="#000000" font-family="sans-serif" font-size="14" lengthAdjust="spacing" textLength="101.083" x="912.46" y="222.1436">UserController</text></g><!--class FileTypeController--><g class="entity" data-qualified-name="controller.FileTypeController" data-source-line="30" id="ent0007"><rect fill="#F1F1F1" height="32" rx="2.5" ry="2.5" style="stroke:#181818;stroke-width:0.5;" width="159.9551" x="653.02" y="201.2969"/><ellipse cx="668.02" cy="217.2969" fill="#ADD1B2" rx="11" ry="11" style="stroke:#181818;stroke-width:1;"/><path d="M670.9888,222.9375 Q670.4106,223.2344 669.77,223.375 Q669.1294,223.5313 668.4263,223.5313 Q665.9263,223.5313 664.5981,221.8906 Q663.2856,220.2344 663.2856,217.1094 Q663.2856,213.9844 664.5981,212.3281 Q665.9263,210.6719 668.4263,210.6719 Q669.1294,210.6719 669.77,210.8281 Q670.4263,210.9844 670.9888,211.2813 L670.9888,214 Q670.3638,213.4219 669.77,213.1563 Q669.1763,212.875 668.5513,212.875 Q667.2075,212.875 666.52,213.9531 Q665.8325,215.0156 665.8325,217.1094 Q665.8325,219.2031 666.52,220.2813 Q667.2075,221.3438 668.5513,221.3438 Q669.1763,221.3438 669.77,221.0781 Q670.3638,220.7969 670.9888,220.2188 L670.9888,222.9375 Z " fill="#000000"/><text fill="#000000" font-family="sans-serif" font-size="14" lengthAdjust="spacing" textLength="127.9551" x="682.02" y="222.1436">FileTypeController</text></g><!--class DocumentController--><g class="entity" data-qualified-name="controller.DocumentController" data-source-line="31" id="ent0008"><rect fill="#F1F1F1" height="32" rx="2.5" ry="2.5" style="stroke:#181818;stroke-width:0.5;" width="173.7021" x="1086.15" y="201.2969"/><ellipse cx="1101.15" cy="217.2969" fill="#ADD1B2" rx="11" ry="11" style="stroke:#181818;stroke-width:1;"/><path d="M1104.1188,222.9375 Q1103.5406,223.2344 1102.9,223.375 Q1102.2594,223.5313 1101.5563,223.5313 Q1099.0563,223.5313 1097.7281,221.8906 Q1096.4156,220.2344 1096.4156,217.1094 Q1096.4156,213.9844 1097.7281,212.3281 Q1099.0563,210.6719 1101.5563,210.6719 Q1102.2594,210.6719 1102.9,210.8281 Q1103.5563,210.9844 1104.1188,211.2813 L1104.1188,214 Q1103.4938,213.4219 1102.9,213.1563 Q1102.3063,212.875 1101.6813,212.875 Q1100.3375,212.875 1099.65,213.9531 Q1098.9625,215.0156 1098.9625,217.1094 Q1098.9625,219.2031 1099.65,220.2813 Q1100.3375,221.3438 1101.6813,221.3438 Q1102.3063,221.3438 1102.9,221.0781 Q1103.4938,220.7969 1104.1188,220.2188 L1104.1188,222.9375 Z " fill="#000000"/><text fill="#000000" font-family="sans-serif" font-size="14" lengthAdjust="spacing" textLength="141.7021" x="1115.15" y="222.1436">DocumentController</text></g><!--class SummaryController--><g class="entity" data-qualified-name="controller.SummaryController" data-source-line="32" id="ent0009"><rect fill="#F1F1F1" height="32" rx="2.5" ry="2.5" style="stroke:#181818;stroke-width:0.5;" width="168.8281" x="1539.59" y="201.2969"/><ellipse cx="1554.59" cy="217.2969" fill="#ADD1B2" rx="11" ry="11" style="stroke:#181818;stroke-width:1;"/><path d="M1557.5588,222.9375 Q1556.9806,223.2344 1556.34,223.375 Q1555.6994,223.5313 1554.9963,223.5313 Q1552.4963,223.5313 1551.1681,221.8906 Q1549.8556,220.2344 1549.8556,217.1094 Q1549.8556,213.9844 1551.1681,212.3281 Q1552.4963,210.6719 1554.9963,210.6719 Q1555.6994,210.6719 1556.34,210.8281 Q1556.9963,210.9844 1557.5588,211.2813 L1557.5588,214 Q1556.9338,213.4219 1556.34,213.1563 Q1555.7463,212.875 1555.1213,212.875 Q1553.7775,212.875 1553.09,213.9531 Q1552.4025,215.0156 1552.4025,217.1094 Q1552.4025,219.2031 1553.09,220.2813 Q1553.7775,221.3438 1555.1213,221.3438 Q1555.7463,221.3438 1556.34,221.0781 Q1556.9338,220.7969 1557.5588,220.2188 L1557.5588,222.9375 Z " fill="#000000"/><text fill="#000000" font-family="sans-serif" font-size="14" lengthAdjust="spacing" textLength="136.8281" x="1568.59" y="222.1436">SummaryController</text></g><!--class TriviaController--><g class="entity" data-qualified-name="controller.TriviaController" data-source-line="33" id="ent0010"><rect fill="#F1F1F1" height="32" rx="2.5" ry="2.5" style="stroke:#181818;stroke-width:0.5;" width="140.124" x="1329.94" y="201.2969"/><ellipse cx="1344.94" cy="217.2969" fill="#ADD1B2" rx="11" ry="11" style="stroke:#181818;stroke-width:1;"/><path d="M1347.9088,222.9375 Q1347.3306,223.2344 1346.69,223.375 Q1346.0494,223.5313 1345.3463,223.5313 Q1342.8463,223.5313 1341.5181,221.8906 Q1340.2056,220.2344 1340.2056,217.1094 Q1340.2056,213.9844 1341.5181,212.3281 Q1342.8463,210.6719 1345.3463,210.6719 Q1346.0494,210.6719 1346.69,210.8281 Q1347.3463,210.9844 1347.9088,211.2813 L1347.9088,214 Q1347.2838,213.4219 1346.69,213.1563 Q1346.0963,212.875 1345.4713,212.875 Q1344.1275,212.875 1343.44,213.9531 Q1342.7525,215.0156 1342.7525,217.1094 Q1342.7525,219.2031 1343.44,220.2813 Q1344.1275,221.3438 1345.4713,221.3438 Q1346.0963,221.3438 1346.69,221.0781 Q1347.2838,220.7969 1347.9088,220.2188 L1347.9088,222.9375 Z " fill="#000000"/><text fill="#000000" font-family="sans-serif" font-size="14" lengthAdjust="spacing" textLength="108.124" x="1358.94" y="222.1436">TriviaController</text></g><!--class QuestionController--><g class="entity" data-qualified-name="controller.QuestionController" data-source-line="34" id="ent0011"><rect fill="#F1F1F1" height="32" rx="2.5" ry="2.5" style="stroke:#181818;stroke-width:0.5;" width="163.79" x="1778.1" y="201.2969"/><ellipse cx="1793.1" cy="217.2969" fill="#ADD1B2" rx="11" ry="11" style="stroke:#181818;stroke-width:1;"/><path d="M1796.0688,222.9375 Q1795.4906,223.2344 1794.85,223.375 Q1794.2094,223.5313 1793.5063,223.5313 Q1791.0063,223.5313 1789.6781,221.8906 Q1788.3656,220.2344 1788.3656,217.1094 Q1788.3656,213.9844 1789.6781,212.3281 Q1791.0063,210.6719 1793.5063,210.6719 Q1794.2094,210.6719 1794.85,210.8281 Q1795.5063,210.9844 1796.0688,211.2813 L1796.0688,214 Q1795.4438,213.4219 1794.85,213.1563 Q1794.2563,212.875 1793.6313,212.875 Q1792.2875,212.875 1791.6,213.9531 Q1790.9125,215.0156 1790.9125,217.1094 Q1790.9125,219.2031 1791.6,220.2813 Q1792.2875,221.3438 1793.6313,221.3438 Q1794.2563,221.3438 1794.85,221.0781 Q1795.4438,220.7969 1796.0688,220.2188 L1796.0688,222.9375 Z " fill="#000000"/><text fill="#000000" font-family="sans-serif" font-size="14" lengthAdjust="spacing" textLength="131.79" x="1807.1" y="222.1436">QuestionController</text></g><!--class AlternativeController--><g class="entity" data-qualified-name="controller.AlternativeController" data-source-line="35" id="ent0012"><rect fill="#F1F1F1" height="32" rx="2.5" ry="2.5" style="stroke:#181818;stroke-width:0.5;" width="178.2275" x="2011.89" y="201.2969"/><ellipse cx="2026.89" cy="217.2969" fill="#ADD1B2" rx="11" ry="11" style="stroke:#181818;stroke-width:1;"/><path d="M2029.8588,222.9375 Q2029.2806,223.2344 2028.64,223.375 Q2027.9994,223.5313 2027.2963,223.5313 Q2024.7963,223.5313 2023.4681,221.8906 Q2022.1556,220.2344 2022.1556,217.1094 Q2022.1556,213.9844 2023.4681,212.3281 Q2024.7963,210.6719 2027.2963,210.6719 Q2027.9994,210.6719 2028.64,210.8281 Q2029.2963,210.9844 2029.8588,211.2813 L2029.8588,214 Q2029.2338,213.4219 2028.64,213.1563 Q2028.0463,212.875 2027.4213,212.875 Q2026.0775,212.875 2025.39,213.9531 Q2024.7025,215.0156 2024.7025,217.1094 Q2024.7025,219.2031 2025.39,220.2813 Q2026.0775,221.3438 2027.4213,221.3438 Q2028.0463,221.3438 2028.64,221.0781 Q2029.2338,220.7969 2029.8588,220.2188 L2029.8588,222.9375 Z " fill="#000000"/><text fill="#000000" font-family="sans-serif" font-size="14" lengthAdjust="spacing" textLength="146.2275" x="2040.89" y="222.1436">AlternativeController</text></g><!--class UserDTO--><g class="entity" data-qualified-name="dto.UserDTO" data-source-line="42" id="ent0014"><rect fill="#F1F1F1" height="32" rx="2.5" ry="2.5" style="stroke:#181818;stroke-width:0.5;" width="94.2617" x="222.87" y="324.2969"/><ellipse cx="237.87" cy="340.2969" fill="#ADD1B2" rx="11" ry="11" style="stroke:#181818;stroke-width:1;"/><path d="M240.8388,345.9375 Q240.2606,346.2344 239.62,346.375 Q238.9794,346.5313 238.2763,346.5313 Q235.7763,346.5313 234.4481,344.8906 Q233.1356,343.2344 233.1356,340.1094 Q233.1356,336.9844 234.4481,335.3281 Q235.7763,333.6719 238.2763,333.6719 Q238.9794,333.6719 239.62,333.8281 Q240.2763,333.9844 240.8388,334.2813 L240.8388,337 Q240.2138,336.4219 239.62,336.1563 Q239.0263,335.875 238.4013,335.875 Q237.0575,335.875 236.37,336.9531 Q235.6825,338.0156 235.6825,340.1094 Q235.6825,342.2031 236.37,343.2813 Q237.0575,344.3438 238.4013,344.3438 Q239.0263,344.3438 239.62,344.0781 Q240.2138,343.7969 240.8388,343.2188 L240.8388,345.9375 Z " fill="#000000"/><text fill="#000000" font-family="sans-serif" font-size="14" lengthAdjust="spacing" textLength="62.2617" x="251.87" y="345.1436">UserDTO</text></g><!--class FileTypeDTO--><g class="entity" data-qualified-name="dto.FileTypeDTO" data-source-line="43" id="ent0015"><rect fill="#F1F1F1" height="32" rx="2.5" ry="2.5" style="stroke:#181818;stroke-width:0.5;" width="121.1338" x="31.43" y="324.2969"/><ellipse cx="46.43" cy="340.2969" fill="#ADD1B2" rx="11" ry="11" style="stroke:#181818;stroke-width:1;"/><path d="M49.3988,345.9375 Q48.8206,346.2344 48.18,346.375 Q47.5394,346.5313 46.8363,346.5313 Q44.3363,346.5313 43.0081,344.8906 Q41.6956,343.2344 41.6956,340.1094 Q41.6956,336.9844 43.0081,335.3281 Q44.3363,333.6719 46.8363,333.6719 Q47.5394,333.6719 48.18,333.8281 Q48.8363,333.9844 49.3988,334.2813 L49.3988,337 Q48.7738,336.4219 48.18,336.1563 Q47.5863,335.875 46.9613,335.875 Q45.6175,335.875 44.93,336.9531 Q44.2425,338.0156 44.2425,340.1094 Q44.2425,342.2031 44.93,343.2813 Q45.6175,344.3438 46.9613,344.3438 Q47.5863,344.3438 48.18,344.0781 Q48.7738,343.7969 49.3988,343.2188 L49.3988,345.9375 Z " fill="#000000"/><text fill="#000000" font-family="sans-serif" font-size="14" lengthAdjust="spacing" textLength="89.1338" x="60.43" y="345.1436">FileTypeDTO</text></g><!--class DocumentDTO--><g class="entity" data-qualified-name="dto.DocumentDTO" data-source-line="44" id="ent0016"><rect fill="#F1F1F1" height="32" rx="2.5" ry="2.5" style="stroke:#181818;stroke-width:0.5;" width="134.8809" x="387.56" y="324.2969"/><ellipse cx="402.56" cy="340.2969" fill="#ADD1B2" rx="11" ry="11" style="stroke:#181818;stroke-width:1;"/><path d="M405.5288,345.9375 Q404.9506,346.2344 404.31,346.375 Q403.6694,346.5313 402.9663,346.5313 Q400.4663,346.5313 399.1381,344.8906 Q397.8256,343.2344 397.8256,340.1094 Q397.8256,336.9844 399.1381,335.3281 Q400.4663,333.6719 402.9663,333.6719 Q403.6694,333.6719 404.31,333.8281 Q404.9663,333.9844 405.5288,334.2813 L405.5288,337 Q404.9038,336.4219 404.31,336.1563 Q403.7163,335.875 403.0913,335.875 Q401.7475,335.875 401.06,336.9531 Q400.3725,338.0156 400.3725,340.1094 Q400.3725,342.2031 401.06,343.2813 Q401.7475,344.3438 403.0913,344.3438 Q403.7163,344.3438 404.31,344.0781 Q404.9038,343.7969 405.5288,343.2188 L405.5288,345.9375 Z " fill="#000000"/><text fill="#000000" font-family="sans-serif" font-size="14" lengthAdjust="spacing" textLength="102.8809" x="416.56" y="345.1436">DocumentDTO</text></g><!--class SummaryDTO--><g class="entity" data-qualified-name="dto.SummaryDTO" data-source-line="45" id="ent0017"><rect fill="#F1F1F1" height="32" rx="2.5" ry="2.5" style="stroke:#181818;stroke-width:0.5;" width="130.0068" x="764" y="324.2969"/><ellipse cx="779" cy="340.2969" fill="#ADD1B2" rx="11" ry="11" style="stroke:#181818;stroke-width:1;"/><path d="M781.9688,345.9375 Q781.3906,346.2344 780.75,346.375 Q780.1094,346.5313 779.4063,346.5313 Q776.9063,346.5313 775.5781,344.8906 Q774.2656,343.2344 774.2656,340.1094 Q774.2656,336.9844 775.5781,335.3281 Q776.9063,333.6719 779.4063,333.6719 Q780.1094,333.6719 780.75,333.8281 Q781.4063,333.9844 781.9688,334.2813 L781.9688,337 Q781.3438,336.4219 780.75,336.1563 Q780.1563,335.875 779.5313,335.875 Q778.1875,335.875 777.5,336.9531 Q776.8125,338.0156 776.8125,340.1094 Q776.8125,342.2031 777.5,343.2813 Q778.1875,344.3438 779.5313,344.3438 Q780.1563,344.3438 780.75,344.0781 Q781.3438,343.7969 781.9688,343.2188 L781.9688,345.9375 Z " fill="#000000"/><text fill="#000000" font-family="sans-serif" font-size="14" lengthAdjust="spacing" textLength="98.0068" x="793" y="345.1436">SummaryDTO</text></g><!--class TriviaDTO--><g class="entity" data-qualified-name="dto.TriviaDTO" data-source-line="46" id="ent0018"><rect fill="#F1F1F1" height="32" rx="2.5" ry="2.5" style="stroke:#181818;stroke-width:0.5;" width="101.3027" x="592.35" y="324.2969"/><ellipse cx="607.35" cy="340.2969" fill="#ADD1B2" rx="11" ry="11" style="stroke:#181818;stroke-width:1;"/><path d="M610.3188,345.9375 Q609.7406,346.2344 609.1,346.375 Q608.4594,346.5313 607.7563,346.5313 Q605.2563,346.5313 603.9281,344.8906 Q602.6156,343.2344 602.6156,340.1094 Q602.6156,336.9844 603.9281,335.3281 Q605.2563,333.6719 607.7563,333.6719 Q608.4594,333.6719 609.1,333.8281 Q609.7563,333.9844 610.3188,334.2813 L610.3188,337 Q609.6938,336.4219 609.1,336.1563 Q608.5063,335.875 607.8813,335.875 Q606.5375,335.875 605.85,336.9531 Q605.1625,338.0156 605.1625,340.1094 Q605.1625,342.2031 605.85,343.2813 Q606.5375,344.3438 607.8813,344.3438 Q608.5063,344.3438 609.1,344.0781 Q609.6938,343.7969 610.3188,343.2188 L610.3188,345.9375 Z " fill="#000000"/><text fill="#000000" font-family="sans-serif" font-size="14" lengthAdjust="spacing" textLength="69.3027" x="621.35" y="345.1436">TriviaDTO</text></g><!--class QuestionDTO--><g class="entity" data-qualified-name="dto.QuestionDTO" data-source-line="47" id="ent0019"><rect fill="#F1F1F1" height="32" rx="2.5" ry="2.5" style="stroke:#181818;stroke-width:0.5;" width="124.9688" x="963.52" y="324.2969"/><ellipse cx="978.52" cy="340.2969" fill="#ADD1B2" rx="11" ry="11" style="stroke:#181818;stroke-width:1;"/><path d="M981.4888,345.9375 Q980.9106,346.2344 980.27,346.375 Q979.6294,346.5313 978.9263,346.5313 Q976.4263,346.5313 975.0981,344.8906 Q973.7856,343.2344 973.7856,340.1094 Q973.7856,336.9844 975.0981,335.3281 Q976.4263,333.6719 978.9263,333.6719 Q979.6294,333.6719 980.27,333.8281 Q980.9263,333.9844 981.4888,334.2813 L981.4888,337 Q980.8638,336.4219 980.27,336.1563 Q979.6763,335.875 979.0513,335.875 Q977.7075,335.875 977.02,336.9531 Q976.3325,338.0156 976.3325,340.1094 Q976.3325,342.2031 977.02,343.2813 Q977.7075,344.3438 979.0513,344.3438 Q979.6763,344.3438 980.27,344.0781 Q980.8638,343.7969 981.4888,343.2188 L981.4888,345.9375 Z " fill="#000000"/><text fill="#000000" font-family="sans-serif" font-size="14" lengthAdjust="spacing" textLength="92.9688" x="992.52" y="345.1436">QuestionDTO</text></g><!--class AlternativeDTO--><g class="entity" data-qualified-name="dto.AlternativeDTO" data-source-line="48" id="ent0020"><rect fill="#F1F1F1" height="32" rx="2.5" ry="2.5" style="stroke:#181818;stroke-width:0.5;" width="139.4063" x="1158.3" y="324.2969"/><ellipse cx="1173.3" cy="340.2969" fill="#ADD1B2" rx="11" ry="11" style="stroke:#181818;stroke-width:1;"/><path d="M1176.2688,345.9375 Q1175.6906,346.2344 1175.05,346.375 Q1174.4094,346.5313 1173.7063,346.5313 Q1171.2063,346.5313 1169.8781,344.8906 Q1168.5656,343.2344 1168.5656,340.1094 Q1168.5656,336.9844 1169.8781,335.3281 Q1171.2063,333.6719 1173.7063,333.6719 Q1174.4094,333.6719 1175.05,333.8281 Q1175.7063,333.9844 1176.2688,334.2813 L1176.2688,337 Q1175.6438,336.4219 1175.05,336.1563 Q1174.4563,335.875 1173.8313,335.875 Q1172.4875,335.875 1171.8,336.9531 Q1171.1125,338.0156 1171.1125,340.1094 Q1171.1125,342.2031 1171.8,343.2813 Q1172.4875,344.3438 1173.8313,344.3438 Q1174.4563,344.3438 1175.05,344.0781 Q1175.6438,343.7969 1176.2688,343.2188 L1176.2688,345.9375 Z " fill="#000000"/><text fill="#000000" font-family="sans-serif" font-size="14" lengthAdjust="spacing" textLength="107.4063" x="1187.3" y="345.1436">AlternativeDTO</text></g><!--class IUserService--><g class="entity" data-qualified-name="service.IUserService" data-source-line="55" id="ent0022"><rect fill="#F1F1F1" height="32" rx="2.5" ry="2.5" style="stroke:#181818;stroke-width:0.5;" width="119.7803" x="1605.11" y="324.2969"/><ellipse cx="1620.11" cy="340.2969" fill="#B4A7E5" rx="11" ry="11" style="stroke:#181818;stroke-width:1;"/><path d="M1616.0319,336.0625 L1616.0319,333.9063 L1623.4225,333.9063 L1623.4225,336.0625 L1620.9538,336.0625 L1620.9538,344.1406 L1623.4225,344.1406 L1623.4225,346.2969 L1616.0319,346.2969 L1616.0319,344.1406 L1618.5006,344.1406 L1618.5006,336.0625 L1616.0319,336.0625 Z " fill="#000000"/><text fill="#000000" font-family="sans-serif" font-size="14" font-style="italic" lengthAdjust="spacing" textLength="87.7803" x="1634.11" y="345.1436">IUserService</text></g><!--class IFileTypeService--><g class="entity" data-qualified-name="service.IFileTypeService" data-source-line="56" id="ent0023"><rect fill="#F1F1F1" height="32" rx="2.5" ry="2.5" style="stroke:#181818;stroke-width:0.5;" width="146.6523" x="1388.67" y="324.2969"/><ellipse cx="1403.67" cy="340.2969" fill="#B4A7E5" rx="11" ry="11" style="stroke:#181818;stroke-width:1;"/><path d="M1399.5919,336.0625 L1399.5919,333.9063 L1406.9825,333.9063 L1406.9825,336.0625 L1404.5138,336.0625 L1404.5138,344.1406 L1406.9825,344.1406 L1406.9825,346.2969 L1399.5919,346.2969 L1399.5919,344.1406 L1402.0606,344.1406 L1402.0606,336.0625 L1399.5919,336.0625 Z " fill="#000000"/><text fill="#000000" font-family="sans-serif" font-size="14" font-style="italic" lengthAdjust="spacing" textLength="114.6523" x="1417.67" y="345.1436">IFileTypeService</text></g><!--class IDocumentService--><g class="entity" data-qualified-name="service.IDocumentService" data-source-line="57" id="ent0024"><rect fill="#F1F1F1" height="32" rx="2.5" ry="2.5" style="stroke:#181818;stroke-width:0.5;" width="160.3994" x="1794.8" y="324.2969"/><ellipse cx="1809.8" cy="340.2969" fill="#B4A7E5" rx="11" ry="11" style="stroke:#181818;stroke-width:1;"/><path d="M1805.7219,336.0625 L1805.7219,333.9063 L1813.1125,333.9063 L1813.1125,336.0625 L1810.6438,336.0625 L1810.6438,344.1406 L1813.1125,344.1406 L1813.1125,346.2969 L1805.7219,346.2969 L1805.7219,344.1406 L1808.1906,344.1406 L1808.1906,336.0625 L1805.7219,336.0625 Z " fill="#000000"/><text fill="#000000" font-family="sans-serif" font-size="14" font-style="italic" lengthAdjust="spacing" textLength="128.3994" x="1823.8" y="345.1436">IDocumentService</text></g><!--class ISummaryService--><g class="entity" data-qualified-name="service.ISummaryService" data-source-line="58" id="ent0025"><rect fill="#F1F1F1" height="32" rx="2.5" ry="2.5" style="stroke:#181818;stroke-width:0.5;" width="155.5254" x="2222.24" y="324.2969"/><ellipse cx="2237.24" cy="340.2969" fill="#B4A7E5" rx="11" ry="11" style="stroke:#181818;stroke-width:1;"/><path d="M2233.1619,336.0625 L2233.1619,333.9063 L2240.5525,333.9063 L2240.5525,336.0625 L2238.0838,336.0625 L2238.0838,344.1406 L2240.5525,344.1406 L2240.5525,346.2969 L2233.1619,346.2969 L2233.1619,344.1406 L2235.6306,344.1406 L2235.6306,336.0625 L2233.1619,336.0625 Z " fill="#000000"/><text fill="#000000" font-family="sans-serif" font-size="14" font-style="italic" lengthAdjust="spacing" textLength="123.5254" x="2251.24" y="345.1436">ISummaryService</text></g><!--class ITriviaService--><g class="entity" data-qualified-name="service.ITriviaService" data-source-line="59" id="ent0026"><rect fill="#F1F1F1" height="32" rx="2.5" ry="2.5" style="stroke:#181818;stroke-width:0.5;" width="126.8213" x="2025.59" y="324.2969"/><ellipse cx="2040.59" cy="340.2969" fill="#B4A7E5" rx="11" ry="11" style="stroke:#181818;stroke-width:1;"/><path d="M2036.5119,336.0625 L2036.5119,333.9063 L2043.9025,333.9063 L2043.9025,336.0625 L2041.4338,336.0625 L2041.4338,344.1406 L2043.9025,344.1406 L2043.9025,346.2969 L2036.5119,346.2969 L2036.5119,344.1406 L2038.9806,344.1406 L2038.9806,336.0625 L2036.5119,336.0625 Z " fill="#000000"/><text fill="#000000" font-family="sans-serif" font-size="14" font-style="italic" lengthAdjust="spacing" textLength="94.8213" x="2054.59" y="345.1436">ITriviaService</text></g><!--class IQuestionService--><g class="entity" data-qualified-name="service.IQuestionService" data-source-line="60" id="ent0027"><rect fill="#F1F1F1" height="32" rx="2.5" ry="2.5" style="stroke:#181818;stroke-width:0.5;" width="150.4873" x="2447.76" y="324.2969"/><ellipse cx="2462.76" cy="340.2969" fill="#B4A7E5" rx="11" ry="11" style="stroke:#181818;stroke-width:1;"/><path d="M2458.6819,336.0625 L2458.6819,333.9063 L2466.0725,333.9063 L2466.0725,336.0625 L2463.6038,336.0625 L2463.6038,344.1406 L2466.0725,344.1406 L2466.0725,346.2969 L2458.6819,346.2969 L2458.6819,344.1406 L2461.1506,344.1406 L2461.1506,336.0625 L2458.6819,336.0625 Z " fill="#000000"/><text fill="#000000" font-family="sans-serif" font-size="14" font-style="italic" lengthAdjust="spacing" textLength="118.4873" x="2476.76" y="345.1436">IQuestionService</text></g><!--class IAlternativeService--><g class="entity" data-qualified-name="service.IAlternativeService" data-source-line="61" id="ent0028"><rect fill="#F1F1F1" height="32" rx="2.5" ry="2.5" style="stroke:#181818;stroke-width:0.5;" width="164.9248" x="2668.54" y="324.2969"/><ellipse cx="2683.54" cy="340.2969" fill="#B4A7E5" rx="11" ry="11" style="stroke:#181818;stroke-width:1;"/><path d="M2679.4619,336.0625 L2679.4619,333.9063 L2686.8525,333.9063 L2686.8525,336.0625 L2684.3838,336.0625 L2684.3838,344.1406 L2686.8525,344.1406 L2686.8525,346.2969 L2679.4619,346.2969 L2679.4619,344.1406 L2681.9306,344.1406 L2681.9306,336.0625 L2679.4619,336.0625 Z " fill="#000000"/><text fill="#000000" font-family="sans-serif" font-size="14" font-style="italic" lengthAdjust="spacing" textLength="132.9248" x="2697.54" y="345.1436">IAlternativeService</text></g><!--class UserServiceImpl--><g class="entity" data-qualified-name="service.impl.UserServiceImpl" data-source-line="68" id="ent0030"><rect fill="#F1F1F1" height="32" rx="2.5" ry="2.5" style="stroke:#181818;stroke-width:0.5;" width="146.1943" x="1637.9" y="447.2969"/><ellipse cx="1652.9" cy="463.2969" fill="#ADD1B2" rx="11" ry="11" style="stroke:#181818;stroke-width:1;"/><path d="M1655.8688,468.9375 Q1655.2906,469.2344 1654.65,469.375 Q1654.0094,469.5313 1653.3063,469.5313 Q1650.8063,469.5313 1649.4781,467.8906 Q1648.1656,466.2344 1648.1656,463.1094 Q1648.1656,459.9844 1649.4781,458.3281 Q1650.8063,456.6719 1653.3063,456.6719 Q1654.0094,456.6719 1654.65,456.8281 Q1655.3063,456.9844 1655.8688,457.2813 L1655.8688,460 Q1655.2438,459.4219 1654.65,459.1563 Q1654.0563,458.875 1653.4313,458.875 Q1652.0875,458.875 1651.4,459.9531 Q1650.7125,461.0156 1650.7125,463.1094 Q1650.7125,465.2031 1651.4,466.2813 Q1652.0875,467.3438 1653.4313,467.3438 Q1654.0563,467.3438 1654.65,467.0781 Q1655.2438,466.7969 1655.8688,466.2188 L1655.8688,468.9375 Z " fill="#000000"/><text fill="#000000" font-family="sans-serif" font-size="14" lengthAdjust="spacing" textLength="114.1943" x="1666.9" y="468.1436">UserServiceImpl</text></g><!--class FileTypeServiceImpl--><g class="entity" data-qualified-name="service.impl.FileTypeServiceImpl" data-source-line="69" id="ent0031"><rect fill="#F1F1F1" height="32" rx="2.5" ry="2.5" style="stroke:#181818;stroke-width:0.5;" width="173.0664" x="1394.47" y="447.2969"/><ellipse cx="1409.47" cy="463.2969" fill="#ADD1B2" rx="11" ry="11" style="stroke:#181818;stroke-width:1;"/><path d="M1412.4388,468.9375 Q1411.8606,469.2344 1411.22,469.375 Q1410.5794,469.5313 1409.8763,469.5313 Q1407.3763,469.5313 1406.0481,467.8906 Q1404.7356,466.2344 1404.7356,463.1094 Q1404.7356,459.9844 1406.0481,458.3281 Q1407.3763,456.6719 1409.8763,456.6719 Q1410.5794,456.6719 1411.22,456.8281 Q1411.8763,456.9844 1412.4388,457.2813 L1412.4388,460 Q1411.8138,459.4219 1411.22,459.1563 Q1410.6263,458.875 1410.0013,458.875 Q1408.6575,458.875 1407.97,459.9531 Q1407.2825,461.0156 1407.2825,463.1094 Q1407.2825,465.2031 1407.97,466.2813 Q1408.6575,467.3438 1410.0013,467.3438 Q1410.6263,467.3438 1411.22,467.0781 Q1411.8138,466.7969 1412.4388,466.2188 L1412.4388,468.9375 Z " fill="#000000"/><text fill="#000000" font-family="sans-serif" font-size="14" lengthAdjust="spacing" textLength="141.0664" x="1423.47" y="468.1436">FileTypeServiceImpl</text></g><!--class DocumentServiceImpl--><g class="entity" data-qualified-name="service.impl.DocumentServiceImpl" data-source-line="70" id="ent0032"><rect fill="#F1F1F1" height="32" rx="2.5" ry="2.5" style="stroke:#181818;stroke-width:0.5;" width="186.8135" x="1854.59" y="447.2969"/><ellipse cx="1869.59" cy="463.2969" fill="#ADD1B2" rx="11" ry="11" style="stroke:#181818;stroke-width:1;"/><path d="M1872.5588,468.9375 Q1871.9806,469.2344 1871.34,469.375 Q1870.6994,469.5313 1869.9963,469.5313 Q1867.4963,469.5313 1866.1681,467.8906 Q1864.8556,466.2344 1864.8556,463.1094 Q1864.8556,459.9844 1866.1681,458.3281 Q1867.4963,456.6719 1869.9963,456.6719 Q1870.6994,456.6719 1871.34,456.8281 Q1871.9963,456.9844 1872.5588,457.2813 L1872.5588,460 Q1871.9338,459.4219 1871.34,459.1563 Q1870.7463,458.875 1870.1213,458.875 Q1868.7775,458.875 1868.09,459.9531 Q1867.4025,461.0156 1867.4025,463.1094 Q1867.4025,465.2031 1868.09,466.2813 Q1868.7775,467.3438 1870.1213,467.3438 Q1870.7463,467.3438 1871.34,467.0781 Q1871.9338,466.7969 1872.5588,466.2188 L1872.5588,468.9375 Z " fill="#000000"/><text fill="#000000" font-family="sans-serif" font-size="14" lengthAdjust="spacing" textLength="154.8135" x="1883.59" y="468.1436">DocumentServiceImpl</text></g><!--class SummaryServiceImpl--><g class="entity" data-qualified-name="service.impl.SummaryServiceImpl" data-source-line="71" id="ent0033"><rect fill="#F1F1F1" height="32" rx="2.5" ry="2.5" style="stroke:#181818;stroke-width:0.5;" width="181.9395" x="2335.03" y="447.2969"/><ellipse cx="2350.03" cy="463.2969" fill="#ADD1B2" rx="11" ry="11" style="stroke:#181818;stroke-width:1;"/><path d="M2352.9988,468.9375 Q2352.4206,469.2344 2351.78,469.375 Q2351.1394,469.5313 2350.4363,469.5313 Q2347.9363,469.5313 2346.6081,467.8906 Q2345.2956,466.2344 2345.2956,463.1094 Q2345.2956,459.9844 2346.6081,458.3281 Q2347.9363,456.6719 2350.4363,456.6719 Q2351.1394,456.6719 2351.78,456.8281 Q2352.4363,456.9844 2352.9988,457.2813 L2352.9988,460 Q2352.3738,459.4219 2351.78,459.1563 Q2351.1863,458.875 2350.5613,458.875 Q2349.2175,458.875 2348.53,459.9531 Q2347.8425,461.0156 2347.8425,463.1094 Q2347.8425,465.2031 2348.53,466.2813 Q2349.2175,467.3438 2350.5613,467.3438 Q2351.1863,467.3438 2351.78,467.0781 Q2352.3738,466.7969 2352.9988,466.2188 L2352.9988,468.9375 Z " fill="#000000"/><text fill="#000000" font-family="sans-serif" font-size="14" lengthAdjust="spacing" textLength="149.9395" x="2364.03" y="468.1436">SummaryServiceImpl</text></g><!--class TriviaServiceImpl--><g class="entity" data-qualified-name="service.impl.TriviaServiceImpl" data-source-line="72" id="ent0034"><rect fill="#F1F1F1" height="32" rx="2.5" ry="2.5" style="stroke:#181818;stroke-width:0.5;" width="153.2354" x="2111.38" y="447.2969"/><ellipse cx="2126.38" cy="463.2969" fill="#ADD1B2" rx="11" ry="11" style="stroke:#181818;stroke-width:1;"/><path d="M2129.3488,468.9375 Q2128.7706,469.2344 2128.13,469.375 Q2127.4894,469.5313 2126.7863,469.5313 Q2124.2863,469.5313 2122.9581,467.8906 Q2121.6456,466.2344 2121.6456,463.1094 Q2121.6456,459.9844 2122.9581,458.3281 Q2124.2863,456.6719 2126.7863,456.6719 Q2127.4894,456.6719 2128.13,456.8281 Q2128.7863,456.9844 2129.3488,457.2813 L2129.3488,460 Q2128.7238,459.4219 2128.13,459.1563 Q2127.5363,458.875 2126.9113,458.875 Q2125.5675,458.875 2124.88,459.9531 Q2124.1925,461.0156 2124.1925,463.1094 Q2124.1925,465.2031 2124.88,466.2813 Q2125.5675,467.3438 2126.9113,467.3438 Q2127.5363,467.3438 2128.13,467.0781 Q2128.7238,466.7969 2129.3488,466.2188 L2129.3488,468.9375 Z " fill="#000000"/><text fill="#000000" font-family="sans-serif" font-size="14" lengthAdjust="spacing" textLength="121.2354" x="2140.38" y="468.1436">TriviaServiceImpl</text></g><!--class QuestionServiceImpl--><g class="entity" data-qualified-name="service.impl.QuestionServiceImpl" data-source-line="73" id="ent0035"><rect fill="#F1F1F1" height="32" rx="2.5" ry="2.5" style="stroke:#181818;stroke-width:0.5;" width="176.9014" x="2586.55" y="447.2969"/><ellipse cx="2601.55" cy="463.2969" fill="#ADD1B2" rx="11" ry="11" style="stroke:#181818;stroke-width:1;"/><path d="M2604.5188,468.9375 Q2603.9406,469.2344 2603.3,469.375 Q2602.6594,469.5313 2601.9563,469.5313 Q2599.4563,469.5313 2598.1281,467.8906 Q2596.8156,466.2344 2596.8156,463.1094 Q2596.8156,459.9844 2598.1281,458.3281 Q2599.4563,456.6719 2601.9563,456.6719 Q2602.6594,456.6719 2603.3,456.8281 Q2603.9563,456.9844 2604.5188,457.2813 L2604.5188,460 Q2603.8938,459.4219 2603.3,459.1563 Q2602.7063,458.875 2602.0813,458.875 Q2600.7375,458.875 2600.05,459.9531 Q2599.3625,461.0156 2599.3625,463.1094 Q2599.3625,465.2031 2600.05,466.2813 Q2600.7375,467.3438 2602.0813,467.3438 Q2602.7063,467.3438 2603.3,467.0781 Q2603.8938,466.7969 2604.5188,466.2188 L2604.5188,468.9375 Z " fill="#000000"/><text fill="#000000" font-family="sans-serif" font-size="14" lengthAdjust="spacing" textLength="144.9014" x="2615.55" y="468.1436">QuestionServiceImpl</text></g><!--class AlternativeServiceImpl--><g class="entity" data-qualified-name="service.impl.AlternativeServiceImpl" data-source-line="74" id="ent0036"><rect fill="#F1F1F1" height="32" rx="2.5" ry="2.5" style="stroke:#181818;stroke-width:0.5;" width="191.3389" x="2833.33" y="447.2969"/><ellipse cx="2848.33" cy="463.2969" fill="#ADD1B2" rx="11" ry="11" style="stroke:#181818;stroke-width:1;"/><path d="M2851.2988,468.9375 Q2850.7206,469.2344 2850.08,469.375 Q2849.4394,469.5313 2848.7363,469.5313 Q2846.2363,469.5313 2844.9081,467.8906 Q2843.5956,466.2344 2843.5956,463.1094 Q2843.5956,459.9844 2844.9081,458.3281 Q2846.2363,456.6719 2848.7363,456.6719 Q2849.4394,456.6719 2850.08,456.8281 Q2850.7363,456.9844 2851.2988,457.2813 L2851.2988,460 Q2850.6738,459.4219 2850.08,459.1563 Q2849.4863,458.875 2848.8613,458.875 Q2847.5175,458.875 2846.83,459.9531 Q2846.1425,461.0156 2846.1425,463.1094 Q2846.1425,465.2031 2846.83,466.2813 Q2847.5175,467.3438 2848.8613,467.3438 Q2849.4863,467.3438 2850.08,467.0781 Q2850.6738,466.7969 2851.2988,466.2188 L2851.2988,468.9375 Z " fill="#000000"/><text fill="#000000" font-family="sans-serif" font-size="14" lengthAdjust="spacing" textLength="159.3389" x="2862.33" y="468.1436">AlternativeServiceImpl</text></g><!--class UserRepository--><g class="entity" data-qualified-name="repository.UserRepository" data-source-line="81" id="ent0038"><rect fill="#F1F1F1" height="32" rx="2.5" ry="2.5" style="stroke:#181818;stroke-width:0.5;" width="138.9824" x="1656.51" y="594.2969"/><ellipse cx="1671.51" cy="610.2969" fill="#B4A7E5" rx="11" ry="11" style="stroke:#181818;stroke-width:1;"/><path d="M1667.4319,606.0625 L1667.4319,603.9062 L1674.8225,603.9062 L1674.8225,606.0625 L1672.3538,606.0625 L1672.3538,614.1406 L1674.8225,614.1406 L1674.8225,616.2969 L1667.4319,616.2969 L1667.4319,614.1406 L1669.9006,614.1406 L1669.9006,606.0625 L1667.4319,606.0625 Z " fill="#000000"/><text fill="#000000" font-family="sans-serif" font-size="14" font-style="italic" lengthAdjust="spacing" textLength="106.9824" x="1685.51" y="615.1436">UserRepository</text></g><!--class FileTypeRepository--><g class="entity" data-qualified-name="repository.FileTypeRepository" data-source-line="82" id="ent0039"><rect fill="#F1F1F1" height="32" rx="2.5" ry="2.5" style="stroke:#181818;stroke-width:0.5;" width="165.8545" x="1421.07" y="594.2969"/><ellipse cx="1436.07" cy="610.2969" fill="#B4A7E5" rx="11" ry="11" style="stroke:#181818;stroke-width:1;"/><path d="M1431.9919,606.0625 L1431.9919,603.9062 L1439.3825,603.9062 L1439.3825,606.0625 L1436.9138,606.0625 L1436.9138,614.1406 L1439.3825,614.1406 L1439.3825,616.2969 L1431.9919,616.2969 L1431.9919,614.1406 L1434.4606,614.1406 L1434.4606,606.0625 L1431.9919,606.0625 Z " fill="#000000"/><text fill="#000000" font-family="sans-serif" font-size="14" font-style="italic" lengthAdjust="spacing" textLength="133.8545" x="1450.07" y="615.1436">FileTypeRepository</text></g><!--class DocumentRepository--><g class="entity" data-qualified-name="repository.DocumentRepository" data-source-line="83" id="ent0040"><rect fill="#F1F1F1" height="32" rx="2.5" ry="2.5" style="stroke:#181818;stroke-width:0.5;" width="179.6016" x="1865.2" y="594.2969"/><ellipse cx="1880.2" cy="610.2969" fill="#B4A7E5" rx="11" ry="11" style="stroke:#181818;stroke-width:1;"/><path d="M1876.1219,606.0625 L1876.1219,603.9062 L1883.5125,603.9062 L1883.5125,606.0625 L1881.0438,606.0625 L1881.0438,614.1406 L1883.5125,614.1406 L1883.5125,616.2969 L1876.1219,616.2969 L1876.1219,614.1406 L1878.5906,614.1406 L1878.5906,606.0625 L1876.1219,606.0625 Z " fill="#000000"/><text fill="#000000" font-family="sans-serif" font-size="14" font-style="italic" lengthAdjust="spacing" textLength="147.6016" x="1894.2" y="615.1436">DocumentRepository</text></g><!--class SummaryRepository--><g class="entity" data-qualified-name="repository.SummaryRepository" data-source-line="84" id="ent0041"><rect fill="#F1F1F1" height="32" rx="2.5" ry="2.5" style="stroke:#181818;stroke-width:0.5;" width="174.7275" x="2330.64" y="594.2969"/><ellipse cx="2345.64" cy="610.2969" fill="#B4A7E5" rx="11" ry="11" style="stroke:#181818;stroke-width:1;"/><path d="M2341.5619,606.0625 L2341.5619,603.9062 L2348.9525,603.9062 L2348.9525,606.0625 L2346.4838,606.0625 L2346.4838,614.1406 L2348.9525,614.1406 L2348.9525,616.2969 L2341.5619,616.2969 L2341.5619,614.1406 L2344.0306,614.1406 L2344.0306,606.0625 L2341.5619,606.0625 Z " fill="#000000"/><text fill="#000000" font-family="sans-serif" font-size="14" font-style="italic" lengthAdjust="spacing" textLength="142.7275" x="2359.64" y="615.1436">SummaryRepository</text></g><!--class TriviaRepository--><g class="entity" data-qualified-name="repository.TriviaRepository" data-source-line="85" id="ent0042"><rect fill="#F1F1F1" height="32" rx="2.5" ry="2.5" style="stroke:#181818;stroke-width:0.5;" width="146.0234" x="2114.99" y="594.2969"/><ellipse cx="2129.99" cy="610.2969" fill="#B4A7E5" rx="11" ry="11" style="stroke:#181818;stroke-width:1;"/><path d="M2125.9119,606.0625 L2125.9119,603.9062 L2133.3025,603.9062 L2133.3025,606.0625 L2130.8338,606.0625 L2130.8338,614.1406 L2133.3025,614.1406 L2133.3025,616.2969 L2125.9119,616.2969 L2125.9119,614.1406 L2128.3806,614.1406 L2128.3806,606.0625 L2125.9119,606.0625 Z " fill="#000000"/><text fill="#000000" font-family="sans-serif" font-size="14" font-style="italic" lengthAdjust="spacing" textLength="114.0234" x="2143.99" y="615.1436">TriviaRepository</text></g><!--class QuestionRepository--><g class="entity" data-qualified-name="repository.QuestionRepository" data-source-line="86" id="ent0043"><rect fill="#F1F1F1" height="32" rx="2.5" ry="2.5" style="stroke:#181818;stroke-width:0.5;" width="169.6895" x="2575.16" y="594.2969"/><ellipse cx="2590.16" cy="610.2969" fill="#B4A7E5" rx="11" ry="11" style="stroke:#181818;stroke-width:1;"/><path d="M2586.0819,606.0625 L2586.0819,603.9062 L2593.4725,603.9062 L2593.4725,606.0625 L2591.0038,606.0625 L2591.0038,614.1406 L2593.4725,614.1406 L2593.4725,616.2969 L2586.0819,616.2969 L2586.0819,614.1406 L2588.5506,614.1406 L2588.5506,606.0625 L2586.0819,606.0625 Z " fill="#000000"/><text fill="#000000" font-family="sans-serif" font-size="14" font-style="italic" lengthAdjust="spacing" textLength="137.6895" x="2604.16" y="615.1436">QuestionRepository</text></g><!--class AlternativeRepository--><g class="entity" data-qualified-name="repository.AlternativeRepository" data-source-line="87" id="ent0044"><rect fill="#F1F1F1" height="32" rx="2.5" ry="2.5" style="stroke:#181818;stroke-width:0.5;" width="184.127" x="2814.94" y="594.2969"/><ellipse cx="2829.94" cy="610.2969" fill="#B4A7E5" rx="11" ry="11" style="stroke:#181818;stroke-width:1;"/><path d="M2825.8619,606.0625 L2825.8619,603.9062 L2833.2525,603.9062 L2833.2525,606.0625 L2830.7838,606.0625 L2830.7838,614.1406 L2833.2525,614.1406 L2833.2525,616.2969 L2825.8619,616.2969 L2825.8619,614.1406 L2828.3306,614.1406 L2828.3306,606.0625 L2825.8619,606.0625 Z " fill="#000000"/><text fill="#000000" font-family="sans-serif" font-size="14" font-style="italic" lengthAdjust="spacing" textLength="152.127" x="2843.94" y="615.1436">AlternativeRepository</text></g><!--class User--><g class="entity" data-qualified-name="model.User" data-source-line="93" id="ent0046"><rect fill="#F1F1F1" height="137.7813" rx="2.5" ry="2.5" style="stroke:#181818;stroke-width:0.5;" width="178.6738" x="1761.66" y="716.2969"/><ellipse cx="1830.7918" cy="732.2969" fill="#ADD1B2" rx="11" ry="11" style="stroke:#181818;stroke-width:1;"/><path d="M1833.7606,737.9375 Q1833.1825,738.2344 1832.5418,738.375 Q1831.9012,738.5312 1831.1981,738.5312 Q1828.6981,738.5312 1827.37,736.8906 Q1826.0575,735.2344 1826.0575,732.1094 Q1826.0575,728.9844 1827.37,727.3281 Q1828.6981,725.6719 1831.1981,725.6719 Q1831.9012,725.6719 1832.5418,725.8281 Q1833.1981,725.9844 1833.7606,726.2812 L1833.7606,729 Q1833.1356,728.4219 1832.5418,728.1562 Q1831.9481,727.875 1831.3231,727.875 Q1829.9793,727.875 1829.2918,728.9531 Q1828.6043,730.0156 1828.6043,732.1094 Q1828.6043,734.2031 1829.2918,735.2812 Q1829.9793,736.3437 1831.3231,736.3437 Q1831.9481,736.3437 1832.5418,736.0781 Q1833.1356,735.7969 1833.7606,735.2187 L1833.7606,737.9375 Z " fill="#000000"/><text fill="#000000" font-family="sans-serif" font-size="14" lengthAdjust="spacing" textLength="31.9102" x="1851.2918" y="737.1436">User</text><line style="stroke:#181818;stroke-width:0.5;" x1="1762.66" x2="1939.3338" y1="748.2969" y2="748.2969"/><text fill="#000000" font-family="sans-serif" font-size="14" lengthAdjust="spacing" textLength="96.3457" x="1767.66" y="765.292">-userId : Long</text><text fill="#000000" font-family="sans-serif" font-size="14" lengthAdjust="spacing" textLength="129.1104" x="1767.66" y="781.5889">-firstName : String</text><text fill="#000000" font-family="sans-serif" font-size="14" lengthAdjust="spacing" textLength="127.0049" x="1767.66" y="797.8857">-lastName : String</text><text fill="#000000" font-family="sans-serif" font-size="14" lengthAdjust="spacing" textLength="99.0596" x="1767.66" y="814.1826">-email : String</text><text fill="#000000" font-family="sans-serif" font-size="14" lengthAdjust="spacing" textLength="127.1621" x="1767.66" y="830.4795">-password : String</text><text fill="#000000" font-family="sans-serif" font-size="14" lengthAdjust="spacing" textLength="166.6738" x="1767.66" y="846.7764">-registrationDate : Date</text></g><!--class FileType--><g class="entity" data-qualified-name="model.FileType" data-source-line="102" id="ent0047"><rect fill="#F1F1F1" height="72.5938" rx="2.5" ry="2.5" style="stroke:#181818;stroke-width:0.5;" width="145.0273" x="1546.49" y="748.8869"/><ellipse cx="1585.9003" cy="764.8869" fill="#ADD1B2" rx="11" ry="11" style="stroke:#181818;stroke-width:1;"/><path d="M1588.8691,770.5275 Q1588.2909,770.8244 1587.6503,770.965 Q1587.0097,771.1212 1586.3066,771.1212 Q1583.8066,771.1212 1582.4784,769.4806 Q1581.1659,767.8244 1581.1659,764.6994 Q1581.1659,761.5744 1582.4784,759.9181 Q1583.8066,758.2619 1586.3066,758.2619 Q1587.0097,758.2619 1587.6503,758.4181 Q1588.3066,758.5744 1588.8691,758.8712 L1588.8691,761.59 Q1588.2441,761.0119 1587.6503,760.7462 Q1587.0566,760.465 1586.4316,760.465 Q1585.0878,760.465 1584.4003,761.5431 Q1583.7128,762.6056 1583.7128,764.6994 Q1583.7128,766.7931 1584.4003,767.8712 Q1585.0878,768.9337 1586.4316,768.9337 Q1587.0566,768.9337 1587.6503,768.6681 Q1588.2441,768.3869 1588.8691,767.8087 L1588.8691,770.5275 Z " fill="#000000"/><text fill="#000000" font-family="sans-serif" font-size="14" lengthAdjust="spacing" textLength="58.7822" x="1605.3248" y="769.7336">FileType</text><line style="stroke:#181818;stroke-width:0.5;" x1="1547.49" x2="1690.5173" y1="780.8869" y2="780.8869"/><text fill="#000000" font-family="sans-serif" font-size="14" lengthAdjust="spacing" textLength="121.4678" x="1552.49" y="797.882">-fileTypeId : Long</text><text fill="#000000" font-family="sans-serif" font-size="14" lengthAdjust="spacing" textLength="133.0273" x="1552.49" y="814.1789">-typeName : String</text></g><!--class Document--><g class="entity" data-qualified-name="model.Document" data-source-line="107" id="ent0048"><rect fill="#F1F1F1" height="105.1875" rx="2.5" ry="2.5" style="stroke:#181818;stroke-width:0.5;" width="173.3486" x="1764.33" y="944.0769"/><ellipse cx="1810.4897" cy="960.0769" fill="#ADD1B2" rx="11" ry="11" style="stroke:#181818;stroke-width:1;"/><path d="M1813.4584,965.7175 Q1812.8803,966.0144 1812.2397,966.155 Q1811.599,966.3113 1810.8959,966.3113 Q1808.3959,966.3113 1807.0678,964.6706 Q1805.7553,963.0144 1805.7553,959.8894 Q1805.7553,956.7644 1807.0678,955.1081 Q1808.3959,953.4519 1810.8959,953.4519 Q1811.599,953.4519 1812.2397,953.6081 Q1812.8959,953.7644 1813.4584,954.0613 L1813.4584,956.78 Q1812.8334,956.2019 1812.2397,955.9363 Q1811.6459,955.655 1811.0209,955.655 Q1809.6772,955.655 1808.9897,956.7331 Q1808.3022,957.7956 1808.3022,959.8894 Q1808.3022,961.9831 1808.9897,963.0613 Q1809.6772,964.1238 1811.0209,964.1238 Q1811.6459,964.1238 1812.2397,963.8581 Q1812.8334,963.5769 1813.4584,962.9988 L1813.4584,965.7175 Z " fill="#000000"/><text fill="#000000" font-family="sans-serif" font-size="14" lengthAdjust="spacing" textLength="72.5293" x="1830.9897" y="964.9236">Document</text><line style="stroke:#181818;stroke-width:0.5;" x1="1765.33" x2="1936.6786" y1="976.0769" y2="976.0769"/><text fill="#000000" font-family="sans-serif" font-size="14" lengthAdjust="spacing" textLength="136.4453" x="1770.33" y="993.072">-documentId : Long</text><text fill="#000000" font-family="sans-serif" font-size="14" lengthAdjust="spacing" textLength="123.0742" x="1770.33" y="1009.3689">-fileName : String</text><text fill="#000000" font-family="sans-serif" font-size="14" lengthAdjust="spacing" textLength="148.1348" x="1770.33" y="1025.6657">-extractedText : Clob</text><text fill="#000000" font-family="sans-serif" font-size="14" lengthAdjust="spacing" textLength="161.3486" x="1770.33" y="1041.9626">-processingDate : Date</text></g><!--class Summary--><g class="entity" data-qualified-name="model.Summary" data-source-line="114" id="ent0049"><rect fill="#F1F1F1" height="88.8906" rx="2.5" ry="2.5" style="stroke:#181818;stroke-width:0.5;" width="173.7314" x="1790.13" y="1139.2569"/><ellipse cx="1838.9181" cy="1155.2569" fill="#ADD1B2" rx="11" ry="11" style="stroke:#181818;stroke-width:1;"/><path d="M1841.8868,1160.8975 Q1841.3087,1161.1944 1840.6681,1161.335 Q1840.0275,1161.4912 1839.3243,1161.4912 Q1836.8243,1161.4912 1835.4962,1159.8506 Q1834.1837,1158.1944 1834.1837,1155.0694 Q1834.1837,1151.9444 1835.4962,1150.2881 Q1836.8243,1148.6319 1839.3243,1148.6319 Q1840.0275,1148.6319 1840.6681,1148.7881 Q1841.3243,1148.9444 1841.8868,1149.2412 L1841.8868,1151.96 Q1841.2618,1151.3819 1840.6681,1151.1162 Q1840.0743,1150.835 1839.4493,1150.835 Q1838.1056,1150.835 1837.4181,1151.9131 Q1836.7306,1152.9756 1836.7306,1155.0694 Q1836.7306,1157.1631 1837.4181,1158.2412 Q1838.1056,1159.3037 1839.4493,1159.3037 Q1840.0743,1159.3037 1840.6681,1159.0381 Q1841.2618,1158.7569 1841.8868,1158.1787 L1841.8868,1160.8975 Z " fill="#000000"/><text fill="#000000" font-family="sans-serif" font-size="14" lengthAdjust="spacing" textLength="67.6553" x="1859.4181" y="1160.1036">Summary</text><line style="stroke:#181818;stroke-width:0.5;" x1="1791.13" x2="1962.8614" y1="1171.2569" y2="1171.2569"/><text fill="#000000" font-family="sans-serif" font-size="14" lengthAdjust="spacing" textLength="131.8721" x="1796.13" y="1188.252">-summaryId : Long</text><text fill="#000000" font-family="sans-serif" font-size="14" lengthAdjust="spacing" textLength="103.3867" x="1796.13" y="1204.5489">-content : Clob</text><text fill="#000000" font-family="sans-serif" font-size="14" lengthAdjust="spacing" textLength="161.7314" x="1796.13" y="1220.8457">-generationDate : Date</text></g><!--class Trivia--><g class="entity" data-qualified-name="model.Trivia" data-source-line="120" id="ent0050"><rect fill="#F1F1F1" height="88.8906" rx="2.5" ry="2.5" style="stroke:#181818;stroke-width:0.5;" width="173.7314" x="1546.13" y="1139.2569"/><ellipse cx="1609.2701" cy="1155.2569" fill="#ADD1B2" rx="11" ry="11" style="stroke:#181818;stroke-width:1;"/><path d="M1612.2389,1160.8975 Q1611.6608,1161.1944 1611.0201,1161.335 Q1610.3795,1161.4912 1609.6764,1161.4912 Q1607.1764,1161.4912 1605.8483,1159.8506 Q1604.5358,1158.1944 1604.5358,1155.0694 Q1604.5358,1151.9444 1605.8483,1150.2881 Q1607.1764,1148.6319 1609.6764,1148.6319 Q1610.3795,1148.6319 1611.0201,1148.7881 Q1611.6764,1148.9444 1612.2389,1149.2412 L1612.2389,1151.96 Q1611.6139,1151.3819 1611.0201,1151.1162 Q1610.4264,1150.835 1609.8014,1150.835 Q1608.4576,1150.835 1607.7701,1151.9131 Q1607.0826,1152.9756 1607.0826,1155.0694 Q1607.0826,1157.1631 1607.7701,1158.2412 Q1608.4576,1159.3037 1609.8014,1159.3037 Q1610.4264,1159.3037 1611.0201,1159.0381 Q1611.6139,1158.7569 1612.2389,1158.1787 L1612.2389,1160.8975 Z " fill="#000000"/><text fill="#000000" font-family="sans-serif" font-size="14" lengthAdjust="spacing" textLength="38.9512" x="1629.7701" y="1160.1036">Trivia</text><line style="stroke:#181818;stroke-width:0.5;" x1="1547.13" x2="1718.8614" y1="1171.2569" y2="1171.2569"/><text fill="#000000" font-family="sans-serif" font-size="14" lengthAdjust="spacing" textLength="101.6982" x="1552.13" y="1188.252">-triviaId : Long</text><text fill="#000000" font-family="sans-serif" font-size="14" lengthAdjust="spacing" textLength="87.8213" x="1552.13" y="1204.5489">-title : String</text><text fill="#000000" font-family="sans-serif" font-size="14" lengthAdjust="spacing" textLength="161.7314" x="1552.13" y="1220.8457">-generationDate : Date</text></g><!--class Question--><g class="entity" data-qualified-name="model.Question" data-source-line="126" id="ent0051"><rect fill="#F1F1F1" height="72.5938" rx="2.5" ry="2.5" style="stroke:#181818;stroke-width:0.5;" width="138.2939" x="1813.85" y="1318.1569"/><ellipse cx="1848.5045" cy="1334.1569" fill="#ADD1B2" rx="11" ry="11" style="stroke:#181818;stroke-width:1;"/><path d="M1851.4733,1339.7975 Q1850.8952,1340.0944 1850.2545,1340.235 Q1849.6139,1340.3913 1848.9108,1340.3913 Q1846.4108,1340.3913 1845.0827,1338.7506 Q1843.7702,1337.0944 1843.7702,1333.9694 Q1843.7702,1330.8444 1845.0827,1329.1881 Q1846.4108,1327.5319 1848.9108,1327.5319 Q1849.6139,1327.5319 1850.2545,1327.6881 Q1850.9108,1327.8444 1851.4733,1328.1413 L1851.4733,1330.86 Q1850.8483,1330.2819 1850.2545,1330.0163 Q1849.6608,1329.735 1849.0358,1329.735 Q1847.692,1329.735 1847.0045,1330.8131 Q1846.317,1331.8756 1846.317,1333.9694 Q1846.317,1336.0631 1847.0045,1337.1413 Q1847.692,1338.2038 1849.0358,1338.2038 Q1849.6608,1338.2038 1850.2545,1337.9381 Q1850.8483,1337.6569 1851.4733,1337.0788 L1851.4733,1339.7975 Z " fill="#000000"/><text fill="#000000" font-family="sans-serif" font-size="14" lengthAdjust="spacing" textLength="62.6172" x="1866.8722" y="1339.0036">Question</text><line style="stroke:#181818;stroke-width:0.5;" x1="1814.85" x2="1951.1439" y1="1350.1569" y2="1350.1569"/><text fill="#000000" font-family="sans-serif" font-size="14" lengthAdjust="spacing" textLength="126.2939" x="1819.85" y="1367.152">-questionId : Long</text><text fill="#000000" font-family="sans-serif" font-size="14" lengthAdjust="spacing" textLength="121.8643" x="1819.85" y="1383.4489">-statement : Clob</text></g><!--class Alternative--><g class="entity" data-qualified-name="model.Alternative" data-source-line="131" id="ent0052"><rect fill="#F1F1F1" height="88.8906" rx="2.5" ry="2.5" style="stroke:#181818;stroke-width:0.5;" width="162.623" x="1801.69" y="1480.7469"/><ellipse cx="1840.7958" cy="1496.7469" fill="#ADD1B2" rx="11" ry="11" style="stroke:#181818;stroke-width:1;"/><path d="M1843.7645,1502.3875 Q1843.1864,1502.6844 1842.5458,1502.825 Q1841.9051,1502.9812 1841.202,1502.9812 Q1838.702,1502.9812 1837.3739,1501.3406 Q1836.0614,1499.6844 1836.0614,1496.5594 Q1836.0614,1493.4344 1837.3739,1491.7781 Q1838.702,1490.1219 1841.202,1490.1219 Q1841.9051,1490.1219 1842.5458,1490.2781 Q1843.202,1490.4344 1843.7645,1490.7312 L1843.7645,1493.45 Q1843.1395,1492.8719 1842.5458,1492.6062 Q1841.952,1492.325 1841.327,1492.325 Q1839.9833,1492.325 1839.2958,1493.4031 Q1838.6083,1494.4656 1838.6083,1496.5594 Q1838.6083,1498.6531 1839.2958,1499.7312 Q1839.9833,1500.7937 1841.327,1500.7937 Q1841.952,1500.7937 1842.5458,1500.5281 Q1843.1395,1500.2469 1843.7645,1499.6687 L1843.7645,1502.3875 Z " fill="#000000"/><text fill="#000000" font-family="sans-serif" font-size="14" lengthAdjust="spacing" textLength="77.0547" x="1860.1526" y="1501.5936">Alternative</text><line style="stroke:#181818;stroke-width:0.5;" x1="1802.69" x2="1963.313" y1="1512.7469" y2="1512.7469"/><text fill="#000000" font-family="sans-serif" font-size="14" lengthAdjust="spacing" textLength="141.8662" x="1807.69" y="1529.742">-alternativeId : Long</text><text fill="#000000" font-family="sans-serif" font-size="14" lengthAdjust="spacing" textLength="103.3867" x="1807.69" y="1546.0389">-content : Clob</text><text fill="#000000" font-family="sans-serif" font-size="14" lengthAdjust="spacing" textLength="150.623" x="1807.69" y="1562.3357">-isCorrect : Character</text></g><!--class KidyraApiApplication--><g class="entity" data-qualified-name="KidyraApiApplication" data-source-line="20" id="ent0002"><rect fill="#F1F1F1" height="32" rx="2.5" ry="2.5" style="stroke:#181818;stroke-width:0.5;" width="177.1543" x="1180.42" y="79.2969"/><ellipse cx="1195.42" cy="95.2969" fill="#ADD1B2" rx="11" ry="11" style="stroke:#181818;stroke-width:1;"/><path d="M1198.3888,100.9375 Q1197.8106,101.2344 1197.17,101.375 Q1196.5294,101.5313 1195.8263,101.5313 Q1193.3263,101.5313 1191.9981,99.8906 Q1190.6856,98.2344 1190.6856,95.1094 Q1190.6856,91.9844 1191.9981,90.3281 Q1193.3263,88.6719 1195.8263,88.6719 Q1196.5294,88.6719 1197.17,88.8281 Q1197.8263,88.9844 1198.3888,89.2813 L1198.3888,92 Q1197.7638,91.4219 1197.17,91.1563 Q1196.5763,90.875 1195.9513,90.875 Q1194.6075,90.875 1193.92,91.9531 Q1193.2325,93.0156 1193.2325,95.1094 Q1193.2325,97.2031 1193.92,98.2813 Q1194.6075,99.3438 1195.9513,99.3438 Q1196.5763,99.3438 1197.17,99.0781 Q1197.7638,98.7969 1198.3888,98.2188 L1198.3888,100.9375 Z " fill="#000000"/><text fill="#000000" font-family="sans-serif" font-size="14" lengthAdjust="spacing" textLength="145.1543" x="1209.42" y="100.1436">KidyraApiApplication</text></g><!--link KidyraApiApplication to UserController--><g class="link" data-entity-1="ent0002" data-entity-2="ent0006" data-link-type="dependency" data-source-line="142" id="lnk53"><path codeLine="142" d="M1180.25,100.6369 C1079.16,100.6369 927.82,100.6369 927.82,100.6369 C927.82,100.6369 927.82,163.0169 927.82,195.0769" fill="none" id="KidyraApiApplication-to-UserController" style="stroke:#181818;stroke-width:1;"/><polygon fill="#181818" points="927.82,201.0769,931.82,192.0769,927.82,196.0769,923.82,192.0769,927.82,201.0769" style="stroke:#181818;stroke-width:1;"/></g><!--link KidyraApiApplication to FileTypeController--><g class="link" data-entity-1="ent0002" data-entity-2="ent0007" data-link-type="dependency" data-source-line="143" id="lnk54"><path codeLine="143" d="M1180.16,90.6369 C1021.6,90.6369 706.34,90.6369 706.34,90.6369 C706.34,90.6369 706.34,160.7869 706.34,194.9969" fill="none" id="KidyraApiApplication-to-FileTypeController" style="stroke:#181818;stroke-width:1;"/><polygon fill="#181818" points="706.34,200.9969,710.34,191.9969,706.34,195.9969,702.34,191.9969,706.34,200.9969" style="stroke:#181818;stroke-width:1;"/></g><!--link KidyraApiApplication to DocumentController--><g class="link" data-entity-1="ent0002" data-entity-2="ent0008" data-link-type="dependency" data-source-line="144" id="lnk55"><path codeLine="144" d="M1206.9,111.7469 C1206.9,135.1569 1206.9,171.8269 1206.9,195.0969" fill="none" id="KidyraApiApplication-to-DocumentController" style="stroke:#181818;stroke-width:1;"/><polygon fill="#181818" points="1206.9,201.0969,1210.9,192.0969,1206.9,196.0969,1202.9,192.0969,1206.9,201.0969" style="stroke:#181818;stroke-width:1;"/></g><!--link KidyraApiApplication to SummaryController--><g class="link" data-entity-1="ent0002" data-entity-2="ent0009" data-link-type="dependency" data-source-line="145" id="lnk56"><path codeLine="145" d="M1340.99,111.5569 C1340.99,138.2969 1340.99,188.6369 1340.99,188.6369 C1340.99,188.6369 1569.21,188.6369 1569.21,188.6369 C1569.21,188.6369 1569.21,188.5169 1569.21,194.9569" fill="none" id="KidyraApiApplication-to-SummaryController" style="stroke:#181818;stroke-width:1;"/><polygon fill="#181818" points="1569.21,200.9569,1573.21,191.9569,1569.21,195.9569,1565.21,191.9569,1569.21,200.9569" style="stroke:#181818;stroke-width:1;"/></g><!--link KidyraApiApplication to TriviaController--><g class="link" data-entity-1="ent0002" data-entity-2="ent0010" data-link-type="dependency" data-source-line="146" id="lnk57"><path codeLine="146" d="M1335.47,111.7469 C1335.47,135.1569 1335.47,171.8269 1335.47,195.0969" fill="none" id="KidyraApiApplication-to-TriviaController" style="stroke:#181818;stroke-width:1;"/><polygon fill="#181818" points="1335.47,201.0969,1339.47,192.0969,1335.47,196.0969,1331.47,192.0969,1335.47,201.0969" style="stroke:#181818;stroke-width:1;"/></g><!--link KidyraApiApplication to QuestionController--><g class="link" data-entity-1="ent0002" data-entity-2="ent0011" data-link-type="dependency" data-source-line="147" id="lnk58"><path codeLine="147" d="M1346.52,111.5969 C1346.52,127.9269 1346.52,150.6369 1346.52,150.6369 C1346.52,150.6369 1832.7,150.6369 1832.7,150.6369 C1832.7,150.6369 1832.7,175.0769 1832.7,194.8169" fill="none" id="KidyraApiApplication-to-QuestionController" style="stroke:#181818;stroke-width:1;"/><polygon fill="#181818" points="1832.7,200.8169,1836.7,191.8169,1832.7,195.8169,1828.7,191.8169,1832.7,200.8169" style="stroke:#181818;stroke-width:1;"/></g><!--link KidyraApiApplication to AlternativeController--><g class="link" data-entity-1="ent0002" data-entity-2="ent0012" data-link-type="dependency" data-source-line="148" id="lnk59"><path codeLine="148" d="M1352.05,111.6769 C1352.05,118.4069 1352.05,124.6369 1352.05,124.6369 C1352.05,124.6369 2071.3,124.6369 2071.3,124.6369 C2071.3,124.6369 2071.3,168.6069 2071.3,195.1569" fill="none" id="KidyraApiApplication-to-AlternativeController" style="stroke:#181818;stroke-width:1;"/><polygon fill="#181818" points="2071.3,201.1569,2075.3,192.1569,2071.3,196.1569,2067.3,192.1569,2071.3,201.1569" style="stroke:#181818;stroke-width:1;"/></g><!--link UserController to UserDTO--><g class="link" data-entity-1="ent0006" data-entity-2="ent0014" data-link-type="dependency" data-source-line="154" id="lnk60"><path codeLine="154" d="M888.73,233.7569 C888.73,237.6269 888.73,240.6369 888.73,240.6369 C888.73,240.6369 270,240.6369 270,240.6369 C270,240.6369 270,289.5269 270,317.8369" fill="none" id="UserController-to-UserDTO" style="stroke:#181818;stroke-width:1;"/><polygon fill="#181818" points="270,323.8369,274,314.8369,270,318.8369,266,314.8369,270,323.8369" style="stroke:#181818;stroke-width:1;"/></g><!--link FileTypeController to FileTypeDTO--><g class="link" data-entity-1="ent0007" data-entity-2="ent0015" data-link-type="dependency" data-source-line="155" id="lnk61"><path codeLine="155" d="M652.79,217.6369 C480.79,217.6369 92,217.6369 92,217.6369 C92,217.6369 92,284.6369 92,318.0069" fill="none" id="FileTypeController-to-FileTypeDTO" style="stroke:#181818;stroke-width:1;"/><polygon fill="#181818" points="92,324.0069,96,315.0069,92,319.0069,88,315.0069,92,324.0069" style="stroke:#181818;stroke-width:1;"/></g><!--link DocumentController to DocumentDTO--><g class="link" data-entity-1="ent0008" data-entity-2="ent0016" data-link-type="dependency" data-source-line="156" id="lnk62"><path codeLine="156" d="M1123.39,233.5269 C1123.39,240.7469 1123.39,247.6369 1123.39,247.6369 C1123.39,247.6369 455,247.6369 455,247.6369 C455,247.6369 455,291.6069 455,318.1569" fill="none" id="DocumentController-to-DocumentDTO" style="stroke:#181818;stroke-width:1;"/><polygon fill="#181818" points="455,324.1569,459,315.1569,455,319.1569,451,315.1569,455,324.1569" style="stroke:#181818;stroke-width:1;"/></g><!--link SummaryController to SummaryDTO--><g class="link" data-entity-1="ent0009" data-entity-2="ent0017" data-link-type="dependency" data-source-line="157" id="lnk63"><path codeLine="157" d="M1553.56,233.5569 C1553.56,246.2069 1553.56,261.6369 1553.56,261.6369 C1553.56,261.6369 848.22,261.6369 848.22,261.6369 C848.22,261.6369 848.22,294.9569 848.22,317.9969" fill="none" id="SummaryController-to-SummaryDTO" style="stroke:#181818;stroke-width:1;"/><polygon fill="#181818" points="848.22,323.9969,852.22,314.9969,848.22,318.9969,844.22,314.9969,848.22,323.9969" style="stroke:#181818;stroke-width:1;"/></g><!--link TriviaController to TriviaDTO--><g class="link" data-entity-1="ent0010" data-entity-2="ent0018" data-link-type="dependency" data-source-line="158" id="lnk64"><path codeLine="158" d="M1359.31,233.7769 C1359.31,243.7869 1359.31,254.6369 1359.31,254.6369 C1359.31,254.6369 673.34,254.6369 673.34,254.6369 C673.34,254.6369 673.34,293.3669 673.34,318.1869" fill="none" id="TriviaController-to-TriviaDTO" style="stroke:#181818;stroke-width:1;"/><polygon fill="#181818" points="673.34,324.1869,677.34,315.1869,673.34,319.1869,669.34,315.1869,673.34,324.1869" style="stroke:#181818;stroke-width:1;"/></g><!--link QuestionController to QuestionDTO--><g class="link" data-entity-1="ent0011" data-entity-2="ent0019" data-link-type="dependency" data-source-line="159" id="lnk65"><path codeLine="159" d="M1789.45,233.5369 C1789.45,248.5769 1789.45,268.6369 1789.45,268.6369 C1789.45,268.6369 1051.35,268.6369 1051.35,268.6369 C1051.35,268.6369 1051.35,296.8869 1051.35,318.0369" fill="none" id="QuestionController-to-QuestionDTO" style="stroke:#181818;stroke-width:1;"/><polygon fill="#181818" points="1051.35,324.0369,1055.35,315.0369,1051.35,319.0369,1047.35,315.0369,1051.35,324.0369" style="stroke:#181818;stroke-width:1;"/></g><!--link AlternativeController to AlternativeDTO--><g class="link" data-entity-1="ent0012" data-entity-2="ent0020" data-link-type="dependency" data-source-line="160" id="lnk66"><path codeLine="160" d="M2018.74,233.5469 C2018.74,250.8069 2018.74,275.6369 2018.74,275.6369 C2018.74,275.6369 1278.78,275.6369 1278.78,275.6369 C1278.78,275.6369 1278.78,298.8269 1278.78,317.9769" fill="none" id="AlternativeController-to-AlternativeDTO" style="stroke:#181818;stroke-width:1;"/><polygon fill="#181818" points="1278.78,323.9769,1282.78,314.9769,1278.78,318.9769,1274.78,314.9769,1278.78,323.9769" style="stroke:#181818;stroke-width:1;"/></g><!--link UserController to IUserService--><g class="link" data-entity-1="ent0006" data-entity-2="ent0022" data-link-type="dependency" data-source-line="166" id="lnk67"><path codeLine="166" d="M990.03,233.5569 C990.03,260.2969 990.03,310.6369 990.03,310.6369 C990.03,310.6369 1639.54,310.6369 1639.54,310.6369 C1639.54,310.6369 1639.54,311.1569 1639.54,318.0769" fill="none" id="UserController-to-IUserService" style="stroke:#181818;stroke-width:1;"/><polygon fill="#181818" points="1639.54,324.0769,1643.54,315.0769,1639.54,319.0769,1635.54,315.0769,1639.54,324.0769" style="stroke:#181818;stroke-width:1;"/></g><!--link FileTypeController to IFileTypeService--><g class="link" data-entity-1="ent0007" data-entity-2="ent0023" data-link-type="dependency" data-source-line="167" id="lnk68"><path codeLine="167" d="M788.49,233.4169 C788.49,261.7769 788.49,317.6369 788.49,317.6369 C788.49,317.6369 1415.8,317.6369 1415.8,317.6369 C1415.8,317.6369 1415.8,314.3169 1415.8,317.8269" fill="none" id="FileTypeController-to-IFileTypeService" style="stroke:#181818;stroke-width:1;"/><polygon fill="#181818" points="1415.8,323.8269,1419.8,314.8269,1415.8,318.8269,1411.8,314.8269,1415.8,323.8269" style="stroke:#181818;stroke-width:1;"/></g><!--link DocumentController to IDocumentService--><g class="link" data-entity-1="ent0008" data-entity-2="ent0024" data-link-type="dependency" data-source-line="168" id="lnk69"><path codeLine="168" d="M1209.07,233.5369 C1209.07,258.5469 1209.07,303.6369 1209.07,303.6369 C1209.07,303.6369 1843.83,303.6369 1843.83,303.6369 C1843.83,303.6369 1843.83,308.2869 1843.83,318.1069" fill="none" id="DocumentController-to-IDocumentService" style="stroke:#181818;stroke-width:1;"/><polygon fill="#181818" points="1843.83,324.1069,1847.83,315.1069,1843.83,319.1069,1839.83,315.1069,1843.83,324.1069" style="stroke:#181818;stroke-width:1;"/></g><!--link SummaryController to ISummaryService--><g class="link" data-entity-1="ent0009" data-entity-2="ent0025" data-link-type="dependency" data-source-line="169" id="lnk70"><path codeLine="169" d="M1673.98,233.7069 C1673.98,255.0569 1673.98,289.6369 1673.98,289.6369 C1673.98,289.6369 2300,289.6369 2300,289.6369 C2300,289.6369 2300,303.1769 2300,317.9869" fill="none" id="SummaryController-to-ISummaryService" style="stroke:#181818;stroke-width:1;"/><polygon fill="#181818" points="2300,323.9869,2304,314.9869,2300,318.9869,2296,314.9869,2300,323.9869" style="stroke:#181818;stroke-width:1;"/></g><!--link TriviaController to ITriviaService--><g class="link" data-entity-1="ent0010" data-entity-2="ent0026" data-link-type="dependency" data-source-line="170" id="lnk71"><path codeLine="170" d="M1442.93,233.7369 C1442.93,256.9769 1442.93,296.6369 1442.93,296.6369 C1442.93,296.6369 2089,296.6369 2089,296.6369 C2089,296.6369 2089,305.6269 2089,318.0369" fill="none" id="TriviaController-to-ITriviaService" style="stroke:#181818;stroke-width:1;"/><polygon fill="#181818" points="2089,324.0369,2093,315.0369,2089,319.0369,2085,315.0369,2089,324.0369" style="stroke:#181818;stroke-width:1;"/></g><!--link QuestionController to IQuestionService--><g class="link" data-entity-1="ent0011" data-entity-2="ent0027" data-link-type="dependency" data-source-line="171" id="lnk72"><path codeLine="171" d="M1892.86,233.7869 C1892.86,253.1369 1892.86,282.6369 1892.86,282.6369 C1892.86,282.6369 2523,282.6369 2523,282.6369 C2523,282.6369 2523,300.8769 2523,317.9269" fill="none" id="QuestionController-to-IQuestionService" style="stroke:#181818;stroke-width:1;"/><polygon fill="#181818" points="2523,323.9269,2527,314.9269,2523,318.9269,2519,314.9269,2523,323.9269" style="stroke:#181818;stroke-width:1;"/></g><!--link AlternativeController to IAlternativeService--><g class="link" data-entity-1="ent0012" data-entity-2="ent0028" data-link-type="dependency" data-source-line="172" id="lnk73"><path codeLine="172" d="M2190.36,217.6369 C2368.52,217.6369 2751,217.6369 2751,217.6369 C2751,217.6369 2751,284.6369 2751,318.0069" fill="none" id="AlternativeController-to-IAlternativeService" style="stroke:#181818;stroke-width:1;"/><polygon fill="#181818" points="2751,324.0069,2755,315.0069,2751,319.0069,2747,315.0069,2751,324.0069" style="stroke:#181818;stroke-width:1;"/></g><!--reverse link IUserService to UserServiceImpl--><g class="link" data-entity-1="ent0022" data-entity-2="ent0030" data-link-type="extension" data-source-line="178" id="lnk74"><path codeLine="178" d="M1681.4,374.6269 C1681.4,398.1569 1681.4,423.3269 1681.4,446.8969" fill="none" id="IUserService-backto-UserServiceImpl" style="stroke:#181818;stroke-width:1;stroke-dasharray:7,7;"/><polygon fill="none" points="1681.4,356.6269,1675.4,374.6269,1687.4,374.6269,1681.4,356.6269" style="stroke:#181818;stroke-width:1;"/></g><!--reverse link IFileTypeService to FileTypeServiceImpl--><g class="link" data-entity-1="ent0023" data-entity-2="ent0031" data-link-type="extension" data-source-line="179" id="lnk75"><path codeLine="179" d="M1464.9,374.6269 C1464.9,398.1569 1464.9,423.3269 1464.9,446.8969" fill="none" id="IFileTypeService-backto-FileTypeServiceImpl" style="stroke:#181818;stroke-width:1;stroke-dasharray:7,7;"/><polygon fill="none" points="1464.9,356.6269,1458.9,374.6269,1470.9,374.6269,1464.9,356.6269" style="stroke:#181818;stroke-width:1;"/></g><!--reverse link IDocumentService to DocumentServiceImpl--><g class="link" data-entity-1="ent0024" data-entity-2="ent0032" data-link-type="extension" data-source-line="180" id="lnk76"><path codeLine="180" d="M1904.9,374.6269 C1904.9,398.1569 1904.9,423.3269 1904.9,446.8969" fill="none" id="IDocumentService-backto-DocumentServiceImpl" style="stroke:#181818;stroke-width:1;stroke-dasharray:7,7;"/><polygon fill="none" points="1904.9,356.6269,1898.9,374.6269,1910.9,374.6269,1904.9,356.6269" style="stroke:#181818;stroke-width:1;"/></g><!--reverse link ISummaryService to SummaryServiceImpl--><g class="link" data-entity-1="ent0025" data-entity-2="ent0033" data-link-type="extension" data-source-line="181" id="lnk77"><path codeLine="181" d="M2356.4,374.6269 C2356.4,398.1569 2356.4,423.3269 2356.4,446.8969" fill="none" id="ISummaryService-backto-SummaryServiceImpl" style="stroke:#181818;stroke-width:1;stroke-dasharray:7,7;"/><polygon fill="none" points="2356.4,356.6269,2350.4,374.6269,2362.4,374.6269,2356.4,356.6269" style="stroke:#181818;stroke-width:1;"/></g><!--reverse link ITriviaService to TriviaServiceImpl--><g class="link" data-entity-1="ent0026" data-entity-2="ent0034" data-link-type="extension" data-source-line="182" id="lnk78"><path codeLine="182" d="M2131.9,374.6269 C2131.9,398.1569 2131.9,423.3269 2131.9,446.8969" fill="none" id="ITriviaService-backto-TriviaServiceImpl" style="stroke:#181818;stroke-width:1;stroke-dasharray:7,7;"/><polygon fill="none" points="2131.9,356.6269,2125.9,374.6269,2137.9,374.6269,2131.9,356.6269" style="stroke:#181818;stroke-width:1;"/></g><!--reverse link IQuestionService to QuestionServiceImpl--><g class="link" data-entity-1="ent0027" data-entity-2="ent0035" data-link-type="extension" data-source-line="183" id="lnk79"><path codeLine="183" d="M2592.4,374.6269 C2592.4,398.1569 2592.4,423.3269 2592.4,446.8969" fill="none" id="IQuestionService-backto-QuestionServiceImpl" style="stroke:#181818;stroke-width:1;stroke-dasharray:7,7;"/><polygon fill="none" points="2592.4,356.6269,2586.4,374.6269,2598.4,374.6269,2592.4,356.6269" style="stroke:#181818;stroke-width:1;"/></g><!--reverse link IAlternativeService to AlternativeServiceImpl--><g class="link" data-entity-1="ent0028" data-entity-2="ent0036" data-link-type="extension" data-source-line="184" id="lnk80"><path codeLine="184" d="M2824.13,374.6769 C2824.13,408.2269 2824.13,463.6369 2824.13,463.6369 C2824.13,463.6369 2827.52,463.6369 2833.07,463.6369" fill="none" id="IAlternativeService-backto-AlternativeServiceImpl" style="stroke:#181818;stroke-width:1;stroke-dasharray:7,7;"/><polygon fill="none" points="2824.13,356.6769,2818.13,374.6769,2830.13,374.6769,2824.13,356.6769" style="stroke:#181818;stroke-width:1;"/></g><!--link UserServiceImpl to UserRepository--><g class="link" data-entity-1="ent0030" data-entity-2="ent0038" data-link-type="dependency" data-source-line="190" id="lnk81"><path codeLine="190" d="M1720.3,479.5869 C1720.3,507.8469 1720.3,559.6169 1720.3,587.9269" fill="none" id="UserServiceImpl-to-UserRepository" style="stroke:#181818;stroke-width:1;"/><polygon fill="#181818" points="1720.3,593.9269,1724.3,584.9269,1720.3,588.9269,1716.3,584.9269,1720.3,593.9269" style="stroke:#181818;stroke-width:1;"/></g><!--link FileTypeServiceImpl to FileTypeRepository--><g class="link" data-entity-1="ent0031" data-entity-2="ent0039" data-link-type="dependency" data-source-line="191" id="lnk82"><path codeLine="191" d="M1494.3,479.5869 C1494.3,507.8469 1494.3,559.6169 1494.3,587.9269" fill="none" id="FileTypeServiceImpl-to-FileTypeRepository" style="stroke:#181818;stroke-width:1;"/><polygon fill="#181818" points="1494.3,593.9269,1498.3,584.9269,1494.3,588.9269,1490.3,584.9269,1494.3,593.9269" style="stroke:#181818;stroke-width:1;"/></g><!--link DocumentServiceImpl to DocumentRepository--><g class="link" data-entity-1="ent0032" data-entity-2="ent0040" data-link-type="dependency" data-source-line="192" id="lnk83"><path codeLine="192" d="M1953.3,479.5869 C1953.3,507.8469 1953.3,559.6169 1953.3,587.9269" fill="none" id="DocumentServiceImpl-to-DocumentRepository" style="stroke:#181818;stroke-width:1;"/><polygon fill="#181818" points="1953.3,593.9269,1957.3,584.9269,1953.3,588.9269,1949.3,584.9269,1953.3,593.9269" style="stroke:#181818;stroke-width:1;"/></g><!--link SummaryServiceImpl to SummaryRepository--><g class="link" data-entity-1="ent0033" data-entity-2="ent0041" data-link-type="dependency" data-source-line="193" id="lnk84"><path codeLine="193" d="M2420.2,479.5869 C2420.2,507.8469 2420.2,559.6169 2420.2,587.9269" fill="none" id="SummaryServiceImpl-to-SummaryRepository" style="stroke:#181818;stroke-width:1;"/><polygon fill="#181818" points="2420.2,593.9269,2424.2,584.9269,2420.2,588.9269,2416.2,584.9269,2420.2,593.9269" style="stroke:#181818;stroke-width:1;"/></g><!--link TriviaServiceImpl to TriviaRepository--><g class="link" data-entity-1="ent0034" data-entity-2="ent0042" data-link-type="dependency" data-source-line="194" id="lnk85"><path codeLine="194" d="M2188,479.5869 C2188,507.8469 2188,559.6169 2188,587.9269" fill="none" id="TriviaServiceImpl-to-TriviaRepository" style="stroke:#181818;stroke-width:1;"/><polygon fill="#181818" points="2188,593.9269,2192,584.9269,2188,588.9269,2184,584.9269,2188,593.9269" style="stroke:#181818;stroke-width:1;"/></g><!--link QuestionServiceImpl to QuestionRepository--><g class="link" data-entity-1="ent0035" data-entity-2="ent0043" data-link-type="dependency" data-source-line="195" id="lnk86"><path codeLine="195" d="M2665.7,479.5869 C2665.7,507.8469 2665.7,559.6169 2665.7,587.9269" fill="none" id="QuestionServiceImpl-to-QuestionRepository" style="stroke:#181818;stroke-width:1;"/><polygon fill="#181818" points="2665.7,593.9269,2669.7,584.9269,2665.7,588.9269,2661.7,584.9269,2665.7,593.9269" style="stroke:#181818;stroke-width:1;"/></g><!--link AlternativeServiceImpl to AlternativeRepository--><g class="link" data-entity-1="ent0036" data-entity-2="ent0044" data-link-type="dependency" data-source-line="196" id="lnk87"><path codeLine="196" d="M2916.2,479.5869 C2916.2,507.8469 2916.2,559.6169 2916.2,587.9269" fill="none" id="AlternativeServiceImpl-to-AlternativeRepository" style="stroke:#181818;stroke-width:1;"/><polygon fill="#181818" points="2916.2,593.9269,2920.2,584.9269,2916.2,588.9269,2912.2,584.9269,2916.2,593.9269" style="stroke:#181818;stroke-width:1;"/></g><!--link UserRepository to User--><g class="link" data-entity-1="ent0038" data-entity-2="ent0046" data-link-type="dependency" data-source-line="202" id="lnk88"><path codeLine="202" d="M1778.58,626.7469 C1778.58,647.1569 1778.58,677.2469 1778.58,709.8269" fill="none" id="UserRepository-to-User" style="stroke:#181818;stroke-width:1;"/><polygon fill="#181818" points="1778.58,715.8269,1782.58,706.8269,1778.58,710.8269,1774.58,706.8269,1778.58,715.8269" style="stroke:#181818;stroke-width:1;"/></g><!--link FileTypeRepository to FileType--><g class="link" data-entity-1="ent0039" data-entity-2="ent0047" data-link-type="dependency" data-source-line="203" id="lnk89"><path codeLine="203" d="M1566.71,626.7469 C1566.71,654.4669 1566.71,705.1169 1566.71,742.6269" fill="none" id="FileTypeRepository-to-FileType" style="stroke:#181818;stroke-width:1;"/><polygon fill="#181818" points="1566.71,748.6269,1570.71,739.6269,1566.71,743.6269,1562.71,739.6269,1566.71,748.6269" style="stroke:#181818;stroke-width:1;"/></g><!--link DocumentRepository to Document--><g class="link" data-entity-1="ent0040" data-entity-2="ent0048" data-link-type="dependency" data-source-line="204" id="lnk90"><path codeLine="204" d="M1952.1,626.4469 C1952.1,699.7469 1952.1,997.6369 1952.1,997.6369 C1952.1,997.6369 1952.55,997.6369 1944.04,997.6369" fill="none" id="DocumentRepository-to-Document" style="stroke:#181818;stroke-width:1;"/><polygon fill="#181818" points="1938.04,997.6369,1947.04,1001.6369,1943.04,997.6369,1947.04,993.6369,1938.04,997.6369" style="stroke:#181818;stroke-width:1;"/></g><!--link SummaryRepository to Summary--><g class="link" data-entity-1="ent0041" data-entity-2="ent0049" data-link-type="dependency" data-source-line="205" id="lnk91"><path codeLine="205" d="M2418,626.5569 C2418,720.0269 2418,1184.6369 2418,1184.6369 C2418,1184.6369 2123.24,1184.6369 1970.22,1184.6369" fill="none" id="SummaryRepository-to-Summary" style="stroke:#181818;stroke-width:1;"/><polygon fill="#181818" points="1964.22,1184.6369,1973.22,1188.6369,1969.22,1184.6369,1973.22,1180.6369,1964.22,1184.6369" style="stroke:#181818;stroke-width:1;"/></g><!--link TriviaRepository to Trivia--><g class="link" data-entity-1="ent0042" data-entity-2="ent0050" data-link-type="dependency" data-source-line="206" id="lnk92"><path codeLine="206" d="M2188,626.7369 C2188,644.9069 2188,671.6369 2188,671.6369 C2188,671.6369 1705.69,671.6369 1705.69,671.6369 C1705.69,671.6369 1705.69,1008.5769 1705.69,1133.1569" fill="none" id="TriviaRepository-to-Trivia" style="stroke:#181818;stroke-width:1;"/><polygon fill="#181818" points="1705.69,1139.1569,1709.69,1130.1569,1705.69,1134.1569,1701.69,1130.1569,1705.69,1139.1569" style="stroke:#181818;stroke-width:1;"/></g><!--link QuestionRepository to Question--><g class="link" data-entity-1="ent0043" data-entity-2="ent0051" data-link-type="dependency" data-source-line="207" id="lnk93"><path codeLine="207" d="M2660,626.5369 C2660,735.3869 2660,1354.6369 2660,1354.6369 C2660,1354.6369 2149.35,1354.6369 1958.64,1354.6369" fill="none" id="QuestionRepository-to-Question" style="stroke:#181818;stroke-width:1;"/><polygon fill="#181818" points="1952.64,1354.6369,1961.64,1358.6369,1957.64,1354.6369,1961.64,1350.6369,1952.64,1354.6369" style="stroke:#181818;stroke-width:1;"/></g><!--link AlternativeRepository to Alternative--><g class="link" data-entity-1="ent0044" data-entity-2="ent0052" data-link-type="dependency" data-source-line="208" id="lnk94"><path codeLine="208" d="M2907,626.5669 C2907,749.3769 2907,1525.6369 2907,1525.6369 C2907,1525.6369 2213.23,1525.6369 1970.64,1525.6369" fill="none" id="AlternativeRepository-to-Alternative" style="stroke:#181818;stroke-width:1;"/><polygon fill="#181818" points="1964.64,1525.6369,1973.64,1529.6369,1969.64,1525.6369,1973.64,1521.6369,1964.64,1525.6369" style="stroke:#181818;stroke-width:1;"/></g><!--link GlobalExceptionHandler to UserController--><g class="link" data-entity-1="ent0004" data-entity-2="ent0006" data-link-type="dependency" data-source-line="214" id="lnk95"><path codeLine="214" d="M1444.55,111.4869 C1444.55,131.6969 1444.55,163.6369 1444.55,163.6369 C1444.55,163.6369 972.18,163.6369 972.18,163.6369 C972.18,163.6369 972.18,179.1269 972.18,194.9069" fill="none" id="GlobalExceptionHandler-to-UserController" style="stroke:#181818;stroke-width:1;stroke-dasharray:7,7;"/><polygon fill="#181818" points="972.18,200.9069,976.18,191.9069,972.18,195.9069,968.18,191.9069,972.18,200.9069" style="stroke:#181818;stroke-width:1;"/></g><!--link GlobalExceptionHandler to FileTypeController--><g class="link" data-entity-1="ent0004" data-entity-2="ent0007" data-link-type="dependency" data-source-line="215" id="lnk96"><path codeLine="215" d="M1436.04,111.5469 C1436.04,123.4869 1436.04,137.6369 1436.04,137.6369 C1436.04,137.6369 759.66,137.6369 759.66,137.6369 C759.66,137.6369 759.66,171.8969 759.66,195.1769" fill="none" id="GlobalExceptionHandler-to-FileTypeController" style="stroke:#181818;stroke-width:1;stroke-dasharray:7,7;"/><polygon fill="#181818" points="759.66,201.1769,763.66,192.1769,759.66,196.1769,755.66,192.1769,759.66,201.1769" style="stroke:#181818;stroke-width:1;"/></g><!--link GlobalExceptionHandler to DocumentController--><g class="link" data-entity-1="ent0004" data-entity-2="ent0008" data-link-type="dependency" data-source-line="216" id="lnk97"><path codeLine="216" d="M1453.05,111.5569 C1453.05,135.0269 1453.05,175.6369 1453.05,175.6369 C1453.05,175.6369 1233.38,175.6369 1233.38,175.6369 C1233.38,175.6369 1233.38,183.1869 1233.38,194.8269" fill="none" id="GlobalExceptionHandler-to-DocumentController" style="stroke:#181818;stroke-width:1;stroke-dasharray:7,7;"/><polygon fill="#181818" points="1233.38,200.8269,1237.38,191.8269,1233.38,195.8269,1229.38,191.8269,1233.38,200.8269" style="stroke:#181818;stroke-width:1;"/></g><!--link GlobalExceptionHandler to SummaryController--><g class="link" data-entity-1="ent0004" data-entity-2="ent0009" data-link-type="dependency" data-source-line="217" id="lnk98"><path codeLine="217" d="M1598.84,111.7469 C1598.84,135.1569 1598.84,171.8269 1598.84,195.0969" fill="none" id="GlobalExceptionHandler-to-SummaryController" style="stroke:#181818;stroke-width:1;stroke-dasharray:7,7;"/><polygon fill="#181818" points="1598.84,201.0969,1602.84,192.0969,1598.84,196.0969,1594.84,192.0969,1598.84,201.0969" style="stroke:#181818;stroke-width:1;"/></g><!--link GlobalExceptionHandler to TriviaController--><g class="link" data-entity-1="ent0004" data-entity-2="ent0010" data-link-type="dependency" data-source-line="218" id="lnk99"><path codeLine="218" d="M1461.56,111.7469 C1461.56,135.1569 1461.56,171.8269 1461.56,195.0969" fill="none" id="GlobalExceptionHandler-to-TriviaController" style="stroke:#181818;stroke-width:1;stroke-dasharray:7,7;"/><polygon fill="#181818" points="1461.56,201.0969,1465.56,192.0969,1461.56,196.0969,1457.56,192.0969,1461.56,201.0969" style="stroke:#181818;stroke-width:1;"/></g><!--link GlobalExceptionHandler to QuestionController--><g class="link" data-entity-1="ent0004" data-entity-2="ent0011" data-link-type="dependency" data-source-line="219" id="lnk100"><path codeLine="219" d="M1628.56,100.6369 C1734.86,100.6369 1887.3,100.6369 1887.3,100.6369 C1887.3,100.6369 1887.3,163.0169 1887.3,195.0769" fill="none" id="GlobalExceptionHandler-to-QuestionController" style="stroke:#181818;stroke-width:1;stroke-dasharray:7,7;"/><polygon fill="#181818" points="1887.3,201.0769,1891.3,192.0769,1887.3,196.0769,1883.3,192.0769,1887.3,201.0769" style="stroke:#181818;stroke-width:1;"/></g><!--link GlobalExceptionHandler to AlternativeController--><g class="link" data-entity-1="ent0004" data-entity-2="ent0012" data-link-type="dependency" data-source-line="220" id="lnk101"><path codeLine="220" d="M1628.88,90.6369 C1800.45,90.6369 2130.7,90.6369 2130.7,90.6369 C2130.7,90.6369 2130.7,160.7869 2130.7,194.9969" fill="none" id="GlobalExceptionHandler-to-AlternativeController" style="stroke:#181818;stroke-width:1;stroke-dasharray:7,7;"/><polygon fill="#181818" points="2130.7,200.9969,2134.7,191.9969,2130.7,195.9969,2126.7,191.9969,2130.7,200.9969" style="stroke:#181818;stroke-width:1;"/></g><!--link User to Document--><g class="link" data-entity-1="ent0046" data-entity-2="ent0048" data-link-type="association" data-source-line="226" id="lnk102"><path codeLine="226" d="M1851,854.4269 C1851,883.4669 1851,916.6769 1851,943.7069" fill="none" id="User-Document" style="stroke:#181818;stroke-width:1;"/><text fill="#000000" font-family="sans-serif" font-size="13" lengthAdjust="spacing" textLength="51.0479" x="1799" y="895.1338">uploads</text><text fill="#000000" font-family="sans-serif" font-size="13" lengthAdjust="spacing" textLength="8.271" x="1842.6199" y="874.0543">1</text><text fill="#000000" font-family="sans-serif" font-size="13" lengthAdjust="spacing" textLength="23.0356" x="1826.5283" y="933.0354">0..*</text></g><!--link FileType to Document--><g class="link" data-entity-1="ent0047" data-entity-2="ent0048" data-link-type="association" data-source-line="227" id="lnk103"><path codeLine="227" d="M1619,821.7069 C1619,882.4469 1619,997.6369 1619,997.6369 C1619,997.6369 1698.12,997.6369 1763.95,997.6369" fill="none" id="FileType-Document" style="stroke:#181818;stroke-width:1;"/><text fill="#000000" font-family="sans-serif" font-size="13" lengthAdjust="spacing" textLength="58.8428" x="1560" y="978.2138">classifies</text><text fill="#000000" font-family="sans-serif" font-size="13" lengthAdjust="spacing" textLength="8.271" x="1610.311" y="841.6272">1</text><text fill="#000000" font-family="sans-serif" font-size="13" lengthAdjust="spacing" textLength="23.0356" x="1733.4058" y="994.2086">0..*</text></g><!--link Document to Summary--><g class="link" data-entity-1="ent0048" data-entity-2="ent0049" data-link-type="association" data-source-line="229" id="lnk104"><path codeLine="229" d="M1863.9,1049.2669 C1863.9,1077.4669 1863.9,1111.8569 1863.9,1138.7869" fill="none" id="Document-Summary" style="stroke:#181818;stroke-width:1;"/><text fill="#000000" font-family="sans-serif" font-size="13" lengthAdjust="spacing" textLength="65.6665" x="1797.9" y="1090.0938">generates</text><text fill="#000000" font-family="sans-serif" font-size="13" lengthAdjust="spacing" textLength="8.271" x="1857.1136" y="1069.4181">1</text><text fill="#000000" font-family="sans-serif" font-size="13" lengthAdjust="spacing" textLength="23.0356" x="1837.2901" y="1128.165">0..*</text></g><!--link Document to Trivia--><g class="link" data-entity-1="ent0048" data-entity-2="ent0050" data-link-type="association" data-source-line="230" id="lnk105"><path codeLine="230" d="M1777.23,1049.5269 C1777.23,1105.1269 1777.23,1184.6369 1777.23,1184.6369 C1777.23,1184.6369 1750.6,1184.6369 1720.23,1184.6369" fill="none" id="Document-Trivia" style="stroke:#181818;stroke-width:1;"/><text fill="#000000" font-family="sans-serif" font-size="13" lengthAdjust="spacing" textLength="65.6665" x="1727.98" y="1158.6538">generates</text><text fill="#000000" font-family="sans-serif" font-size="13" lengthAdjust="spacing" textLength="8.271" x="1759.2825" y="1069.3354">1</text><text fill="#000000" font-family="sans-serif" font-size="13" lengthAdjust="spacing" textLength="23.0356" x="1727.7907" y="1181.2062">0..*</text></g><!--link Trivia to Question--><g class="link" data-entity-1="ent0050" data-entity-2="ent0051" data-link-type="association" data-source-line="232" id="lnk106"><path codeLine="232" d="M1633,1228.6169 C1633,1279.2569 1633,1354.6369 1633,1354.6369 C1633,1354.6369 1739.39,1354.6369 1813.36,1354.6369" fill="none" id="Trivia-Question" style="stroke:#181818;stroke-width:1;"/><text fill="#000000" font-family="sans-serif" font-size="13" lengthAdjust="spacing" textLength="55.0278" x="1604.17" y="1350.7038">contains</text><text fill="#000000" font-family="sans-serif" font-size="13" lengthAdjust="spacing" textLength="8.271" x="1624.4572" y="1248.0639">1</text><text fill="#000000" font-family="sans-serif" font-size="13" lengthAdjust="spacing" textLength="23.0356" x="1782.8818" y="1351.0354">1..*</text></g><!--link Question to Alternative--><g class="link" data-entity-1="ent0051" data-entity-2="ent0052" data-link-type="association" data-source-line="233" id="lnk107"><path codeLine="233" d="M1883,1391.0769 C1883,1417.2369 1883,1452.5869 1883,1480.4269" fill="none" id="Question-Alternative" style="stroke:#181818;stroke-width:1;"/><text fill="#000000" font-family="sans-serif" font-size="13" lengthAdjust="spacing" textLength="22.9785" x="1860" y="1431.8238">has</text><text fill="#000000" font-family="sans-serif" font-size="13" lengthAdjust="spacing" textLength="8.271" x="1874.3363" y="1410.7388">1</text><text fill="#000000" font-family="sans-serif" font-size="13" lengthAdjust="spacing" textLength="23.0356" x="1858.3133" y="1469.8271">2..*</text></g><?plantuml-src hLXDR-Cs4BthLn3keK216DbUYXfj0KFMTeqwjcjx5-sHbiOo4KbKIJgxtdR_UqbzcPzE42UNH3EFevdt9EenHv81Wh8MPrH2kGV6euW_agh639SeBJ3dKo4OsPy4p5DQRSbNGFTH96YD14LxAWGjKKOOf8BGIb-yn-bZpkYfoc9QK8Q-Uz_yQ0X-n1dzJAeS7N31GSiKf09nhW5H9evKhrhH33ZKwATxBSXmzQY2Fz-_gFiBf9OzuXosubm0KZFWAYyWalCH8ICpWdC9mqYI5CjgmD4T-eDaPuQZg2dVNKrhCgthWgIuPQ6hYqRm9OLQnKRetmYrBQ7V2xh7HTAdFk0gAu15txHribd1Q273Qg5SAMWEuWYiATCN-iY1nGDIIxmd1UmaVzxaZAQd4YhXJMvFPOdPsPlRCV94i3VrvmcuciMRd1O2M2MfUJ8R-cQCd0dwtAoptSepf1djfpEZtLXci9t7ZFM3c55jWZPXjYvRUo8f-DidbLnxm2cWkPfXssBjL3zC8DrF5KXtumMoxPo1P3zm8ArDVa5ufn-JiYwUKx2hCPTGZvB-h3MxbJL7jvB6v5RE6jpAkdDt07Ds1ZNbH51sVavyDVrcG5l9de0WeESW2EXe2EPR9eBfdemWGEF3m9Xqb79txf-1Y-WT5tVe92_c6PgW1QtoBdOWZ8ibBa66jtAl7X9okJSE9IQ57QpblJvJbjbn1ZdXWZNRyWmBLKpzQXgFxCTlwFFG1UnUrIV9RachquiqrCcwW3jp0TxHliXMKm7PJlubax7yKFG3Cfe2vn8R7ADx18Qxy_RQlhdwjAWcZV8vLF0CI-qJD5GNpQN3KFFTjCPwGV7--HlA_zC5x1jm8TUMHlzQ6Uqf7IhXI-n5L10UKwQyW0eVSIF8yBNw7ltwcX-vRhfUB-RnT3TVBLzT9VAv3NHtzvlj188uZp48OZq-8OXrRKCGwhY88D9ZAe9OlyUuGQzujTnjLej5ia6A2_dLVxLgfZY3NggcguSXauAuCXZgA8Z3lgw90jYSQqAej4kqmR-2UFcrcLV0DwDycsm-pUFaJMat75Y0UyUA1GHmF9bV1TkRUQMmB5f03yUhXKNn-RORbEcqGFE7zI9vI9Qx6_SnNGVqot_ZiMCERHLQbCyesZgqI9zfjAHeWHx_QAhHmbmdQQlHudokqYD62mwOp3SGIZu2csIzsivtgytVjxr2McV3rgLPG8yanXQcGJsQ65kP1dLLqRSq3UZeecrj6imZYx75QL2_AFPMfosuGQwBHagnXzKiMTmcrgMjGQl8LS8GA7BfDrI97D9rAIARQet_o6NN83toycapVGk_oLznibPR5VemNSxaX-NrxFh_QOF6OyTyNK5wxDSLjCU0NK6x5kmAs35XLx0U6tO5_UP6R9Cifh6KCDaY-NgqBycDPWoDtetaOuP6z-Fn3wFBkMs2JdL1SSQ7ToQCR0uSv420HyCRPA7x0zcaFm59R03Q7QvqPFTc3S1t3N0uA4sQqmic5HzUim7wOmFL3qCJTCJyVm00?></g></svg>