<svg xmlns="http://www.w3.org/2000/svg" xmlns:xlink="http://www.w3.org/1999/xlink" contentStyleType="text/css" data-diagram-type="DESCRIPTION" height="1379px" preserveAspectRatio="none" style="width:2040px;height:1379px;background:#FFFFFF;" version="1.1" viewBox="0 0 2040 1379" width="2040px" zoomAndPan="magnify"><?plantuml 1.2026.4beta2?><defs/><g><g class="title" data-source-line="11"><text fill="#000000" font-family="sans-serif" font-size="14" font-weight="700" lengthAdjust="spacing" textLength="280.3145" x="876.4178" y="22.9951">Diagrama de Componentes - Kidyra</text></g><!--cluster Cliente Web\nReact + Bootstrap--><g class="cluster" data-qualified-name="Cliente Web.nReact . Bootstrap" data-source-line="16" id="ent0004"><path d="M199.44,43.2969 L344.6304,43.2969 A3.75,3.75 0 0 1 347.1304,45.7969 L354.1304,81.8906 L678.64,81.8906 A2.5,2.5 0 0 1 681.14,84.3906 L681.14,521.7969 A2.5,2.5 0 0 1 678.64,524.2969 L199.44,524.2969 A2.5,2.5 0 0 1 196.94,521.7969 L196.94,45.7969 A2.5,2.5 0 0 1 199.44,43.2969" fill="none" style="stroke:#000000;stroke-width:1.5;"/><line style="stroke:#000000;stroke-width:1.5;" x1="196.94" x2="354.1304" y1="81.8906" y2="81.8906"/><text fill="#000000" font-family="sans-serif" font-size="14" font-weight="700" lengthAdjust="spacing" textLength="95.3545" x="225.358" y="58.292">Cliente Web</text><text fill="#000000" font-family="sans-serif" font-size="14" font-weight="700" lengthAdjust="spacing" textLength="144.1904" x="200.94" y="74.5889">React + Bootstrap</text></g><!--cluster Backend\nSpring Boot--><g class="cluster" data-qualified-name="Backend.nSpring Boot" data-source-line="25" id="ent0010"><path d="M447.73,548.2969 L541.9995,548.2969 A3.75,3.75 0 0 1 544.4995,550.7969 L551.4995,586.8906 L2022.65,586.8906 A2.5,2.5 0 0 1 2025.15,589.3906 L2025.15,967.7969 A2.5,2.5 0 0 1 2022.65,970.2969 L447.73,970.2969 A2.5,2.5 0 0 1 445.23,967.7969 L445.23,550.7969 A2.5,2.5 0 0 1 447.73,548.2969" fill="none" style="stroke:#000000;stroke-width:1.5;"/><line style="stroke:#000000;stroke-width:1.5;" x1="445.23" x2="551.4995" y1="586.8906" y2="586.8906"/><text fill="#000000" font-family="sans-serif" font-size="14" font-weight="700" lengthAdjust="spacing" textLength="67.2109" x="462.2593" y="563.292">Backend</text><text fill="#000000" font-family="sans-serif" font-size="14" font-weight="700" lengthAdjust="spacing" textLength="93.2695" x="449.23" y="579.5889">Spring Boot</text></g><!--cluster Capa Controller--><g class="cluster" data-qualified-name="Backend.nSpring Boot.Capa Controller" data-source-line="29" id="ent0012"><path d="M741.64,607.2969 L865.7757,607.2969 A3.75,3.75 0 0 1 868.2757,609.7969 L875.2757,629.5938 L927.71,629.5938 A2.5,2.5 0 0 1 930.21,632.0938 L930.21,691.7969 A2.5,2.5 0 0 1 927.71,694.2969 L741.64,694.2969 A2.5,2.5 0 0 1 739.14,691.7969 L739.14,609.7969 A2.5,2.5 0 0 1 741.64,607.2969" fill="none" style="stroke:#000000;stroke-width:1.5;"/><line style="stroke:#000000;stroke-width:1.5;" x1="739.14" x2="875.2757" y1="629.5938" y2="629.5938"/><text fill="#000000" font-family="sans-serif" font-size="14" font-weight="700" lengthAdjust="spacing" textLength="123.1357" x="743.14" y="622.292">Capa Controller</text></g><!--cluster Capa DTO--><g class="cluster" data-qualified-name="Backend.nSpring Boot.Capa DTO" data-source-line="33" id="ent0014"><path d="M1030.9,859.2969 L1109.0367,859.2969 A3.75,3.75 0 0 1 1111.5367,861.7969 L1118.5367,881.5938 L1166.46,881.5938 A2.5,2.5 0 0 1 1168.96,884.0938 L1168.96,943.7969 A2.5,2.5 0 0 1 1166.46,946.2969 L1030.9,946.2969 A2.5,2.5 0 0 1 1028.4,943.7969 L1028.4,861.7969 A2.5,2.5 0 0 1 1030.9,859.2969" fill="none" style="stroke:#000000;stroke-width:1.5;"/><line style="stroke:#000000;stroke-width:1.5;" x1="1028.4" x2="1118.5367" y1="881.5938" y2="881.5938"/><text fill="#000000" font-family="sans-serif" font-size="14" font-weight="700" lengthAdjust="spacing" textLength="77.1367" x="1032.4" y="874.292">Capa DTO</text></g><!--cluster Capa Service--><g class="cluster" data-qualified-name="Backend.nSpring Boot.Capa Service" data-source-line="37" id="ent0016"><path d="M999.2,732.2969 L1102.4656,732.2969 A3.75,3.75 0 0 1 1104.9656,734.7969 L1111.9656,754.5938 L1445.92,754.5938 A2.5,2.5 0 0 1 1448.42,757.0938 L1448.42,832.7969 A2.5,2.5 0 0 1 1445.92,835.2969 L999.2,835.2969 A2.5,2.5 0 0 1 996.7,832.7969 L996.7,734.7969 A2.5,2.5 0 0 1 999.2,732.2969" fill="none" style="stroke:#000000;stroke-width:1.5;"/><line style="stroke:#000000;stroke-width:1.5;" x1="996.7" x2="1111.9656" y1="754.5938" y2="754.5938"/><text fill="#000000" font-family="sans-serif" font-size="14" font-weight="700" lengthAdjust="spacing" textLength="102.2656" x="1000.7" y="747.292">Capa Service</text></g><!--cluster Capa Repository--><g class="cluster" data-qualified-name="Backend.nSpring Boot.Capa Repository" data-source-line="42" id="ent0019"><path d="M1570.24,783.2969 L1700.6921,783.2969 A3.75,3.75 0 0 1 1703.1921,785.7969 L1710.1921,805.5938 L1730.37,805.5938 A2.5,2.5 0 0 1 1732.87,808.0938 L1732.87,867.7969 A2.5,2.5 0 0 1 1730.37,870.2969 L1570.24,870.2969 A2.5,2.5 0 0 1 1567.74,867.7969 L1567.74,785.7969 A2.5,2.5 0 0 1 1570.24,783.2969" fill="none" style="stroke:#000000;stroke-width:1.5;"/><line style="stroke:#000000;stroke-width:1.5;" x1="1567.74" x2="1710.1921" y1="805.5938" y2="805.5938"/><text fill="#000000" font-family="sans-serif" font-size="14" font-weight="700" lengthAdjust="spacing" textLength="129.4521" x="1571.74" y="798.292">Capa Repository</text></g><!--cluster Capa Model--><g class="cluster" data-qualified-name="Backend.nSpring Boot.Capa Model" data-source-line="46" id="ent0021"><path d="M1855.69,783.2969 L1948.6197,783.2969 A3.75,3.75 0 0 1 1951.1197,785.7969 L1958.1197,805.5938 L1998.65,805.5938 A2.5,2.5 0 0 1 2001.15,808.0938 L2001.15,867.7969 A2.5,2.5 0 0 1 1998.65,870.2969 L1855.69,870.2969 A2.5,2.5 0 0 1 1853.19,867.7969 L1853.19,785.7969 A2.5,2.5 0 0 1 1855.69,783.2969" fill="none" style="stroke:#000000;stroke-width:1.5;"/><line style="stroke:#000000;stroke-width:1.5;" x1="1853.19" x2="1958.1197" y1="805.5938" y2="805.5938"/><text fill="#000000" font-family="sans-serif" font-size="14" font-weight="700" lengthAdjust="spacing" textLength="91.9297" x="1857.19" y="798.292">Capa Model</text></g><!--cluster Manejo de Errores--><g class="cluster" data-qualified-name="Backend.nSpring Boot.Manejo de Errores" data-source-line="50" id="ent0023"><path d="M990.71,607.2969 L1135.9551,607.2969 A3.75,3.75 0 0 1 1138.4551,609.7969 L1145.4551,629.5938 L1206.64,629.5938 A2.5,2.5 0 0 1 1209.14,632.0938 L1209.14,691.7969 A2.5,2.5 0 0 1 1206.64,694.2969 L990.71,694.2969 A2.5,2.5 0 0 1 988.21,691.7969 L988.21,609.7969 A2.5,2.5 0 0 1 990.71,607.2969" fill="none" style="stroke:#000000;stroke-width:1.5;"/><line style="stroke:#000000;stroke-width:1.5;" x1="988.21" x2="1145.4551" y1="629.5938" y2="629.5938"/><text fill="#000000" font-family="sans-serif" font-size="14" font-weight="700" lengthAdjust="spacing" textLength="144.2451" x="992.21" y="622.292">Manejo de Errores</text></g><!--cluster Google Gemini API--><g class="cluster" data-qualified-name="Google Gemini API" data-source-line="57" id="ent0026"><polygon fill="none" points="1539.42,1004.2969,1549.42,994.2969,1761.19,994.2969,1761.19,1092.2969,1751.19,1102.2969,1539.42,1102.2969,1539.42,1004.2969" style="stroke:#181818;stroke-width:1;"/><line style="stroke:#181818;stroke-width:1;" x1="1751.19" x2="1761.19" y1="1004.2969" y2="994.2969"/><line style="stroke:#181818;stroke-width:1;" x1="1539.42" x2="1751.19" y1="1004.2969" y2="1004.2969"/><line style="stroke:#181818;stroke-width:1;" x1="1751.19" x2="1751.19" y1="1004.2969" y2="1102.2969"/><text fill="#000000" font-family="sans-serif" font-size="14" font-weight="700" lengthAdjust="spacing" textLength="146.2344" x="1573.1878" y="1020.292">Google Gemini API</text></g><!--cluster Procesamiento de Archivos--><g class="cluster" data-qualified-name="Procesamiento de Archivos" data-source-line="61" id="ent0028"><polygon fill="none" points="1506.1,1146.2969,1516.1,1136.2969,1795.51,1136.2969,1795.51,1344.2969,1785.51,1354.2969,1506.1,1354.2969,1506.1,1146.2969" style="stroke:#181818;stroke-width:1;"/><line style="stroke:#181818;stroke-width:1;" x1="1785.51" x2="1795.51" y1="1146.2969" y2="1136.2969"/><line style="stroke:#181818;stroke-width:1;" x1="1506.1" x2="1785.51" y1="1146.2969" y2="1146.2969"/><line style="stroke:#181818;stroke-width:1;" x1="1785.51" x2="1785.51" y1="1146.2969" y2="1354.2969"/><text fill="#000000" font-family="sans-serif" font-size="14" font-weight="700" lengthAdjust="spacing" textLength="214.6621" x="1539.4739" y="1162.292">Procesamiento de Archivos</text></g><!--entity UI--><g class="entity" data-qualified-name="Cliente Web.nReact . Bootstrap.UI" data-source-line="18" id="ent0005"><rect fill="#F1F1F1" height="36.2969" rx="2.5" ry="2.5" style="stroke:#181818;stroke-width:0.5;" width="153.3213" x="212.94" y="283.1469"/><text fill="#000000" font-family="sans-serif" font-size="14" lengthAdjust="spacing" textLength="133.3213" x="222.94" y="306.142">Interfaz de Usuario</text></g><!--entity SessionUI--><g class="entity" data-qualified-name="Cliente Web.nReact . Bootstrap.SessionUI" data-source-line="19" id="ent0006"><rect fill="#F1F1F1" height="36.2969" rx="2.5" ry="2.5" style="stroke:#181818;stroke-width:0.5;" width="146.0957" x="487.65" y="472.1469"/><text fill="#000000" font-family="sans-serif" font-size="14" lengthAdjust="spacing" textLength="126.0957" x="497.65" y="495.142">Gesti&#243;n de Sesi&#243;n</text></g><!--entity UploadUI--><g class="entity" data-qualified-name="Cliente Web.nReact . Bootstrap.UploadUI" data-source-line="20" id="ent0007"><rect fill="#F1F1F1" height="36.2969" rx="2.5" ry="2.5" style="stroke:#181818;stroke-width:0.5;" width="176.3652" x="472.52" y="346.1469"/><text fill="#000000" font-family="sans-serif" font-size="14" lengthAdjust="spacing" textLength="156.3652" x="482.52" y="369.142">Carga de Documentos</text></g><!--entity ContentUI--><g class="entity" data-qualified-name="Cliente Web.nReact . Bootstrap.ContentUI" data-source-line="21" id="ent0008"><rect fill="#F1F1F1" height="36.2969" rx="2.5" ry="2.5" style="stroke:#181818;stroke-width:0.5;" width="208.877" x="456.26" y="220.1469"/><text fill="#000000" font-family="sans-serif" font-size="14" lengthAdjust="spacing" textLength="188.877" x="466.26" y="243.142">Visualizaci&#243;n de Contenido</text></g><!--entity AccessibilityUI--><g class="entity" data-qualified-name="Cliente Web.nReact . Bootstrap.AccessibilityUI" data-source-line="22" id="ent0009"><rect fill="#F1F1F1" height="36.2969" rx="2.5" ry="2.5" style="stroke:#181818;stroke-width:0.5;" width="188.5674" x="466.42" y="94.1469"/><text fill="#000000" font-family="sans-serif" font-size="14" lengthAdjust="spacing" textLength="168.5674" x="476.42" y="117.142">Tem&#225;tica Visual y Audio</text></g><!--entity MainApp--><g class="entity" data-qualified-name="Backend.nSpring Boot.MainApp" data-source-line="27" id="ent0011"><rect fill="#F1F1F1" height="36.2969" rx="2.5" ry="2.5" style="stroke:#181818;stroke-width:0.5;" width="198.9375" x="461.23" y="642.1469"/><text fill="#000000" font-family="sans-serif" font-size="14" lengthAdjust="spacing" textLength="178.9375" x="471.23" y="665.142">KidyraApiApplication.java</text></g><!--entity Controllers--><g class="entity" data-qualified-name="Backend.nSpring Boot.Capa Controller.Controllers" data-source-line="30" id="ent0013"><rect fill="#F1F1F1" height="36.2969" rx="2.5" ry="2.5" style="stroke:#181818;stroke-width:0.5;" width="159.0703" x="755.14" y="642.1469"/><text fill="#000000" font-family="sans-serif" font-size="14" lengthAdjust="spacing" textLength="139.0703" x="765.14" y="665.142">Controladores REST</text></g><!--entity DTOs--><g class="entity" data-qualified-name="Backend.nSpring Boot.Capa DTO.DTOs" data-source-line="34" id="ent0015"><rect fill="#F1F1F1" height="36.2969" rx="2.5" ry="2.5" style="stroke:#181818;stroke-width:0.5;" width="108.5596" x="1044.4" y="894.1469"/><text fill="#000000" font-family="sans-serif" font-size="14" lengthAdjust="spacing" textLength="88.5596" x="1054.4" y="917.142">Objetos DTO</text></g><!--entity Services--><g class="entity" data-qualified-name="Backend.nSpring Boot.Capa Service.Services" data-source-line="38" id="ent0017"><rect fill="#F1F1F1" height="36.2969" rx="2.5" ry="2.5" style="stroke:#181818;stroke-width:0.5;" width="171.9561" x="1012.7" y="768.1469"/><text fill="#000000" font-family="sans-serif" font-size="14" lengthAdjust="spacing" textLength="151.9561" x="1022.7" y="791.142">Interfaces de Servicio</text></g><!--entity ServiceImpl--><g class="entity" data-qualified-name="Backend.nSpring Boot.Capa Service.ServiceImpl" data-source-line="39" id="ent0018"><rect fill="#F1F1F1" height="52.5938" rx="2.5" ry="2.5" style="stroke:#181818;stroke-width:0.5;" width="149.2813" x="1283.14" y="766.9969"/><text fill="#000000" font-family="sans-serif" font-size="14" lengthAdjust="spacing" textLength="129.2813" x="1293.14" y="789.992">Implementaciones</text><text fill="#000000" font-family="sans-serif" font-size="14" lengthAdjust="spacing" textLength="84.9023" x="1293.14" y="806.2889">service.impl</text></g><!--entity Repositories--><g class="entity" data-qualified-name="Backend.nSpring Boot.Capa Repository.Repositories" data-source-line="43" id="ent0020"><rect fill="#F1F1F1" height="36.2969" rx="2.5" ry="2.5" style="stroke:#181818;stroke-width:0.5;" width="133.1348" x="1583.74" y="818.1469"/><text fill="#000000" font-family="sans-serif" font-size="14" lengthAdjust="spacing" textLength="113.1348" x="1593.74" y="841.142">Repositorios JPA</text></g><!--entity Models--><g class="entity" data-qualified-name="Backend.nSpring Boot.Capa Model.Models" data-source-line="47" id="ent0022"><rect fill="#F1F1F1" height="36.2969" rx="2.5" ry="2.5" style="stroke:#181818;stroke-width:0.5;" width="115.9561" x="1869.19" y="818.1469"/><text fill="#000000" font-family="sans-serif" font-size="14" lengthAdjust="spacing" textLength="95.9561" x="1879.19" y="841.142">Entidades JPA</text></g><!--entity ExceptionHandler--><g class="entity" data-qualified-name="Backend.nSpring Boot.Manejo de Errores.ExceptionHandler" data-source-line="51" id="ent0024"><rect fill="#F1F1F1" height="36.2969" rx="2.5" ry="2.5" style="stroke:#181818;stroke-width:0.5;" width="188.9297" x="1004.21" y="642.1469"/><text fill="#000000" font-family="sans-serif" font-size="14" lengthAdjust="spacing" textLength="168.9297" x="1014.21" y="665.142">GlobalExceptionHandler</text></g><!--entity Gemini--><g class="entity" data-qualified-name="Google Gemini API.Gemini" data-source-line="58" id="ent0027"><rect fill="#F1F1F1" height="52.5938" rx="2.5" ry="2.5" style="stroke:#181818;stroke-width:0.5;" width="141.7686" x="1579.42" y="1033.9969"/><text fill="#000000" font-family="sans-serif" font-size="14" lengthAdjust="spacing" textLength="98.4648" x="1589.42" y="1056.992">Generaci&#243;n IA</text><text fill="#000000" font-family="sans-serif" font-size="14" lengthAdjust="spacing" textLength="121.7686" x="1589.42" y="1073.2889">Resumen y Trivia</text></g><!--entity PDFBox--><g class="entity" data-qualified-name="Procesamiento de Archivos.PDFBox" data-source-line="62" id="ent0029"><rect fill="#F1F1F1" height="36.2969" rx="2.5" ry="2.5" style="stroke:#181818;stroke-width:0.5;" width="130.4072" x="1585.1" y="1302.1469"/><text fill="#000000" font-family="sans-serif" font-size="14" lengthAdjust="spacing" textLength="110.4072" x="1595.1" y="1325.142">Apache PDFBox</text></g><!--entity POI--><g class="entity" data-qualified-name="Procesamiento de Archivos.POI" data-source-line="63" id="ent0030"><rect fill="#F1F1F1" height="36.2969" rx="2.5" ry="2.5" style="stroke:#181818;stroke-width:0.5;" width="100.2676" x="1600.17" y="1176.1469"/><text fill="#000000" font-family="sans-serif" font-size="14" lengthAdjust="spacing" textLength="80.2676" x="1610.17" y="1199.142">Apache POI</text></g><!--entity Tutor--><g class="entity" data-qualified-name="Tutor" data-source-line="13" id="ent0002"><ellipse cx="64.4712" cy="184.6469" fill="#F1F1F1" rx="8" ry="8" style="stroke:#181818;stroke-width:0.5;"/><path d="M64.4712,192.6469 L64.4712,219.6469 M51.4712,200.6469 L77.4712,200.6469 M64.4712,219.6469 L51.4712,234.6469 M64.4712,219.6469 L77.4712,234.6469" fill="none" style="stroke:#181818;stroke-width:0.5;"/><text fill="#000000" font-family="sans-serif" font-size="14" lengthAdjust="spacing" textLength="116.9424" x="6" y="249.142">Tutor / Educador</text></g><!--entity Nino--><g class="entity" data-qualified-name="Nino" data-source-line="14" id="ent0003"><ellipse cx="64.4692" cy="350.4969" fill="#F1F1F1" rx="8" ry="8" style="stroke:#181818;stroke-width:0.5;"/><path d="M64.4692,358.4969 L64.4692,385.4969 M51.4692,366.4969 L77.4692,366.4969 M64.4692,385.4969 L51.4692,400.4969 M64.4692,385.4969 L77.4692,400.4969" fill="none" style="stroke:#181818;stroke-width:0.5;"/><text fill="#000000" font-family="sans-serif" font-size="14" lengthAdjust="spacing" textLength="31.8008" x="19" y="414.992">Ni&#241;o</text><text fill="#000000" font-family="sans-serif" font-size="14" lengthAdjust="spacing" textLength="90.9385" x="19" y="431.2889">Usuario Final</text></g><!--entity DB--><g class="entity" data-qualified-name="DB" data-source-line="55" id="ent0025"><path d="M1876.79,996.4969 C1876.79,986.4969 1927.1665,986.4969 1927.1665,986.4969 C1927.1665,986.4969 1977.5429,986.4969 1977.5429,996.4969 L1977.5429,1038.0906 C1977.5429,1048.0906 1927.1665,1048.0906 1927.1665,1048.0906 C1927.1665,1048.0906 1876.79,1048.0906 1876.79,1038.0906 L1876.79,996.4969" fill="#F1F1F1" style="stroke:#181818;stroke-width:0.5;"/><path d="M1876.79,996.4969 C1876.79,1006.4969 1927.1665,1006.4969 1927.1665,1006.4969 C1927.1665,1006.4969 1977.5429,1006.4969 1977.5429,996.4969" fill="none" style="stroke:#181818;stroke-width:0.5;"/><text fill="#000000" font-family="sans-serif" font-size="14" lengthAdjust="spacing" textLength="68.5986" x="1886.79" y="1023.492">Supabase</text><text fill="#000000" font-family="sans-serif" font-size="14" lengthAdjust="spacing" textLength="80.7529" x="1886.79" y="1039.7889">PostgreSQL</text></g><!--link Tutor to UI--><g class="link" data-entity-1="ent0002" data-entity-2="ent0005" data-link-type="dependency" data-source-line="66" id="lnk31"><path d="M117.15,252.8769 C117.15,273.7269 117.15,295.2469 117.15,295.2469 C117.15,295.2469 160.54,295.2469 206.45,295.2469" fill="none" id="Tutor-to-UI" style="stroke:#181818;stroke-width:1;"/><polygon fill="#181818" points="212.45,295.2469,203.45,291.2469,207.45,295.2469,203.45,299.2469,212.45,295.2469" style="stroke:#181818;stroke-width:1;"/></g><!--link Nino to UI--><g class="link" data-entity-1="ent0003" data-entity-2="ent0005" data-link-type="dependency" data-source-line="67" id="lnk32"><path d="M65.15,341.6769 C65.15,323.6869 65.15,307.3469 65.15,307.3469 C65.15,307.3469 141.7,307.3469 206.67,307.3469" fill="none" id="Nino-to-UI" style="stroke:#181818;stroke-width:1;"/><polygon fill="#181818" points="212.67,307.3469,203.67,303.3469,207.67,307.3469,203.67,311.3469,212.67,307.3469" style="stroke:#181818;stroke-width:1;"/></g><!--link UI to SessionUI--><g class="link" data-entity-1="ent0005" data-entity-2="ent0006" data-link-type="dependency" data-source-line="69" id="lnk33"><path d="M264.15,319.7669 C264.15,367.3169 264.15,490.2969 264.15,490.2969 C264.15,490.2969 393.58,490.2969 481.4,490.2969" fill="none" id="UI-to-SessionUI" style="stroke:#181818;stroke-width:1;"/><polygon fill="#181818" points="487.4,490.2969,478.4,486.2969,482.4,490.2969,478.4,494.2969,487.4,490.2969" style="stroke:#181818;stroke-width:1;"/></g><!--link UI to UploadUI--><g class="link" data-entity-1="ent0005" data-entity-2="ent0007" data-link-type="dependency" data-source-line="70" id="lnk34"><path d="M316.15,319.8569 C316.15,338.4369 316.15,364.2969 316.15,364.2969 C316.15,364.2969 396.08,364.2969 466.07,364.2969" fill="none" id="UI-to-UploadUI" style="stroke:#181818;stroke-width:1;"/><polygon fill="#181818" points="472.07,364.2969,463.07,360.2969,467.07,364.2969,463.07,368.2969,472.07,364.2969" style="stroke:#181818;stroke-width:1;"/></g><!--link UI to ContentUI--><g class="link" data-entity-1="ent0005" data-entity-2="ent0008" data-link-type="dependency" data-source-line="71" id="lnk35"><path d="M366.7,301.2969 C414.62,301.2969 467.15,301.2969 467.15,301.2969 C467.15,301.2969 467.15,281.4369 467.15,262.8569" fill="none" id="UI-to-ContentUI" style="stroke:#181818;stroke-width:1;"/><polygon fill="#181818" points="467.15,256.8569,463.15,265.8569,467.15,261.8569,471.15,265.8569,467.15,256.8569" style="stroke:#181818;stroke-width:1;"/></g><!--link UI to AccessibilityUI--><g class="link" data-entity-1="ent0005" data-entity-2="ent0009" data-link-type="dependency" data-source-line="72" id="lnk36"><path d="M290.15,282.8269 C290.15,235.2769 290.15,112.2969 290.15,112.2969 C290.15,112.2969 382.05,112.2969 460.07,112.2969" fill="none" id="UI-to-AccessibilityUI" style="stroke:#181818;stroke-width:1;"/><polygon fill="#181818" points="466.07,112.2969,457.07,108.2969,461.07,112.2969,457.07,116.2969,466.07,112.2969" style="stroke:#181818;stroke-width:1;"/></g><!--link SessionUI to Controllers--><g class="link" data-entity-1="ent0006" data-entity-2="ent0013" data-link-type="dependency" data-source-line="74" id="lnk37"><path d="M634.22,490.2969 C700.34,490.2969 787.15,490.2969 787.15,490.2969 C787.15,490.2969 787.15,591.7169 787.15,635.7769" fill="none" id="SessionUI-to-Controllers" style="stroke:#181818;stroke-width:1;"/><polygon fill="#181818" points="787.15,641.7769,791.15,632.7769,787.15,636.7769,783.15,632.7769,787.15,641.7769" style="stroke:#181818;stroke-width:1;"/></g><!--link UploadUI to Controllers--><g class="link" data-entity-1="ent0007" data-entity-2="ent0013" data-link-type="dependency" data-source-line="75" id="lnk38"><path d="M649.28,364.2969 C724.1,364.2969 819.15,364.2969 819.15,364.2969 C819.15,364.2969 819.15,570.9769 819.15,635.7769" fill="none" id="UploadUI-to-Controllers" style="stroke:#181818;stroke-width:1;"/><polygon fill="#181818" points="819.15,641.7769,823.15,632.7769,819.15,636.7769,815.15,632.7769,819.15,641.7769" style="stroke:#181818;stroke-width:1;"/></g><!--link ContentUI to Controllers--><g class="link" data-entity-1="ent0008" data-entity-2="ent0013" data-link-type="dependency" data-source-line="76" id="lnk39"><path d="M665.56,238.2969 C748.75,238.2969 851.15,238.2969 851.15,238.2969 C851.15,238.2969 851.15,554.6669 851.15,635.8969" fill="none" id="ContentUI-to-Controllers" style="stroke:#181818;stroke-width:1;"/><polygon fill="#181818" points="851.15,641.8969,855.15,632.8969,851.15,636.8969,847.15,632.8969,851.15,641.8969" style="stroke:#181818;stroke-width:1;"/></g><!--link AccessibilityUI to Controllers--><g class="link" data-entity-1="ent0009" data-entity-2="ent0013" data-link-type="dependency" data-source-line="77" id="lnk40"><path d="M655.27,112.2969 C750.41,112.2969 883.15,112.2969 883.15,112.2969 C883.15,112.2969 883.15,540.0269 883.15,635.7469" fill="none" id="AccessibilityUI-to-Controllers" style="stroke:#181818;stroke-width:1;"/><polygon fill="#181818" points="883.15,641.7469,887.15,632.7469,883.15,636.7469,879.15,632.7469,883.15,641.7469" style="stroke:#181818;stroke-width:1;"/></g><!--link MainApp to Controllers--><g class="link" data-entity-1="ent0011" data-entity-2="ent0013" data-link-type="dependency" data-source-line="79" id="lnk41"><path d="M660.39,660.2969 C691.45,660.2969 719.28,660.2969 748.79,660.2969" fill="none" id="MainApp-to-Controllers" style="stroke:#181818;stroke-width:1;"/><polygon fill="#181818" points="754.79,660.2969,745.79,656.2969,749.79,660.2969,745.79,664.2969,754.79,660.2969" style="stroke:#181818;stroke-width:1;"/></g><!--link Controllers to DTOs--><g class="link" data-entity-1="ent0013" data-entity-2="ent0015" data-link-type="dependency" data-source-line="81" id="lnk42"><path d="M809.15,678.8269 C809.15,737.0269 809.15,912.2969 809.15,912.2969 C809.15,912.2969 954.35,912.2969 1038.22,912.2969" fill="none" id="Controllers-to-DTOs" style="stroke:#181818;stroke-width:1;"/><polygon fill="#181818" points="1044.22,912.2969,1035.22,908.2969,1039.22,912.2969,1035.22,916.2969,1044.22,912.2969" style="stroke:#181818;stroke-width:1;"/></g><!--link Controllers to Services--><g class="link" data-entity-1="ent0013" data-entity-2="ent0017" data-link-type="dependency" data-source-line="82" id="lnk43"><path d="M862.15,678.8869 C862.15,713.9369 862.15,786.2969 862.15,786.2969 C862.15,786.2969 938.71,786.2969 1006.28,786.2969" fill="none" id="Controllers-to-Services" style="stroke:#181818;stroke-width:1;"/><polygon fill="#181818" points="1012.28,786.2969,1003.28,782.2969,1007.28,786.2969,1003.28,790.2969,1012.28,786.2969" style="stroke:#181818;stroke-width:1;"/></g><!--link Controllers to ExceptionHandler--><g class="link" data-entity-1="ent0013" data-entity-2="ent0024" data-link-type="dependency" data-source-line="84" id="lnk44"><path d="M914.6,660.2969 C942.83,660.2969 968.84,660.2969 998.16,660.2969" fill="none" id="Controllers-to-ExceptionHandler" style="stroke:#181818;stroke-width:1;stroke-dasharray:7,7;"/><polygon fill="#181818" points="1004.16,660.2969,995.16,656.2969,999.16,660.2969,995.16,664.2969,1004.16,660.2969" style="stroke:#181818;stroke-width:1;"/></g><!--reverse link Services to ServiceImpl--><g class="link" data-entity-1="ent0017" data-entity-2="ent0018" data-link-type="dependency" data-source-line="86" id="lnk45"><path d="M1190.95,786.2969 C1222.61,786.2969 1252.15,786.2969 1282.74,786.2969" fill="none" id="Services-backto-ServiceImpl" style="stroke:#181818;stroke-width:1;stroke-dasharray:7,7;"/><polygon fill="#181818" points="1184.95,786.2969,1193.95,790.2969,1189.95,786.2969,1193.95,782.2969,1184.95,786.2969" style="stroke:#181818;stroke-width:1;"/></g><!--link ServiceImpl to Repositories--><g class="link" data-entity-1="ent0018" data-entity-2="ent0020" data-link-type="dependency" data-source-line="88" id="lnk46"><path d="M1432.57,792.5769 C1519.49,792.5769 1651.15,792.5769 1651.15,792.5769 C1651.15,792.5769 1651.15,799.8369 1651.15,811.7569" fill="none" id="ServiceImpl-to-Repositories" style="stroke:#181818;stroke-width:1;"/><polygon fill="#181818" points="1651.15,817.7569,1655.15,808.7569,1651.15,812.7569,1647.15,808.7569,1651.15,817.7569" style="stroke:#181818;stroke-width:1;"/></g><!--link Repositories to Models--><g class="link" data-entity-1="ent0020" data-entity-2="ent0022" data-link-type="dependency" data-source-line="89" id="lnk47"><path d="M1717.33,836.2969 C1763.58,836.2969 1818.47,836.2969 1862.74,836.2969" fill="none" id="Repositories-to-Models" style="stroke:#181818;stroke-width:1;"/><polygon fill="#181818" points="1868.74,836.2969,1859.74,832.2969,1863.74,836.2969,1859.74,840.2969,1868.74,836.2969" style="stroke:#181818;stroke-width:1;"/></g><!--link Repositories to DB--><g class="link" data-entity-1="ent0020" data-entity-2="ent0025" data-link-type="dependency" data-source-line="90" id="lnk48"><path d="M1651.15,854.9169 C1651.15,899.7869 1651.15,1010.2469 1651.15,1010.2469 C1651.15,1010.2469 1790.86,1010.2469 1870.54,1010.2469" fill="none" id="Repositories-to-DB" style="stroke:#181818;stroke-width:1;"/><polygon fill="#181818" points="1876.54,1010.2469,1867.54,1006.2469,1871.54,1010.2469,1867.54,1014.2469,1876.54,1010.2469" style="stroke:#181818;stroke-width:1;"/></g><!--link ServiceImpl to PDFBox--><g class="link" data-entity-1="ent0018" data-entity-2="ent0029" data-link-type="dependency" data-source-line="92" id="lnk49"><path d="M1321.15,819.7969 C1321.15,926.6569 1321.15,1320.2969 1321.15,1320.2969 C1321.15,1320.2969 1482.89,1320.2969 1578.88,1320.2969" fill="none" id="ServiceImpl-to-PDFBox" style="stroke:#181818;stroke-width:1;"/><polygon fill="#181818" points="1584.88,1320.2969,1575.88,1316.2969,1579.88,1320.2969,1575.88,1324.2969,1584.88,1320.2969" style="stroke:#181818;stroke-width:1;"/></g><!--link ServiceImpl to POI--><g class="link" data-entity-1="ent0018" data-entity-2="ent0030" data-link-type="dependency" data-source-line="93" id="lnk50"><path d="M1358.15,819.9169 C1358.15,909.4769 1358.15,1194.2969 1358.15,1194.2969 C1358.15,1194.2969 1510.13,1194.2969 1593.75,1194.2969" fill="none" id="ServiceImpl-to-POI" style="stroke:#181818;stroke-width:1;"/><polygon fill="#181818" points="1599.75,1194.2969,1590.75,1190.2969,1594.75,1194.2969,1590.75,1198.2969,1599.75,1194.2969" style="stroke:#181818;stroke-width:1;"/></g><!--link ServiceImpl to Gemini--><g class="link" data-entity-1="ent0018" data-entity-2="ent0027" data-link-type="dependency" data-source-line="94" id="lnk51"><path d="M1395.15,819.8769 C1395.15,887.4069 1395.15,1060.2969 1395.15,1060.2969 C1395.15,1060.2969 1497.73,1060.2969 1573.23,1060.2969" fill="none" id="ServiceImpl-to-Gemini" style="stroke:#181818;stroke-width:1;"/><polygon fill="#181818" points="1579.23,1060.2969,1570.23,1056.2969,1574.23,1060.2969,1570.23,1064.2969,1579.23,1060.2969" style="stroke:#181818;stroke-width:1;"/></g><?plantuml-src TLJDSjem4BxxANReiHFQQsSwcN60fBHDe86q5owBhPXDXEIH10tfz67w29q-GbwiAyaOOnDVBEr---rg_wIuT-0q62fM3d8o8dEaLPBOHr8b6bp34hF7mkYDoWTQQWDlBiFNGDWLvledgGBkKLhHq6HwNMebb9kvdHJWsL4LiWcHf8JRbGAqSIlTTAnqBgmeuSFxXj2WUgo4YIF7f4F2WZK8kO31tf-mS0PVADyPJ1BC7CVTcs_yxnsCyat60PiUe8KWt2DkwEMlNgWxkq536Yv9eGoe6r8SMicPm490Ro39-u0VOhbGjuAjuIrSQEsiCrZsu5UImE7jq1ipsDpZim-n8W-qT-DZt9MmZbx-AO-R2UkF0STdorLfmmTeYl3ieSusQnPf6sbBgJ5lexyJUvRqZDdUnK1pN8ho64oykRRPNAnV_ZZA4281x23TvDK3qYppeIr9ajknvUz6aYxu85I-KBFI-Dxm-Ucc9jOeBIajIybUVFVr7t2BWVyQIR72snoIZoM6O8sMKXXF2N2SbwZqDUO-k1tDvlK3eurbYzzTqk5ySe9jidmGdDcenV1_nNucp9OoSOAZQW1ELYojnrKfh8ninsHTIk6BolLYaLqe6v5zOatJr2DF1tGhIcs9Mtjt8gPQIVoupzCqK1w4ufL7NlDKoXDq8-KeHvxOcYiWkopNgCI3zdaO6UChT8BiIkeboj5J9ahV49zGvQ7KpDeM1dxsaAF39LfsCDkKuRHGKsrTOSJiszTOkOiayKk5-RNcBGHNOasA89sEOmn7ewY4gKPbdFefjtx4kFldXhOKspFQU--HTceqLnBNVZk45wOcMz5MsmvzokbO2PWEBo_qK-2AnzEeoJX29c72uXuxEplt-yDlflqvkHk7us5TL89w8LJtmwXNWlOS9pL5ZTzFpfwhewX9EveMUqUVL6FULJGkGHbchosi9-X8q--VTtibsMFXOxz_D3z9un9OZoQXUGdQghSxSjzYRQQgiXqnLxCjYmtr7m00?></g></svg>